solid OpenSCAD_Model
  facet normal -1 0 0
    outer loop
      vertex -18.1865 -10.5 0
      vertex -18.1865 10.5 120
      vertex -18.1865 10.5 0
    endloop
  endfacet
  facet normal -1 -0 0
    outer loop
      vertex -18.1865 10.5 120
      vertex -18.1865 -10.5 0
      vertex -18.1865 -10.5 120
    endloop
  endfacet
  facet normal -0.5 0.866026 0
    outer loop
      vertex -0.615 20.6449 0
      vertex -18.1865 10.5 120
      vertex -0.615 20.6449 120
    endloop
  endfacet
  facet normal -0.5 0.866026 0
    outer loop
      vertex -18.1865 10.5 120
      vertex -0.615 20.6449 0
      vertex -18.1865 10.5 0
    endloop
  endfacet
  facet normal 0 0 1
    outer loop
      vertex 18.1865 -9.78986 120
      vertex 16.9565 -9.78986 120
      vertex 17.5715 -10.8551 120
    endloop
  endfacet
  facet normal 0 0 1
    outer loop
      vertex 2.80105e-07 -19.5797 120
      vertex 17.5715 -10.8551 120
      vertex 16.9565 -9.78986 120
    endloop
  endfacet
  facet normal -0 0 1
    outer loop
      vertex 2.80105e-07 -19.5797 120
      vertex -2.52615e-07 -21 120
      vertex 17.5715 -10.8551 120
    endloop
  endfacet
  facet normal 0 0 1
    outer loop
      vertex -16.9565 -9.78986 120
      vertex -2.52615e-07 -21 120
      vertex 2.80105e-07 -19.5797 120
    endloop
  endfacet
  facet normal 0 0 1
    outer loop
      vertex -16.9565 -9.78986 120
      vertex -18.1865 -10.5 120
      vertex -2.52615e-07 -21 120
    endloop
  endfacet
  facet normal 0 0 1
    outer loop
      vertex -18.1865 -10.5 120
      vertex -16.9565 -9.78986 120
      vertex -18.1865 10.5 120
    endloop
  endfacet
  facet normal 0 0 1
    outer loop
      vertex 35.7581 20.6449 120
      vertex 34.5281 20.6449 120
      vertex 35.1431 19.5797 120
    endloop
  endfacet
  facet normal 0 0 1
    outer loop
      vertex 34.5281 20.6449 120
      vertex 18.1865 9.78986 120
      vertex 35.1431 19.5797 120
    endloop
  endfacet
  facet normal 0 -0 1
    outer loop
      vertex 18.1865 9.78986 120
      vertex 34.5281 20.6449 120
      vertex 17.5715 10.8551 120
    endloop
  endfacet
  facet normal 0 0 1
    outer loop
      vertex 53.3296 9.78986 120
      vertex 52.0996 9.78986 120
      vertex 52.0996 -9.78986 120
    endloop
  endfacet
  facet normal 0 0 1
    outer loop
      vertex 35.7581 20.6449 120
      vertex 52.0996 9.78986 120
      vertex 52.7146 10.8551 120
    endloop
  endfacet
  facet normal 0 0 1
    outer loop
      vertex 35.7581 20.6449 120
      vertex 35.1431 19.5797 120
      vertex 52.0996 9.78986 120
    endloop
  endfacet
  facet normal 0 0 1
    outer loop
      vertex 35.7581 40.2246 120
      vertex 34.5281 40.2246 120
      vertex 35.7581 20.6449 120
    endloop
  endfacet
  facet normal 0 0 1
    outer loop
      vertex 34.5281 20.6449 120
      vertex 35.7581 20.6449 120
      vertex 34.5281 40.2246 120
    endloop
  endfacet
  facet normal -0 0 1
    outer loop
      vertex 17.5715 50.0145 120
      vertex 35.1431 41.2899 120
      vertex 17.5715 51.4348 120
    endloop
  endfacet
  facet normal 0 0 1
    outer loop
      vertex 35.1431 41.2899 120
      vertex 17.5715 50.0145 120
      vertex 34.5281 40.2246 120
    endloop
  endfacet
  facet normal 0 0 1
    outer loop
      vertex 17.5715 51.4348 120
      vertex 0.615 40.2246 120
      vertex 17.5715 50.0145 120
    endloop
  endfacet
  facet normal -0 0 1
    outer loop
      vertex -0.615 40.9348 120
      vertex 0.615 40.2246 120
      vertex 17.5715 51.4348 120
    endloop
  endfacet
  facet normal 0 0 1
    outer loop
      vertex 0.615 40.2246 120
      vertex -0.615 20.6449 120
      vertex 0.615001 20.6449 120
    endloop
  endfacet
  facet normal 0 0 1
    outer loop
      vertex 0.615001 20.6449 120
      vertex -0.615 20.6449 120
      vertex -2.80105e-07 19.5797 120
    endloop
  endfacet
  facet normal 0 0 1
    outer loop
      vertex -0.615 20.6449 120
      vertex -16.9565 9.78986 120
      vertex -2.80105e-07 19.5797 120
    endloop
  endfacet
  facet normal 0 0 1
    outer loop
      vertex -16.9565 9.78986 120
      vertex -18.1865 10.5 120
      vertex -16.9565 -9.78986 120
    endloop
  endfacet
  facet normal -0 0 1
    outer loop
      vertex -18.1865 10.5 120
      vertex -16.9565 9.78986 120
      vertex -0.615 20.6449 120
    endloop
  endfacet
  facet normal 0 0 1
    outer loop
      vertex 70.9011 40.9348 120
      vertex 69.6711 40.2246 120
      vertex 70.9011 19.9348 120
    endloop
  endfacet
  facet normal 0 0 1
    outer loop
      vertex 52.7146 51.4348 120
      vertex 69.6711 40.2246 120
      vertex 70.9011 40.9348 120
    endloop
  endfacet
  facet normal 0 0 1
    outer loop
      vertex 52.7146 51.4348 120
      vertex 52.7146 50.0145 120
      vertex 69.6711 40.2246 120
    endloop
  endfacet
  facet normal 0 0 1
    outer loop
      vertex 35.1431 41.2899 120
      vertex 52.7146 50.0145 120
      vertex 52.7146 51.4348 120
    endloop
  endfacet
  facet normal 0 0 1
    outer loop
      vertex 34.5281 40.2246 120
      vertex 35.7581 40.2246 120
      vertex 35.1431 41.2899 120
    endloop
  endfacet
  facet normal 0 0 1
    outer loop
      vertex 52.7146 50.0145 120
      vertex 35.1431 41.2899 120
      vertex 35.7581 40.2246 120
    endloop
  endfacet
  facet normal -0 0 1
    outer loop
      vertex 69.6711 20.6449 120
      vertex 70.9011 19.9348 120
      vertex 69.6711 40.2246 120
    endloop
  endfacet
  facet normal 0 0 1
    outer loop
      vertex 69.6711 20.6449 120
      vertex 53.3296 9.78986 120
      vertex 70.9011 19.9348 120
    endloop
  endfacet
  facet normal -0 0 1
    outer loop
      vertex 52.7146 10.8551 120
      vertex 53.3296 9.78986 120
      vertex 69.6711 20.6449 120
    endloop
  endfacet
  facet normal 0 0 1
    outer loop
      vertex 52.0996 9.78986 120
      vertex 53.3296 9.78986 120
      vertex 52.7146 10.8551 120
    endloop
  endfacet
  facet normal 0 0 1
    outer loop
      vertex 53.3296 9.78986 120
      vertex 52.0996 -9.78986 120
      vertex 53.3296 -10.5 120
    endloop
  endfacet
  facet normal 0 0 1
    outer loop
      vertex 35.1431 -19.5797 120
      vertex 53.3296 -10.5 120
      vertex 52.0996 -9.78986 120
    endloop
  endfacet
  facet normal -0 0 1
    outer loop
      vertex 35.1431 -19.5797 120
      vertex 35.1431 -21 120
      vertex 53.3296 -10.5 120
    endloop
  endfacet
  facet normal -0 0 1
    outer loop
      vertex 17.5715 -10.8551 120
      vertex 35.1431 -19.5797 120
      vertex 18.1865 -9.78986 120
    endloop
  endfacet
  facet normal 0 0 1
    outer loop
      vertex 16.9565 9.78986 120
      vertex 18.1865 9.78986 120
      vertex 17.5715 10.8551 120
    endloop
  endfacet
  facet normal 0 0 1
    outer loop
      vertex 35.1431 -19.5797 120
      vertex 17.5715 -10.8551 120
      vertex 35.1431 -21 120
    endloop
  endfacet
  facet normal 0 0 1
    outer loop
      vertex 18.1865 9.78986 120
      vertex 16.9565 9.78986 120
      vertex 18.1865 -9.78986 120
    endloop
  endfacet
  facet normal 0 0 1
    outer loop
      vertex 16.9565 -9.78986 120
      vertex 18.1865 -9.78986 120
      vertex 16.9565 9.78986 120
    endloop
  endfacet
  facet normal 0 0 1
    outer loop
      vertex 0.615001 20.6449 120
      vertex 16.9565 9.78986 120
      vertex 17.5715 10.8551 120
    endloop
  endfacet
  facet normal 0 0 1
    outer loop
      vertex 0.615001 20.6449 120
      vertex -2.80105e-07 19.5797 120
      vertex 16.9565 9.78986 120
    endloop
  endfacet
  facet normal 0 0 1
    outer loop
      vertex -0.615 20.6449 120
      vertex 0.615 40.2246 120
      vertex -0.615 40.9348 120
    endloop
  endfacet
  facet normal 0 0 -1
    outer loop
      vertex 17.5715 -10.8551 0
      vertex 53.3296 9.78986 0
      vertex 53.3296 -10.5 0
    endloop
  endfacet
  facet normal 0 0 -1
    outer loop
      vertex 17.5715 -10.8551 0
      vertex 53.3296 -10.5 0
      vertex 35.1431 -21 0
    endloop
  endfacet
  facet normal 0 0 -1
    outer loop
      vertex 53.3296 9.78986 0
      vertex 35.1431 41.2899 0
      vertex 52.7146 51.4348 0
    endloop
  endfacet
  facet normal -0 0 -1
    outer loop
      vertex 53.3296 9.78986 0
      vertex 17.5715 -10.8551 0
      vertex 35.1431 41.2899 0
    endloop
  endfacet
  facet normal 0 0 -1
    outer loop
      vertex -0.615 20.6449 0
      vertex 35.1431 41.2899 0
      vertex 17.5715 -10.8551 0
    endloop
  endfacet
  facet normal 0 0 -1
    outer loop
      vertex -0.615 20.6449 0
      vertex 17.5715 -10.8551 0
      vertex -2.52615e-07 -21 0
    endloop
  endfacet
  facet normal -0 0 -1
    outer loop
      vertex 35.1431 41.2899 0
      vertex -0.615 20.6449 0
      vertex 17.5715 51.4348 0
    endloop
  endfacet
  facet normal 0 0 -1
    outer loop
      vertex 17.5715 51.4348 0
      vertex -0.615 20.6449 0
      vertex -0.615 40.9348 0
    endloop
  endfacet
  facet normal 0 0 -1
    outer loop
      vertex -18.1865 -10.5 0
      vertex -0.615 20.6449 0
      vertex -2.52615e-07 -21 0
    endloop
  endfacet
  facet normal 0 0 -1
    outer loop
      vertex -0.615 20.6449 0
      vertex -18.1865 -10.5 0
      vertex -18.1865 10.5 0
    endloop
  endfacet
  facet normal 0 0 -1
    outer loop
      vertex 53.3296 9.78986 0
      vertex 70.9011 40.9348 0
      vertex 70.9011 19.9348 0
    endloop
  endfacet
  facet normal -0 0 -1
    outer loop
      vertex 70.9011 40.9348 0
      vertex 53.3296 9.78986 0
      vertex 52.7146 51.4348 0
    endloop
  endfacet
  facet normal 0.5 -0.866026 0
    outer loop
      vertex -2.52615e-07 -21 0
      vertex 17.5715 -10.8551 120
      vertex -2.52615e-07 -21 120
    endloop
  endfacet
  facet normal 0.5 -0.866026 0
    outer loop
      vertex 17.5715 -10.8551 120
      vertex -2.52615e-07 -21 0
      vertex 17.5715 -10.8551 0
    endloop
  endfacet
  facet normal -0.500001 -0.866025 0
    outer loop
      vertex -18.1865 -10.5 0
      vertex -2.52615e-07 -21 120
      vertex -18.1865 -10.5 120
    endloop
  endfacet
  facet normal -0.500001 -0.866025 -0
    outer loop
      vertex -2.52615e-07 -21 120
      vertex -18.1865 -10.5 0
      vertex -2.52615e-07 -21 0
    endloop
  endfacet
  facet normal -0.5 -0.866025 0
    outer loop
      vertex -2.80105e-07 19.5797 1.23
      vertex 16.9565 9.78986 120
      vertex -2.80105e-07 19.5797 120
    endloop
  endfacet
  facet normal -0.5 -0.866025 -0
    outer loop
      vertex 16.9565 9.78986 120
      vertex -2.80105e-07 19.5797 1.23
      vertex 16.9565 9.78986 1.23
    endloop
  endfacet
  facet normal 1 -0 0
    outer loop
      vertex -16.9565 -9.78986 120
      vertex -16.9565 9.78986 1.23
      vertex -16.9565 9.78986 120
    endloop
  endfacet
  facet normal 1 0 0
    outer loop
      vertex -16.9565 9.78986 1.23
      vertex -16.9565 -9.78986 120
      vertex -16.9565 -9.78986 1.23
    endloop
  endfacet
  facet normal 0.5 -0.866025 0
    outer loop
      vertex -16.9565 9.78986 1.23
      vertex -2.80105e-07 19.5797 120
      vertex -16.9565 9.78986 120
    endloop
  endfacet
  facet normal 0.5 -0.866025 0
    outer loop
      vertex -2.80105e-07 19.5797 120
      vertex -16.9565 9.78986 1.23
      vertex -2.80105e-07 19.5797 1.23
    endloop
  endfacet
  facet normal -1 0 0
    outer loop
      vertex 16.9565 -9.78986 1.23
      vertex 16.9565 9.78986 120
      vertex 16.9565 9.78986 1.23
    endloop
  endfacet
  facet normal -1 -0 0
    outer loop
      vertex 16.9565 9.78986 120
      vertex 16.9565 -9.78986 1.23
      vertex 16.9565 -9.78986 120
    endloop
  endfacet
  facet normal 0 0 1
    outer loop
      vertex 16.9565 9.78986 1.23
      vertex 2.80105e-07 -19.5797 1.23
      vertex 16.9565 -9.78986 1.23
    endloop
  endfacet
  facet normal 0 0 1
    outer loop
      vertex -2.80105e-07 19.5797 1.23
      vertex 2.80105e-07 -19.5797 1.23
      vertex 16.9565 9.78986 1.23
    endloop
  endfacet
  facet normal -0 0 1
    outer loop
      vertex -16.9565 9.78986 1.23
      vertex 2.80105e-07 -19.5797 1.23
      vertex -2.80105e-07 19.5797 1.23
    endloop
  endfacet
  facet normal 0 0 1
    outer loop
      vertex 2.80105e-07 -19.5797 1.23
      vertex -16.9565 9.78986 1.23
      vertex -16.9565 -9.78986 1.23
    endloop
  endfacet
  facet normal -0.5 0.866025 0
    outer loop
      vertex 16.9565 -9.78986 1.23
      vertex 2.80105e-07 -19.5797 120
      vertex 16.9565 -9.78986 120
    endloop
  endfacet
  facet normal -0.5 0.866025 0
    outer loop
      vertex 2.80105e-07 -19.5797 120
      vertex 16.9565 -9.78986 1.23
      vertex 2.80105e-07 -19.5797 1.23
    endloop
  endfacet
  facet normal 0.5 0.866025 -0
    outer loop
      vertex 2.80105e-07 -19.5797 1.23
      vertex -16.9565 -9.78986 120
      vertex 2.80105e-07 -19.5797 120
    endloop
  endfacet
  facet normal 0.5 0.866025 0
    outer loop
      vertex -16.9565 -9.78986 120
      vertex 2.80105e-07 -19.5797 1.23
      vertex -16.9565 -9.78986 1.23
    endloop
  endfacet
  facet normal 0.499997 0.866027 -0
    outer loop
      vertex 35.1431 41.2899 0
      vertex 17.5715 51.4348 120
      vertex 35.1431 41.2899 120
    endloop
  endfacet
  facet normal 0.499997 0.866027 0
    outer loop
      vertex 17.5715 51.4348 120
      vertex 35.1431 41.2899 0
      vertex 17.5715 51.4348 0
    endloop
  endfacet
  facet normal -1 0 0
    outer loop
      vertex -0.615 20.6449 0
      vertex -0.615 40.9348 120
      vertex -0.615 40.9348 0
    endloop
  endfacet
  facet normal -1 -0 0
    outer loop
      vertex -0.615 40.9348 120
      vertex -0.615 20.6449 0
      vertex -0.615 20.6449 120
    endloop
  endfacet
  facet normal -0.500001 0.866025 0
    outer loop
      vertex 17.5715 51.4348 0
      vertex -0.615 40.9348 120
      vertex 17.5715 51.4348 120
    endloop
  endfacet
  facet normal -0.500001 0.866025 0
    outer loop
      vertex -0.615 40.9348 120
      vertex 17.5715 51.4348 0
      vertex -0.615 40.9348 0
    endloop
  endfacet
  facet normal -0.5 -0.866025 0
    outer loop
      vertex 17.5715 50.0145 1.23
      vertex 34.5281 40.2246 120
      vertex 17.5715 50.0145 120
    endloop
  endfacet
  facet normal -0.5 -0.866025 -0
    outer loop
      vertex 34.5281 40.2246 120
      vertex 17.5715 50.0145 1.23
      vertex 34.5281 40.2246 1.23
    endloop
  endfacet
  facet normal 1 5.10733e-08 0
    outer loop
      vertex 0.615001 20.6449 120
      vertex 0.615 40.2246 1.23
      vertex 0.615 40.2246 120
    endloop
  endfacet
  facet normal 1 5.10733e-08 0
    outer loop
      vertex 0.615 40.2246 1.23
      vertex 0.615001 20.6449 120
      vertex 0.615001 20.6449 1.23
    endloop
  endfacet
  facet normal 0.500002 -0.866024 0
    outer loop
      vertex 0.615 40.2246 1.23
      vertex 17.5715 50.0145 120
      vertex 0.615 40.2246 120
    endloop
  endfacet
  facet normal 0.500002 -0.866024 0
    outer loop
      vertex 17.5715 50.0145 120
      vertex 0.615 40.2246 1.23
      vertex 17.5715 50.0145 1.23
    endloop
  endfacet
  facet normal -1 0 0
    outer loop
      vertex 34.5281 20.6449 1.23
      vertex 34.5281 40.2246 120
      vertex 34.5281 40.2246 1.23
    endloop
  endfacet
  facet normal -1 -0 0
    outer loop
      vertex 34.5281 40.2246 120
      vertex 34.5281 20.6449 1.23
      vertex 34.5281 20.6449 120
    endloop
  endfacet
  facet normal 0 0 1
    outer loop
      vertex 17.5715 50.0145 1.23
      vertex 34.5281 20.6449 1.23
      vertex 34.5281 40.2246 1.23
    endloop
  endfacet
  facet normal 0 0 1
    outer loop
      vertex 17.5715 50.0145 1.23
      vertex 17.5715 10.8551 1.23
      vertex 34.5281 20.6449 1.23
    endloop
  endfacet
  facet normal 0 0 1
    outer loop
      vertex 17.5715 50.0145 1.23
      vertex 0.615001 20.6449 1.23
      vertex 17.5715 10.8551 1.23
    endloop
  endfacet
  facet normal 0 -0 1
    outer loop
      vertex 0.615001 20.6449 1.23
      vertex 17.5715 50.0145 1.23
      vertex 0.615 40.2246 1.23
    endloop
  endfacet
  facet normal -0.499996 0.866028 0
    outer loop
      vertex 34.5281 20.6449 1.23
      vertex 17.5715 10.8551 120
      vertex 34.5281 20.6449 120
    endloop
  endfacet
  facet normal -0.499996 0.866028 0
    outer loop
      vertex 17.5715 10.8551 120
      vertex 34.5281 20.6449 1.23
      vertex 17.5715 10.8551 1.23
    endloop
  endfacet
  facet normal 0.499998 0.866026 -0
    outer loop
      vertex 17.5715 10.8551 1.23
      vertex 0.615001 20.6449 120
      vertex 17.5715 10.8551 120
    endloop
  endfacet
  facet normal 0.499998 0.866026 0
    outer loop
      vertex 0.615001 20.6449 120
      vertex 17.5715 10.8551 1.23
      vertex 0.615001 20.6449 1.23
    endloop
  endfacet
  facet normal 1 -0 0
    outer loop
      vertex 53.3296 -10.5 120
      vertex 53.3296 9.78986 0
      vertex 53.3296 9.78986 120
    endloop
  endfacet
  facet normal 1 0 0
    outer loop
      vertex 53.3296 9.78986 0
      vertex 53.3296 -10.5 120
      vertex 53.3296 -10.5 0
    endloop
  endfacet
  facet normal 0.500001 -0.866025 0
    outer loop
      vertex 35.1431 -21 0
      vertex 53.3296 -10.5 120
      vertex 35.1431 -21 120
    endloop
  endfacet
  facet normal 0.500001 -0.866025 0
    outer loop
      vertex 53.3296 -10.5 120
      vertex 35.1431 -21 0
      vertex 53.3296 -10.5 0
    endloop
  endfacet
  facet normal -0.499997 -0.866027 0
    outer loop
      vertex 17.5715 -10.8551 0
      vertex 35.1431 -21 120
      vertex 17.5715 -10.8551 120
    endloop
  endfacet
  facet normal -0.499997 -0.866027 -0
    outer loop
      vertex 35.1431 -21 120
      vertex 17.5715 -10.8551 0
      vertex 35.1431 -21 0
    endloop
  endfacet
  facet normal -0.5 -0.866025 0
    outer loop
      vertex 35.1431 19.5797 1.23
      vertex 52.0996 9.78986 120
      vertex 35.1431 19.5797 120
    endloop
  endfacet
  facet normal -0.5 -0.866025 -0
    outer loop
      vertex 52.0996 9.78986 120
      vertex 35.1431 19.5797 1.23
      vertex 52.0996 9.78986 1.23
    endloop
  endfacet
  facet normal 1 -0 0
    outer loop
      vertex 18.1865 -9.78986 120
      vertex 18.1865 9.78986 1.23
      vertex 18.1865 9.78986 120
    endloop
  endfacet
  facet normal 1 0 0
    outer loop
      vertex 18.1865 9.78986 1.23
      vertex 18.1865 -9.78986 120
      vertex 18.1865 -9.78986 1.23
    endloop
  endfacet
  facet normal 0.499998 -0.866027 0
    outer loop
      vertex 18.1865 9.78986 1.23
      vertex 35.1431 19.5797 120
      vertex 18.1865 9.78986 120
    endloop
  endfacet
  facet normal 0.499998 -0.866027 0
    outer loop
      vertex 35.1431 19.5797 120
      vertex 18.1865 9.78986 1.23
      vertex 35.1431 19.5797 1.23
    endloop
  endfacet
  facet normal -1 0 0
    outer loop
      vertex 52.0996 -9.78986 1.23
      vertex 52.0996 9.78986 120
      vertex 52.0996 9.78986 1.23
    endloop
  endfacet
  facet normal -1 -0 0
    outer loop
      vertex 52.0996 9.78986 120
      vertex 52.0996 -9.78986 1.23
      vertex 52.0996 -9.78986 120
    endloop
  endfacet
  facet normal 0 0 1
    outer loop
      vertex 35.1431 19.5797 1.23
      vertex 52.0996 -9.78986 1.23
      vertex 52.0996 9.78986 1.23
    endloop
  endfacet
  facet normal 0 0 1
    outer loop
      vertex 35.1431 19.5797 1.23
      vertex 35.1431 -19.5797 1.23
      vertex 52.0996 -9.78986 1.23
    endloop
  endfacet
  facet normal 0 0 1
    outer loop
      vertex 35.1431 19.5797 1.23
      vertex 18.1865 -9.78986 1.23
      vertex 35.1431 -19.5797 1.23
    endloop
  endfacet
  facet normal 0 0 1
    outer loop
      vertex 18.1865 -9.78986 1.23
      vertex 35.1431 19.5797 1.23
      vertex 18.1865 9.78986 1.23
    endloop
  endfacet
  facet normal -0.5 0.866025 0
    outer loop
      vertex 52.0996 -9.78986 1.23
      vertex 35.1431 -19.5797 120
      vertex 52.0996 -9.78986 120
    endloop
  endfacet
  facet normal -0.5 0.866025 0
    outer loop
      vertex 35.1431 -19.5797 120
      vertex 52.0996 -9.78986 1.23
      vertex 35.1431 -19.5797 1.23
    endloop
  endfacet
  facet normal 0.499998 0.866027 -0
    outer loop
      vertex 35.1431 -19.5797 1.23
      vertex 18.1865 -9.78986 120
      vertex 35.1431 -19.5797 120
    endloop
  endfacet
  facet normal 0.499998 0.866027 0
    outer loop
      vertex 18.1865 -9.78986 120
      vertex 35.1431 -19.5797 1.23
      vertex 18.1865 -9.78986 1.23
    endloop
  endfacet
  facet normal 0.500001 0.866025 -0
    outer loop
      vertex 70.9011 40.9348 0
      vertex 52.7146 51.4348 120
      vertex 70.9011 40.9348 120
    endloop
  endfacet
  facet normal 0.500001 0.866025 0
    outer loop
      vertex 52.7146 51.4348 120
      vertex 70.9011 40.9348 0
      vertex 52.7146 51.4348 0
    endloop
  endfacet
  facet normal -0.5 0.866026 0
    outer loop
      vertex 52.7146 51.4348 0
      vertex 35.1431 41.2899 120
      vertex 52.7146 51.4348 120
    endloop
  endfacet
  facet normal -0.5 0.866026 0
    outer loop
      vertex 35.1431 41.2899 120
      vertex 52.7146 51.4348 0
      vertex 35.1431 41.2899 0
    endloop
  endfacet
  facet normal 1 -0 0
    outer loop
      vertex 70.9011 19.9348 120
      vertex 70.9011 40.9348 0
      vertex 70.9011 40.9348 120
    endloop
  endfacet
  facet normal 1 0 0
    outer loop
      vertex 70.9011 40.9348 0
      vertex 70.9011 19.9348 120
      vertex 70.9011 19.9348 0
    endloop
  endfacet
  facet normal 0.500001 -0.866025 0
    outer loop
      vertex 53.3296 9.78986 0
      vertex 70.9011 19.9348 120
      vertex 53.3296 9.78986 120
    endloop
  endfacet
  facet normal 0.500001 -0.866025 0
    outer loop
      vertex 70.9011 19.9348 120
      vertex 53.3296 9.78986 0
      vertex 70.9011 19.9348 0
    endloop
  endfacet
  facet normal -0.500002 -0.866024 0
    outer loop
      vertex 52.7146 50.0145 1.23
      vertex 69.6711 40.2246 120
      vertex 52.7146 50.0145 120
    endloop
  endfacet
  facet normal -0.500002 -0.866024 -0
    outer loop
      vertex 69.6711 40.2246 120
      vertex 52.7146 50.0145 1.23
      vertex 69.6711 40.2246 1.23
    endloop
  endfacet
  facet normal 1 -0 0
    outer loop
      vertex 35.7581 20.6449 120
      vertex 35.7581 40.2246 1.23
      vertex 35.7581 40.2246 120
    endloop
  endfacet
  facet normal 1 0 0
    outer loop
      vertex 35.7581 40.2246 1.23
      vertex 35.7581 20.6449 120
      vertex 35.7581 20.6449 1.23
    endloop
  endfacet
  facet normal 0.500002 -0.866024 0
    outer loop
      vertex 35.7581 40.2246 1.23
      vertex 52.7146 50.0145 120
      vertex 35.7581 40.2246 120
    endloop
  endfacet
  facet normal 0.500002 -0.866024 0
    outer loop
      vertex 52.7146 50.0145 120
      vertex 35.7581 40.2246 1.23
      vertex 52.7146 50.0145 1.23
    endloop
  endfacet
  facet normal -1 0 0
    outer loop
      vertex 69.6711 20.6449 1.23
      vertex 69.6711 40.2246 120
      vertex 69.6711 40.2246 1.23
    endloop
  endfacet
  facet normal -1 -0 0
    outer loop
      vertex 69.6711 40.2246 120
      vertex 69.6711 20.6449 1.23
      vertex 69.6711 20.6449 120
    endloop
  endfacet
  facet normal 0 0 1
    outer loop
      vertex 52.7146 50.0145 1.23
      vertex 69.6711 20.6449 1.23
      vertex 69.6711 40.2246 1.23
    endloop
  endfacet
  facet normal 0 0 1
    outer loop
      vertex 52.7146 50.0145 1.23
      vertex 52.7146 10.8551 1.23
      vertex 69.6711 20.6449 1.23
    endloop
  endfacet
  facet normal -0 0 1
    outer loop
      vertex 35.7581 40.2246 1.23
      vertex 52.7146 10.8551 1.23
      vertex 52.7146 50.0145 1.23
    endloop
  endfacet
  facet normal 0 0 1
    outer loop
      vertex 52.7146 10.8551 1.23
      vertex 35.7581 40.2246 1.23
      vertex 35.7581 20.6449 1.23
    endloop
  endfacet
  facet normal -0.499998 0.866026 0
    outer loop
      vertex 69.6711 20.6449 1.23
      vertex 52.7146 10.8551 120
      vertex 69.6711 20.6449 120
    endloop
  endfacet
  facet normal -0.499998 0.866026 0
    outer loop
      vertex 52.7146 10.8551 120
      vertex 69.6711 20.6449 1.23
      vertex 52.7146 10.8551 1.23
    endloop
  endfacet
  facet normal 0.499998 0.866026 -0
    outer loop
      vertex 52.7146 10.8551 1.23
      vertex 35.7581 20.6449 120
      vertex 52.7146 10.8551 120
    endloop
  endfacet
  facet normal 0.499998 0.866026 0
    outer loop
      vertex 35.7581 20.6449 120
      vertex 52.7146 10.8551 1.23
      vertex 35.7581 20.6449 1.23
    endloop
  endfacet
endsolid OpenSCAD_Model
