solid OpenSCAD_Model
  facet normal 0.499991 0.866031 -0
    outer loop
      vertex 0.779789 20.5498 0
      vertex 2.52615e-07 21 120
      vertex 0.779789 20.5498 120
    endloop
  endfacet
  facet normal 0.499991 0.866031 0
    outer loop
      vertex 2.52615e-07 21 120
      vertex 0.779789 20.5498 0
      vertex 2.52615e-07 21 0
    endloop
  endfacet
  facet normal 0.500001 0.866025 -0
    outer loop
      vertex 18.1865 10.5 1.23
      vertex 2.91021 19.3198 120
      vertex 18.1865 10.5 120
    endloop
  endfacet
  facet normal 0.500001 0.866025 0
    outer loop
      vertex 2.91021 19.3198 120
      vertex 18.1865 10.5 1.23
      vertex 2.91021 19.3198 1.23
    endloop
  endfacet
  facet normal -0.499991 0.866031 0
    outer loop
      vertex 2.52615e-07 21 0
      vertex -0.779788 20.5498 120
      vertex 2.52615e-07 21 120
    endloop
  endfacet
  facet normal -0.499991 0.866031 0
    outer loop
      vertex -0.779788 20.5498 120
      vertex 2.52615e-07 21 0
      vertex -0.779788 20.5498 0
    endloop
  endfacet
  facet normal -0.500003 0.866024 0
    outer loop
      vertex -2.91021 19.3198 1.23
      vertex -16.9565 11.2101 120
      vertex -2.91021 19.3198 120
    endloop
  endfacet
  facet normal -0.500003 0.866024 0
    outer loop
      vertex -16.9565 11.2101 120
      vertex -2.91021 19.3198 1.23
      vertex -16.9565 11.2101 1.23
    endloop
  endfacet
  facet normal -0 0 1
    outer loop
      vertex -18.1865 20.5498 120
      vertex -2.91021 19.3198 120
      vertex -0.779788 20.5498 120
    endloop
  endfacet
  facet normal 0 0 1
    outer loop
      vertex -18.1865 20.5498 120
      vertex -16.9565 11.2101 120
      vertex -16.9565 19.3198 120
    endloop
  endfacet
  facet normal 0 0 1
    outer loop
      vertex -16.9565 11.2101 120
      vertex -18.1865 20.5498 120
      vertex -16.9565 9.78986 120
    endloop
  endfacet
  facet normal 0 0 1
    outer loop
      vertex -16.9565 9.78986 120
      vertex -18.1865 -10.5 120
      vertex -16.9565 -9.78986 120
    endloop
  endfacet
  facet normal 0 0 1
    outer loop
      vertex -16.9565 -9.78986 120
      vertex -18.1865 -10.5 120
      vertex -16.9565 -11.2101 120
    endloop
  endfacet
  facet normal 0 0 1
    outer loop
      vertex -16.9565 9.78986 120
      vertex -18.1865 20.5498 120
      vertex -18.1865 -10.5 120
    endloop
  endfacet
  facet normal 0 0 1
    outer loop
      vertex -2.91021 19.3198 120
      vertex -18.1865 20.5498 120
      vertex -16.9565 19.3198 120
    endloop
  endfacet
  facet normal 0 0 1
    outer loop
      vertex -16.9565 -9.78986 120
      vertex -2.13042 -19.77 120
      vertex 2.80105e-07 -19.5797 120
    endloop
  endfacet
  facet normal 0 0 1
    outer loop
      vertex -2.13042 -19.77 120
      vertex -16.9565 -9.78986 120
      vertex -16.9565 -11.2101 120
    endloop
  endfacet
  facet normal 0 0 1
    outer loop
      vertex 36.6806 20.5498 120
      vertex 35.4506 19.3198 120
      vertex 36.6806 -21 120
    endloop
  endfacet
  facet normal 0 0 1
    outer loop
      vertex 36.6806 20.5498 120
      vertex 2.91021 19.3198 120
      vertex 35.4506 19.3198 120
    endloop
  endfacet
  facet normal 0 -0 1
    outer loop
      vertex 2.91021 19.3198 120
      vertex 36.6806 20.5498 120
      vertex 0.779789 20.5498 120
    endloop
  endfacet
  facet normal -0 0 1
    outer loop
      vertex 35.4506 -19.77 120
      vertex 36.6806 -21 120
      vertex 35.4506 19.3198 120
    endloop
  endfacet
  facet normal -0 0 1
    outer loop
      vertex 2.13042 -19.77 120
      vertex 36.6806 -21 120
      vertex 35.4506 -19.77 120
    endloop
  endfacet
  facet normal 0 0 1
    outer loop
      vertex -2.13042 -19.77 120
      vertex 2.13042 -19.77 120
      vertex 2.80105e-07 -19.5797 120
    endloop
  endfacet
  facet normal 0 0 1
    outer loop
      vertex -18.1865 -21 120
      vertex 2.13042 -19.77 120
      vertex -2.13042 -19.77 120
    endloop
  endfacet
  facet normal 0 0 1
    outer loop
      vertex -18.1865 -21 120
      vertex -2.13042 -19.77 120
      vertex -16.9565 -19.77 120
    endloop
  endfacet
  facet normal 0 0 1
    outer loop
      vertex -16.9565 -11.2101 120
      vertex -18.1865 -10.5 120
      vertex -16.9565 -19.77 120
    endloop
  endfacet
  facet normal 0 0 1
    outer loop
      vertex 2.13042 -19.77 120
      vertex -18.1865 -21 120
      vertex 36.6806 -21 120
    endloop
  endfacet
  facet normal 0 0 1
    outer loop
      vertex -18.1865 -21 120
      vertex -16.9565 -19.77 120
      vertex -18.1865 -10.5 120
    endloop
  endfacet
  facet normal 0 0 1
    outer loop
      vertex 18.1865 10.5 120
      vertex 16.9565 9.78986 120
      vertex 18.1865 -10.5 120
    endloop
  endfacet
  facet normal 0 0 1
    outer loop
      vertex 2.91021 19.3198 120
      vertex 16.9565 9.78986 120
      vertex 18.1865 10.5 120
    endloop
  endfacet
  facet normal 0 0 1
    outer loop
      vertex 0.450212 19.3198 120
      vertex 2.91021 19.3198 120
      vertex 0.779789 20.5498 120
    endloop
  endfacet
  facet normal 0 0 1
    outer loop
      vertex 2.91021 19.3198 120
      vertex 0.450212 19.3198 120
      vertex 16.9565 9.78986 120
    endloop
  endfacet
  facet normal 0 0 1
    outer loop
      vertex 2.52615e-07 21 120
      vertex 0.450212 19.3198 120
      vertex 0.779789 20.5498 120
    endloop
  endfacet
  facet normal 0 0 1
    outer loop
      vertex 2.52615e-07 21 120
      vertex -0.450212 19.3198 120
      vertex 0.450212 19.3198 120
    endloop
  endfacet
  facet normal -0 0 1
    outer loop
      vertex -0.779788 20.5498 120
      vertex -0.450212 19.3198 120
      vertex 2.52615e-07 21 120
    endloop
  endfacet
  facet normal 0 0 1
    outer loop
      vertex -2.91021 19.3198 120
      vertex -0.450212 19.3198 120
      vertex -0.779788 20.5498 120
    endloop
  endfacet
  facet normal 0 0 1
    outer loop
      vertex -16.9565 9.78986 120
      vertex -2.91021 19.3198 120
      vertex -16.9565 11.2101 120
    endloop
  endfacet
  facet normal -0 0 1
    outer loop
      vertex -2.91021 19.3198 120
      vertex -16.9565 9.78986 120
      vertex -0.450212 19.3198 120
    endloop
  endfacet
  facet normal -0 0 1
    outer loop
      vertex 16.9565 -9.78986 120
      vertex 18.1865 -10.5 120
      vertex 16.9565 9.78986 120
    endloop
  endfacet
  facet normal 0 0 1
    outer loop
      vertex 16.9565 -9.78986 120
      vertex 2.13042 -19.77 120
      vertex 18.1865 -10.5 120
    endloop
  endfacet
  facet normal 0 -0 1
    outer loop
      vertex 2.13042 -19.77 120
      vertex 16.9565 -9.78986 120
      vertex 2.80105e-07 -19.5797 120
    endloop
  endfacet
  facet normal 1 -0 0
    outer loop
      vertex 18.1865 -10.5 120
      vertex 18.1865 10.5 1.23
      vertex 18.1865 10.5 120
    endloop
  endfacet
  facet normal 1 0 0
    outer loop
      vertex 18.1865 10.5 1.23
      vertex 18.1865 -10.5 120
      vertex 18.1865 -10.5 1.23
    endloop
  endfacet
  facet normal 0 0 -1
    outer loop
      vertex 36.6806 -21 0
      vertex 0.779789 20.5498 0
      vertex 36.6806 20.5498 0
    endloop
  endfacet
  facet normal 0 0 -1
    outer loop
      vertex -18.1865 -10.5 0
      vertex 0.779789 20.5498 0
      vertex 36.6806 -21 0
    endloop
  endfacet
  facet normal 0 0 -1
    outer loop
      vertex 0.779789 20.5498 0
      vertex -0.779788 20.5498 0
      vertex 2.52615e-07 21 0
    endloop
  endfacet
  facet normal 0 0 -1
    outer loop
      vertex -18.1865 -10.5 0
      vertex 36.6806 -21 0
      vertex -18.1865 -21 0
    endloop
  endfacet
  facet normal -0 0 -1
    outer loop
      vertex 0.779789 20.5498 0
      vertex -18.1865 -10.5 0
      vertex -0.779788 20.5498 0
    endloop
  endfacet
  facet normal -0 0 -1
    outer loop
      vertex -0.779788 20.5498 0
      vertex -18.1865 -10.5 0
      vertex -18.1865 20.5498 0
    endloop
  endfacet
  facet normal 0.500001 -0.866025 0
    outer loop
      vertex 2.13042 -19.77 1.23
      vertex 18.1865 -10.5 120
      vertex 2.13042 -19.77 120
    endloop
  endfacet
  facet normal 0.500001 -0.866025 0
    outer loop
      vertex 18.1865 -10.5 120
      vertex 2.13042 -19.77 1.23
      vertex 18.1865 -10.5 1.23
    endloop
  endfacet
  facet normal -0.500003 -0.866024 0
    outer loop
      vertex -16.9565 -11.2101 1.23
      vertex -2.13042 -19.77 120
      vertex -16.9565 -11.2101 120
    endloop
  endfacet
  facet normal -0.500003 -0.866024 -0
    outer loop
      vertex -2.13042 -19.77 120
      vertex -16.9565 -11.2101 1.23
      vertex -2.13042 -19.77 1.23
    endloop
  endfacet
  facet normal -0.500001 -0.866025 0
    outer loop
      vertex 0.450212 19.3198 1.23
      vertex 16.9565 9.78986 120
      vertex 0.450212 19.3198 120
    endloop
  endfacet
  facet normal -0.500001 -0.866025 -0
    outer loop
      vertex 16.9565 9.78986 120
      vertex 0.450212 19.3198 1.23
      vertex 16.9565 9.78986 1.23
    endloop
  endfacet
  facet normal 1 -0 0
    outer loop
      vertex -16.9565 -9.78986 120
      vertex -16.9565 9.78986 1.23
      vertex -16.9565 9.78986 120
    endloop
  endfacet
  facet normal 1 0 0
    outer loop
      vertex -16.9565 9.78986 1.23
      vertex -16.9565 -9.78986 120
      vertex -16.9565 -9.78986 1.23
    endloop
  endfacet
  facet normal 0.500001 -0.866025 0
    outer loop
      vertex -16.9565 9.78986 1.23
      vertex -0.450212 19.3198 120
      vertex -16.9565 9.78986 120
    endloop
  endfacet
  facet normal 0.500001 -0.866025 0
    outer loop
      vertex -0.450212 19.3198 120
      vertex -16.9565 9.78986 1.23
      vertex -0.450212 19.3198 1.23
    endloop
  endfacet
  facet normal 0 0 1
    outer loop
      vertex -2.13042 -19.77 1.23
      vertex -16.9565 -11.2101 1.23
      vertex -16.9565 -19.77 1.23
    endloop
  endfacet
  facet normal 0 0 1
    outer loop
      vertex 18.1865 -10.5 1.23
      vertex 35.4506 19.3198 1.23
      vertex 18.1865 10.5 1.23
    endloop
  endfacet
  facet normal 0 -0 1
    outer loop
      vertex 18.1865 10.5 1.23
      vertex 35.4506 19.3198 1.23
      vertex 2.91021 19.3198 1.23
    endloop
  endfacet
  facet normal 0 0 1
    outer loop
      vertex 35.4506 19.3198 1.23
      vertex 18.1865 -10.5 1.23
      vertex 35.4506 -19.77 1.23
    endloop
  endfacet
  facet normal 0 0 1
    outer loop
      vertex 35.4506 -19.77 1.23
      vertex 18.1865 -10.5 1.23
      vertex 2.13042 -19.77 1.23
    endloop
  endfacet
  facet normal 0 0 1
    outer loop
      vertex -2.91021 19.3198 1.23
      vertex -16.9565 19.3198 1.23
      vertex -16.9565 11.2101 1.23
    endloop
  endfacet
  facet normal 0 0 1
    outer loop
      vertex 0.450212 19.3198 1.23
      vertex 16.9565 -9.78986 1.23
      vertex 16.9565 9.78986 1.23
    endloop
  endfacet
  facet normal 0 0 1
    outer loop
      vertex 0.450212 19.3198 1.23
      vertex 2.80105e-07 -19.5797 1.23
      vertex 16.9565 -9.78986 1.23
    endloop
  endfacet
  facet normal -0 0 1
    outer loop
      vertex -0.450212 19.3198 1.23
      vertex 2.80105e-07 -19.5797 1.23
      vertex 0.450212 19.3198 1.23
    endloop
  endfacet
  facet normal 0 0 1
    outer loop
      vertex -16.9565 -9.78986 1.23
      vertex -0.450212 19.3198 1.23
      vertex -16.9565 9.78986 1.23
    endloop
  endfacet
  facet normal 0 0 1
    outer loop
      vertex -0.450212 19.3198 1.23
      vertex -16.9565 -9.78986 1.23
      vertex 2.80105e-07 -19.5797 1.23
    endloop
  endfacet
  facet normal -0.5 0.866025 0
    outer loop
      vertex 16.9565 -9.78986 1.23
      vertex 2.80105e-07 -19.5797 120
      vertex 16.9565 -9.78986 120
    endloop
  endfacet
  facet normal -0.5 0.866025 0
    outer loop
      vertex 2.80105e-07 -19.5797 120
      vertex 16.9565 -9.78986 1.23
      vertex 2.80105e-07 -19.5797 1.23
    endloop
  endfacet
  facet normal 0.5 0.866025 -0
    outer loop
      vertex 2.80105e-07 -19.5797 1.23
      vertex -16.9565 -9.78986 120
      vertex 2.80105e-07 -19.5797 120
    endloop
  endfacet
  facet normal 0.5 0.866025 0
    outer loop
      vertex -16.9565 -9.78986 120
      vertex 2.80105e-07 -19.5797 1.23
      vertex -16.9565 -9.78986 1.23
    endloop
  endfacet
  facet normal -1 0 0
    outer loop
      vertex 16.9565 -9.78986 1.23
      vertex 16.9565 9.78986 120
      vertex 16.9565 9.78986 1.23
    endloop
  endfacet
  facet normal -1 -0 0
    outer loop
      vertex 16.9565 9.78986 120
      vertex 16.9565 -9.78986 1.23
      vertex 16.9565 -9.78986 120
    endloop
  endfacet
  facet normal -1 0 0
    outer loop
      vertex -18.1865 -21 0
      vertex -18.1865 -10.5 120
      vertex -18.1865 -10.5 0
    endloop
  endfacet
  facet normal -1 -0 0
    outer loop
      vertex -18.1865 -10.5 120
      vertex -18.1865 -21 0
      vertex -18.1865 -21 120
    endloop
  endfacet
  facet normal -1 0 0
    outer loop
      vertex -18.1865 -10.5 0
      vertex -18.1865 20.5498 120
      vertex -18.1865 20.5498 0
    endloop
  endfacet
  facet normal -1 -0 0
    outer loop
      vertex -18.1865 20.5498 120
      vertex -18.1865 -10.5 0
      vertex -18.1865 -10.5 120
    endloop
  endfacet
  facet normal 1 -0 0
    outer loop
      vertex 36.6806 -21 120
      vertex 36.6806 20.5498 0
      vertex 36.6806 20.5498 120
    endloop
  endfacet
  facet normal 1 0 0
    outer loop
      vertex 36.6806 20.5498 0
      vertex 36.6806 -21 120
      vertex 36.6806 -21 0
    endloop
  endfacet
  facet normal 0 1 -0
    outer loop
      vertex 36.6806 20.5498 0
      vertex 0.779789 20.5498 120
      vertex 36.6806 20.5498 120
    endloop
  endfacet
  facet normal 0 1 0
    outer loop
      vertex 0.779789 20.5498 120
      vertex 36.6806 20.5498 0
      vertex 0.779789 20.5498 0
    endloop
  endfacet
  facet normal 0 1 -0
    outer loop
      vertex -0.779788 20.5498 0
      vertex -18.1865 20.5498 120
      vertex -0.779788 20.5498 120
    endloop
  endfacet
  facet normal 0 1 0
    outer loop
      vertex -18.1865 20.5498 120
      vertex -0.779788 20.5498 0
      vertex -18.1865 20.5498 0
    endloop
  endfacet
  facet normal 0 -1 0
    outer loop
      vertex -18.1865 -21 0
      vertex 36.6806 -21 120
      vertex -18.1865 -21 120
    endloop
  endfacet
  facet normal 0 -1 -0
    outer loop
      vertex 36.6806 -21 120
      vertex -18.1865 -21 0
      vertex 36.6806 -21 0
    endloop
  endfacet
  facet normal 1 -0 0
    outer loop
      vertex -16.9565 -19.77 120
      vertex -16.9565 -11.2101 1.23
      vertex -16.9565 -11.2101 120
    endloop
  endfacet
  facet normal 1 0 0
    outer loop
      vertex -16.9565 -11.2101 1.23
      vertex -16.9565 -19.77 120
      vertex -16.9565 -19.77 1.23
    endloop
  endfacet
  facet normal 1 -0 0
    outer loop
      vertex -16.9565 11.2101 120
      vertex -16.9565 19.3198 1.23
      vertex -16.9565 19.3198 120
    endloop
  endfacet
  facet normal 1 0 0
    outer loop
      vertex -16.9565 19.3198 1.23
      vertex -16.9565 11.2101 120
      vertex -16.9565 11.2101 1.23
    endloop
  endfacet
  facet normal -1 0 0
    outer loop
      vertex 35.4506 -19.77 1.23
      vertex 35.4506 19.3198 120
      vertex 35.4506 19.3198 1.23
    endloop
  endfacet
  facet normal -1 -0 0
    outer loop
      vertex 35.4506 19.3198 120
      vertex 35.4506 -19.77 1.23
      vertex 35.4506 -19.77 120
    endloop
  endfacet
  facet normal 0 -1 0
    outer loop
      vertex 2.91021 19.3198 1.23
      vertex 35.4506 19.3198 120
      vertex 2.91021 19.3198 120
    endloop
  endfacet
  facet normal 0 -1 -0
    outer loop
      vertex 35.4506 19.3198 120
      vertex 2.91021 19.3198 1.23
      vertex 35.4506 19.3198 1.23
    endloop
  endfacet
  facet normal 0 -1 0
    outer loop
      vertex -16.9565 19.3198 1.23
      vertex -2.91021 19.3198 120
      vertex -16.9565 19.3198 120
    endloop
  endfacet
  facet normal 0 -1 -0
    outer loop
      vertex -2.91021 19.3198 120
      vertex -16.9565 19.3198 1.23
      vertex -2.91021 19.3198 1.23
    endloop
  endfacet
  facet normal 0 -1 0
    outer loop
      vertex -0.450212 19.3198 1.23
      vertex 0.450212 19.3198 120
      vertex -0.450212 19.3198 120
    endloop
  endfacet
  facet normal 0 -1 -0
    outer loop
      vertex 0.450212 19.3198 120
      vertex -0.450212 19.3198 1.23
      vertex 0.450212 19.3198 1.23
    endloop
  endfacet
  facet normal 0 1 -0
    outer loop
      vertex -2.13042 -19.77 1.23
      vertex -16.9565 -19.77 120
      vertex -2.13042 -19.77 120
    endloop
  endfacet
  facet normal 0 1 0
    outer loop
      vertex -16.9565 -19.77 120
      vertex -2.13042 -19.77 1.23
      vertex -16.9565 -19.77 1.23
    endloop
  endfacet
  facet normal 0 1 -0
    outer loop
      vertex 35.4506 -19.77 1.23
      vertex 2.13042 -19.77 120
      vertex 35.4506 -19.77 120
    endloop
  endfacet
  facet normal 0 1 0
    outer loop
      vertex 2.13042 -19.77 120
      vertex 35.4506 -19.77 1.23
      vertex 2.13042 -19.77 1.23
    endloop
  endfacet
endsolid OpenSCAD_Model
