solid OpenSCAD_Model
  facet normal -1 0 0
    outer loop
      vertex -18.1865 -10.5 0
      vertex -18.1865 10.5 120
      vertex -18.1865 10.5 0
    endloop
  endfacet
  facet normal -1 -0 0
    outer loop
      vertex -18.1865 10.5 120
      vertex -18.1865 -10.5 0
      vertex -18.1865 -10.5 120
    endloop
  endfacet
  facet normal -0.5 0.866026 0
    outer loop
      vertex -0.615 20.6449 0
      vertex -18.1865 10.5 120
      vertex -0.615 20.6449 120
    endloop
  endfacet
  facet normal -0.5 0.866026 0
    outer loop
      vertex -18.1865 10.5 120
      vertex -0.615 20.6449 0
      vertex -18.1865 10.5 0
    endloop
  endfacet
  facet normal 0 0 1
    outer loop
      vertex 0.615001 20.6449 120
      vertex -0.615 20.6449 120
      vertex -2.80105e-07 19.5797 120
    endloop
  endfacet
  facet normal 0 0 1
    outer loop
      vertex -0.615 20.6449 120
      vertex -16.9565 9.78986 120
      vertex -2.80105e-07 19.5797 120
    endloop
  endfacet
  facet normal 0 0 1
    outer loop
      vertex -16.9565 9.78986 120
      vertex -18.1865 10.5 120
      vertex -16.9565 -9.78986 120
    endloop
  endfacet
  facet normal -0 0 1
    outer loop
      vertex -18.1865 10.5 120
      vertex -16.9565 9.78986 120
      vertex -0.615 20.6449 120
    endloop
  endfacet
  facet normal 0 0 1
    outer loop
      vertex 18.1865 51.0797 120
      vertex 16.9565 51.0797 120
      vertex 17.5715 50.0145 120
    endloop
  endfacet
  facet normal 0 0 1
    outer loop
      vertex 16.9565 51.0797 120
      vertex 0.615 40.2246 120
      vertex 17.5715 50.0145 120
    endloop
  endfacet
  facet normal 0 -0 1
    outer loop
      vertex 0.615 40.2246 120
      vertex 16.9565 51.0797 120
      vertex 2.80105e-07 41.2899 120
    endloop
  endfacet
  facet normal 0 0 1
    outer loop
      vertex 18.1865 -9.78986 120
      vertex 16.9565 -9.78986 120
      vertex 17.5715 -10.8551 120
    endloop
  endfacet
  facet normal 0 0 1
    outer loop
      vertex 2.80105e-07 -19.5797 120
      vertex 17.5715 -10.8551 120
      vertex 16.9565 -9.78986 120
    endloop
  endfacet
  facet normal -0 0 1
    outer loop
      vertex 2.80105e-07 -19.5797 120
      vertex -2.52615e-07 -21 120
      vertex 17.5715 -10.8551 120
    endloop
  endfacet
  facet normal 0 0 1
    outer loop
      vertex -16.9565 -9.78986 120
      vertex -2.52615e-07 -21 120
      vertex 2.80105e-07 -19.5797 120
    endloop
  endfacet
  facet normal 0 0 1
    outer loop
      vertex -16.9565 -9.78986 120
      vertex -18.1865 -10.5 120
      vertex -2.52615e-07 -21 120
    endloop
  endfacet
  facet normal 0 0 1
    outer loop
      vertex -18.1865 -10.5 120
      vertex -16.9565 -9.78986 120
      vertex -18.1865 10.5 120
    endloop
  endfacet
  facet normal 0 0 1
    outer loop
      vertex 35.7581 20.6449 120
      vertex 34.5281 20.6449 120
      vertex 35.1431 19.5797 120
    endloop
  endfacet
  facet normal 0 0 1
    outer loop
      vertex 34.5281 20.6449 120
      vertex 18.1865 9.78986 120
      vertex 35.1431 19.5797 120
    endloop
  endfacet
  facet normal 0 -0 1
    outer loop
      vertex 18.1865 9.78986 120
      vertex 34.5281 20.6449 120
      vertex 17.5715 10.8551 120
    endloop
  endfacet
  facet normal 0 0 1
    outer loop
      vertex 52.0996 51.0797 120
      vertex 35.7581 40.2246 120
      vertex 52.7146 50.0145 120
    endloop
  endfacet
  facet normal 0 0 1
    outer loop
      vertex 34.5281 40.2246 120
      vertex 35.7581 40.2246 120
      vertex 35.1431 41.2899 120
    endloop
  endfacet
  facet normal -0 0 1
    outer loop
      vertex 35.1431 41.2899 120
      vertex 35.7581 40.2246 120
      vertex 52.0996 51.0797 120
    endloop
  endfacet
  facet normal 0 0 1
    outer loop
      vertex 35.1431 -19.5797 120
      vertex 52.7146 -10.8551 120
      vertex 52.0996 -9.78986 120
    endloop
  endfacet
  facet normal -0 0 1
    outer loop
      vertex 35.1431 -19.5797 120
      vertex 35.1431 -21 120
      vertex 52.7146 -10.8551 120
    endloop
  endfacet
  facet normal -0 0 1
    outer loop
      vertex 17.5715 -10.8551 120
      vertex 35.1431 -19.5797 120
      vertex 18.1865 -9.78986 120
    endloop
  endfacet
  facet normal 0 0 1
    outer loop
      vertex 16.9565 9.78986 120
      vertex 18.1865 9.78986 120
      vertex 17.5715 10.8551 120
    endloop
  endfacet
  facet normal 0 0 1
    outer loop
      vertex 35.1431 -19.5797 120
      vertex 17.5715 -10.8551 120
      vertex 35.1431 -21 120
    endloop
  endfacet
  facet normal 0 0 1
    outer loop
      vertex 18.1865 9.78986 120
      vertex 16.9565 9.78986 120
      vertex 18.1865 -9.78986 120
    endloop
  endfacet
  facet normal 0 0 1
    outer loop
      vertex 16.9565 -9.78986 120
      vertex 18.1865 -9.78986 120
      vertex 16.9565 9.78986 120
    endloop
  endfacet
  facet normal 0 0 1
    outer loop
      vertex 0.615001 20.6449 120
      vertex 16.9565 9.78986 120
      vertex 17.5715 10.8551 120
    endloop
  endfacet
  facet normal 0 0 1
    outer loop
      vertex -0.615 40.2246 120
      vertex 0.615 40.2246 120
      vertex 2.80105e-07 41.2899 120
    endloop
  endfacet
  facet normal 0 0 1
    outer loop
      vertex 0.615001 20.6449 120
      vertex -2.80105e-07 19.5797 120
      vertex 16.9565 9.78986 120
    endloop
  endfacet
  facet normal 0 0 1
    outer loop
      vertex 0.615 40.2246 120
      vertex -0.615 40.2246 120
      vertex 0.615001 20.6449 120
    endloop
  endfacet
  facet normal 0 0 1
    outer loop
      vertex -0.615 20.6449 120
      vertex 0.615001 20.6449 120
      vertex -0.615 40.2246 120
    endloop
  endfacet
  facet normal 0 0 1
    outer loop
      vertex -16.9565 51.0797 120
      vertex -0.615 40.2246 120
      vertex 2.80105e-07 41.2899 120
    endloop
  endfacet
  facet normal 0 0 1
    outer loop
      vertex -16.9565 51.0797 120
      vertex -18.1865 50.3696 120
      vertex -0.615 40.2246 120
    endloop
  endfacet
  facet normal 0 0 1
    outer loop
      vertex -18.1865 50.3696 120
      vertex -16.9565 51.0797 120
      vertex -18.1865 71.3696 120
    endloop
  endfacet
  facet normal 0 0 1
    outer loop
      vertex 70.9011 20.6449 120
      vertex 69.6711 20.6449 120
      vertex 70.2861 19.5797 120
    endloop
  endfacet
  facet normal 0 0 1
    outer loop
      vertex 69.6711 20.6449 120
      vertex 53.3296 9.78986 120
      vertex 70.2861 19.5797 120
    endloop
  endfacet
  facet normal 0 0 1
    outer loop
      vertex 52.0996 9.78986 120
      vertex 53.3296 9.78986 120
      vertex 52.7146 10.8551 120
    endloop
  endfacet
  facet normal -0 0 1
    outer loop
      vertex 52.7146 10.8551 120
      vertex 53.3296 9.78986 120
      vertex 69.6711 20.6449 120
    endloop
  endfacet
  facet normal 0 0 1
    outer loop
      vertex 70.9011 20.6449 120
      vertex 87.2427 9.78986 120
      vertex 87.8577 10.8551 120
    endloop
  endfacet
  facet normal 0 0 1
    outer loop
      vertex 69.6711 40.2246 120
      vertex 70.9011 40.2246 120
      vertex 70.2861 41.2899 120
    endloop
  endfacet
  facet normal 0 0 1
    outer loop
      vertex 70.9011 20.6449 120
      vertex 70.2861 19.5797 120
      vertex 87.2427 9.78986 120
    endloop
  endfacet
  facet normal 0 0 1
    outer loop
      vertex 70.9011 40.2246 120
      vertex 69.6711 40.2246 120
      vertex 70.9011 20.6449 120
    endloop
  endfacet
  facet normal 0 0 1
    outer loop
      vertex 69.6711 20.6449 120
      vertex 70.9011 20.6449 120
      vertex 69.6711 40.2246 120
    endloop
  endfacet
  facet normal 0 0 1
    outer loop
      vertex 53.3296 51.0797 120
      vertex 69.6711 40.2246 120
      vertex 70.2861 41.2899 120
    endloop
  endfacet
  facet normal 0 0 1
    outer loop
      vertex 53.3296 51.0797 120
      vertex 52.7146 50.0145 120
      vertex 69.6711 40.2246 120
    endloop
  endfacet
  facet normal 0 0 1
    outer loop
      vertex 53.3296 70.6594 120
      vertex 52.0996 70.6594 120
      vertex 53.3296 51.0797 120
    endloop
  endfacet
  facet normal 0 0 1
    outer loop
      vertex 53.3296 51.0797 120
      vertex 52.0996 51.0797 120
      vertex 52.7146 50.0145 120
    endloop
  endfacet
  facet normal 0 0 1
    outer loop
      vertex 53.3296 51.0797 120
      vertex 52.0996 70.6594 120
      vertex 52.0996 51.0797 120
    endloop
  endfacet
  facet normal -0 0 1
    outer loop
      vertex 35.1431 80.4493 120
      vertex 52.7146 71.7246 120
      vertex 35.1431 81.8696 120
    endloop
  endfacet
  facet normal 0 0 1
    outer loop
      vertex 52.7146 71.7246 120
      vertex 35.1431 80.4493 120
      vertex 52.0996 70.6594 120
    endloop
  endfacet
  facet normal 0 0 1
    outer loop
      vertex 17.5715 71.7246 120
      vertex 35.1431 80.4493 120
      vertex 35.1431 81.8696 120
    endloop
  endfacet
  facet normal 0 0 1
    outer loop
      vertex 35.1431 80.4493 120
      vertex 17.5715 71.7246 120
      vertex 18.1865 70.6594 120
    endloop
  endfacet
  facet normal -0 0 1
    outer loop
      vertex 87.2427 70.6594 120
      vertex 88.4727 51.0797 120
      vertex 88.4727 71.3696 120
    endloop
  endfacet
  facet normal 0 0 1
    outer loop
      vertex 88.4727 51.0797 120
      vertex 87.2427 70.6594 120
      vertex 87.2427 51.0797 120
    endloop
  endfacet
  facet normal 0 0 1
    outer loop
      vertex 70.2861 81.8696 120
      vertex 87.2427 70.6594 120
      vertex 88.4727 71.3696 120
    endloop
  endfacet
  facet normal 0 0 1
    outer loop
      vertex 70.2861 81.8696 120
      vertex 70.2861 80.4493 120
      vertex 87.2427 70.6594 120
    endloop
  endfacet
  facet normal 0 0 1
    outer loop
      vertex 52.7146 71.7246 120
      vertex 70.2861 80.4493 120
      vertex 70.2861 81.8696 120
    endloop
  endfacet
  facet normal 0 0 1
    outer loop
      vertex 52.0996 70.6594 120
      vertex 53.3296 70.6594 120
      vertex 52.7146 71.7246 120
    endloop
  endfacet
  facet normal 0 0 1
    outer loop
      vertex 70.2861 80.4493 120
      vertex 52.7146 71.7246 120
      vertex 53.3296 70.6594 120
    endloop
  endfacet
  facet normal 0 0 1
    outer loop
      vertex 106.044 40.9348 120
      vertex 104.814 40.2246 120
      vertex 106.044 19.9348 120
    endloop
  endfacet
  facet normal 0 0 1
    outer loop
      vertex 88.4727 51.0797 120
      vertex 104.814 40.2246 120
      vertex 106.044 40.9348 120
    endloop
  endfacet
  facet normal 0 0 1
    outer loop
      vertex 104.814 40.2246 120
      vertex 88.4727 51.0797 120
      vertex 87.8577 50.0145 120
    endloop
  endfacet
  facet normal -0 0 1
    outer loop
      vertex 104.814 20.6449 120
      vertex 106.044 19.9348 120
      vertex 104.814 40.2246 120
    endloop
  endfacet
  facet normal 0 0 1
    outer loop
      vertex 104.814 20.6449 120
      vertex 88.4727 9.78986 120
      vertex 106.044 19.9348 120
    endloop
  endfacet
  facet normal -0 0 1
    outer loop
      vertex 87.8577 10.8551 120
      vertex 88.4727 9.78986 120
      vertex 104.814 20.6449 120
    endloop
  endfacet
  facet normal 0 0 1
    outer loop
      vertex 87.2427 9.78986 120
      vertex 88.4727 9.78986 120
      vertex 87.8577 10.8551 120
    endloop
  endfacet
  facet normal 0 0 1
    outer loop
      vertex 87.2427 -9.78986 120
      vertex 88.4727 9.78986 120
      vertex 87.2427 9.78986 120
    endloop
  endfacet
  facet normal 0 0 1
    outer loop
      vertex 88.4727 9.78986 120
      vertex 87.2427 -9.78986 120
      vertex 88.4727 -10.5 120
    endloop
  endfacet
  facet normal 0 0 1
    outer loop
      vertex 70.2861 -19.5797 120
      vertex 88.4727 -10.5 120
      vertex 87.2427 -9.78986 120
    endloop
  endfacet
  facet normal -0 0 1
    outer loop
      vertex 70.2861 -19.5797 120
      vertex 70.2861 -21 120
      vertex 88.4727 -10.5 120
    endloop
  endfacet
  facet normal -0 0 1
    outer loop
      vertex 52.7146 -10.8551 120
      vertex 70.2861 -19.5797 120
      vertex 53.3296 -9.78986 120
    endloop
  endfacet
  facet normal 0 0 1
    outer loop
      vertex 70.2861 -19.5797 120
      vertex 52.7146 -10.8551 120
      vertex 70.2861 -21 120
    endloop
  endfacet
  facet normal 0 0 1
    outer loop
      vertex 53.3296 9.78986 120
      vertex 52.0996 9.78986 120
      vertex 53.3296 -9.78986 120
    endloop
  endfacet
  facet normal 0 0 1
    outer loop
      vertex 53.3296 -9.78986 120
      vertex 52.0996 -9.78986 120
      vertex 52.7146 -10.8551 120
    endloop
  endfacet
  facet normal 0 0 1
    outer loop
      vertex 53.3296 -9.78986 120
      vertex 52.0996 9.78986 120
      vertex 52.0996 -9.78986 120
    endloop
  endfacet
  facet normal 0 0 1
    outer loop
      vertex 35.7581 20.6449 120
      vertex 52.0996 9.78986 120
      vertex 52.7146 10.8551 120
    endloop
  endfacet
  facet normal 0 0 1
    outer loop
      vertex 35.7581 20.6449 120
      vertex 35.1431 19.5797 120
      vertex 52.0996 9.78986 120
    endloop
  endfacet
  facet normal 0 0 1
    outer loop
      vertex 35.7581 40.2246 120
      vertex 34.5281 40.2246 120
      vertex 35.7581 20.6449 120
    endloop
  endfacet
  facet normal 0 0 1
    outer loop
      vertex 34.5281 20.6449 120
      vertex 35.7581 20.6449 120
      vertex 34.5281 40.2246 120
    endloop
  endfacet
  facet normal 0 0 1
    outer loop
      vertex 18.1865 51.0797 120
      vertex 34.5281 40.2246 120
      vertex 35.1431 41.2899 120
    endloop
  endfacet
  facet normal 0 0 1
    outer loop
      vertex 16.9565 70.6594 120
      vertex 18.1865 70.6594 120
      vertex 17.5715 71.7246 120
    endloop
  endfacet
  facet normal 0 0 1
    outer loop
      vertex 18.1865 51.0797 120
      vertex 17.5715 50.0145 120
      vertex 34.5281 40.2246 120
    endloop
  endfacet
  facet normal 0 0 1
    outer loop
      vertex 18.1865 70.6594 120
      vertex 16.9565 70.6594 120
      vertex 18.1865 51.0797 120
    endloop
  endfacet
  facet normal 0 0 1
    outer loop
      vertex 16.9565 51.0797 120
      vertex 18.1865 51.0797 120
      vertex 16.9565 70.6594 120
    endloop
  endfacet
  facet normal -0 0 1
    outer loop
      vertex -2.80105e-07 80.4493 120
      vertex 17.5715 71.7246 120
      vertex 2.52615e-07 81.8696 120
    endloop
  endfacet
  facet normal 0 0 1
    outer loop
      vertex 17.5715 71.7246 120
      vertex -2.80105e-07 80.4493 120
      vertex 16.9565 70.6594 120
    endloop
  endfacet
  facet normal 0 0 1
    outer loop
      vertex 2.52615e-07 81.8696 120
      vertex -16.9565 70.6594 120
      vertex -2.80105e-07 80.4493 120
    endloop
  endfacet
  facet normal 0 0 1
    outer loop
      vertex -16.9565 70.6594 120
      vertex -18.1865 71.3696 120
      vertex -16.9565 51.0797 120
    endloop
  endfacet
  facet normal -0 0 1
    outer loop
      vertex -18.1865 71.3696 120
      vertex -16.9565 70.6594 120
      vertex 2.52615e-07 81.8696 120
    endloop
  endfacet
  facet normal 0 0 1
    outer loop
      vertex 88.4727 51.0797 120
      vertex 87.2427 51.0797 120
      vertex 87.8577 50.0145 120
    endloop
  endfacet
  facet normal 0 0 1
    outer loop
      vertex 87.2427 51.0797 120
      vertex 70.9011 40.2246 120
      vertex 87.8577 50.0145 120
    endloop
  endfacet
  facet normal 0 -0 1
    outer loop
      vertex 70.9011 40.2246 120
      vertex 87.2427 51.0797 120
      vertex 70.2861 41.2899 120
    endloop
  endfacet
  facet normal 0 0 -1
    outer loop
      vertex 52.7146 -10.8551 0
      vertex -0.615 20.6449 0
      vertex -0.615 40.2246 0
    endloop
  endfacet
  facet normal 0 0 -1
    outer loop
      vertex -18.1865 -10.5 0
      vertex -0.615 20.6449 0
      vertex -2.52615e-07 -21 0
    endloop
  endfacet
  facet normal 0 0 -1
    outer loop
      vertex -0.615 20.6449 0
      vertex -18.1865 -10.5 0
      vertex -18.1865 10.5 0
    endloop
  endfacet
  facet normal 0 0 -1
    outer loop
      vertex 52.7146 -10.8551 0
      vertex 88.4727 9.78986 0
      vertex 88.4727 -10.5 0
    endloop
  endfacet
  facet normal -0 0 -1
    outer loop
      vertex 88.4727 9.78986 0
      vertex 52.7146 -10.8551 0
      vertex 88.4727 51.0797 0
    endloop
  endfacet
  facet normal 0 0 -1
    outer loop
      vertex 52.7146 -10.8551 0
      vertex 88.4727 -10.5 0
      vertex 70.2861 -21 0
    endloop
  endfacet
  facet normal 0 0 -1
    outer loop
      vertex 52.7146 71.7246 0
      vertex 88.4727 51.0797 0
      vertex 52.7146 -10.8551 0
    endloop
  endfacet
  facet normal 0 0 -1
    outer loop
      vertex 88.4727 51.0797 0
      vertex 52.7146 71.7246 0
      vertex 88.4727 71.3696 0
    endloop
  endfacet
  facet normal 0 0 -1
    outer loop
      vertex 88.4727 71.3696 0
      vertex 52.7146 71.7246 0
      vertex 70.2861 81.8696 0
    endloop
  endfacet
  facet normal 0 0 -1
    outer loop
      vertex 17.5715 -10.8551 0
      vertex 52.7146 -10.8551 0
      vertex 35.1431 -21 0
    endloop
  endfacet
  facet normal 0 0 -1
    outer loop
      vertex -0.615 20.6449 0
      vertex 52.7146 -10.8551 0
      vertex 17.5715 -10.8551 0
    endloop
  endfacet
  facet normal 0 0 -1
    outer loop
      vertex 52.7146 -10.8551 0
      vertex -0.615 40.2246 0
      vertex 52.7146 71.7246 0
    endloop
  endfacet
  facet normal 0 0 -1
    outer loop
      vertex 52.7146 71.7246 0
      vertex 17.5715 71.7246 0
      vertex 35.1431 81.8696 0
    endloop
  endfacet
  facet normal -0 0 -1
    outer loop
      vertex 52.7146 71.7246 0
      vertex -0.615 40.2246 0
      vertex 17.5715 71.7246 0
    endloop
  endfacet
  facet normal 0 0 -1
    outer loop
      vertex -0.615 20.6449 0
      vertex 17.5715 -10.8551 0
      vertex -2.52615e-07 -21 0
    endloop
  endfacet
  facet normal -0 0 -1
    outer loop
      vertex 17.5715 71.7246 0
      vertex -0.615 40.2246 0
      vertex 2.52615e-07 81.8696 0
    endloop
  endfacet
  facet normal 0 0 -1
    outer loop
      vertex -18.1865 71.3696 0
      vertex -0.615 40.2246 0
      vertex -18.1865 50.3696 0
    endloop
  endfacet
  facet normal 0 0 -1
    outer loop
      vertex -0.615 40.2246 0
      vertex -18.1865 71.3696 0
      vertex 2.52615e-07 81.8696 0
    endloop
  endfacet
  facet normal 0 0 -1
    outer loop
      vertex 88.4727 9.78986 0
      vertex 106.044 40.9348 0
      vertex 106.044 19.9348 0
    endloop
  endfacet
  facet normal -0 0 -1
    outer loop
      vertex 106.044 40.9348 0
      vertex 88.4727 9.78986 0
      vertex 88.4727 51.0797 0
    endloop
  endfacet
  facet normal 0.5 -0.866026 0
    outer loop
      vertex -2.52615e-07 -21 0
      vertex 17.5715 -10.8551 120
      vertex -2.52615e-07 -21 120
    endloop
  endfacet
  facet normal 0.5 -0.866026 0
    outer loop
      vertex 17.5715 -10.8551 120
      vertex -2.52615e-07 -21 0
      vertex 17.5715 -10.8551 0
    endloop
  endfacet
  facet normal -0.500001 -0.866025 0
    outer loop
      vertex -18.1865 -10.5 0
      vertex -2.52615e-07 -21 120
      vertex -18.1865 -10.5 120
    endloop
  endfacet
  facet normal -0.500001 -0.866025 -0
    outer loop
      vertex -2.52615e-07 -21 120
      vertex -18.1865 -10.5 0
      vertex -2.52615e-07 -21 0
    endloop
  endfacet
  facet normal -0.5 -0.866025 0
    outer loop
      vertex -2.80105e-07 19.5797 1.23
      vertex 16.9565 9.78986 120
      vertex -2.80105e-07 19.5797 120
    endloop
  endfacet
  facet normal -0.5 -0.866025 -0
    outer loop
      vertex 16.9565 9.78986 120
      vertex -2.80105e-07 19.5797 1.23
      vertex 16.9565 9.78986 1.23
    endloop
  endfacet
  facet normal 1 -0 0
    outer loop
      vertex -16.9565 -9.78986 120
      vertex -16.9565 9.78986 1.23
      vertex -16.9565 9.78986 120
    endloop
  endfacet
  facet normal 1 0 0
    outer loop
      vertex -16.9565 9.78986 1.23
      vertex -16.9565 -9.78986 120
      vertex -16.9565 -9.78986 1.23
    endloop
  endfacet
  facet normal 0.5 -0.866025 0
    outer loop
      vertex -16.9565 9.78986 1.23
      vertex -2.80105e-07 19.5797 120
      vertex -16.9565 9.78986 120
    endloop
  endfacet
  facet normal 0.5 -0.866025 0
    outer loop
      vertex -2.80105e-07 19.5797 120
      vertex -16.9565 9.78986 1.23
      vertex -2.80105e-07 19.5797 1.23
    endloop
  endfacet
  facet normal -1 0 0
    outer loop
      vertex 16.9565 -9.78986 1.23
      vertex 16.9565 9.78986 120
      vertex 16.9565 9.78986 1.23
    endloop
  endfacet
  facet normal -1 -0 0
    outer loop
      vertex 16.9565 9.78986 120
      vertex 16.9565 -9.78986 1.23
      vertex 16.9565 -9.78986 120
    endloop
  endfacet
  facet normal 0 0 1
    outer loop
      vertex 16.9565 9.78986 1.23
      vertex 2.80105e-07 -19.5797 1.23
      vertex 16.9565 -9.78986 1.23
    endloop
  endfacet
  facet normal 0 0 1
    outer loop
      vertex -2.80105e-07 19.5797 1.23
      vertex 2.80105e-07 -19.5797 1.23
      vertex 16.9565 9.78986 1.23
    endloop
  endfacet
  facet normal -0 0 1
    outer loop
      vertex -16.9565 9.78986 1.23
      vertex 2.80105e-07 -19.5797 1.23
      vertex -2.80105e-07 19.5797 1.23
    endloop
  endfacet
  facet normal 0 0 1
    outer loop
      vertex 2.80105e-07 -19.5797 1.23
      vertex -16.9565 9.78986 1.23
      vertex -16.9565 -9.78986 1.23
    endloop
  endfacet
  facet normal -0.5 0.866025 0
    outer loop
      vertex 16.9565 -9.78986 1.23
      vertex 2.80105e-07 -19.5797 120
      vertex 16.9565 -9.78986 120
    endloop
  endfacet
  facet normal -0.5 0.866025 0
    outer loop
      vertex 2.80105e-07 -19.5797 120
      vertex 16.9565 -9.78986 1.23
      vertex 2.80105e-07 -19.5797 1.23
    endloop
  endfacet
  facet normal 0.5 0.866025 -0
    outer loop
      vertex 2.80105e-07 -19.5797 1.23
      vertex -16.9565 -9.78986 120
      vertex 2.80105e-07 -19.5797 120
    endloop
  endfacet
  facet normal 0.5 0.866025 0
    outer loop
      vertex -16.9565 -9.78986 120
      vertex 2.80105e-07 -19.5797 1.23
      vertex -16.9565 -9.78986 1.23
    endloop
  endfacet
  facet normal -1 0 0
    outer loop
      vertex -0.615 20.6449 0
      vertex -0.615 40.2246 120
      vertex -0.615 40.2246 0
    endloop
  endfacet
  facet normal -1 -0 0
    outer loop
      vertex -0.615 40.2246 120
      vertex -0.615 20.6449 0
      vertex -0.615 20.6449 120
    endloop
  endfacet
  facet normal -0.5 -0.866025 0
    outer loop
      vertex 17.5715 50.0145 1.23
      vertex 34.5281 40.2246 120
      vertex 17.5715 50.0145 120
    endloop
  endfacet
  facet normal -0.5 -0.866025 -0
    outer loop
      vertex 34.5281 40.2246 120
      vertex 17.5715 50.0145 1.23
      vertex 34.5281 40.2246 1.23
    endloop
  endfacet
  facet normal 1 5.10733e-08 0
    outer loop
      vertex 0.615001 20.6449 120
      vertex 0.615 40.2246 1.23
      vertex 0.615 40.2246 120
    endloop
  endfacet
  facet normal 1 5.10733e-08 0
    outer loop
      vertex 0.615 40.2246 1.23
      vertex 0.615001 20.6449 120
      vertex 0.615001 20.6449 1.23
    endloop
  endfacet
  facet normal 0.500002 -0.866024 0
    outer loop
      vertex 0.615 40.2246 1.23
      vertex 17.5715 50.0145 120
      vertex 0.615 40.2246 120
    endloop
  endfacet
  facet normal 0.500002 -0.866024 0
    outer loop
      vertex 17.5715 50.0145 120
      vertex 0.615 40.2246 1.23
      vertex 17.5715 50.0145 1.23
    endloop
  endfacet
  facet normal -1 0 0
    outer loop
      vertex 34.5281 20.6449 1.23
      vertex 34.5281 40.2246 120
      vertex 34.5281 40.2246 1.23
    endloop
  endfacet
  facet normal -1 -0 0
    outer loop
      vertex 34.5281 40.2246 120
      vertex 34.5281 20.6449 1.23
      vertex 34.5281 20.6449 120
    endloop
  endfacet
  facet normal 0 0 1
    outer loop
      vertex 17.5715 50.0145 1.23
      vertex 34.5281 20.6449 1.23
      vertex 34.5281 40.2246 1.23
    endloop
  endfacet
  facet normal 0 0 1
    outer loop
      vertex 17.5715 50.0145 1.23
      vertex 17.5715 10.8551 1.23
      vertex 34.5281 20.6449 1.23
    endloop
  endfacet
  facet normal 0 0 1
    outer loop
      vertex 17.5715 50.0145 1.23
      vertex 0.615001 20.6449 1.23
      vertex 17.5715 10.8551 1.23
    endloop
  endfacet
  facet normal 0 -0 1
    outer loop
      vertex 0.615001 20.6449 1.23
      vertex 17.5715 50.0145 1.23
      vertex 0.615 40.2246 1.23
    endloop
  endfacet
  facet normal -0.499996 0.866028 0
    outer loop
      vertex 34.5281 20.6449 1.23
      vertex 17.5715 10.8551 120
      vertex 34.5281 20.6449 120
    endloop
  endfacet
  facet normal -0.499996 0.866028 0
    outer loop
      vertex 17.5715 10.8551 120
      vertex 34.5281 20.6449 1.23
      vertex 17.5715 10.8551 1.23
    endloop
  endfacet
  facet normal 0.499998 0.866026 -0
    outer loop
      vertex 17.5715 10.8551 1.23
      vertex 0.615001 20.6449 120
      vertex 17.5715 10.8551 120
    endloop
  endfacet
  facet normal 0.499998 0.866026 0
    outer loop
      vertex 0.615001 20.6449 120
      vertex 17.5715 10.8551 1.23
      vertex 0.615001 20.6449 1.23
    endloop
  endfacet
  facet normal 0.500003 0.866023 -0
    outer loop
      vertex 17.5715 71.7246 0
      vertex 2.52615e-07 81.8696 120
      vertex 17.5715 71.7246 120
    endloop
  endfacet
  facet normal 0.500003 0.866023 0
    outer loop
      vertex 2.52615e-07 81.8696 120
      vertex 17.5715 71.7246 0
      vertex 2.52615e-07 81.8696 0
    endloop
  endfacet
  facet normal -1 0 0
    outer loop
      vertex -18.1865 50.3696 0
      vertex -18.1865 71.3696 120
      vertex -18.1865 71.3696 0
    endloop
  endfacet
  facet normal -1 -0 0
    outer loop
      vertex -18.1865 71.3696 120
      vertex -18.1865 50.3696 0
      vertex -18.1865 50.3696 120
    endloop
  endfacet
  facet normal -0.500001 0.866025 0
    outer loop
      vertex 2.52615e-07 81.8696 0
      vertex -18.1865 71.3696 120
      vertex 2.52615e-07 81.8696 120
    endloop
  endfacet
  facet normal -0.500001 0.866025 0
    outer loop
      vertex -18.1865 71.3696 120
      vertex 2.52615e-07 81.8696 0
      vertex -18.1865 71.3696 0
    endloop
  endfacet
  facet normal -0.500003 -0.866023 0
    outer loop
      vertex -18.1865 50.3696 0
      vertex -0.615 40.2246 120
      vertex -18.1865 50.3696 120
    endloop
  endfacet
  facet normal -0.500003 -0.866023 -0
    outer loop
      vertex -0.615 40.2246 120
      vertex -18.1865 50.3696 0
      vertex -0.615 40.2246 0
    endloop
  endfacet
  facet normal -0.500002 -0.866024 0
    outer loop
      vertex -2.80105e-07 80.4493 1.23
      vertex 16.9565 70.6594 120
      vertex -2.80105e-07 80.4493 120
    endloop
  endfacet
  facet normal -0.500002 -0.866024 -0
    outer loop
      vertex 16.9565 70.6594 120
      vertex -2.80105e-07 80.4493 1.23
      vertex 16.9565 70.6594 1.23
    endloop
  endfacet
  facet normal 1 -0 0
    outer loop
      vertex -16.9565 51.0797 120
      vertex -16.9565 70.6594 1.23
      vertex -16.9565 70.6594 120
    endloop
  endfacet
  facet normal 1 0 0
    outer loop
      vertex -16.9565 70.6594 1.23
      vertex -16.9565 51.0797 120
      vertex -16.9565 51.0797 1.23
    endloop
  endfacet
  facet normal 0.500002 -0.866024 0
    outer loop
      vertex -16.9565 70.6594 1.23
      vertex -2.80105e-07 80.4493 120
      vertex -16.9565 70.6594 120
    endloop
  endfacet
  facet normal 0.500002 -0.866024 0
    outer loop
      vertex -2.80105e-07 80.4493 120
      vertex -16.9565 70.6594 1.23
      vertex -2.80105e-07 80.4493 1.23
    endloop
  endfacet
  facet normal -1 0 0
    outer loop
      vertex 16.9565 51.0797 1.23
      vertex 16.9565 70.6594 120
      vertex 16.9565 70.6594 1.23
    endloop
  endfacet
  facet normal -1 -0 0
    outer loop
      vertex 16.9565 70.6594 120
      vertex 16.9565 51.0797 1.23
      vertex 16.9565 51.0797 120
    endloop
  endfacet
  facet normal 0 0 1
    outer loop
      vertex 16.9565 70.6594 1.23
      vertex 2.80105e-07 41.2899 1.23
      vertex 16.9565 51.0797 1.23
    endloop
  endfacet
  facet normal 0 0 1
    outer loop
      vertex -2.80105e-07 80.4493 1.23
      vertex 2.80105e-07 41.2899 1.23
      vertex 16.9565 70.6594 1.23
    endloop
  endfacet
  facet normal -0 0 1
    outer loop
      vertex -16.9565 70.6594 1.23
      vertex 2.80105e-07 41.2899 1.23
      vertex -2.80105e-07 80.4493 1.23
    endloop
  endfacet
  facet normal 0 0 1
    outer loop
      vertex 2.80105e-07 41.2899 1.23
      vertex -16.9565 70.6594 1.23
      vertex -16.9565 51.0797 1.23
    endloop
  endfacet
  facet normal -0.499998 0.866026 0
    outer loop
      vertex 16.9565 51.0797 1.23
      vertex 2.80105e-07 41.2899 120
      vertex 16.9565 51.0797 120
    endloop
  endfacet
  facet normal -0.499998 0.866026 0
    outer loop
      vertex 2.80105e-07 41.2899 120
      vertex 16.9565 51.0797 1.23
      vertex 2.80105e-07 41.2899 1.23
    endloop
  endfacet
  facet normal 0.499998 0.866026 -0
    outer loop
      vertex 2.80105e-07 41.2899 1.23
      vertex -16.9565 51.0797 120
      vertex 2.80105e-07 41.2899 120
    endloop
  endfacet
  facet normal 0.499998 0.866026 0
    outer loop
      vertex -16.9565 51.0797 120
      vertex 2.80105e-07 41.2899 1.23
      vertex -16.9565 51.0797 1.23
    endloop
  endfacet
  facet normal 0.5 -0.866026 0
    outer loop
      vertex 35.1431 -21 0
      vertex 52.7146 -10.8551 120
      vertex 35.1431 -21 120
    endloop
  endfacet
  facet normal 0.5 -0.866026 0
    outer loop
      vertex 52.7146 -10.8551 120
      vertex 35.1431 -21 0
      vertex 52.7146 -10.8551 0
    endloop
  endfacet
  facet normal -0.499997 -0.866027 0
    outer loop
      vertex 17.5715 -10.8551 0
      vertex 35.1431 -21 120
      vertex 17.5715 -10.8551 120
    endloop
  endfacet
  facet normal -0.499997 -0.866027 -0
    outer loop
      vertex 35.1431 -21 120
      vertex 17.5715 -10.8551 0
      vertex 35.1431 -21 0
    endloop
  endfacet
  facet normal -0.5 -0.866025 0
    outer loop
      vertex 35.1431 19.5797 1.23
      vertex 52.0996 9.78986 120
      vertex 35.1431 19.5797 120
    endloop
  endfacet
  facet normal -0.5 -0.866025 -0
    outer loop
      vertex 52.0996 9.78986 120
      vertex 35.1431 19.5797 1.23
      vertex 52.0996 9.78986 1.23
    endloop
  endfacet
  facet normal 1 -0 0
    outer loop
      vertex 18.1865 -9.78986 120
      vertex 18.1865 9.78986 1.23
      vertex 18.1865 9.78986 120
    endloop
  endfacet
  facet normal 1 0 0
    outer loop
      vertex 18.1865 9.78986 1.23
      vertex 18.1865 -9.78986 120
      vertex 18.1865 -9.78986 1.23
    endloop
  endfacet
  facet normal 0.499998 -0.866027 0
    outer loop
      vertex 18.1865 9.78986 1.23
      vertex 35.1431 19.5797 120
      vertex 18.1865 9.78986 120
    endloop
  endfacet
  facet normal 0.499998 -0.866027 0
    outer loop
      vertex 35.1431 19.5797 120
      vertex 18.1865 9.78986 1.23
      vertex 35.1431 19.5797 1.23
    endloop
  endfacet
  facet normal -1 0 0
    outer loop
      vertex 52.0996 -9.78986 1.23
      vertex 52.0996 9.78986 120
      vertex 52.0996 9.78986 1.23
    endloop
  endfacet
  facet normal -1 -0 0
    outer loop
      vertex 52.0996 9.78986 120
      vertex 52.0996 -9.78986 1.23
      vertex 52.0996 -9.78986 120
    endloop
  endfacet
  facet normal 0 0 1
    outer loop
      vertex 35.1431 19.5797 1.23
      vertex 52.0996 -9.78986 1.23
      vertex 52.0996 9.78986 1.23
    endloop
  endfacet
  facet normal 0 0 1
    outer loop
      vertex 35.1431 19.5797 1.23
      vertex 35.1431 -19.5797 1.23
      vertex 52.0996 -9.78986 1.23
    endloop
  endfacet
  facet normal 0 0 1
    outer loop
      vertex 35.1431 19.5797 1.23
      vertex 18.1865 -9.78986 1.23
      vertex 35.1431 -19.5797 1.23
    endloop
  endfacet
  facet normal 0 0 1
    outer loop
      vertex 18.1865 -9.78986 1.23
      vertex 35.1431 19.5797 1.23
      vertex 18.1865 9.78986 1.23
    endloop
  endfacet
  facet normal -0.5 0.866025 0
    outer loop
      vertex 52.0996 -9.78986 1.23
      vertex 35.1431 -19.5797 120
      vertex 52.0996 -9.78986 120
    endloop
  endfacet
  facet normal -0.5 0.866025 0
    outer loop
      vertex 35.1431 -19.5797 120
      vertex 52.0996 -9.78986 1.23
      vertex 35.1431 -19.5797 1.23
    endloop
  endfacet
  facet normal 0.499998 0.866027 -0
    outer loop
      vertex 35.1431 -19.5797 1.23
      vertex 18.1865 -9.78986 120
      vertex 35.1431 -19.5797 120
    endloop
  endfacet
  facet normal 0.499998 0.866027 0
    outer loop
      vertex 18.1865 -9.78986 120
      vertex 35.1431 -19.5797 1.23
      vertex 18.1865 -9.78986 1.23
    endloop
  endfacet
  facet normal -0.500002 -0.866024 0
    outer loop
      vertex 52.7146 50.0145 1.23
      vertex 69.6711 40.2246 120
      vertex 52.7146 50.0145 120
    endloop
  endfacet
  facet normal -0.500002 -0.866024 -0
    outer loop
      vertex 69.6711 40.2246 120
      vertex 52.7146 50.0145 1.23
      vertex 69.6711 40.2246 1.23
    endloop
  endfacet
  facet normal 1 -0 0
    outer loop
      vertex 35.7581 20.6449 120
      vertex 35.7581 40.2246 1.23
      vertex 35.7581 40.2246 120
    endloop
  endfacet
  facet normal 1 0 0
    outer loop
      vertex 35.7581 40.2246 1.23
      vertex 35.7581 20.6449 120
      vertex 35.7581 20.6449 1.23
    endloop
  endfacet
  facet normal 0.500002 -0.866024 0
    outer loop
      vertex 35.7581 40.2246 1.23
      vertex 52.7146 50.0145 120
      vertex 35.7581 40.2246 120
    endloop
  endfacet
  facet normal 0.500002 -0.866024 0
    outer loop
      vertex 52.7146 50.0145 120
      vertex 35.7581 40.2246 1.23
      vertex 52.7146 50.0145 1.23
    endloop
  endfacet
  facet normal -1 0 0
    outer loop
      vertex 69.6711 20.6449 1.23
      vertex 69.6711 40.2246 120
      vertex 69.6711 40.2246 1.23
    endloop
  endfacet
  facet normal -1 -0 0
    outer loop
      vertex 69.6711 40.2246 120
      vertex 69.6711 20.6449 1.23
      vertex 69.6711 20.6449 120
    endloop
  endfacet
  facet normal 0 0 1
    outer loop
      vertex 52.7146 50.0145 1.23
      vertex 69.6711 20.6449 1.23
      vertex 69.6711 40.2246 1.23
    endloop
  endfacet
  facet normal 0 0 1
    outer loop
      vertex 52.7146 50.0145 1.23
      vertex 52.7146 10.8551 1.23
      vertex 69.6711 20.6449 1.23
    endloop
  endfacet
  facet normal -0 0 1
    outer loop
      vertex 35.7581 40.2246 1.23
      vertex 52.7146 10.8551 1.23
      vertex 52.7146 50.0145 1.23
    endloop
  endfacet
  facet normal 0 0 1
    outer loop
      vertex 52.7146 10.8551 1.23
      vertex 35.7581 40.2246 1.23
      vertex 35.7581 20.6449 1.23
    endloop
  endfacet
  facet normal -0.499998 0.866026 0
    outer loop
      vertex 69.6711 20.6449 1.23
      vertex 52.7146 10.8551 120
      vertex 69.6711 20.6449 120
    endloop
  endfacet
  facet normal -0.499998 0.866026 0
    outer loop
      vertex 52.7146 10.8551 120
      vertex 69.6711 20.6449 1.23
      vertex 52.7146 10.8551 1.23
    endloop
  endfacet
  facet normal 0.499998 0.866026 -0
    outer loop
      vertex 52.7146 10.8551 1.23
      vertex 35.7581 20.6449 120
      vertex 52.7146 10.8551 120
    endloop
  endfacet
  facet normal 0.499998 0.866026 0
    outer loop
      vertex 35.7581 20.6449 120
      vertex 52.7146 10.8551 1.23
      vertex 35.7581 20.6449 1.23
    endloop
  endfacet
  facet normal 0.500003 0.866023 -0
    outer loop
      vertex 52.7146 71.7246 0
      vertex 35.1431 81.8696 120
      vertex 52.7146 71.7246 120
    endloop
  endfacet
  facet normal 0.500003 0.866023 0
    outer loop
      vertex 35.1431 81.8696 120
      vertex 52.7146 71.7246 0
      vertex 35.1431 81.8696 0
    endloop
  endfacet
  facet normal -0.500001 0.866025 0
    outer loop
      vertex 35.1431 81.8696 0
      vertex 17.5715 71.7246 120
      vertex 35.1431 81.8696 120
    endloop
  endfacet
  facet normal -0.500001 0.866025 0
    outer loop
      vertex 17.5715 71.7246 120
      vertex 35.1431 81.8696 0
      vertex 17.5715 71.7246 0
    endloop
  endfacet
  facet normal -0.500002 -0.866024 0
    outer loop
      vertex 35.1431 80.4493 1.23
      vertex 52.0996 70.6594 120
      vertex 35.1431 80.4493 120
    endloop
  endfacet
  facet normal -0.500002 -0.866024 -0
    outer loop
      vertex 52.0996 70.6594 120
      vertex 35.1431 80.4493 1.23
      vertex 52.0996 70.6594 1.23
    endloop
  endfacet
  facet normal 1 -0 0
    outer loop
      vertex 18.1865 51.0797 120
      vertex 18.1865 70.6594 1.23
      vertex 18.1865 70.6594 120
    endloop
  endfacet
  facet normal 1 0 0
    outer loop
      vertex 18.1865 70.6594 1.23
      vertex 18.1865 51.0797 120
      vertex 18.1865 51.0797 1.23
    endloop
  endfacet
  facet normal 0.5 -0.866025 0
    outer loop
      vertex 18.1865 70.6594 1.23
      vertex 35.1431 80.4493 120
      vertex 18.1865 70.6594 120
    endloop
  endfacet
  facet normal 0.5 -0.866025 0
    outer loop
      vertex 35.1431 80.4493 120
      vertex 18.1865 70.6594 1.23
      vertex 35.1431 80.4493 1.23
    endloop
  endfacet
  facet normal -1 0 0
    outer loop
      vertex 52.0996 51.0797 1.23
      vertex 52.0996 70.6594 120
      vertex 52.0996 70.6594 1.23
    endloop
  endfacet
  facet normal -1 -0 0
    outer loop
      vertex 52.0996 70.6594 120
      vertex 52.0996 51.0797 1.23
      vertex 52.0996 51.0797 120
    endloop
  endfacet
  facet normal 0 0 1
    outer loop
      vertex 35.1431 80.4493 1.23
      vertex 52.0996 51.0797 1.23
      vertex 52.0996 70.6594 1.23
    endloop
  endfacet
  facet normal 0 0 1
    outer loop
      vertex 35.1431 80.4493 1.23
      vertex 35.1431 41.2899 1.23
      vertex 52.0996 51.0797 1.23
    endloop
  endfacet
  facet normal 0 0 1
    outer loop
      vertex 35.1431 80.4493 1.23
      vertex 18.1865 51.0797 1.23
      vertex 35.1431 41.2899 1.23
    endloop
  endfacet
  facet normal 0 0 1
    outer loop
      vertex 18.1865 51.0797 1.23
      vertex 35.1431 80.4493 1.23
      vertex 18.1865 70.6594 1.23
    endloop
  endfacet
  facet normal -0.499998 0.866026 0
    outer loop
      vertex 52.0996 51.0797 1.23
      vertex 35.1431 41.2899 120
      vertex 52.0996 51.0797 120
    endloop
  endfacet
  facet normal -0.499998 0.866026 0
    outer loop
      vertex 35.1431 41.2899 120
      vertex 52.0996 51.0797 1.23
      vertex 35.1431 41.2899 1.23
    endloop
  endfacet
  facet normal 0.499996 0.866028 -0
    outer loop
      vertex 35.1431 41.2899 1.23
      vertex 18.1865 51.0797 120
      vertex 35.1431 41.2899 120
    endloop
  endfacet
  facet normal 0.499996 0.866028 0
    outer loop
      vertex 18.1865 51.0797 120
      vertex 35.1431 41.2899 1.23
      vertex 18.1865 51.0797 1.23
    endloop
  endfacet
  facet normal 1 -0 0
    outer loop
      vertex 88.4727 -10.5 120
      vertex 88.4727 9.78986 0
      vertex 88.4727 9.78986 120
    endloop
  endfacet
  facet normal 1 0 0
    outer loop
      vertex 88.4727 9.78986 0
      vertex 88.4727 -10.5 120
      vertex 88.4727 -10.5 0
    endloop
  endfacet
  facet normal 0.499999 -0.866026 0
    outer loop
      vertex 70.2861 -21 0
      vertex 88.4727 -10.5 120
      vertex 70.2861 -21 120
    endloop
  endfacet
  facet normal 0.499999 -0.866026 0
    outer loop
      vertex 88.4727 -10.5 120
      vertex 70.2861 -21 0
      vertex 88.4727 -10.5 0
    endloop
  endfacet
  facet normal -0.5 -0.866026 0
    outer loop
      vertex 52.7146 -10.8551 0
      vertex 70.2861 -21 120
      vertex 52.7146 -10.8551 120
    endloop
  endfacet
  facet normal -0.5 -0.866026 -0
    outer loop
      vertex 70.2861 -21 120
      vertex 52.7146 -10.8551 0
      vertex 70.2861 -21 0
    endloop
  endfacet
  facet normal -0.499998 -0.866027 0
    outer loop
      vertex 70.2861 19.5797 1.23
      vertex 87.2427 9.78986 120
      vertex 70.2861 19.5797 120
    endloop
  endfacet
  facet normal -0.499998 -0.866027 -0
    outer loop
      vertex 87.2427 9.78986 120
      vertex 70.2861 19.5797 1.23
      vertex 87.2427 9.78986 1.23
    endloop
  endfacet
  facet normal 1 -0 0
    outer loop
      vertex 53.3296 -9.78986 120
      vertex 53.3296 9.78986 1.23
      vertex 53.3296 9.78986 120
    endloop
  endfacet
  facet normal 1 0 0
    outer loop
      vertex 53.3296 9.78986 1.23
      vertex 53.3296 -9.78986 120
      vertex 53.3296 -9.78986 1.23
    endloop
  endfacet
  facet normal 0.5 -0.866025 0
    outer loop
      vertex 53.3296 9.78986 1.23
      vertex 70.2861 19.5797 120
      vertex 53.3296 9.78986 120
    endloop
  endfacet
  facet normal 0.5 -0.866025 0
    outer loop
      vertex 70.2861 19.5797 120
      vertex 53.3296 9.78986 1.23
      vertex 70.2861 19.5797 1.23
    endloop
  endfacet
  facet normal -1 0 0
    outer loop
      vertex 87.2427 -9.78986 1.23
      vertex 87.2427 9.78986 120
      vertex 87.2427 9.78986 1.23
    endloop
  endfacet
  facet normal -1 -0 0
    outer loop
      vertex 87.2427 9.78986 120
      vertex 87.2427 -9.78986 1.23
      vertex 87.2427 -9.78986 120
    endloop
  endfacet
  facet normal 0 0 1
    outer loop
      vertex 70.2861 19.5797 1.23
      vertex 87.2427 -9.78986 1.23
      vertex 87.2427 9.78986 1.23
    endloop
  endfacet
  facet normal 0 0 1
    outer loop
      vertex 70.2861 19.5797 1.23
      vertex 70.2861 -19.5797 1.23
      vertex 87.2427 -9.78986 1.23
    endloop
  endfacet
  facet normal -0 0 1
    outer loop
      vertex 53.3296 9.78986 1.23
      vertex 70.2861 -19.5797 1.23
      vertex 70.2861 19.5797 1.23
    endloop
  endfacet
  facet normal 0 0 1
    outer loop
      vertex 70.2861 -19.5797 1.23
      vertex 53.3296 9.78986 1.23
      vertex 53.3296 -9.78986 1.23
    endloop
  endfacet
  facet normal -0.499998 0.866027 0
    outer loop
      vertex 87.2427 -9.78986 1.23
      vertex 70.2861 -19.5797 120
      vertex 87.2427 -9.78986 120
    endloop
  endfacet
  facet normal -0.499998 0.866027 0
    outer loop
      vertex 70.2861 -19.5797 120
      vertex 87.2427 -9.78986 1.23
      vertex 70.2861 -19.5797 1.23
    endloop
  endfacet
  facet normal 0.5 0.866025 -0
    outer loop
      vertex 70.2861 -19.5797 1.23
      vertex 53.3296 -9.78986 120
      vertex 70.2861 -19.5797 120
    endloop
  endfacet
  facet normal 0.5 0.866025 0
    outer loop
      vertex 53.3296 -9.78986 120
      vertex 70.2861 -19.5797 1.23
      vertex 53.3296 -9.78986 1.23
    endloop
  endfacet
  facet normal 0.500004 0.866023 -0
    outer loop
      vertex 106.044 40.9348 0
      vertex 88.4727 51.0797 120
      vertex 106.044 40.9348 120
    endloop
  endfacet
  facet normal 0.500004 0.866023 0
    outer loop
      vertex 88.4727 51.0797 120
      vertex 106.044 40.9348 0
      vertex 88.4727 51.0797 0
    endloop
  endfacet
  facet normal 1 -0 0
    outer loop
      vertex 106.044 19.9348 120
      vertex 106.044 40.9348 0
      vertex 106.044 40.9348 120
    endloop
  endfacet
  facet normal 1 0 0
    outer loop
      vertex 106.044 40.9348 0
      vertex 106.044 19.9348 120
      vertex 106.044 19.9348 0
    endloop
  endfacet
  facet normal 0.500005 -0.866022 0
    outer loop
      vertex 88.4727 9.78986 0
      vertex 106.044 19.9348 120
      vertex 88.4727 9.78986 120
    endloop
  endfacet
  facet normal 0.500005 -0.866022 0
    outer loop
      vertex 106.044 19.9348 120
      vertex 88.4727 9.78986 0
      vertex 106.044 19.9348 0
    endloop
  endfacet
  facet normal -0.500007 -0.866022 0
    outer loop
      vertex 87.8577 50.0145 1.23
      vertex 104.814 40.2246 120
      vertex 87.8577 50.0145 120
    endloop
  endfacet
  facet normal -0.500007 -0.866022 -0
    outer loop
      vertex 104.814 40.2246 120
      vertex 87.8577 50.0145 1.23
      vertex 104.814 40.2246 1.23
    endloop
  endfacet
  facet normal 1 -0 0
    outer loop
      vertex 70.9011 20.6449 120
      vertex 70.9011 40.2246 1.23
      vertex 70.9011 40.2246 120
    endloop
  endfacet
  facet normal 1 0 0
    outer loop
      vertex 70.9011 40.2246 1.23
      vertex 70.9011 20.6449 120
      vertex 70.9011 20.6449 1.23
    endloop
  endfacet
  facet normal 0.5 -0.866025 0
    outer loop
      vertex 70.9011 40.2246 1.23
      vertex 87.8577 50.0145 120
      vertex 70.9011 40.2246 120
    endloop
  endfacet
  facet normal 0.5 -0.866025 0
    outer loop
      vertex 87.8577 50.0145 120
      vertex 70.9011 40.2246 1.23
      vertex 87.8577 50.0145 1.23
    endloop
  endfacet
  facet normal -1 0 0
    outer loop
      vertex 104.814 20.6449 1.23
      vertex 104.814 40.2246 120
      vertex 104.814 40.2246 1.23
    endloop
  endfacet
  facet normal -1 -0 0
    outer loop
      vertex 104.814 40.2246 120
      vertex 104.814 20.6449 1.23
      vertex 104.814 20.6449 120
    endloop
  endfacet
  facet normal 0 0 1
    outer loop
      vertex 87.8577 50.0145 1.23
      vertex 104.814 20.6449 1.23
      vertex 104.814 40.2246 1.23
    endloop
  endfacet
  facet normal 0 0 1
    outer loop
      vertex 87.8577 50.0145 1.23
      vertex 87.8577 10.8551 1.23
      vertex 104.814 20.6449 1.23
    endloop
  endfacet
  facet normal 0 0 1
    outer loop
      vertex 87.8577 50.0145 1.23
      vertex 70.9011 20.6449 1.23
      vertex 87.8577 10.8551 1.23
    endloop
  endfacet
  facet normal 0 0 1
    outer loop
      vertex 70.9011 20.6449 1.23
      vertex 87.8577 50.0145 1.23
      vertex 70.9011 40.2246 1.23
    endloop
  endfacet
  facet normal -0.500003 0.866024 0
    outer loop
      vertex 104.814 20.6449 1.23
      vertex 87.8577 10.8551 120
      vertex 104.814 20.6449 120
    endloop
  endfacet
  facet normal -0.500003 0.866024 0
    outer loop
      vertex 87.8577 10.8551 120
      vertex 104.814 20.6449 1.23
      vertex 87.8577 10.8551 1.23
    endloop
  endfacet
  facet normal 0.499996 0.866028 -0
    outer loop
      vertex 87.8577 10.8551 1.23
      vertex 70.9011 20.6449 120
      vertex 87.8577 10.8551 120
    endloop
  endfacet
  facet normal 0.499996 0.866028 0
    outer loop
      vertex 70.9011 20.6449 120
      vertex 87.8577 10.8551 1.23
      vertex 70.9011 20.6449 1.23
    endloop
  endfacet
  facet normal 0.499999 0.866026 -0
    outer loop
      vertex 88.4727 71.3696 0
      vertex 70.2861 81.8696 120
      vertex 88.4727 71.3696 120
    endloop
  endfacet
  facet normal 0.499999 0.866026 0
    outer loop
      vertex 70.2861 81.8696 120
      vertex 88.4727 71.3696 0
      vertex 70.2861 81.8696 0
    endloop
  endfacet
  facet normal -0.500003 0.866023 0
    outer loop
      vertex 70.2861 81.8696 0
      vertex 52.7146 71.7246 120
      vertex 70.2861 81.8696 120
    endloop
  endfacet
  facet normal -0.500003 0.866023 0
    outer loop
      vertex 52.7146 71.7246 120
      vertex 70.2861 81.8696 0
      vertex 52.7146 71.7246 0
    endloop
  endfacet
  facet normal 1 -0 0
    outer loop
      vertex 88.4727 51.0797 120
      vertex 88.4727 71.3696 0
      vertex 88.4727 71.3696 120
    endloop
  endfacet
  facet normal 1 0 0
    outer loop
      vertex 88.4727 71.3696 0
      vertex 88.4727 51.0797 120
      vertex 88.4727 51.0797 0
    endloop
  endfacet
  facet normal -0.5 -0.866025 0
    outer loop
      vertex 70.2861 80.4493 1.23
      vertex 87.2427 70.6594 120
      vertex 70.2861 80.4493 120
    endloop
  endfacet
  facet normal -0.5 -0.866025 -0
    outer loop
      vertex 87.2427 70.6594 120
      vertex 70.2861 80.4493 1.23
      vertex 87.2427 70.6594 1.23
    endloop
  endfacet
  facet normal 1 -0 0
    outer loop
      vertex 53.3296 51.0797 120
      vertex 53.3296 70.6594 1.23
      vertex 53.3296 70.6594 120
    endloop
  endfacet
  facet normal 1 0 0
    outer loop
      vertex 53.3296 70.6594 1.23
      vertex 53.3296 51.0797 120
      vertex 53.3296 51.0797 1.23
    endloop
  endfacet
  facet normal 0.500002 -0.866024 0
    outer loop
      vertex 53.3296 70.6594 1.23
      vertex 70.2861 80.4493 120
      vertex 53.3296 70.6594 120
    endloop
  endfacet
  facet normal 0.500002 -0.866024 0
    outer loop
      vertex 70.2861 80.4493 120
      vertex 53.3296 70.6594 1.23
      vertex 70.2861 80.4493 1.23
    endloop
  endfacet
  facet normal -1 0 0
    outer loop
      vertex 87.2427 51.0797 1.23
      vertex 87.2427 70.6594 120
      vertex 87.2427 70.6594 1.23
    endloop
  endfacet
  facet normal -1 -0 0
    outer loop
      vertex 87.2427 70.6594 120
      vertex 87.2427 51.0797 1.23
      vertex 87.2427 51.0797 120
    endloop
  endfacet
  facet normal 0 0 1
    outer loop
      vertex 70.2861 80.4493 1.23
      vertex 87.2427 51.0797 1.23
      vertex 87.2427 70.6594 1.23
    endloop
  endfacet
  facet normal 0 0 1
    outer loop
      vertex 70.2861 80.4493 1.23
      vertex 70.2861 41.2899 1.23
      vertex 87.2427 51.0797 1.23
    endloop
  endfacet
  facet normal -0 0 1
    outer loop
      vertex 53.3296 70.6594 1.23
      vertex 70.2861 41.2899 1.23
      vertex 70.2861 80.4493 1.23
    endloop
  endfacet
  facet normal 0 0 1
    outer loop
      vertex 70.2861 41.2899 1.23
      vertex 53.3296 70.6594 1.23
      vertex 53.3296 51.0797 1.23
    endloop
  endfacet
  facet normal -0.499996 0.866028 0
    outer loop
      vertex 87.2427 51.0797 1.23
      vertex 70.2861 41.2899 120
      vertex 87.2427 51.0797 120
    endloop
  endfacet
  facet normal -0.499996 0.866028 0
    outer loop
      vertex 70.2861 41.2899 120
      vertex 87.2427 51.0797 1.23
      vertex 70.2861 41.2899 1.23
    endloop
  endfacet
  facet normal 0.499998 0.866026 -0
    outer loop
      vertex 70.2861 41.2899 1.23
      vertex 53.3296 51.0797 120
      vertex 70.2861 41.2899 120
    endloop
  endfacet
  facet normal 0.499998 0.866026 0
    outer loop
      vertex 53.3296 51.0797 120
      vertex 70.2861 41.2899 1.23
      vertex 53.3296 51.0797 1.23
    endloop
  endfacet
endsolid OpenSCAD_Model
