solid OpenSCAD_Model
  facet normal -0.500001 0.866025 0
    outer loop
      vertex -0.615 20.6449 1.23
      vertex -16.9565 11.2101 120
      vertex -0.615 20.6449 120
    endloop
  endfacet
  facet normal -0.500001 0.866025 0
    outer loop
      vertex -16.9565 11.2101 120
      vertex -0.615 20.6449 1.23
      vertex -16.9565 11.2101 1.23
    endloop
  endfacet
  facet normal -0.500003 -0.866024 0
    outer loop
      vertex -16.9565 -11.2101 1.23
      vertex -2.13042 -19.77 120
      vertex -16.9565 -11.2101 120
    endloop
  endfacet
  facet normal -0.500003 -0.866024 -0
    outer loop
      vertex -2.13042 -19.77 120
      vertex -16.9565 -11.2101 1.23
      vertex -2.13042 -19.77 1.23
    endloop
  endfacet
  facet normal -0 0 1
    outer loop
      vertex -18.1865 81.4194 120
      vertex -2.91021 80.1894 120
      vertex -0.779788 81.4194 120
    endloop
  endfacet
  facet normal 0 0 1
    outer loop
      vertex -18.1865 81.4194 120
      vertex -16.9565 72.0797 120
      vertex -16.9565 80.1894 120
    endloop
  endfacet
  facet normal 0 0 1
    outer loop
      vertex -16.9565 72.0797 120
      vertex -18.1865 81.4194 120
      vertex -16.9565 70.6594 120
    endloop
  endfacet
  facet normal 0 0 1
    outer loop
      vertex -16.9565 70.6594 120
      vertex -18.1865 50.3696 120
      vertex -16.9565 51.0797 120
    endloop
  endfacet
  facet normal 0 0 1
    outer loop
      vertex -16.9565 51.0797 120
      vertex -18.1865 50.3696 120
      vertex -16.9565 49.6594 120
    endloop
  endfacet
  facet normal 0 0 1
    outer loop
      vertex -16.9565 49.6594 120
      vertex -18.1865 50.3696 120
      vertex -16.9565 11.2101 120
    endloop
  endfacet
  facet normal 0 0 1
    outer loop
      vertex -18.1865 -10.5 120
      vertex -16.9565 11.2101 120
      vertex -18.1865 50.3696 120
    endloop
  endfacet
  facet normal 0 0 1
    outer loop
      vertex -16.9565 11.2101 120
      vertex -18.1865 -10.5 120
      vertex -16.9565 9.78986 120
    endloop
  endfacet
  facet normal 0 0 1
    outer loop
      vertex -16.9565 9.78986 120
      vertex -18.1865 -10.5 120
      vertex -16.9565 -9.78986 120
    endloop
  endfacet
  facet normal 0 0 1
    outer loop
      vertex -16.9565 70.6594 120
      vertex -18.1865 81.4194 120
      vertex -18.1865 50.3696 120
    endloop
  endfacet
  facet normal 0 0 1
    outer loop
      vertex -2.91021 80.1894 120
      vertex -18.1865 81.4194 120
      vertex -16.9565 80.1894 120
    endloop
  endfacet
  facet normal 0 0 1
    outer loop
      vertex -16.9565 -9.78986 120
      vertex -2.13042 -19.77 120
      vertex 2.80105e-07 -19.5797 120
    endloop
  endfacet
  facet normal 0 0 1
    outer loop
      vertex -2.13042 -19.77 120
      vertex -16.9565 -9.78986 120
      vertex -16.9565 -11.2101 120
    endloop
  endfacet
  facet normal 0 0 1
    outer loop
      vertex 0.615001 20.6449 120
      vertex -0.615 20.6449 120
      vertex -2.80105e-07 19.5797 120
    endloop
  endfacet
  facet normal 0 0 1
    outer loop
      vertex -16.9565 11.2101 120
      vertex -2.80105e-07 19.5797 120
      vertex -0.615 20.6449 120
    endloop
  endfacet
  facet normal 0 0 1
    outer loop
      vertex -2.80105e-07 19.5797 120
      vertex -16.9565 11.2101 120
      vertex -16.9565 9.78986 120
    endloop
  endfacet
  facet normal 0 0 1
    outer loop
      vertex 18.1865 51.0797 120
      vertex 16.9565 51.0797 120
      vertex 17.5715 50.0145 120
    endloop
  endfacet
  facet normal 0 0 1
    outer loop
      vertex 16.9565 51.0797 120
      vertex 0.615 40.2246 120
      vertex 17.5715 50.0145 120
    endloop
  endfacet
  facet normal 0 -0 1
    outer loop
      vertex 0.615 40.2246 120
      vertex 16.9565 51.0797 120
      vertex 2.80105e-07 41.2899 120
    endloop
  endfacet
  facet normal 0 0 1
    outer loop
      vertex 18.1865 -9.78986 120
      vertex 16.9565 -9.78986 120
      vertex 17.5715 -10.8551 120
    endloop
  endfacet
  facet normal 0 0 1
    outer loop
      vertex 16.9565 -9.78986 120
      vertex 2.13042 -19.77 120
      vertex 17.5715 -10.8551 120
    endloop
  endfacet
  facet normal 0 -0 1
    outer loop
      vertex 2.13042 -19.77 120
      vertex 16.9565 -9.78986 120
      vertex 2.80105e-07 -19.5797 120
    endloop
  endfacet
  facet normal 0 0 1
    outer loop
      vertex 34.3633 81.4194 120
      vertex 2.91021 80.1894 120
      vertex 32.2329 80.1894 120
    endloop
  endfacet
  facet normal 0 -0 1
    outer loop
      vertex 2.91021 80.1894 120
      vertex 34.3633 81.4194 120
      vertex 0.779789 81.4194 120
    endloop
  endfacet
  facet normal 0 0 1
    outer loop
      vertex 18.1865 -9.78986 120
      vertex 33.0126 -19.77 120
      vertex 35.1431 -19.5797 120
    endloop
  endfacet
  facet normal 0 0 1
    outer loop
      vertex 16.9565 9.78986 120
      vertex 18.1865 9.78986 120
      vertex 17.5715 10.8551 120
    endloop
  endfacet
  facet normal 0 0 1
    outer loop
      vertex 18.1865 -9.78986 120
      vertex 17.5715 -10.8551 120
      vertex 33.0126 -19.77 120
    endloop
  endfacet
  facet normal 0 0 1
    outer loop
      vertex 18.1865 9.78986 120
      vertex 16.9565 9.78986 120
      vertex 18.1865 -9.78986 120
    endloop
  endfacet
  facet normal 0 0 1
    outer loop
      vertex 16.9565 -9.78986 120
      vertex 18.1865 -9.78986 120
      vertex 16.9565 9.78986 120
    endloop
  endfacet
  facet normal 0 0 1
    outer loop
      vertex 0.615001 20.6449 120
      vertex 16.9565 9.78986 120
      vertex 17.5715 10.8551 120
    endloop
  endfacet
  facet normal 0 0 1
    outer loop
      vertex -0.615 40.2246 120
      vertex 0.615 40.2246 120
      vertex 2.80105e-07 41.2899 120
    endloop
  endfacet
  facet normal 0 0 1
    outer loop
      vertex 0.615001 20.6449 120
      vertex -2.80105e-07 19.5797 120
      vertex 16.9565 9.78986 120
    endloop
  endfacet
  facet normal 0 0 1
    outer loop
      vertex 0.615 40.2246 120
      vertex -0.615 40.2246 120
      vertex 0.615001 20.6449 120
    endloop
  endfacet
  facet normal 0 0 1
    outer loop
      vertex -0.615 20.6449 120
      vertex 0.615001 20.6449 120
      vertex -0.615 40.2246 120
    endloop
  endfacet
  facet normal -0 0 1
    outer loop
      vertex -16.9565 49.6594 120
      vertex 2.80105e-07 41.2899 120
      vertex -16.9565 51.0797 120
    endloop
  endfacet
  facet normal 0 0 1
    outer loop
      vertex 2.80105e-07 41.2899 120
      vertex -16.9565 49.6594 120
      vertex -0.615 40.2246 120
    endloop
  endfacet
  facet normal 0 0 1
    outer loop
      vertex 35.7581 20.6449 120
      vertex 34.5281 20.6449 120
      vertex 35.1431 19.5797 120
    endloop
  endfacet
  facet normal 0 0 1
    outer loop
      vertex 34.5281 20.6449 120
      vertex 18.1865 9.78986 120
      vertex 35.1431 19.5797 120
    endloop
  endfacet
  facet normal 0 -0 1
    outer loop
      vertex 18.1865 9.78986 120
      vertex 34.5281 20.6449 120
      vertex 17.5715 10.8551 120
    endloop
  endfacet
  facet normal 0 0 1
    outer loop
      vertex 52.0996 51.0797 120
      vertex 35.7581 40.2246 120
      vertex 52.7146 50.0145 120
    endloop
  endfacet
  facet normal 0 0 1
    outer loop
      vertex 34.5281 40.2246 120
      vertex 35.7581 40.2246 120
      vertex 35.1431 41.2899 120
    endloop
  endfacet
  facet normal -0 0 1
    outer loop
      vertex 35.1431 41.2899 120
      vertex 35.7581 40.2246 120
      vertex 52.0996 51.0797 120
    endloop
  endfacet
  facet normal 0 0 1
    outer loop
      vertex 52.0996 -9.78986 120
      vertex 37.2735 -19.77 120
      vertex 52.7146 -10.8551 120
    endloop
  endfacet
  facet normal 0 -0 1
    outer loop
      vertex 37.2735 -19.77 120
      vertex 52.0996 -9.78986 120
      vertex 35.1431 -19.5797 120
    endloop
  endfacet
  facet normal 0 0 1
    outer loop
      vertex 69.5063 81.4194 120
      vertex 38.0533 80.1894 120
      vertex 67.3759 80.1894 120
    endloop
  endfacet
  facet normal 0 -0 1
    outer loop
      vertex 38.0533 80.1894 120
      vertex 69.5063 81.4194 120
      vertex 35.9229 81.4194 120
    endloop
  endfacet
  facet normal 0 0 1
    outer loop
      vertex 53.3296 -9.78986 120
      vertex 68.1557 -19.77 120
      vertex 70.2861 -19.5797 120
    endloop
  endfacet
  facet normal 0 0 1
    outer loop
      vertex 53.3296 -9.78986 120
      vertex 52.7146 -10.8551 120
      vertex 68.1557 -19.77 120
    endloop
  endfacet
  facet normal 0 0 1
    outer loop
      vertex 53.3296 9.78986 120
      vertex 52.0996 9.78986 120
      vertex 53.3296 -9.78986 120
    endloop
  endfacet
  facet normal 0 0 1
    outer loop
      vertex 53.3296 -9.78986 120
      vertex 52.0996 -9.78986 120
      vertex 52.7146 -10.8551 120
    endloop
  endfacet
  facet normal 0 0 1
    outer loop
      vertex 53.3296 -9.78986 120
      vertex 52.0996 9.78986 120
      vertex 52.0996 -9.78986 120
    endloop
  endfacet
  facet normal 0 0 1
    outer loop
      vertex 35.7581 20.6449 120
      vertex 52.0996 9.78986 120
      vertex 52.7146 10.8551 120
    endloop
  endfacet
  facet normal 0 0 1
    outer loop
      vertex 35.7581 20.6449 120
      vertex 35.1431 19.5797 120
      vertex 52.0996 9.78986 120
    endloop
  endfacet
  facet normal 0 0 1
    outer loop
      vertex 35.7581 40.2246 120
      vertex 34.5281 40.2246 120
      vertex 35.7581 20.6449 120
    endloop
  endfacet
  facet normal 0 0 1
    outer loop
      vertex 34.5281 20.6449 120
      vertex 35.7581 20.6449 120
      vertex 34.5281 40.2246 120
    endloop
  endfacet
  facet normal 0 0 1
    outer loop
      vertex 18.1865 51.0797 120
      vertex 34.5281 40.2246 120
      vertex 35.1431 41.2899 120
    endloop
  endfacet
  facet normal 0 0 1
    outer loop
      vertex 16.9565 70.6594 120
      vertex 18.1865 70.6594 120
      vertex 17.5715 71.7246 120
    endloop
  endfacet
  facet normal 0 0 1
    outer loop
      vertex 18.1865 51.0797 120
      vertex 17.5715 50.0145 120
      vertex 34.5281 40.2246 120
    endloop
  endfacet
  facet normal 0 0 1
    outer loop
      vertex 18.1865 70.6594 120
      vertex 16.9565 70.6594 120
      vertex 18.1865 51.0797 120
    endloop
  endfacet
  facet normal 0 0 1
    outer loop
      vertex 16.9565 51.0797 120
      vertex 18.1865 51.0797 120
      vertex 16.9565 70.6594 120
    endloop
  endfacet
  facet normal 0 0 1
    outer loop
      vertex 2.91021 80.1894 120
      vertex 16.9565 70.6594 120
      vertex 17.5715 71.7246 120
    endloop
  endfacet
  facet normal 0 0 1
    outer loop
      vertex 0.450212 80.1894 120
      vertex 2.91021 80.1894 120
      vertex 0.779789 81.4194 120
    endloop
  endfacet
  facet normal 0 0 1
    outer loop
      vertex 2.91021 80.1894 120
      vertex 0.450212 80.1894 120
      vertex 16.9565 70.6594 120
    endloop
  endfacet
  facet normal 0 0 1
    outer loop
      vertex 2.52615e-07 81.8696 120
      vertex 0.450212 80.1894 120
      vertex 0.779789 81.4194 120
    endloop
  endfacet
  facet normal 0 0 1
    outer loop
      vertex 2.52615e-07 81.8696 120
      vertex -0.450213 80.1894 120
      vertex 0.450212 80.1894 120
    endloop
  endfacet
  facet normal -0 0 1
    outer loop
      vertex -0.779788 81.4194 120
      vertex -0.450213 80.1894 120
      vertex 2.52615e-07 81.8696 120
    endloop
  endfacet
  facet normal 0 0 1
    outer loop
      vertex -2.91021 80.1894 120
      vertex -0.450213 80.1894 120
      vertex -0.779788 81.4194 120
    endloop
  endfacet
  facet normal 0 0 1
    outer loop
      vertex -16.9565 70.6594 120
      vertex -2.91021 80.1894 120
      vertex -16.9565 72.0797 120
    endloop
  endfacet
  facet normal -0 0 1
    outer loop
      vertex -2.91021 80.1894 120
      vertex -16.9565 70.6594 120
      vertex -0.450213 80.1894 120
    endloop
  endfacet
  facet normal 0 0 1
    outer loop
      vertex 70.9011 20.6449 120
      vertex 69.6711 20.6449 120
      vertex 70.2861 19.5797 120
    endloop
  endfacet
  facet normal 0 0 1
    outer loop
      vertex 69.6711 20.6449 120
      vertex 53.3296 9.78986 120
      vertex 70.2861 19.5797 120
    endloop
  endfacet
  facet normal 0 0 1
    outer loop
      vertex 52.0996 9.78986 120
      vertex 53.3296 9.78986 120
      vertex 52.7146 10.8551 120
    endloop
  endfacet
  facet normal -0 0 1
    outer loop
      vertex 52.7146 10.8551 120
      vertex 53.3296 9.78986 120
      vertex 69.6711 20.6449 120
    endloop
  endfacet
  facet normal 0 0 1
    outer loop
      vertex 108.197 81.4194 120
      vertex 106.967 80.1894 120
      vertex 108.197 -21 120
    endloop
  endfacet
  facet normal 0 0 1
    outer loop
      vertex 108.197 81.4194 120
      vertex 73.1963 80.1894 120
      vertex 106.967 80.1894 120
    endloop
  endfacet
  facet normal 0 -0 1
    outer loop
      vertex 73.1963 80.1894 120
      vertex 108.197 81.4194 120
      vertex 71.0659 81.4194 120
    endloop
  endfacet
  facet normal -0 0 1
    outer loop
      vertex 106.967 -19.77 120
      vertex 108.197 -21 120
      vertex 106.967 80.1894 120
    endloop
  endfacet
  facet normal -0 0 1
    outer loop
      vertex 72.4166 -19.77 120
      vertex 108.197 -21 120
      vertex 106.967 -19.77 120
    endloop
  endfacet
  facet normal 0 0 1
    outer loop
      vertex 68.1557 -19.77 120
      vertex 72.4166 -19.77 120
      vertex 70.2861 -19.5797 120
    endloop
  endfacet
  facet normal -0 0 1
    outer loop
      vertex 68.1557 -19.77 120
      vertex 108.197 -21 120
      vertex 72.4166 -19.77 120
    endloop
  endfacet
  facet normal -0 0 1
    outer loop
      vertex 37.2735 -19.77 120
      vertex 108.197 -21 120
      vertex 68.1557 -19.77 120
    endloop
  endfacet
  facet normal 0 0 1
    outer loop
      vertex 33.0126 -19.77 120
      vertex 37.2735 -19.77 120
      vertex 35.1431 -19.5797 120
    endloop
  endfacet
  facet normal -0 0 1
    outer loop
      vertex 33.0126 -19.77 120
      vertex 108.197 -21 120
      vertex 37.2735 -19.77 120
    endloop
  endfacet
  facet normal 0 0 1
    outer loop
      vertex -18.1865 -21 120
      vertex 33.0126 -19.77 120
      vertex 2.13042 -19.77 120
    endloop
  endfacet
  facet normal 0 0 1
    outer loop
      vertex -2.13042 -19.77 120
      vertex 2.13042 -19.77 120
      vertex 2.80105e-07 -19.5797 120
    endloop
  endfacet
  facet normal 0 0 1
    outer loop
      vertex -18.1865 -21 120
      vertex 2.13042 -19.77 120
      vertex -2.13042 -19.77 120
    endloop
  endfacet
  facet normal 0 0 1
    outer loop
      vertex -18.1865 -21 120
      vertex -2.13042 -19.77 120
      vertex -16.9565 -19.77 120
    endloop
  endfacet
  facet normal 0 0 1
    outer loop
      vertex -16.9565 -9.78986 120
      vertex -18.1865 -10.5 120
      vertex -16.9565 -11.2101 120
    endloop
  endfacet
  facet normal 0 0 1
    outer loop
      vertex -16.9565 -11.2101 120
      vertex -18.1865 -10.5 120
      vertex -16.9565 -19.77 120
    endloop
  endfacet
  facet normal 0 0 1
    outer loop
      vertex 33.0126 -19.77 120
      vertex -18.1865 -21 120
      vertex 108.197 -21 120
    endloop
  endfacet
  facet normal 0 0 1
    outer loop
      vertex -18.1865 -21 120
      vertex -16.9565 -19.77 120
      vertex -18.1865 -10.5 120
    endloop
  endfacet
  facet normal 0 0 1
    outer loop
      vertex 70.9011 20.6449 120
      vertex 87.2427 9.78986 120
      vertex 87.8577 10.8551 120
    endloop
  endfacet
  facet normal 0 0 1
    outer loop
      vertex 69.6711 40.2246 120
      vertex 70.9011 40.2246 120
      vertex 70.2861 41.2899 120
    endloop
  endfacet
  facet normal 0 0 1
    outer loop
      vertex 70.9011 20.6449 120
      vertex 70.2861 19.5797 120
      vertex 87.2427 9.78986 120
    endloop
  endfacet
  facet normal 0 0 1
    outer loop
      vertex 70.9011 40.2246 120
      vertex 69.6711 40.2246 120
      vertex 70.9011 20.6449 120
    endloop
  endfacet
  facet normal 0 0 1
    outer loop
      vertex 69.6711 20.6449 120
      vertex 70.9011 20.6449 120
      vertex 69.6711 40.2246 120
    endloop
  endfacet
  facet normal 0 0 1
    outer loop
      vertex 53.3296 51.0797 120
      vertex 69.6711 40.2246 120
      vertex 70.2861 41.2899 120
    endloop
  endfacet
  facet normal 0 0 1
    outer loop
      vertex 53.3296 51.0797 120
      vertex 52.7146 50.0145 120
      vertex 69.6711 40.2246 120
    endloop
  endfacet
  facet normal 0 0 1
    outer loop
      vertex 53.3296 70.6594 120
      vertex 52.0996 70.6594 120
      vertex 53.3296 51.0797 120
    endloop
  endfacet
  facet normal 0 0 1
    outer loop
      vertex 53.3296 51.0797 120
      vertex 52.0996 51.0797 120
      vertex 52.7146 50.0145 120
    endloop
  endfacet
  facet normal 0 0 1
    outer loop
      vertex 53.3296 51.0797 120
      vertex 52.0996 70.6594 120
      vertex 52.0996 51.0797 120
    endloop
  endfacet
  facet normal 0 0 1
    outer loop
      vertex 38.0533 80.1894 120
      vertex 52.0996 70.6594 120
      vertex 52.7146 71.7246 120
    endloop
  endfacet
  facet normal 0 0 1
    outer loop
      vertex 35.5933 80.1894 120
      vertex 38.0533 80.1894 120
      vertex 35.9229 81.4194 120
    endloop
  endfacet
  facet normal 0 0 1
    outer loop
      vertex 38.0533 80.1894 120
      vertex 35.5933 80.1894 120
      vertex 52.0996 70.6594 120
    endloop
  endfacet
  facet normal 0 0 1
    outer loop
      vertex 35.1431 81.8696 120
      vertex 35.5933 80.1894 120
      vertex 35.9229 81.4194 120
    endloop
  endfacet
  facet normal 0 0 1
    outer loop
      vertex 35.1431 81.8696 120
      vertex 34.6929 80.1894 120
      vertex 35.5933 80.1894 120
    endloop
  endfacet
  facet normal -0 0 1
    outer loop
      vertex 34.3633 81.4194 120
      vertex 34.6929 80.1894 120
      vertex 35.1431 81.8696 120
    endloop
  endfacet
  facet normal 0 0 1
    outer loop
      vertex 32.2329 80.1894 120
      vertex 34.6929 80.1894 120
      vertex 34.3633 81.4194 120
    endloop
  endfacet
  facet normal -0 0 1
    outer loop
      vertex 32.2329 80.1894 120
      vertex 18.1865 70.6594 120
      vertex 34.6929 80.1894 120
    endloop
  endfacet
  facet normal 0 -0 1
    outer loop
      vertex 18.1865 70.6594 120
      vertex 32.2329 80.1894 120
      vertex 17.5715 71.7246 120
    endloop
  endfacet
  facet normal -0 0 1
    outer loop
      vertex 87.2427 70.6594 120
      vertex 88.4727 51.0797 120
      vertex 88.4727 71.3696 120
    endloop
  endfacet
  facet normal 0 0 1
    outer loop
      vertex 88.4727 51.0797 120
      vertex 87.2427 70.6594 120
      vertex 87.2427 51.0797 120
    endloop
  endfacet
  facet normal 0 0 1
    outer loop
      vertex 73.1963 80.1894 120
      vertex 87.2427 70.6594 120
      vertex 88.4727 71.3696 120
    endloop
  endfacet
  facet normal 0 0 1
    outer loop
      vertex 70.7363 80.1894 120
      vertex 73.1963 80.1894 120
      vertex 71.0659 81.4194 120
    endloop
  endfacet
  facet normal 0 0 1
    outer loop
      vertex 73.1963 80.1894 120
      vertex 70.7363 80.1894 120
      vertex 87.2427 70.6594 120
    endloop
  endfacet
  facet normal 0 0 1
    outer loop
      vertex 70.2861 81.8696 120
      vertex 70.7363 80.1894 120
      vertex 71.0659 81.4194 120
    endloop
  endfacet
  facet normal 0 0 1
    outer loop
      vertex 70.2861 81.8696 120
      vertex 69.8359 80.1894 120
      vertex 70.7363 80.1894 120
    endloop
  endfacet
  facet normal -0 0 1
    outer loop
      vertex 69.5063 81.4194 120
      vertex 69.8359 80.1894 120
      vertex 70.2861 81.8696 120
    endloop
  endfacet
  facet normal 0 0 1
    outer loop
      vertex 67.3759 80.1894 120
      vertex 69.8359 80.1894 120
      vertex 69.5063 81.4194 120
    endloop
  endfacet
  facet normal -0 0 1
    outer loop
      vertex 67.3759 80.1894 120
      vertex 53.3296 70.6594 120
      vertex 69.8359 80.1894 120
    endloop
  endfacet
  facet normal 0 0 1
    outer loop
      vertex 52.0996 70.6594 120
      vertex 53.3296 70.6594 120
      vertex 52.7146 71.7246 120
    endloop
  endfacet
  facet normal -0 0 1
    outer loop
      vertex 52.7146 71.7246 120
      vertex 53.3296 70.6594 120
      vertex 67.3759 80.1894 120
    endloop
  endfacet
  facet normal 0 0 1
    outer loop
      vertex 106.044 40.9348 120
      vertex 104.814 40.2246 120
      vertex 106.044 19.9348 120
    endloop
  endfacet
  facet normal 0 0 1
    outer loop
      vertex 88.4727 51.0797 120
      vertex 104.814 40.2246 120
      vertex 106.044 40.9348 120
    endloop
  endfacet
  facet normal 0 0 1
    outer loop
      vertex 104.814 40.2246 120
      vertex 88.4727 51.0797 120
      vertex 87.8577 50.0145 120
    endloop
  endfacet
  facet normal -0 0 1
    outer loop
      vertex 104.814 20.6449 120
      vertex 106.044 19.9348 120
      vertex 104.814 40.2246 120
    endloop
  endfacet
  facet normal 0 0 1
    outer loop
      vertex 104.814 20.6449 120
      vertex 88.4727 9.78986 120
      vertex 106.044 19.9348 120
    endloop
  endfacet
  facet normal -0 0 1
    outer loop
      vertex 87.8577 10.8551 120
      vertex 88.4727 9.78986 120
      vertex 104.814 20.6449 120
    endloop
  endfacet
  facet normal 0 0 1
    outer loop
      vertex 87.2427 9.78986 120
      vertex 88.4727 9.78986 120
      vertex 87.8577 10.8551 120
    endloop
  endfacet
  facet normal 0 0 1
    outer loop
      vertex 87.2427 -9.78986 120
      vertex 88.4727 9.78986 120
      vertex 87.2427 9.78986 120
    endloop
  endfacet
  facet normal 0 0 1
    outer loop
      vertex 88.4727 9.78986 120
      vertex 87.2427 -9.78986 120
      vertex 88.4727 -10.5 120
    endloop
  endfacet
  facet normal 0 0 1
    outer loop
      vertex 87.2427 -9.78986 120
      vertex 72.4166 -19.77 120
      vertex 88.4727 -10.5 120
    endloop
  endfacet
  facet normal 0 -0 1
    outer loop
      vertex 72.4166 -19.77 120
      vertex 87.2427 -9.78986 120
      vertex 70.2861 -19.5797 120
    endloop
  endfacet
  facet normal 0 0 1
    outer loop
      vertex 88.4727 51.0797 120
      vertex 87.2427 51.0797 120
      vertex 87.8577 50.0145 120
    endloop
  endfacet
  facet normal 0 0 1
    outer loop
      vertex 87.2427 51.0797 120
      vertex 70.9011 40.2246 120
      vertex 87.8577 50.0145 120
    endloop
  endfacet
  facet normal 0 -0 1
    outer loop
      vertex 70.9011 40.2246 120
      vertex 87.2427 51.0797 120
      vertex 70.2861 41.2899 120
    endloop
  endfacet
  facet normal 0 0 -1
    outer loop
      vertex 108.197 -21 0
      vertex 71.0659 81.4194 0
      vertex 108.197 81.4194 0
    endloop
  endfacet
  facet normal 0 0 -1
    outer loop
      vertex 69.5063 81.4194 0
      vertex 71.0659 81.4194 0
      vertex 108.197 -21 0
    endloop
  endfacet
  facet normal 0 0 -1
    outer loop
      vertex 71.0659 81.4194 0
      vertex 69.5063 81.4194 0
      vertex 70.2861 81.8696 0
    endloop
  endfacet
  facet normal 0 0 -1
    outer loop
      vertex 108.197 -21 0
      vertex 35.9229 81.4194 0
      vertex 69.5063 81.4194 0
    endloop
  endfacet
  facet normal 0 0 -1
    outer loop
      vertex -18.1865 -10.5 0
      vertex 35.9229 81.4194 0
      vertex 108.197 -21 0
    endloop
  endfacet
  facet normal 0 0 -1
    outer loop
      vertex 35.9229 81.4194 0
      vertex 34.3633 81.4194 0
      vertex 35.1431 81.8696 0
    endloop
  endfacet
  facet normal -0 0 -1
    outer loop
      vertex 35.9229 81.4194 0
      vertex -18.1865 -10.5 0
      vertex 34.3633 81.4194 0
    endloop
  endfacet
  facet normal -0 0 -1
    outer loop
      vertex 34.3633 81.4194 0
      vertex -18.1865 50.3696 0
      vertex 0.779789 81.4194 0
    endloop
  endfacet
  facet normal 0 -0 -1
    outer loop
      vertex -0.779788 81.4194 0
      vertex 0.779789 81.4194 0
      vertex -18.1865 50.3696 0
    endloop
  endfacet
  facet normal 0 0 -1
    outer loop
      vertex -18.1865 -10.5 0
      vertex 108.197 -21 0
      vertex -18.1865 -21 0
    endloop
  endfacet
  facet normal 0 0 -1
    outer loop
      vertex 34.3633 81.4194 0
      vertex -18.1865 -10.5 0
      vertex -18.1865 50.3696 0
    endloop
  endfacet
  facet normal 0 0 -1
    outer loop
      vertex 0.779789 81.4194 0
      vertex -0.779788 81.4194 0
      vertex 2.52615e-07 81.8696 0
    endloop
  endfacet
  facet normal -0 0 -1
    outer loop
      vertex -0.779788 81.4194 0
      vertex -18.1865 50.3696 0
      vertex -18.1865 81.4194 0
    endloop
  endfacet
  facet normal 0.5 -0.866026 0
    outer loop
      vertex 2.13042 -19.77 1.23
      vertex 17.5715 -10.8551 120
      vertex 2.13042 -19.77 120
    endloop
  endfacet
  facet normal 0.5 -0.866026 0
    outer loop
      vertex 17.5715 -10.8551 120
      vertex 2.13042 -19.77 1.23
      vertex 17.5715 -10.8551 1.23
    endloop
  endfacet
  facet normal -0.5 -0.866025 0
    outer loop
      vertex -2.80105e-07 19.5797 1.23
      vertex 16.9565 9.78986 120
      vertex -2.80105e-07 19.5797 120
    endloop
  endfacet
  facet normal -0.5 -0.866025 -0
    outer loop
      vertex 16.9565 9.78986 120
      vertex -2.80105e-07 19.5797 1.23
      vertex 16.9565 9.78986 1.23
    endloop
  endfacet
  facet normal 1 -0 0
    outer loop
      vertex -16.9565 -9.78986 120
      vertex -16.9565 9.78986 1.23
      vertex -16.9565 9.78986 120
    endloop
  endfacet
  facet normal 1 0 0
    outer loop
      vertex -16.9565 9.78986 1.23
      vertex -16.9565 -9.78986 120
      vertex -16.9565 -9.78986 1.23
    endloop
  endfacet
  facet normal 0.5 -0.866025 0
    outer loop
      vertex -16.9565 9.78986 1.23
      vertex -2.80105e-07 19.5797 120
      vertex -16.9565 9.78986 120
    endloop
  endfacet
  facet normal 0.5 -0.866025 0
    outer loop
      vertex -2.80105e-07 19.5797 120
      vertex -16.9565 9.78986 1.23
      vertex -2.80105e-07 19.5797 1.23
    endloop
  endfacet
  facet normal -1 0 0
    outer loop
      vertex 16.9565 -9.78986 1.23
      vertex 16.9565 9.78986 120
      vertex 16.9565 9.78986 1.23
    endloop
  endfacet
  facet normal -1 -0 0
    outer loop
      vertex 16.9565 9.78986 120
      vertex 16.9565 -9.78986 1.23
      vertex 16.9565 -9.78986 120
    endloop
  endfacet
  facet normal 0 0 1
    outer loop
      vertex -2.13042 -19.77 1.23
      vertex -16.9565 -11.2101 1.23
      vertex -16.9565 -19.77 1.23
    endloop
  endfacet
  facet normal 0 0 1
    outer loop
      vertex 106.967 80.1894 1.23
      vertex 106.044 40.9348 1.23
      vertex 106.967 -19.77 1.23
    endloop
  endfacet
  facet normal 0 0 1
    outer loop
      vertex 88.4727 51.0797 1.23
      vertex 106.967 80.1894 1.23
      vertex 88.4727 71.3696 1.23
    endloop
  endfacet
  facet normal 0 -0 1
    outer loop
      vertex 88.4727 71.3696 1.23
      vertex 106.967 80.1894 1.23
      vertex 73.1963 80.1894 1.23
    endloop
  endfacet
  facet normal -0 0 1
    outer loop
      vertex 106.044 19.9348 1.23
      vertex 106.967 -19.77 1.23
      vertex 106.044 40.9348 1.23
    endloop
  endfacet
  facet normal -0 0 1
    outer loop
      vertex 88.4727 9.78986 1.23
      vertex 106.967 -19.77 1.23
      vertex 106.044 19.9348 1.23
    endloop
  endfacet
  facet normal -0 0 1
    outer loop
      vertex 88.4727 -10.5 1.23
      vertex 106.967 -19.77 1.23
      vertex 88.4727 9.78986 1.23
    endloop
  endfacet
  facet normal 0 0 1
    outer loop
      vertex 106.967 -19.77 1.23
      vertex 88.4727 -10.5 1.23
      vertex 72.4166 -19.77 1.23
    endloop
  endfacet
  facet normal 0 0 1
    outer loop
      vertex 106.967 80.1894 1.23
      vertex 88.4727 51.0797 1.23
      vertex 106.044 40.9348 1.23
    endloop
  endfacet
  facet normal 0 0 1
    outer loop
      vertex -2.91021 80.1894 1.23
      vertex -16.9565 80.1894 1.23
      vertex -16.9565 72.0797 1.23
    endloop
  endfacet
  facet normal 0 0 1
    outer loop
      vertex 70.7363 80.1894 1.23
      vertex 87.2427 51.0797 1.23
      vertex 87.2427 70.6594 1.23
    endloop
  endfacet
  facet normal 0 0 1
    outer loop
      vertex 70.7363 80.1894 1.23
      vertex 70.2861 41.2899 1.23
      vertex 87.2427 51.0797 1.23
    endloop
  endfacet
  facet normal -0 0 1
    outer loop
      vertex 69.8359 80.1894 1.23
      vertex 70.2861 41.2899 1.23
      vertex 70.7363 80.1894 1.23
    endloop
  endfacet
  facet normal 0 0 1
    outer loop
      vertex 53.3296 51.0797 1.23
      vertex 69.8359 80.1894 1.23
      vertex 53.3296 70.6594 1.23
    endloop
  endfacet
  facet normal 0 0 1
    outer loop
      vertex 69.8359 80.1894 1.23
      vertex 53.3296 51.0797 1.23
      vertex 70.2861 41.2899 1.23
    endloop
  endfacet
  facet normal 0 0 1
    outer loop
      vertex 87.8577 50.0145 1.23
      vertex 104.814 20.6449 1.23
      vertex 104.814 40.2246 1.23
    endloop
  endfacet
  facet normal 0 0 1
    outer loop
      vertex 87.8577 50.0145 1.23
      vertex 87.8577 10.8551 1.23
      vertex 104.814 20.6449 1.23
    endloop
  endfacet
  facet normal 0 0 1
    outer loop
      vertex 87.8577 50.0145 1.23
      vertex 70.9011 20.6449 1.23
      vertex 87.8577 10.8551 1.23
    endloop
  endfacet
  facet normal 0 0 1
    outer loop
      vertex 70.9011 20.6449 1.23
      vertex 87.8577 50.0145 1.23
      vertex 70.9011 40.2246 1.23
    endloop
  endfacet
  facet normal 0 0 1
    outer loop
      vertex 70.2861 19.5797 1.23
      vertex 87.2427 -9.78986 1.23
      vertex 87.2427 9.78986 1.23
    endloop
  endfacet
  facet normal 0 0 1
    outer loop
      vertex 70.2861 19.5797 1.23
      vertex 70.2861 -19.5797 1.23
      vertex 87.2427 -9.78986 1.23
    endloop
  endfacet
  facet normal -0 0 1
    outer loop
      vertex 53.3296 9.78986 1.23
      vertex 70.2861 -19.5797 1.23
      vertex 70.2861 19.5797 1.23
    endloop
  endfacet
  facet normal 0 0 1
    outer loop
      vertex 70.2861 -19.5797 1.23
      vertex 53.3296 9.78986 1.23
      vertex 53.3296 -9.78986 1.23
    endloop
  endfacet
  facet normal 0 0 1
    outer loop
      vertex 35.5933 80.1894 1.23
      vertex 52.0996 51.0797 1.23
      vertex 52.0996 70.6594 1.23
    endloop
  endfacet
  facet normal 0 0 1
    outer loop
      vertex 35.5933 80.1894 1.23
      vertex 35.1431 41.2899 1.23
      vertex 52.0996 51.0797 1.23
    endloop
  endfacet
  facet normal -0 0 1
    outer loop
      vertex 34.6929 80.1894 1.23
      vertex 35.1431 41.2899 1.23
      vertex 35.5933 80.1894 1.23
    endloop
  endfacet
  facet normal 0 0 1
    outer loop
      vertex 34.6929 80.1894 1.23
      vertex 18.1865 51.0797 1.23
      vertex 35.1431 41.2899 1.23
    endloop
  endfacet
  facet normal 0 0 1
    outer loop
      vertex 18.1865 51.0797 1.23
      vertex 34.6929 80.1894 1.23
      vertex 18.1865 70.6594 1.23
    endloop
  endfacet
  facet normal 0 0 1
    outer loop
      vertex 52.7146 50.0145 1.23
      vertex 69.6711 20.6449 1.23
      vertex 69.6711 40.2246 1.23
    endloop
  endfacet
  facet normal 0 0 1
    outer loop
      vertex 52.7146 50.0145 1.23
      vertex 52.7146 10.8551 1.23
      vertex 69.6711 20.6449 1.23
    endloop
  endfacet
  facet normal -0 0 1
    outer loop
      vertex 35.7581 40.2246 1.23
      vertex 52.7146 10.8551 1.23
      vertex 52.7146 50.0145 1.23
    endloop
  endfacet
  facet normal 0 0 1
    outer loop
      vertex 52.7146 10.8551 1.23
      vertex 35.7581 40.2246 1.23
      vertex 35.7581 20.6449 1.23
    endloop
  endfacet
  facet normal 0 0 1
    outer loop
      vertex 35.1431 19.5797 1.23
      vertex 52.0996 -9.78986 1.23
      vertex 52.0996 9.78986 1.23
    endloop
  endfacet
  facet normal 0 0 1
    outer loop
      vertex 35.1431 19.5797 1.23
      vertex 35.1431 -19.5797 1.23
      vertex 52.0996 -9.78986 1.23
    endloop
  endfacet
  facet normal 0 0 1
    outer loop
      vertex 35.1431 19.5797 1.23
      vertex 18.1865 -9.78986 1.23
      vertex 35.1431 -19.5797 1.23
    endloop
  endfacet
  facet normal 0 0 1
    outer loop
      vertex 18.1865 -9.78986 1.23
      vertex 35.1431 19.5797 1.23
      vertex 18.1865 9.78986 1.23
    endloop
  endfacet
  facet normal 0 0 1
    outer loop
      vertex 0.450212 80.1894 1.23
      vertex 16.9565 51.0797 1.23
      vertex 16.9565 70.6594 1.23
    endloop
  endfacet
  facet normal 0 0 1
    outer loop
      vertex 0.450212 80.1894 1.23
      vertex 2.80105e-07 41.2899 1.23
      vertex 16.9565 51.0797 1.23
    endloop
  endfacet
  facet normal -0 0 1
    outer loop
      vertex -0.450213 80.1894 1.23
      vertex 2.80105e-07 41.2899 1.23
      vertex 0.450212 80.1894 1.23
    endloop
  endfacet
  facet normal 0 0 1
    outer loop
      vertex -16.9565 51.0797 1.23
      vertex -0.450213 80.1894 1.23
      vertex -16.9565 70.6594 1.23
    endloop
  endfacet
  facet normal 0 0 1
    outer loop
      vertex -0.450213 80.1894 1.23
      vertex -16.9565 51.0797 1.23
      vertex 2.80105e-07 41.2899 1.23
    endloop
  endfacet
  facet normal 0 0 1
    outer loop
      vertex 17.5715 50.0145 1.23
      vertex 34.5281 20.6449 1.23
      vertex 34.5281 40.2246 1.23
    endloop
  endfacet
  facet normal 0 0 1
    outer loop
      vertex 17.5715 50.0145 1.23
      vertex 17.5715 10.8551 1.23
      vertex 34.5281 20.6449 1.23
    endloop
  endfacet
  facet normal 0 0 1
    outer loop
      vertex 17.5715 50.0145 1.23
      vertex 0.615001 20.6449 1.23
      vertex 17.5715 10.8551 1.23
    endloop
  endfacet
  facet normal 0 -0 1
    outer loop
      vertex 0.615001 20.6449 1.23
      vertex 17.5715 50.0145 1.23
      vertex 0.615 40.2246 1.23
    endloop
  endfacet
  facet normal 0 0 1
    outer loop
      vertex 16.9565 9.78986 1.23
      vertex 2.80105e-07 -19.5797 1.23
      vertex 16.9565 -9.78986 1.23
    endloop
  endfacet
  facet normal 0 0 1
    outer loop
      vertex -2.80105e-07 19.5797 1.23
      vertex 2.80105e-07 -19.5797 1.23
      vertex 16.9565 9.78986 1.23
    endloop
  endfacet
  facet normal -0 0 1
    outer loop
      vertex -16.9565 9.78986 1.23
      vertex 2.80105e-07 -19.5797 1.23
      vertex -2.80105e-07 19.5797 1.23
    endloop
  endfacet
  facet normal 0 0 1
    outer loop
      vertex 2.80105e-07 -19.5797 1.23
      vertex -16.9565 9.78986 1.23
      vertex -16.9565 -9.78986 1.23
    endloop
  endfacet
  facet normal 0 0 1
    outer loop
      vertex -16.9565 49.6594 1.23
      vertex -0.615 20.6449 1.23
      vertex -0.615 40.2246 1.23
    endloop
  endfacet
  facet normal 0 0 1
    outer loop
      vertex -0.615 20.6449 1.23
      vertex -16.9565 49.6594 1.23
      vertex -16.9565 11.2101 1.23
    endloop
  endfacet
  facet normal 0 0 1
    outer loop
      vertex 33.0126 -19.77 1.23
      vertex 17.5715 -10.8551 1.23
      vertex 2.13042 -19.77 1.23
    endloop
  endfacet
  facet normal 0 0 1
    outer loop
      vertex 68.1557 -19.77 1.23
      vertex 52.7146 -10.8551 1.23
      vertex 37.2735 -19.77 1.23
    endloop
  endfacet
  facet normal 0 -0 1
    outer loop
      vertex 17.5715 71.7246 1.23
      vertex 32.2329 80.1894 1.23
      vertex 2.91021 80.1894 1.23
    endloop
  endfacet
  facet normal 0 -0 1
    outer loop
      vertex 52.7146 71.7246 1.23
      vertex 67.3759 80.1894 1.23
      vertex 38.0533 80.1894 1.23
    endloop
  endfacet
  facet normal -0.5 0.866025 0
    outer loop
      vertex 16.9565 -9.78986 1.23
      vertex 2.80105e-07 -19.5797 120
      vertex 16.9565 -9.78986 120
    endloop
  endfacet
  facet normal -0.5 0.866025 0
    outer loop
      vertex 2.80105e-07 -19.5797 120
      vertex 16.9565 -9.78986 1.23
      vertex 2.80105e-07 -19.5797 1.23
    endloop
  endfacet
  facet normal 0.5 0.866025 -0
    outer loop
      vertex 2.80105e-07 -19.5797 1.23
      vertex -16.9565 -9.78986 120
      vertex 2.80105e-07 -19.5797 120
    endloop
  endfacet
  facet normal 0.5 0.866025 0
    outer loop
      vertex -16.9565 -9.78986 120
      vertex 2.80105e-07 -19.5797 1.23
      vertex -16.9565 -9.78986 1.23
    endloop
  endfacet
  facet normal -1 0 0
    outer loop
      vertex -0.615 20.6449 1.23
      vertex -0.615 40.2246 120
      vertex -0.615 40.2246 1.23
    endloop
  endfacet
  facet normal -1 -0 0
    outer loop
      vertex -0.615 40.2246 120
      vertex -0.615 20.6449 1.23
      vertex -0.615 20.6449 120
    endloop
  endfacet
  facet normal -0.5 -0.866025 0
    outer loop
      vertex 17.5715 50.0145 1.23
      vertex 34.5281 40.2246 120
      vertex 17.5715 50.0145 120
    endloop
  endfacet
  facet normal -0.5 -0.866025 -0
    outer loop
      vertex 34.5281 40.2246 120
      vertex 17.5715 50.0145 1.23
      vertex 34.5281 40.2246 1.23
    endloop
  endfacet
  facet normal 1 5.10733e-08 0
    outer loop
      vertex 0.615001 20.6449 120
      vertex 0.615 40.2246 1.23
      vertex 0.615 40.2246 120
    endloop
  endfacet
  facet normal 1 5.10733e-08 0
    outer loop
      vertex 0.615 40.2246 1.23
      vertex 0.615001 20.6449 120
      vertex 0.615001 20.6449 1.23
    endloop
  endfacet
  facet normal 0.500002 -0.866024 0
    outer loop
      vertex 0.615 40.2246 1.23
      vertex 17.5715 50.0145 120
      vertex 0.615 40.2246 120
    endloop
  endfacet
  facet normal 0.500002 -0.866024 0
    outer loop
      vertex 17.5715 50.0145 120
      vertex 0.615 40.2246 1.23
      vertex 17.5715 50.0145 1.23
    endloop
  endfacet
  facet normal -1 0 0
    outer loop
      vertex 34.5281 20.6449 1.23
      vertex 34.5281 40.2246 120
      vertex 34.5281 40.2246 1.23
    endloop
  endfacet
  facet normal -1 -0 0
    outer loop
      vertex 34.5281 40.2246 120
      vertex 34.5281 20.6449 1.23
      vertex 34.5281 20.6449 120
    endloop
  endfacet
  facet normal -0.499996 0.866028 0
    outer loop
      vertex 34.5281 20.6449 1.23
      vertex 17.5715 10.8551 120
      vertex 34.5281 20.6449 120
    endloop
  endfacet
  facet normal -0.499996 0.866028 0
    outer loop
      vertex 17.5715 10.8551 120
      vertex 34.5281 20.6449 1.23
      vertex 17.5715 10.8551 1.23
    endloop
  endfacet
  facet normal 0.499998 0.866026 -0
    outer loop
      vertex 17.5715 10.8551 1.23
      vertex 0.615001 20.6449 120
      vertex 17.5715 10.8551 120
    endloop
  endfacet
  facet normal 0.499998 0.866026 0
    outer loop
      vertex 0.615001 20.6449 120
      vertex 17.5715 10.8551 1.23
      vertex 0.615001 20.6449 1.23
    endloop
  endfacet
  facet normal 0.499991 0.866031 -0
    outer loop
      vertex 0.779789 81.4194 0
      vertex 2.52615e-07 81.8696 120
      vertex 0.779789 81.4194 120
    endloop
  endfacet
  facet normal 0.499991 0.866031 0
    outer loop
      vertex 2.52615e-07 81.8696 120
      vertex 0.779789 81.4194 0
      vertex 2.52615e-07 81.8696 0
    endloop
  endfacet
  facet normal 0.500004 0.866023 -0
    outer loop
      vertex 17.5715 71.7246 1.23
      vertex 2.91021 80.1894 120
      vertex 17.5715 71.7246 120
    endloop
  endfacet
  facet normal 0.500004 0.866023 0
    outer loop
      vertex 2.91021 80.1894 120
      vertex 17.5715 71.7246 1.23
      vertex 2.91021 80.1894 1.23
    endloop
  endfacet
  facet normal -0.499991 0.866031 0
    outer loop
      vertex 2.52615e-07 81.8696 0
      vertex -0.779788 81.4194 120
      vertex 2.52615e-07 81.8696 120
    endloop
  endfacet
  facet normal -0.499991 0.866031 0
    outer loop
      vertex -0.779788 81.4194 120
      vertex 2.52615e-07 81.8696 0
      vertex -0.779788 81.4194 0
    endloop
  endfacet
  facet normal -0.500003 0.866024 0
    outer loop
      vertex -2.91021 80.1894 1.23
      vertex -16.9565 72.0797 120
      vertex -2.91021 80.1894 120
    endloop
  endfacet
  facet normal -0.500003 0.866024 0
    outer loop
      vertex -16.9565 72.0797 120
      vertex -2.91021 80.1894 1.23
      vertex -16.9565 72.0797 1.23
    endloop
  endfacet
  facet normal -0.500001 -0.866025 0
    outer loop
      vertex -16.9565 49.6594 1.23
      vertex -0.615 40.2246 120
      vertex -16.9565 49.6594 120
    endloop
  endfacet
  facet normal -0.500001 -0.866025 -0
    outer loop
      vertex -0.615 40.2246 120
      vertex -16.9565 49.6594 1.23
      vertex -0.615 40.2246 1.23
    endloop
  endfacet
  facet normal -0.500004 -0.866023 0
    outer loop
      vertex 0.450212 80.1894 1.23
      vertex 16.9565 70.6594 120
      vertex 0.450212 80.1894 120
    endloop
  endfacet
  facet normal -0.500004 -0.866023 -0
    outer loop
      vertex 16.9565 70.6594 120
      vertex 0.450212 80.1894 1.23
      vertex 16.9565 70.6594 1.23
    endloop
  endfacet
  facet normal 1 -0 0
    outer loop
      vertex -16.9565 51.0797 120
      vertex -16.9565 70.6594 1.23
      vertex -16.9565 70.6594 120
    endloop
  endfacet
  facet normal 1 0 0
    outer loop
      vertex -16.9565 70.6594 1.23
      vertex -16.9565 51.0797 120
      vertex -16.9565 51.0797 1.23
    endloop
  endfacet
  facet normal 0.500004 -0.866023 0
    outer loop
      vertex -16.9565 70.6594 1.23
      vertex -0.450213 80.1894 120
      vertex -16.9565 70.6594 120
    endloop
  endfacet
  facet normal 0.500004 -0.866023 0
    outer loop
      vertex -0.450213 80.1894 120
      vertex -16.9565 70.6594 1.23
      vertex -0.450213 80.1894 1.23
    endloop
  endfacet
  facet normal -1 0 0
    outer loop
      vertex 16.9565 51.0797 1.23
      vertex 16.9565 70.6594 120
      vertex 16.9565 70.6594 1.23
    endloop
  endfacet
  facet normal -1 -0 0
    outer loop
      vertex 16.9565 70.6594 120
      vertex 16.9565 51.0797 1.23
      vertex 16.9565 51.0797 120
    endloop
  endfacet
  facet normal -0.499998 0.866026 0
    outer loop
      vertex 16.9565 51.0797 1.23
      vertex 2.80105e-07 41.2899 120
      vertex 16.9565 51.0797 120
    endloop
  endfacet
  facet normal -0.499998 0.866026 0
    outer loop
      vertex 2.80105e-07 41.2899 120
      vertex 16.9565 51.0797 1.23
      vertex 2.80105e-07 41.2899 1.23
    endloop
  endfacet
  facet normal 0.499998 0.866026 -0
    outer loop
      vertex 2.80105e-07 41.2899 1.23
      vertex -16.9565 51.0797 120
      vertex 2.80105e-07 41.2899 120
    endloop
  endfacet
  facet normal 0.499998 0.866026 0
    outer loop
      vertex -16.9565 51.0797 120
      vertex 2.80105e-07 41.2899 1.23
      vertex -16.9565 51.0797 1.23
    endloop
  endfacet
  facet normal -0.499999 -0.866026 0
    outer loop
      vertex 17.5715 -10.8551 1.23
      vertex 33.0126 -19.77 120
      vertex 17.5715 -10.8551 120
    endloop
  endfacet
  facet normal -0.499999 -0.866026 -0
    outer loop
      vertex 33.0126 -19.77 120
      vertex 17.5715 -10.8551 1.23
      vertex 33.0126 -19.77 1.23
    endloop
  endfacet
  facet normal 0.499999 -0.866026 0
    outer loop
      vertex 37.2735 -19.77 1.23
      vertex 52.7146 -10.8551 120
      vertex 37.2735 -19.77 120
    endloop
  endfacet
  facet normal 0.499999 -0.866026 0
    outer loop
      vertex 52.7146 -10.8551 120
      vertex 37.2735 -19.77 1.23
      vertex 52.7146 -10.8551 1.23
    endloop
  endfacet
  facet normal -0.5 -0.866025 0
    outer loop
      vertex 35.1431 19.5797 1.23
      vertex 52.0996 9.78986 120
      vertex 35.1431 19.5797 120
    endloop
  endfacet
  facet normal -0.5 -0.866025 -0
    outer loop
      vertex 52.0996 9.78986 120
      vertex 35.1431 19.5797 1.23
      vertex 52.0996 9.78986 1.23
    endloop
  endfacet
  facet normal 1 -0 0
    outer loop
      vertex 18.1865 -9.78986 120
      vertex 18.1865 9.78986 1.23
      vertex 18.1865 9.78986 120
    endloop
  endfacet
  facet normal 1 0 0
    outer loop
      vertex 18.1865 9.78986 1.23
      vertex 18.1865 -9.78986 120
      vertex 18.1865 -9.78986 1.23
    endloop
  endfacet
  facet normal 0.499998 -0.866027 0
    outer loop
      vertex 18.1865 9.78986 1.23
      vertex 35.1431 19.5797 120
      vertex 18.1865 9.78986 120
    endloop
  endfacet
  facet normal 0.499998 -0.866027 0
    outer loop
      vertex 35.1431 19.5797 120
      vertex 18.1865 9.78986 1.23
      vertex 35.1431 19.5797 1.23
    endloop
  endfacet
  facet normal -1 0 0
    outer loop
      vertex 52.0996 -9.78986 1.23
      vertex 52.0996 9.78986 120
      vertex 52.0996 9.78986 1.23
    endloop
  endfacet
  facet normal -1 -0 0
    outer loop
      vertex 52.0996 9.78986 120
      vertex 52.0996 -9.78986 1.23
      vertex 52.0996 -9.78986 120
    endloop
  endfacet
  facet normal -0.5 0.866025 0
    outer loop
      vertex 52.0996 -9.78986 1.23
      vertex 35.1431 -19.5797 120
      vertex 52.0996 -9.78986 120
    endloop
  endfacet
  facet normal -0.5 0.866025 0
    outer loop
      vertex 35.1431 -19.5797 120
      vertex 52.0996 -9.78986 1.23
      vertex 35.1431 -19.5797 1.23
    endloop
  endfacet
  facet normal 0.499998 0.866027 -0
    outer loop
      vertex 35.1431 -19.5797 1.23
      vertex 18.1865 -9.78986 120
      vertex 35.1431 -19.5797 120
    endloop
  endfacet
  facet normal 0.499998 0.866027 0
    outer loop
      vertex 18.1865 -9.78986 120
      vertex 35.1431 -19.5797 1.23
      vertex 18.1865 -9.78986 1.23
    endloop
  endfacet
  facet normal -0.500002 -0.866024 0
    outer loop
      vertex 52.7146 50.0145 1.23
      vertex 69.6711 40.2246 120
      vertex 52.7146 50.0145 120
    endloop
  endfacet
  facet normal -0.500002 -0.866024 -0
    outer loop
      vertex 69.6711 40.2246 120
      vertex 52.7146 50.0145 1.23
      vertex 69.6711 40.2246 1.23
    endloop
  endfacet
  facet normal 1 -0 0
    outer loop
      vertex 35.7581 20.6449 120
      vertex 35.7581 40.2246 1.23
      vertex 35.7581 40.2246 120
    endloop
  endfacet
  facet normal 1 0 0
    outer loop
      vertex 35.7581 40.2246 1.23
      vertex 35.7581 20.6449 120
      vertex 35.7581 20.6449 1.23
    endloop
  endfacet
  facet normal 0.500002 -0.866024 0
    outer loop
      vertex 35.7581 40.2246 1.23
      vertex 52.7146 50.0145 120
      vertex 35.7581 40.2246 120
    endloop
  endfacet
  facet normal 0.500002 -0.866024 0
    outer loop
      vertex 52.7146 50.0145 120
      vertex 35.7581 40.2246 1.23
      vertex 52.7146 50.0145 1.23
    endloop
  endfacet
  facet normal -1 0 0
    outer loop
      vertex 69.6711 20.6449 1.23
      vertex 69.6711 40.2246 120
      vertex 69.6711 40.2246 1.23
    endloop
  endfacet
  facet normal -1 -0 0
    outer loop
      vertex 69.6711 40.2246 120
      vertex 69.6711 20.6449 1.23
      vertex 69.6711 20.6449 120
    endloop
  endfacet
  facet normal -0.499998 0.866026 0
    outer loop
      vertex 69.6711 20.6449 1.23
      vertex 52.7146 10.8551 120
      vertex 69.6711 20.6449 120
    endloop
  endfacet
  facet normal -0.499998 0.866026 0
    outer loop
      vertex 52.7146 10.8551 120
      vertex 69.6711 20.6449 1.23
      vertex 52.7146 10.8551 1.23
    endloop
  endfacet
  facet normal 0.499998 0.866026 -0
    outer loop
      vertex 52.7146 10.8551 1.23
      vertex 35.7581 20.6449 120
      vertex 52.7146 10.8551 120
    endloop
  endfacet
  facet normal 0.499998 0.866026 0
    outer loop
      vertex 35.7581 20.6449 120
      vertex 52.7146 10.8551 1.23
      vertex 35.7581 20.6449 1.23
    endloop
  endfacet
  facet normal 0.499985 0.866034 -0
    outer loop
      vertex 35.9229 81.4194 0
      vertex 35.1431 81.8696 120
      vertex 35.9229 81.4194 120
    endloop
  endfacet
  facet normal 0.499985 0.866034 0
    outer loop
      vertex 35.1431 81.8696 120
      vertex 35.9229 81.4194 0
      vertex 35.1431 81.8696 0
    endloop
  endfacet
  facet normal 0.500004 0.866023 -0
    outer loop
      vertex 52.7146 71.7246 1.23
      vertex 38.0533 80.1894 120
      vertex 52.7146 71.7246 120
    endloop
  endfacet
  facet normal 0.500004 0.866023 0
    outer loop
      vertex 38.0533 80.1894 120
      vertex 52.7146 71.7246 1.23
      vertex 38.0533 80.1894 1.23
    endloop
  endfacet
  facet normal -0.499985 0.866034 0
    outer loop
      vertex 35.1431 81.8696 0
      vertex 34.3633 81.4194 120
      vertex 35.1431 81.8696 120
    endloop
  endfacet
  facet normal -0.499985 0.866034 0
    outer loop
      vertex 34.3633 81.4194 120
      vertex 35.1431 81.8696 0
      vertex 34.3633 81.4194 0
    endloop
  endfacet
  facet normal -0.500002 0.866024 0
    outer loop
      vertex 32.2329 80.1894 1.23
      vertex 17.5715 71.7246 120
      vertex 32.2329 80.1894 120
    endloop
  endfacet
  facet normal -0.500002 0.866024 0
    outer loop
      vertex 17.5715 71.7246 120
      vertex 32.2329 80.1894 1.23
      vertex 17.5715 71.7246 1.23
    endloop
  endfacet
  facet normal -0.500003 -0.866024 0
    outer loop
      vertex 35.5933 80.1894 1.23
      vertex 52.0996 70.6594 120
      vertex 35.5933 80.1894 120
    endloop
  endfacet
  facet normal -0.500003 -0.866024 -0
    outer loop
      vertex 52.0996 70.6594 120
      vertex 35.5933 80.1894 1.23
      vertex 52.0996 70.6594 1.23
    endloop
  endfacet
  facet normal 1 -0 0
    outer loop
      vertex 18.1865 51.0797 120
      vertex 18.1865 70.6594 1.23
      vertex 18.1865 70.6594 120
    endloop
  endfacet
  facet normal 1 0 0
    outer loop
      vertex 18.1865 70.6594 1.23
      vertex 18.1865 51.0797 120
      vertex 18.1865 51.0797 1.23
    endloop
  endfacet
  facet normal 0.500001 -0.866025 0
    outer loop
      vertex 18.1865 70.6594 1.23
      vertex 34.6929 80.1894 120
      vertex 18.1865 70.6594 120
    endloop
  endfacet
  facet normal 0.500001 -0.866025 0
    outer loop
      vertex 34.6929 80.1894 120
      vertex 18.1865 70.6594 1.23
      vertex 34.6929 80.1894 1.23
    endloop
  endfacet
  facet normal -1 0 0
    outer loop
      vertex 52.0996 51.0797 1.23
      vertex 52.0996 70.6594 120
      vertex 52.0996 70.6594 1.23
    endloop
  endfacet
  facet normal -1 -0 0
    outer loop
      vertex 52.0996 70.6594 120
      vertex 52.0996 51.0797 1.23
      vertex 52.0996 51.0797 120
    endloop
  endfacet
  facet normal -0.499998 0.866026 0
    outer loop
      vertex 52.0996 51.0797 1.23
      vertex 35.1431 41.2899 120
      vertex 52.0996 51.0797 120
    endloop
  endfacet
  facet normal -0.499998 0.866026 0
    outer loop
      vertex 35.1431 41.2899 120
      vertex 52.0996 51.0797 1.23
      vertex 35.1431 41.2899 1.23
    endloop
  endfacet
  facet normal 0.499996 0.866028 -0
    outer loop
      vertex 35.1431 41.2899 1.23
      vertex 18.1865 51.0797 120
      vertex 35.1431 41.2899 120
    endloop
  endfacet
  facet normal 0.499996 0.866028 0
    outer loop
      vertex 18.1865 51.0797 120
      vertex 35.1431 41.2899 1.23
      vertex 18.1865 51.0797 1.23
    endloop
  endfacet
  facet normal -0.499999 -0.866026 0
    outer loop
      vertex 52.7146 -10.8551 1.23
      vertex 68.1557 -19.77 120
      vertex 52.7146 -10.8551 120
    endloop
  endfacet
  facet normal -0.499999 -0.866026 -0
    outer loop
      vertex 68.1557 -19.77 120
      vertex 52.7146 -10.8551 1.23
      vertex 68.1557 -19.77 1.23
    endloop
  endfacet
  facet normal 1 -0 0
    outer loop
      vertex 88.4727 -10.5 120
      vertex 88.4727 9.78986 1.23
      vertex 88.4727 9.78986 120
    endloop
  endfacet
  facet normal 1 0 0
    outer loop
      vertex 88.4727 9.78986 1.23
      vertex 88.4727 -10.5 120
      vertex 88.4727 -10.5 1.23
    endloop
  endfacet
  facet normal 0.5 -0.866025 0
    outer loop
      vertex 72.4166 -19.77 1.23
      vertex 88.4727 -10.5 120
      vertex 72.4166 -19.77 120
    endloop
  endfacet
  facet normal 0.5 -0.866025 0
    outer loop
      vertex 88.4727 -10.5 120
      vertex 72.4166 -19.77 1.23
      vertex 88.4727 -10.5 1.23
    endloop
  endfacet
  facet normal -0.499998 -0.866027 0
    outer loop
      vertex 70.2861 19.5797 1.23
      vertex 87.2427 9.78986 120
      vertex 70.2861 19.5797 120
    endloop
  endfacet
  facet normal -0.499998 -0.866027 -0
    outer loop
      vertex 87.2427 9.78986 120
      vertex 70.2861 19.5797 1.23
      vertex 87.2427 9.78986 1.23
    endloop
  endfacet
  facet normal 1 -0 0
    outer loop
      vertex 53.3296 -9.78986 120
      vertex 53.3296 9.78986 1.23
      vertex 53.3296 9.78986 120
    endloop
  endfacet
  facet normal 1 0 0
    outer loop
      vertex 53.3296 9.78986 1.23
      vertex 53.3296 -9.78986 120
      vertex 53.3296 -9.78986 1.23
    endloop
  endfacet
  facet normal 0.5 -0.866025 0
    outer loop
      vertex 53.3296 9.78986 1.23
      vertex 70.2861 19.5797 120
      vertex 53.3296 9.78986 120
    endloop
  endfacet
  facet normal 0.5 -0.866025 0
    outer loop
      vertex 70.2861 19.5797 120
      vertex 53.3296 9.78986 1.23
      vertex 70.2861 19.5797 1.23
    endloop
  endfacet
  facet normal -1 0 0
    outer loop
      vertex 87.2427 -9.78986 1.23
      vertex 87.2427 9.78986 120
      vertex 87.2427 9.78986 1.23
    endloop
  endfacet
  facet normal -1 -0 0
    outer loop
      vertex 87.2427 9.78986 120
      vertex 87.2427 -9.78986 1.23
      vertex 87.2427 -9.78986 120
    endloop
  endfacet
  facet normal -0.499998 0.866027 0
    outer loop
      vertex 87.2427 -9.78986 1.23
      vertex 70.2861 -19.5797 120
      vertex 87.2427 -9.78986 120
    endloop
  endfacet
  facet normal -0.499998 0.866027 0
    outer loop
      vertex 70.2861 -19.5797 120
      vertex 87.2427 -9.78986 1.23
      vertex 70.2861 -19.5797 1.23
    endloop
  endfacet
  facet normal 0.5 0.866025 -0
    outer loop
      vertex 70.2861 -19.5797 1.23
      vertex 53.3296 -9.78986 120
      vertex 70.2861 -19.5797 120
    endloop
  endfacet
  facet normal 0.5 0.866025 0
    outer loop
      vertex 53.3296 -9.78986 120
      vertex 70.2861 -19.5797 1.23
      vertex 53.3296 -9.78986 1.23
    endloop
  endfacet
  facet normal 0.500004 0.866023 -0
    outer loop
      vertex 106.044 40.9348 1.23
      vertex 88.4727 51.0797 120
      vertex 106.044 40.9348 120
    endloop
  endfacet
  facet normal 0.500004 0.866023 0
    outer loop
      vertex 88.4727 51.0797 120
      vertex 106.044 40.9348 1.23
      vertex 88.4727 51.0797 1.23
    endloop
  endfacet
  facet normal 1 -0 0
    outer loop
      vertex 106.044 19.9348 120
      vertex 106.044 40.9348 1.23
      vertex 106.044 40.9348 120
    endloop
  endfacet
  facet normal 1 0 0
    outer loop
      vertex 106.044 40.9348 1.23
      vertex 106.044 19.9348 120
      vertex 106.044 19.9348 1.23
    endloop
  endfacet
  facet normal 0.500005 -0.866022 0
    outer loop
      vertex 88.4727 9.78986 1.23
      vertex 106.044 19.9348 120
      vertex 88.4727 9.78986 120
    endloop
  endfacet
  facet normal 0.500005 -0.866022 0
    outer loop
      vertex 106.044 19.9348 120
      vertex 88.4727 9.78986 1.23
      vertex 106.044 19.9348 1.23
    endloop
  endfacet
  facet normal -0.500007 -0.866022 0
    outer loop
      vertex 87.8577 50.0145 1.23
      vertex 104.814 40.2246 120
      vertex 87.8577 50.0145 120
    endloop
  endfacet
  facet normal -0.500007 -0.866022 -0
    outer loop
      vertex 104.814 40.2246 120
      vertex 87.8577 50.0145 1.23
      vertex 104.814 40.2246 1.23
    endloop
  endfacet
  facet normal 1 -0 0
    outer loop
      vertex 70.9011 20.6449 120
      vertex 70.9011 40.2246 1.23
      vertex 70.9011 40.2246 120
    endloop
  endfacet
  facet normal 1 0 0
    outer loop
      vertex 70.9011 40.2246 1.23
      vertex 70.9011 20.6449 120
      vertex 70.9011 20.6449 1.23
    endloop
  endfacet
  facet normal 0.5 -0.866025 0
    outer loop
      vertex 70.9011 40.2246 1.23
      vertex 87.8577 50.0145 120
      vertex 70.9011 40.2246 120
    endloop
  endfacet
  facet normal 0.5 -0.866025 0
    outer loop
      vertex 87.8577 50.0145 120
      vertex 70.9011 40.2246 1.23
      vertex 87.8577 50.0145 1.23
    endloop
  endfacet
  facet normal -1 0 0
    outer loop
      vertex 104.814 20.6449 1.23
      vertex 104.814 40.2246 120
      vertex 104.814 40.2246 1.23
    endloop
  endfacet
  facet normal -1 -0 0
    outer loop
      vertex 104.814 40.2246 120
      vertex 104.814 20.6449 1.23
      vertex 104.814 20.6449 120
    endloop
  endfacet
  facet normal -0.500003 0.866024 0
    outer loop
      vertex 104.814 20.6449 1.23
      vertex 87.8577 10.8551 120
      vertex 104.814 20.6449 120
    endloop
  endfacet
  facet normal -0.500003 0.866024 0
    outer loop
      vertex 87.8577 10.8551 120
      vertex 104.814 20.6449 1.23
      vertex 87.8577 10.8551 1.23
    endloop
  endfacet
  facet normal 0.499996 0.866028 -0
    outer loop
      vertex 87.8577 10.8551 1.23
      vertex 70.9011 20.6449 120
      vertex 87.8577 10.8551 120
    endloop
  endfacet
  facet normal 0.499996 0.866028 0
    outer loop
      vertex 70.9011 20.6449 120
      vertex 87.8577 10.8551 1.23
      vertex 70.9011 20.6449 1.23
    endloop
  endfacet
  facet normal 0.499985 0.866034 -0
    outer loop
      vertex 71.0659 81.4194 0
      vertex 70.2861 81.8696 120
      vertex 71.0659 81.4194 120
    endloop
  endfacet
  facet normal 0.499985 0.866034 0
    outer loop
      vertex 70.2861 81.8696 120
      vertex 71.0659 81.4194 0
      vertex 70.2861 81.8696 0
    endloop
  endfacet
  facet normal 0.499999 0.866026 -0
    outer loop
      vertex 88.4727 71.3696 1.23
      vertex 73.1963 80.1894 120
      vertex 88.4727 71.3696 120
    endloop
  endfacet
  facet normal 0.499999 0.866026 0
    outer loop
      vertex 73.1963 80.1894 120
      vertex 88.4727 71.3696 1.23
      vertex 73.1963 80.1894 1.23
    endloop
  endfacet
  facet normal -0.499985 0.866034 0
    outer loop
      vertex 70.2861 81.8696 0
      vertex 69.5063 81.4194 120
      vertex 70.2861 81.8696 120
    endloop
  endfacet
  facet normal -0.499985 0.866034 0
    outer loop
      vertex 69.5063 81.4194 120
      vertex 70.2861 81.8696 0
      vertex 69.5063 81.4194 0
    endloop
  endfacet
  facet normal -0.500004 0.866023 0
    outer loop
      vertex 67.3759 80.1894 1.23
      vertex 52.7146 71.7246 120
      vertex 67.3759 80.1894 120
    endloop
  endfacet
  facet normal -0.500004 0.866023 0
    outer loop
      vertex 52.7146 71.7246 120
      vertex 67.3759 80.1894 1.23
      vertex 52.7146 71.7246 1.23
    endloop
  endfacet
  facet normal 1 -0 0
    outer loop
      vertex 88.4727 51.0797 120
      vertex 88.4727 71.3696 1.23
      vertex 88.4727 71.3696 120
    endloop
  endfacet
  facet normal 1 0 0
    outer loop
      vertex 88.4727 71.3696 1.23
      vertex 88.4727 51.0797 120
      vertex 88.4727 51.0797 1.23
    endloop
  endfacet
  facet normal -0.500001 -0.866025 0
    outer loop
      vertex 70.7363 80.1894 1.23
      vertex 87.2427 70.6594 120
      vertex 70.7363 80.1894 120
    endloop
  endfacet
  facet normal -0.500001 -0.866025 -0
    outer loop
      vertex 87.2427 70.6594 120
      vertex 70.7363 80.1894 1.23
      vertex 87.2427 70.6594 1.23
    endloop
  endfacet
  facet normal 1 -0 0
    outer loop
      vertex 53.3296 51.0797 120
      vertex 53.3296 70.6594 1.23
      vertex 53.3296 70.6594 120
    endloop
  endfacet
  facet normal 1 0 0
    outer loop
      vertex 53.3296 70.6594 1.23
      vertex 53.3296 51.0797 120
      vertex 53.3296 51.0797 1.23
    endloop
  endfacet
  facet normal 0.500003 -0.866024 0
    outer loop
      vertex 53.3296 70.6594 1.23
      vertex 69.8359 80.1894 120
      vertex 53.3296 70.6594 120
    endloop
  endfacet
  facet normal 0.500003 -0.866024 0
    outer loop
      vertex 69.8359 80.1894 120
      vertex 53.3296 70.6594 1.23
      vertex 69.8359 80.1894 1.23
    endloop
  endfacet
  facet normal -1 0 0
    outer loop
      vertex 87.2427 51.0797 1.23
      vertex 87.2427 70.6594 120
      vertex 87.2427 70.6594 1.23
    endloop
  endfacet
  facet normal -1 -0 0
    outer loop
      vertex 87.2427 70.6594 120
      vertex 87.2427 51.0797 1.23
      vertex 87.2427 51.0797 120
    endloop
  endfacet
  facet normal -0.499996 0.866028 0
    outer loop
      vertex 87.2427 51.0797 1.23
      vertex 70.2861 41.2899 120
      vertex 87.2427 51.0797 120
    endloop
  endfacet
  facet normal -0.499996 0.866028 0
    outer loop
      vertex 70.2861 41.2899 120
      vertex 87.2427 51.0797 1.23
      vertex 70.2861 41.2899 1.23
    endloop
  endfacet
  facet normal 0.499998 0.866026 -0
    outer loop
      vertex 70.2861 41.2899 1.23
      vertex 53.3296 51.0797 120
      vertex 70.2861 41.2899 120
    endloop
  endfacet
  facet normal 0.499998 0.866026 0
    outer loop
      vertex 53.3296 51.0797 120
      vertex 70.2861 41.2899 1.23
      vertex 53.3296 51.0797 1.23
    endloop
  endfacet
  facet normal -1 0 0
    outer loop
      vertex -18.1865 -21 0
      vertex -18.1865 -10.5 120
      vertex -18.1865 -10.5 0
    endloop
  endfacet
  facet normal -1 -0 0
    outer loop
      vertex -18.1865 -10.5 120
      vertex -18.1865 -21 0
      vertex -18.1865 -21 120
    endloop
  endfacet
  facet normal -1 0 0
    outer loop
      vertex -18.1865 50.3696 0
      vertex -18.1865 81.4194 120
      vertex -18.1865 81.4194 0
    endloop
  endfacet
  facet normal -1 -0 0
    outer loop
      vertex -18.1865 81.4194 120
      vertex -18.1865 50.3696 0
      vertex -18.1865 50.3696 120
    endloop
  endfacet
  facet normal -1 0 0
    outer loop
      vertex -18.1865 -10.5 0
      vertex -18.1865 50.3696 120
      vertex -18.1865 50.3696 0
    endloop
  endfacet
  facet normal -1 -0 0
    outer loop
      vertex -18.1865 50.3696 120
      vertex -18.1865 -10.5 0
      vertex -18.1865 -10.5 120
    endloop
  endfacet
  facet normal 1 -0 0
    outer loop
      vertex 108.197 -21 120
      vertex 108.197 81.4194 0
      vertex 108.197 81.4194 120
    endloop
  endfacet
  facet normal 1 0 0
    outer loop
      vertex 108.197 81.4194 0
      vertex 108.197 -21 120
      vertex 108.197 -21 0
    endloop
  endfacet
  facet normal 0 -1 0
    outer loop
      vertex -18.1865 -21 0
      vertex 108.197 -21 120
      vertex -18.1865 -21 120
    endloop
  endfacet
  facet normal 0 -1 -0
    outer loop
      vertex 108.197 -21 120
      vertex -18.1865 -21 0
      vertex 108.197 -21 0
    endloop
  endfacet
  facet normal 0 1 -0
    outer loop
      vertex 108.197 81.4194 0
      vertex 71.0659 81.4194 120
      vertex 108.197 81.4194 120
    endloop
  endfacet
  facet normal 0 1 0
    outer loop
      vertex 71.0659 81.4194 120
      vertex 108.197 81.4194 0
      vertex 71.0659 81.4194 0
    endloop
  endfacet
  facet normal 0 1 -0
    outer loop
      vertex -0.779788 81.4194 0
      vertex -18.1865 81.4194 120
      vertex -0.779788 81.4194 120
    endloop
  endfacet
  facet normal 0 1 0
    outer loop
      vertex -18.1865 81.4194 120
      vertex -0.779788 81.4194 0
      vertex -18.1865 81.4194 0
    endloop
  endfacet
  facet normal 0 1 -0
    outer loop
      vertex 34.3633 81.4194 0
      vertex 0.779789 81.4194 120
      vertex 34.3633 81.4194 120
    endloop
  endfacet
  facet normal 0 1 0
    outer loop
      vertex 0.779789 81.4194 120
      vertex 34.3633 81.4194 0
      vertex 0.779789 81.4194 0
    endloop
  endfacet
  facet normal 0 1 -0
    outer loop
      vertex 69.5063 81.4194 0
      vertex 35.9229 81.4194 120
      vertex 69.5063 81.4194 120
    endloop
  endfacet
  facet normal 0 1 0
    outer loop
      vertex 35.9229 81.4194 120
      vertex 69.5063 81.4194 0
      vertex 35.9229 81.4194 0
    endloop
  endfacet
  facet normal 1 -0 0
    outer loop
      vertex -16.9565 -19.77 120
      vertex -16.9565 -11.2101 1.23
      vertex -16.9565 -11.2101 120
    endloop
  endfacet
  facet normal 1 0 0
    outer loop
      vertex -16.9565 -11.2101 1.23
      vertex -16.9565 -19.77 120
      vertex -16.9565 -19.77 1.23
    endloop
  endfacet
  facet normal 1 -0 0
    outer loop
      vertex -16.9565 72.0797 120
      vertex -16.9565 80.1894 1.23
      vertex -16.9565 80.1894 120
    endloop
  endfacet
  facet normal 1 0 0
    outer loop
      vertex -16.9565 80.1894 1.23
      vertex -16.9565 72.0797 120
      vertex -16.9565 72.0797 1.23
    endloop
  endfacet
  facet normal 1 -0 0
    outer loop
      vertex -16.9565 11.2101 120
      vertex -16.9565 49.6594 1.23
      vertex -16.9565 49.6594 120
    endloop
  endfacet
  facet normal 1 0 0
    outer loop
      vertex -16.9565 49.6594 1.23
      vertex -16.9565 11.2101 120
      vertex -16.9565 11.2101 1.23
    endloop
  endfacet
  facet normal -1 0 0
    outer loop
      vertex 106.967 -19.77 1.23
      vertex 106.967 80.1894 120
      vertex 106.967 80.1894 1.23
    endloop
  endfacet
  facet normal -1 -0 0
    outer loop
      vertex 106.967 80.1894 120
      vertex 106.967 -19.77 1.23
      vertex 106.967 -19.77 120
    endloop
  endfacet
  facet normal 0 1 -0
    outer loop
      vertex -2.13042 -19.77 1.23
      vertex -16.9565 -19.77 120
      vertex -2.13042 -19.77 120
    endloop
  endfacet
  facet normal 0 1 0
    outer loop
      vertex -16.9565 -19.77 120
      vertex -2.13042 -19.77 1.23
      vertex -16.9565 -19.77 1.23
    endloop
  endfacet
  facet normal 0 1 -0
    outer loop
      vertex 106.967 -19.77 1.23
      vertex 72.4166 -19.77 120
      vertex 106.967 -19.77 120
    endloop
  endfacet
  facet normal 0 1 0
    outer loop
      vertex 72.4166 -19.77 120
      vertex 106.967 -19.77 1.23
      vertex 72.4166 -19.77 1.23
    endloop
  endfacet
  facet normal 0 1 -0
    outer loop
      vertex 33.0126 -19.77 1.23
      vertex 2.13042 -19.77 120
      vertex 33.0126 -19.77 120
    endloop
  endfacet
  facet normal 0 1 0
    outer loop
      vertex 2.13042 -19.77 120
      vertex 33.0126 -19.77 1.23
      vertex 2.13042 -19.77 1.23
    endloop
  endfacet
  facet normal 0 1 -0
    outer loop
      vertex 68.1557 -19.77 1.23
      vertex 37.2735 -19.77 120
      vertex 68.1557 -19.77 120
    endloop
  endfacet
  facet normal 0 1 0
    outer loop
      vertex 37.2735 -19.77 120
      vertex 68.1557 -19.77 1.23
      vertex 37.2735 -19.77 1.23
    endloop
  endfacet
  facet normal 0 -1 0
    outer loop
      vertex 73.1963 80.1894 1.23
      vertex 106.967 80.1894 120
      vertex 73.1963 80.1894 120
    endloop
  endfacet
  facet normal 0 -1 -0
    outer loop
      vertex 106.967 80.1894 120
      vertex 73.1963 80.1894 1.23
      vertex 106.967 80.1894 1.23
    endloop
  endfacet
  facet normal 0 -1 0
    outer loop
      vertex -16.9565 80.1894 1.23
      vertex -2.91021 80.1894 120
      vertex -16.9565 80.1894 120
    endloop
  endfacet
  facet normal 0 -1 -0
    outer loop
      vertex -2.91021 80.1894 120
      vertex -16.9565 80.1894 1.23
      vertex -2.91021 80.1894 1.23
    endloop
  endfacet
  facet normal 0 -1 0
    outer loop
      vertex -0.450213 80.1894 1.23
      vertex 0.450212 80.1894 120
      vertex -0.450213 80.1894 120
    endloop
  endfacet
  facet normal 0 -1 -0
    outer loop
      vertex 0.450212 80.1894 120
      vertex -0.450213 80.1894 1.23
      vertex 0.450212 80.1894 1.23
    endloop
  endfacet
  facet normal 0 -1 0
    outer loop
      vertex 34.6929 80.1894 1.23
      vertex 35.5933 80.1894 120
      vertex 34.6929 80.1894 120
    endloop
  endfacet
  facet normal 0 -1 -0
    outer loop
      vertex 35.5933 80.1894 120
      vertex 34.6929 80.1894 1.23
      vertex 35.5933 80.1894 1.23
    endloop
  endfacet
  facet normal 0 -1 0
    outer loop
      vertex 69.8359 80.1894 1.23
      vertex 70.7363 80.1894 120
      vertex 69.8359 80.1894 120
    endloop
  endfacet
  facet normal 0 -1 -0
    outer loop
      vertex 70.7363 80.1894 120
      vertex 69.8359 80.1894 1.23
      vertex 70.7363 80.1894 1.23
    endloop
  endfacet
  facet normal 0 -1 0
    outer loop
      vertex 2.91021 80.1894 1.23
      vertex 32.2329 80.1894 120
      vertex 2.91021 80.1894 120
    endloop
  endfacet
  facet normal 0 -1 -0
    outer loop
      vertex 32.2329 80.1894 120
      vertex 2.91021 80.1894 1.23
      vertex 32.2329 80.1894 1.23
    endloop
  endfacet
  facet normal 0 -1 0
    outer loop
      vertex 38.0533 80.1894 1.23
      vertex 67.3759 80.1894 120
      vertex 38.0533 80.1894 120
    endloop
  endfacet
  facet normal 0 -1 -0
    outer loop
      vertex 67.3759 80.1894 120
      vertex 38.0533 80.1894 1.23
      vertex 67.3759 80.1894 1.23
    endloop
  endfacet
endsolid OpenSCAD_Model
