solid OpenSCAD_Model
  facet normal 0 0 -1
    outer loop
      vertex 18.1865 -10.5 0
      vertex 3.97809 -0.418114 0
      vertex 18.1865 10.5 0
    endloop
  endfacet
  facet normal 0 0 -1
    outer loop
      vertex 18.1865 -10.5 0
      vertex 3.80423 -1.23607 0
      vertex 3.97809 -0.418114 0
    endloop
  endfacet
  facet normal 0 0 -1
    outer loop
      vertex 18.1865 -10.5 0
      vertex 3.4641 -2 0
      vertex 3.80423 -1.23607 0
    endloop
  endfacet
  facet normal 0 0 -1
    outer loop
      vertex 18.1865 -10.5 0
      vertex 2.97258 -2.67652 0
      vertex 3.4641 -2 0
    endloop
  endfacet
  facet normal 0 0 -1
    outer loop
      vertex 18.1865 -10.5 0
      vertex 2.35114 -3.23607 0
      vertex 2.97258 -2.67652 0
    endloop
  endfacet
  facet normal 0 0 -1
    outer loop
      vertex 18.1865 -10.5 0
      vertex 1.62695 -3.65418 0
      vertex 2.35114 -3.23607 0
    endloop
  endfacet
  facet normal 0 0 -1
    outer loop
      vertex -2.52615e-07 -21 0
      vertex 1.62695 -3.65418 0
      vertex 18.1865 -10.5 0
    endloop
  endfacet
  facet normal 0 0 -1
    outer loop
      vertex 1.62695 -3.65418 0
      vertex -2.52615e-07 -21 0
      vertex 0.831647 -3.91259 0
    endloop
  endfacet
  facet normal 0 0 -1
    outer loop
      vertex -2.52615e-07 -21 0
      vertex -3.88715e-07 -4 0
      vertex 0.831647 -3.91259 0
    endloop
  endfacet
  facet normal 0 0 -1
    outer loop
      vertex -2.52615e-07 -21 0
      vertex -0.831647 -3.91259 0
      vertex -3.88715e-07 -4 0
    endloop
  endfacet
  facet normal 0 0 -1
    outer loop
      vertex -2.52615e-07 -21 0
      vertex -1.62695 -3.65418 0
      vertex -0.831647 -3.91259 0
    endloop
  endfacet
  facet normal 0 0 -1
    outer loop
      vertex -2.52615e-07 -21 0
      vertex -2.35114 -3.23607 0
      vertex -1.62695 -3.65418 0
    endloop
  endfacet
  facet normal 0 0 -1
    outer loop
      vertex -18.1865 -10.5 0
      vertex -2.35114 -3.23607 0
      vertex -2.52615e-07 -21 0
    endloop
  endfacet
  facet normal -0 0 -1
    outer loop
      vertex -2.35114 -3.23607 0
      vertex -18.1865 -10.5 0
      vertex -2.97258 -2.67652 0
    endloop
  endfacet
  facet normal -0 0 -1
    outer loop
      vertex -2.97258 -2.67652 0
      vertex -18.1865 -10.5 0
      vertex -3.4641 -2 0
    endloop
  endfacet
  facet normal -0 0 -1
    outer loop
      vertex -3.4641 -2 0
      vertex -18.1865 -10.5 0
      vertex -3.80423 -1.23607 0
    endloop
  endfacet
  facet normal -0 0 -1
    outer loop
      vertex -3.97809 -0.418114 0
      vertex -18.1865 -10.5 0
      vertex -3.97809 0.418114 0
    endloop
  endfacet
  facet normal -0 0 -1
    outer loop
      vertex -3.80423 -1.23607 0
      vertex -18.1865 -10.5 0
      vertex -3.97809 -0.418114 0
    endloop
  endfacet
  facet normal 0 0 -1
    outer loop
      vertex 3.97809 0.418114 0
      vertex 18.1865 10.5 0
      vertex 3.97809 -0.418114 0
    endloop
  endfacet
  facet normal 0 0 -1
    outer loop
      vertex 3.80423 1.23607 0
      vertex 18.1865 10.5 0
      vertex 3.97809 0.418114 0
    endloop
  endfacet
  facet normal 0 0 -1
    outer loop
      vertex 3.4641 2 0
      vertex 18.1865 10.5 0
      vertex 3.80423 1.23607 0
    endloop
  endfacet
  facet normal 0 0 -1
    outer loop
      vertex 2.97258 2.67652 0
      vertex 18.1865 10.5 0
      vertex 3.4641 2 0
    endloop
  endfacet
  facet normal 0 0 -1
    outer loop
      vertex 2.35114 3.23607 0
      vertex 18.1865 10.5 0
      vertex 2.97258 2.67652 0
    endloop
  endfacet
  facet normal 0 0 -1
    outer loop
      vertex 1.62695 3.65418 0
      vertex 18.1865 10.5 0
      vertex 2.35114 3.23607 0
    endloop
  endfacet
  facet normal 0 0 -1
    outer loop
      vertex 2.52615e-07 21 0
      vertex 1.62695 3.65418 0
      vertex 0.831647 3.91259 0
    endloop
  endfacet
  facet normal 0 0 -1
    outer loop
      vertex 2.52615e-07 21 0
      vertex 0.831647 3.91259 0
      vertex 3.88715e-07 4 0
    endloop
  endfacet
  facet normal 0 0 -1
    outer loop
      vertex 1.62695 3.65418 0
      vertex 2.52615e-07 21 0
      vertex 18.1865 10.5 0
    endloop
  endfacet
  facet normal 0 0 -1
    outer loop
      vertex -0.831647 3.91259 0
      vertex 2.52615e-07 21 0
      vertex 3.88715e-07 4 0
    endloop
  endfacet
  facet normal 0 0 -1
    outer loop
      vertex -1.62695 3.65418 0
      vertex 2.52615e-07 21 0
      vertex -0.831647 3.91259 0
    endloop
  endfacet
  facet normal 0 0 -1
    outer loop
      vertex -2.35114 3.23607 0
      vertex 2.52615e-07 21 0
      vertex -1.62695 3.65418 0
    endloop
  endfacet
  facet normal 0 0 -1
    outer loop
      vertex -18.1865 10.5 0
      vertex -2.35114 3.23607 0
      vertex -2.97258 2.67652 0
    endloop
  endfacet
  facet normal 0 0 -1
    outer loop
      vertex -18.1865 10.5 0
      vertex -2.97258 2.67652 0
      vertex -3.4641 2 0
    endloop
  endfacet
  facet normal 0 0 -1
    outer loop
      vertex -18.1865 10.5 0
      vertex -3.4641 2 0
      vertex -3.80423 1.23607 0
    endloop
  endfacet
  facet normal 0 0 -1
    outer loop
      vertex -18.1865 10.5 0
      vertex -3.80423 1.23607 0
      vertex -3.97809 0.418114 0
    endloop
  endfacet
  facet normal 0 0 -1
    outer loop
      vertex -18.1865 10.5 0
      vertex -3.97809 0.418114 0
      vertex -18.1865 -10.5 0
    endloop
  endfacet
  facet normal 0 0 -1
    outer loop
      vertex -2.35114 3.23607 0
      vertex -18.1865 10.5 0
      vertex 2.52615e-07 21 0
    endloop
  endfacet
  facet normal 0.866032 -0.499988 0
    outer loop
      vertex -16.9565 8.55986 150
      vertex -15.8913 10.4049 1.23
      vertex -15.8913 10.4049 150
    endloop
  endfacet
  facet normal 0.866032 -0.499988 0
    outer loop
      vertex -15.8913 10.4049 1.23
      vertex -16.9565 8.55986 150
      vertex -16.9565 8.55986 1.23
    endloop
  endfacet
  facet normal 0.866032 0.499988 0
    outer loop
      vertex -15.8913 -10.4049 150
      vertex -16.9565 -8.55986 1.23
      vertex -16.9565 -8.55986 150
    endloop
  endfacet
  facet normal 0.866032 0.499988 0
    outer loop
      vertex -16.9565 -8.55986 1.23
      vertex -15.8913 -10.4049 150
      vertex -15.8913 -10.4049 1.23
    endloop
  endfacet
  facet normal 0 1 -0
    outer loop
      vertex 1.06521 -18.9647 1.23
      vertex -1.06521 -18.9647 150
      vertex 1.06521 -18.9647 150
    endloop
  endfacet
  facet normal 0 1 0
    outer loop
      vertex -1.06521 -18.9647 150
      vertex 1.06521 -18.9647 1.23
      vertex -1.06521 -18.9647 1.23
    endloop
  endfacet
  facet normal -0.866032 0.499988 0
    outer loop
      vertex 15.8913 -10.4049 1.23
      vertex 16.9565 -8.55986 150
      vertex 16.9565 -8.55986 1.23
    endloop
  endfacet
  facet normal -0.866032 0.499988 0
    outer loop
      vertex 16.9565 -8.55986 150
      vertex 15.8913 -10.4049 1.23
      vertex 15.8913 -10.4049 150
    endloop
  endfacet
  facet normal -0.866032 -0.499988 0
    outer loop
      vertex 16.9565 8.55986 1.23
      vertex 15.8913 10.4049 150
      vertex 15.8913 10.4049 1.23
    endloop
  endfacet
  facet normal -0.866032 -0.499988 0
    outer loop
      vertex 15.8913 10.4049 150
      vertex 16.9565 8.55986 1.23
      vertex 16.9565 8.55986 150
    endloop
  endfacet
  facet normal 0 -1 0
    outer loop
      vertex -1.06521 18.9647 1.23
      vertex 1.06521 18.9647 150
      vertex -1.06521 18.9647 150
    endloop
  endfacet
  facet normal 0 -1 -0
    outer loop
      vertex 1.06521 18.9647 150
      vertex -1.06521 18.9647 1.23
      vertex 1.06521 18.9647 1.23
    endloop
  endfacet
  facet normal -0.499998 -0.866027 0
    outer loop
      vertex 1.06521 18.9647 1.23
      vertex 15.8913 10.4049 150
      vertex 1.06521 18.9647 150
    endloop
  endfacet
  facet normal -0.499998 -0.866027 -0
    outer loop
      vertex 15.8913 10.4049 150
      vertex 1.06521 18.9647 1.23
      vertex 15.8913 10.4049 1.23
    endloop
  endfacet
  facet normal 1 -0 0
    outer loop
      vertex -16.9565 -8.55986 150
      vertex -16.9565 8.55986 1.23
      vertex -16.9565 8.55986 150
    endloop
  endfacet
  facet normal 1 0 0
    outer loop
      vertex -16.9565 8.55986 1.23
      vertex -16.9565 -8.55986 150
      vertex -16.9565 -8.55986 1.23
    endloop
  endfacet
  facet normal 0.499998 -0.866027 0
    outer loop
      vertex -15.8913 10.4049 1.23
      vertex -1.06521 18.9647 150
      vertex -15.8913 10.4049 150
    endloop
  endfacet
  facet normal 0.499998 -0.866027 0
    outer loop
      vertex -1.06521 18.9647 150
      vertex -15.8913 10.4049 1.23
      vertex -1.06521 18.9647 1.23
    endloop
  endfacet
  facet normal 0.499998 0.866027 -0
    outer loop
      vertex -1.06521 -18.9647 1.23
      vertex -15.8913 -10.4049 150
      vertex -1.06521 -18.9647 150
    endloop
  endfacet
  facet normal 0.499998 0.866027 0
    outer loop
      vertex -15.8913 -10.4049 150
      vertex -1.06521 -18.9647 1.23
      vertex -15.8913 -10.4049 1.23
    endloop
  endfacet
  facet normal -1 0 0
    outer loop
      vertex 16.9565 -8.55986 1.23
      vertex 16.9565 8.55986 150
      vertex 16.9565 8.55986 1.23
    endloop
  endfacet
  facet normal -1 -0 0
    outer loop
      vertex 16.9565 8.55986 150
      vertex 16.9565 -8.55986 1.23
      vertex 16.9565 -8.55986 150
    endloop
  endfacet
  facet normal -0.499998 0.866027 0
    outer loop
      vertex 15.8913 -10.4049 1.23
      vertex 1.06521 -18.9647 150
      vertex 15.8913 -10.4049 150
    endloop
  endfacet
  facet normal -0.499998 0.866027 0
    outer loop
      vertex 1.06521 -18.9647 150
      vertex 15.8913 -10.4049 1.23
      vertex 1.06521 -18.9647 1.23
    endloop
  endfacet
  facet normal 0.500001 0.866025 -0
    outer loop
      vertex 18.1865 10.5 0
      vertex 2.52615e-07 21 150
      vertex 18.1865 10.5 150
    endloop
  endfacet
  facet normal 0.500001 0.866025 0
    outer loop
      vertex 2.52615e-07 21 150
      vertex 18.1865 10.5 0
      vertex 2.52615e-07 21 0
    endloop
  endfacet
  facet normal -1 0 0
    outer loop
      vertex -18.1865 -10.5 0
      vertex -18.1865 10.5 150
      vertex -18.1865 10.5 0
    endloop
  endfacet
  facet normal -1 -0 0
    outer loop
      vertex -18.1865 10.5 150
      vertex -18.1865 -10.5 0
      vertex -18.1865 -10.5 150
    endloop
  endfacet
  facet normal -0.500001 0.866025 0
    outer loop
      vertex 2.52615e-07 21 0
      vertex -18.1865 10.5 150
      vertex 2.52615e-07 21 150
    endloop
  endfacet
  facet normal -0.500001 0.866025 0
    outer loop
      vertex -18.1865 10.5 150
      vertex 2.52615e-07 21 0
      vertex -18.1865 10.5 0
    endloop
  endfacet
  facet normal 0 0 1
    outer loop
      vertex 18.1865 10.5 150
      vertex 16.9565 8.55986 150
      vertex 18.1865 -10.5 150
    endloop
  endfacet
  facet normal 0 0 1
    outer loop
      vertex 18.1865 10.5 150
      vertex 15.8913 10.4049 150
      vertex 16.9565 8.55986 150
    endloop
  endfacet
  facet normal 0 0 1
    outer loop
      vertex 18.1865 10.5 150
      vertex 1.06521 18.9647 150
      vertex 15.8913 10.4049 150
    endloop
  endfacet
  facet normal 0 0 1
    outer loop
      vertex 2.52615e-07 21 150
      vertex 1.06521 18.9647 150
      vertex 18.1865 10.5 150
    endloop
  endfacet
  facet normal 0 0 1
    outer loop
      vertex 2.52615e-07 21 150
      vertex -1.06521 18.9647 150
      vertex 1.06521 18.9647 150
    endloop
  endfacet
  facet normal 0 0 1
    outer loop
      vertex 2.52615e-07 21 150
      vertex -15.8913 10.4049 150
      vertex -1.06521 18.9647 150
    endloop
  endfacet
  facet normal 0 0 1
    outer loop
      vertex -16.9565 8.55986 150
      vertex -18.1865 10.5 150
      vertex -16.9565 -8.55986 150
    endloop
  endfacet
  facet normal 0 0 1
    outer loop
      vertex -15.8913 10.4049 150
      vertex -18.1865 10.5 150
      vertex -16.9565 8.55986 150
    endloop
  endfacet
  facet normal -0 0 1
    outer loop
      vertex -18.1865 10.5 150
      vertex -15.8913 10.4049 150
      vertex 2.52615e-07 21 150
    endloop
  endfacet
  facet normal -0 0 1
    outer loop
      vertex 16.9565 -8.55986 150
      vertex 18.1865 -10.5 150
      vertex 16.9565 8.55986 150
    endloop
  endfacet
  facet normal -0 0 1
    outer loop
      vertex 15.8913 -10.4049 150
      vertex 18.1865 -10.5 150
      vertex 16.9565 -8.55986 150
    endloop
  endfacet
  facet normal 0 0 1
    outer loop
      vertex 1.06521 -18.9647 150
      vertex 18.1865 -10.5 150
      vertex 15.8913 -10.4049 150
    endloop
  endfacet
  facet normal -0 0 1
    outer loop
      vertex 1.06521 -18.9647 150
      vertex -2.52615e-07 -21 150
      vertex 18.1865 -10.5 150
    endloop
  endfacet
  facet normal -0 0 1
    outer loop
      vertex -1.06521 -18.9647 150
      vertex -2.52615e-07 -21 150
      vertex 1.06521 -18.9647 150
    endloop
  endfacet
  facet normal 0 0 1
    outer loop
      vertex -15.8913 -10.4049 150
      vertex -2.52615e-07 -21 150
      vertex -1.06521 -18.9647 150
    endloop
  endfacet
  facet normal 0 0 1
    outer loop
      vertex -15.8913 -10.4049 150
      vertex -18.1865 -10.5 150
      vertex -2.52615e-07 -21 150
    endloop
  endfacet
  facet normal 0 0 1
    outer loop
      vertex -16.9565 -8.55986 150
      vertex -18.1865 -10.5 150
      vertex -15.8913 -10.4049 150
    endloop
  endfacet
  facet normal 0 0 1
    outer loop
      vertex -18.1865 -10.5 150
      vertex -16.9565 -8.55986 150
      vertex -18.1865 10.5 150
    endloop
  endfacet
  facet normal 1 -0 0
    outer loop
      vertex 18.1865 -10.5 150
      vertex 18.1865 10.5 0
      vertex 18.1865 10.5 150
    endloop
  endfacet
  facet normal 1 0 0
    outer loop
      vertex 18.1865 10.5 0
      vertex 18.1865 -10.5 150
      vertex 18.1865 -10.5 0
    endloop
  endfacet
  facet normal 0.500001 -0.866025 0
    outer loop
      vertex -2.52615e-07 -21 0
      vertex 18.1865 -10.5 150
      vertex -2.52615e-07 -21 150
    endloop
  endfacet
  facet normal 0.500001 -0.866025 0
    outer loop
      vertex 18.1865 -10.5 150
      vertex -2.52615e-07 -21 0
      vertex 18.1865 -10.5 0
    endloop
  endfacet
  facet normal -0.500001 -0.866025 0
    outer loop
      vertex -18.1865 -10.5 0
      vertex -2.52615e-07 -21 150
      vertex -18.1865 -10.5 150
    endloop
  endfacet
  facet normal -0.500001 -0.866025 -0
    outer loop
      vertex -2.52615e-07 -21 150
      vertex -18.1865 -10.5 0
      vertex -2.52615e-07 -21 0
    endloop
  endfacet
  facet normal 0 0 1
    outer loop
      vertex 3.4641 2 1.23
      vertex 16.9565 8.55986 1.23
      vertex 15.8913 10.4049 1.23
    endloop
  endfacet
  facet normal 0 0 1
    outer loop
      vertex 16.9565 8.55986 1.23
      vertex 3.97809 0.418114 1.23
      vertex 16.9565 -8.55986 1.23
    endloop
  endfacet
  facet normal -0 0 1
    outer loop
      vertex 3.80423 -1.23607 1.23
      vertex 16.9565 -8.55986 1.23
      vertex 3.97809 -0.418114 1.23
    endloop
  endfacet
  facet normal 0 0 1
    outer loop
      vertex 16.9565 -8.55986 1.23
      vertex 3.97809 0.418114 1.23
      vertex 3.97809 -0.418114 1.23
    endloop
  endfacet
  facet normal 0 0 1
    outer loop
      vertex 16.9565 8.55986 1.23
      vertex 3.80423 1.23607 1.23
      vertex 3.97809 0.418114 1.23
    endloop
  endfacet
  facet normal 0 0 1
    outer loop
      vertex 16.9565 8.55986 1.23
      vertex 3.4641 2 1.23
      vertex 3.80423 1.23607 1.23
    endloop
  endfacet
  facet normal 0 0 1
    outer loop
      vertex 15.8913 10.4049 1.23
      vertex 2.97258 2.67652 1.23
      vertex 3.4641 2 1.23
    endloop
  endfacet
  facet normal 0 0 1
    outer loop
      vertex 15.8913 10.4049 1.23
      vertex 2.35114 3.23607 1.23
      vertex 2.97258 2.67652 1.23
    endloop
  endfacet
  facet normal 0 0 1
    outer loop
      vertex 15.8913 10.4049 1.23
      vertex 1.62695 3.65418 1.23
      vertex 2.35114 3.23607 1.23
    endloop
  endfacet
  facet normal 0 0 1
    outer loop
      vertex 1.06521 18.9647 1.23
      vertex 1.62695 3.65418 1.23
      vertex 15.8913 10.4049 1.23
    endloop
  endfacet
  facet normal 0 0 1
    outer loop
      vertex 1.06521 18.9647 1.23
      vertex 0.831647 3.91259 1.23
      vertex 1.62695 3.65418 1.23
    endloop
  endfacet
  facet normal 0 0 1
    outer loop
      vertex 1.06521 18.9647 1.23
      vertex 3.88715e-07 4 1.23
      vertex 0.831647 3.91259 1.23
    endloop
  endfacet
  facet normal -0 0 1
    outer loop
      vertex -1.06521 18.9647 1.23
      vertex 3.88715e-07 4 1.23
      vertex 1.06521 18.9647 1.23
    endloop
  endfacet
  facet normal 0 0 1
    outer loop
      vertex 3.88715e-07 4 1.23
      vertex -1.06521 18.9647 1.23
      vertex -0.831647 3.91259 1.23
    endloop
  endfacet
  facet normal 0 0 1
    outer loop
      vertex -1.06521 18.9647 1.23
      vertex -1.62695 3.65418 1.23
      vertex -0.831647 3.91259 1.23
    endloop
  endfacet
  facet normal 0 0 1
    outer loop
      vertex -1.06521 18.9647 1.23
      vertex -2.35114 3.23607 1.23
      vertex -1.62695 3.65418 1.23
    endloop
  endfacet
  facet normal -0 0 1
    outer loop
      vertex -15.8913 10.4049 1.23
      vertex -2.35114 3.23607 1.23
      vertex -1.06521 18.9647 1.23
    endloop
  endfacet
  facet normal 0 0 1
    outer loop
      vertex -2.35114 3.23607 1.23
      vertex -15.8913 10.4049 1.23
      vertex -2.97258 2.67652 1.23
    endloop
  endfacet
  facet normal 0 0 1
    outer loop
      vertex -2.97258 2.67652 1.23
      vertex -15.8913 10.4049 1.23
      vertex -3.4641 2 1.23
    endloop
  endfacet
  facet normal -0 0 1
    outer loop
      vertex -16.9565 8.55986 1.23
      vertex -3.4641 2 1.23
      vertex -15.8913 10.4049 1.23
    endloop
  endfacet
  facet normal 0 0 1
    outer loop
      vertex -3.4641 2 1.23
      vertex -16.9565 8.55986 1.23
      vertex -3.80423 1.23607 1.23
    endloop
  endfacet
  facet normal -0 0 1
    outer loop
      vertex 3.4641 -2 1.23
      vertex 16.9565 -8.55986 1.23
      vertex 3.80423 -1.23607 1.23
    endloop
  endfacet
  facet normal 0 0 1
    outer loop
      vertex 16.9565 -8.55986 1.23
      vertex 3.4641 -2 1.23
      vertex 15.8913 -10.4049 1.23
    endloop
  endfacet
  facet normal -0 0 1
    outer loop
      vertex 2.97258 -2.67652 1.23
      vertex 15.8913 -10.4049 1.23
      vertex 3.4641 -2 1.23
    endloop
  endfacet
  facet normal -0 0 1
    outer loop
      vertex 2.35114 -3.23607 1.23
      vertex 15.8913 -10.4049 1.23
      vertex 2.97258 -2.67652 1.23
    endloop
  endfacet
  facet normal -0 0 1
    outer loop
      vertex 1.62695 -3.65418 1.23
      vertex 15.8913 -10.4049 1.23
      vertex 2.35114 -3.23607 1.23
    endloop
  endfacet
  facet normal 0 0 1
    outer loop
      vertex 1.62695 -3.65418 1.23
      vertex 1.06521 -18.9647 1.23
      vertex 15.8913 -10.4049 1.23
    endloop
  endfacet
  facet normal -0 0 1
    outer loop
      vertex 0.831647 -3.91259 1.23
      vertex 1.06521 -18.9647 1.23
      vertex 1.62695 -3.65418 1.23
    endloop
  endfacet
  facet normal -0 0 1
    outer loop
      vertex -3.88715e-07 -4 1.23
      vertex 1.06521 -18.9647 1.23
      vertex 0.831647 -3.91259 1.23
    endloop
  endfacet
  facet normal 0 0 1
    outer loop
      vertex -1.06521 -18.9647 1.23
      vertex -3.88715e-07 -4 1.23
      vertex -0.831647 -3.91259 1.23
    endloop
  endfacet
  facet normal 0 0 1
    outer loop
      vertex -3.88715e-07 -4 1.23
      vertex -1.06521 -18.9647 1.23
      vertex 1.06521 -18.9647 1.23
    endloop
  endfacet
  facet normal 0 0 1
    outer loop
      vertex -1.62695 -3.65418 1.23
      vertex -1.06521 -18.9647 1.23
      vertex -0.831647 -3.91259 1.23
    endloop
  endfacet
  facet normal 0 0 1
    outer loop
      vertex -2.35114 -3.23607 1.23
      vertex -1.06521 -18.9647 1.23
      vertex -1.62695 -3.65418 1.23
    endloop
  endfacet
  facet normal 0 0 1
    outer loop
      vertex -15.8913 -10.4049 1.23
      vertex -2.35114 -3.23607 1.23
      vertex -2.97258 -2.67652 1.23
    endloop
  endfacet
  facet normal 0 0 1
    outer loop
      vertex -15.8913 -10.4049 1.23
      vertex -2.97258 -2.67652 1.23
      vertex -3.4641 -2 1.23
    endloop
  endfacet
  facet normal 0 0 1
    outer loop
      vertex -16.9565 -8.55986 1.23
      vertex -3.4641 -2 1.23
      vertex -3.80423 -1.23607 1.23
    endloop
  endfacet
  facet normal 0 0 1
    outer loop
      vertex -16.9565 -8.55986 1.23
      vertex -3.80423 -1.23607 1.23
      vertex -3.97809 -0.418114 1.23
    endloop
  endfacet
  facet normal 0 0 1
    outer loop
      vertex -3.80423 1.23607 1.23
      vertex -16.9565 8.55986 1.23
      vertex -3.97809 0.418114 1.23
    endloop
  endfacet
  facet normal 0 0 1
    outer loop
      vertex -3.97809 0.418114 1.23
      vertex -16.9565 8.55986 1.23
      vertex -3.97809 -0.418114 1.23
    endloop
  endfacet
  facet normal 0 0 1
    outer loop
      vertex -2.35114 -3.23607 1.23
      vertex -15.8913 -10.4049 1.23
      vertex -1.06521 -18.9647 1.23
    endloop
  endfacet
  facet normal 0 0 1
    outer loop
      vertex -16.9565 -8.55986 1.23
      vertex -3.97809 -0.418114 1.23
      vertex -16.9565 8.55986 1.23
    endloop
  endfacet
  facet normal 0 0 1
    outer loop
      vertex -3.4641 -2 1.23
      vertex -16.9565 -8.55986 1.23
      vertex -15.8913 -10.4049 1.23
    endloop
  endfacet
  facet normal -0.499999 -0.866026 0
    outer loop
      vertex 1.62695 3.65418 0
      vertex 2.35114 3.23607 1.23
      vertex 1.62695 3.65418 1.23
    endloop
  endfacet
  facet normal -0.499999 -0.866026 -0
    outer loop
      vertex 2.35114 3.23607 1.23
      vertex 1.62695 3.65418 0
      vertex 2.35114 3.23607 0
    endloop
  endfacet
  facet normal -0.309017 -0.951056 0
    outer loop
      vertex 0.831647 3.91259 0
      vertex 1.62695 3.65418 1.23
      vertex 0.831647 3.91259 1.23
    endloop
  endfacet
  facet normal -0.309017 -0.951056 -0
    outer loop
      vertex 1.62695 3.65418 1.23
      vertex 0.831647 3.91259 0
      vertex 1.62695 3.65418 0
    endloop
  endfacet
  facet normal 0.309017 -0.951056 0
    outer loop
      vertex -1.62695 3.65418 0
      vertex -0.831647 3.91259 1.23
      vertex -1.62695 3.65418 1.23
    endloop
  endfacet
  facet normal 0.309017 -0.951056 0
    outer loop
      vertex -0.831647 3.91259 1.23
      vertex -1.62695 3.65418 0
      vertex -0.831647 3.91259 0
    endloop
  endfacet
  facet normal 0.104529 -0.994522 0
    outer loop
      vertex -0.831647 3.91259 0
      vertex 3.88715e-07 4 1.23
      vertex -0.831647 3.91259 1.23
    endloop
  endfacet
  facet normal 0.104529 -0.994522 0
    outer loop
      vertex 3.88715e-07 4 1.23
      vertex -0.831647 3.91259 0
      vertex 3.88715e-07 4 0
    endloop
  endfacet
  facet normal 0.809017 -0.587785 0
    outer loop
      vertex -3.4641 2 1.23
      vertex -2.97258 2.67652 0
      vertex -2.97258 2.67652 1.23
    endloop
  endfacet
  facet normal 0.809017 -0.587785 0
    outer loop
      vertex -2.97258 2.67652 0
      vertex -3.4641 2 1.23
      vertex -3.4641 2 0
    endloop
  endfacet
  facet normal -0.913543 -0.406743 0
    outer loop
      vertex 3.80423 1.23607 0
      vertex 3.4641 2 1.23
      vertex 3.4641 2 0
    endloop
  endfacet
  facet normal -0.913543 -0.406743 0
    outer loop
      vertex 3.4641 2 1.23
      vertex 3.80423 1.23607 0
      vertex 3.80423 1.23607 1.23
    endloop
  endfacet
  facet normal -0.669133 -0.743143 0
    outer loop
      vertex 2.35114 3.23607 0
      vertex 2.97258 2.67652 1.23
      vertex 2.35114 3.23607 1.23
    endloop
  endfacet
  facet normal -0.669133 -0.743143 -0
    outer loop
      vertex 2.97258 2.67652 1.23
      vertex 2.35114 3.23607 0
      vertex 2.97258 2.67652 0
    endloop
  endfacet
  facet normal 0.499999 -0.866026 0
    outer loop
      vertex -2.35114 3.23607 0
      vertex -1.62695 3.65418 1.23
      vertex -2.35114 3.23607 1.23
    endloop
  endfacet
  facet normal 0.499999 -0.866026 0
    outer loop
      vertex -1.62695 3.65418 1.23
      vertex -2.35114 3.23607 0
      vertex -1.62695 3.65418 0
    endloop
  endfacet
  facet normal -0.104529 -0.994522 0
    outer loop
      vertex 3.88715e-07 4 0
      vertex 0.831647 3.91259 1.23
      vertex 3.88715e-07 4 1.23
    endloop
  endfacet
  facet normal -0.104529 -0.994522 -0
    outer loop
      vertex 0.831647 3.91259 1.23
      vertex 3.88715e-07 4 0
      vertex 0.831647 3.91259 0
    endloop
  endfacet
  facet normal 0.913543 0.406743 0
    outer loop
      vertex -3.4641 -2 1.23
      vertex -3.80423 -1.23607 0
      vertex -3.80423 -1.23607 1.23
    endloop
  endfacet
  facet normal 0.913543 0.406743 0
    outer loop
      vertex -3.80423 -1.23607 0
      vertex -3.4641 -2 1.23
      vertex -3.4641 -2 0
    endloop
  endfacet
  facet normal 1 -0 0
    outer loop
      vertex -3.97809 -0.418114 1.23
      vertex -3.97809 0.418114 0
      vertex -3.97809 0.418114 1.23
    endloop
  endfacet
  facet normal 1 0 0
    outer loop
      vertex -3.97809 0.418114 0
      vertex -3.97809 -0.418114 1.23
      vertex -3.97809 -0.418114 0
    endloop
  endfacet
  facet normal 0.913543 -0.406743 0
    outer loop
      vertex -3.80423 1.23607 1.23
      vertex -3.4641 2 0
      vertex -3.4641 2 1.23
    endloop
  endfacet
  facet normal 0.913543 -0.406743 0
    outer loop
      vertex -3.4641 2 0
      vertex -3.80423 1.23607 1.23
      vertex -3.80423 1.23607 0
    endloop
  endfacet
  facet normal 0.669133 -0.743143 0
    outer loop
      vertex -2.97258 2.67652 0
      vertex -2.35114 3.23607 1.23
      vertex -2.97258 2.67652 1.23
    endloop
  endfacet
  facet normal 0.669133 -0.743143 0
    outer loop
      vertex -2.35114 3.23607 1.23
      vertex -2.97258 2.67652 0
      vertex -2.35114 3.23607 0
    endloop
  endfacet
  facet normal 0.978148 -0.207909 0
    outer loop
      vertex -3.97809 0.418114 1.23
      vertex -3.80423 1.23607 0
      vertex -3.80423 1.23607 1.23
    endloop
  endfacet
  facet normal 0.978148 -0.207909 0
    outer loop
      vertex -3.80423 1.23607 0
      vertex -3.97809 0.418114 1.23
      vertex -3.97809 0.418114 0
    endloop
  endfacet
  facet normal -0.809017 -0.587785 0
    outer loop
      vertex 3.4641 2 0
      vertex 2.97258 2.67652 1.23
      vertex 2.97258 2.67652 0
    endloop
  endfacet
  facet normal -0.809017 -0.587785 0
    outer loop
      vertex 2.97258 2.67652 1.23
      vertex 3.4641 2 0
      vertex 3.4641 2 1.23
    endloop
  endfacet
  facet normal 0.499999 0.866026 -0
    outer loop
      vertex -1.62695 -3.65418 0
      vertex -2.35114 -3.23607 1.23
      vertex -1.62695 -3.65418 1.23
    endloop
  endfacet
  facet normal 0.499999 0.866026 0
    outer loop
      vertex -2.35114 -3.23607 1.23
      vertex -1.62695 -3.65418 0
      vertex -2.35114 -3.23607 0
    endloop
  endfacet
  facet normal -0.913543 0.406743 0
    outer loop
      vertex 3.4641 -2 0
      vertex 3.80423 -1.23607 1.23
      vertex 3.80423 -1.23607 0
    endloop
  endfacet
  facet normal -0.913543 0.406743 0
    outer loop
      vertex 3.80423 -1.23607 1.23
      vertex 3.4641 -2 0
      vertex 3.4641 -2 1.23
    endloop
  endfacet
  facet normal 0.978148 0.207909 0
    outer loop
      vertex -3.80423 -1.23607 1.23
      vertex -3.97809 -0.418114 0
      vertex -3.97809 -0.418114 1.23
    endloop
  endfacet
  facet normal 0.978148 0.207909 0
    outer loop
      vertex -3.97809 -0.418114 0
      vertex -3.80423 -1.23607 1.23
      vertex -3.80423 -1.23607 0
    endloop
  endfacet
  facet normal -1 0 0
    outer loop
      vertex 3.97809 -0.418114 0
      vertex 3.97809 0.418114 1.23
      vertex 3.97809 0.418114 0
    endloop
  endfacet
  facet normal -1 -0 0
    outer loop
      vertex 3.97809 0.418114 1.23
      vertex 3.97809 -0.418114 0
      vertex 3.97809 -0.418114 1.23
    endloop
  endfacet
  facet normal 0.809017 0.587785 0
    outer loop
      vertex -2.97258 -2.67652 1.23
      vertex -3.4641 -2 0
      vertex -3.4641 -2 1.23
    endloop
  endfacet
  facet normal 0.809017 0.587785 0
    outer loop
      vertex -3.4641 -2 0
      vertex -2.97258 -2.67652 1.23
      vertex -2.97258 -2.67652 0
    endloop
  endfacet
  facet normal -0.669133 0.743143 0
    outer loop
      vertex 2.97258 -2.67652 0
      vertex 2.35114 -3.23607 1.23
      vertex 2.97258 -2.67652 1.23
    endloop
  endfacet
  facet normal -0.669133 0.743143 0
    outer loop
      vertex 2.35114 -3.23607 1.23
      vertex 2.97258 -2.67652 0
      vertex 2.35114 -3.23607 0
    endloop
  endfacet
  facet normal -0.809017 0.587785 0
    outer loop
      vertex 2.97258 -2.67652 0
      vertex 3.4641 -2 1.23
      vertex 3.4641 -2 0
    endloop
  endfacet
  facet normal -0.809017 0.587785 0
    outer loop
      vertex 3.4641 -2 1.23
      vertex 2.97258 -2.67652 0
      vertex 2.97258 -2.67652 1.23
    endloop
  endfacet
  facet normal -0.978148 -0.207909 0
    outer loop
      vertex 3.97809 0.418114 0
      vertex 3.80423 1.23607 1.23
      vertex 3.80423 1.23607 0
    endloop
  endfacet
  facet normal -0.978148 -0.207909 0
    outer loop
      vertex 3.80423 1.23607 1.23
      vertex 3.97809 0.418114 0
      vertex 3.97809 0.418114 1.23
    endloop
  endfacet
  facet normal -0.309017 0.951056 0
    outer loop
      vertex 1.62695 -3.65418 0
      vertex 0.831647 -3.91259 1.23
      vertex 1.62695 -3.65418 1.23
    endloop
  endfacet
  facet normal -0.309017 0.951056 0
    outer loop
      vertex 0.831647 -3.91259 1.23
      vertex 1.62695 -3.65418 0
      vertex 0.831647 -3.91259 0
    endloop
  endfacet
  facet normal -0.499999 0.866026 0
    outer loop
      vertex 2.35114 -3.23607 0
      vertex 1.62695 -3.65418 1.23
      vertex 2.35114 -3.23607 1.23
    endloop
  endfacet
  facet normal -0.499999 0.866026 0
    outer loop
      vertex 1.62695 -3.65418 1.23
      vertex 2.35114 -3.23607 0
      vertex 1.62695 -3.65418 0
    endloop
  endfacet
  facet normal 0.669133 0.743143 -0
    outer loop
      vertex -2.35114 -3.23607 0
      vertex -2.97258 -2.67652 1.23
      vertex -2.35114 -3.23607 1.23
    endloop
  endfacet
  facet normal 0.669133 0.743143 0
    outer loop
      vertex -2.97258 -2.67652 1.23
      vertex -2.35114 -3.23607 0
      vertex -2.97258 -2.67652 0
    endloop
  endfacet
  facet normal 0.309017 0.951056 -0
    outer loop
      vertex -0.831647 -3.91259 0
      vertex -1.62695 -3.65418 1.23
      vertex -0.831647 -3.91259 1.23
    endloop
  endfacet
  facet normal 0.309017 0.951056 0
    outer loop
      vertex -1.62695 -3.65418 1.23
      vertex -0.831647 -3.91259 0
      vertex -1.62695 -3.65418 0
    endloop
  endfacet
  facet normal -0.978148 0.207909 0
    outer loop
      vertex 3.80423 -1.23607 0
      vertex 3.97809 -0.418114 1.23
      vertex 3.97809 -0.418114 0
    endloop
  endfacet
  facet normal -0.978148 0.207909 0
    outer loop
      vertex 3.97809 -0.418114 1.23
      vertex 3.80423 -1.23607 0
      vertex 3.80423 -1.23607 1.23
    endloop
  endfacet
  facet normal 0.104529 0.994522 -0
    outer loop
      vertex -3.88715e-07 -4 0
      vertex -0.831647 -3.91259 1.23
      vertex -3.88715e-07 -4 1.23
    endloop
  endfacet
  facet normal 0.104529 0.994522 0
    outer loop
      vertex -0.831647 -3.91259 1.23
      vertex -3.88715e-07 -4 0
      vertex -0.831647 -3.91259 0
    endloop
  endfacet
  facet normal -0.104529 0.994522 0
    outer loop
      vertex 0.831647 -3.91259 0
      vertex -3.88715e-07 -4 1.23
      vertex 0.831647 -3.91259 1.23
    endloop
  endfacet
  facet normal -0.104529 0.994522 0
    outer loop
      vertex -3.88715e-07 -4 1.23
      vertex 0.831647 -3.91259 0
      vertex -3.88715e-07 -4 0
    endloop
  endfacet
endsolid OpenSCAD_Model
