solid OpenSCAD_Model
  facet normal 0 0 -1
    outer loop
      vertex 52.7146 -10.8551 0
      vertex -0.615 20.6449 0
      vertex -0.615 40.2246 0
    endloop
  endfacet
  facet normal 0 0 -1
    outer loop
      vertex -18.1865 -10.5 0
      vertex -0.615 20.6449 0
      vertex -2.52615e-07 -21 0
    endloop
  endfacet
  facet normal 0 0 -1
    outer loop
      vertex -0.615 20.6449 0
      vertex -18.1865 -10.5 0
      vertex -18.1865 10.5 0
    endloop
  endfacet
  facet normal 0 0 -1
    outer loop
      vertex 52.7146 -10.8551 0
      vertex 88.4727 9.78986 0
      vertex 88.4727 -10.5 0
    endloop
  endfacet
  facet normal -0 0 -1
    outer loop
      vertex 88.4727 9.78986 0
      vertex 52.7146 -10.8551 0
      vertex 88.4727 51.0797 0
    endloop
  endfacet
  facet normal 0 0 -1
    outer loop
      vertex 52.7146 -10.8551 0
      vertex 88.4727 -10.5 0
      vertex 70.2861 -21 0
    endloop
  endfacet
  facet normal 0 0 -1
    outer loop
      vertex 52.7146 71.7246 0
      vertex 88.4727 51.0797 0
      vertex 52.7146 -10.8551 0
    endloop
  endfacet
  facet normal 0 0 -1
    outer loop
      vertex 88.4727 51.0797 0
      vertex 52.7146 71.7246 0
      vertex 88.4727 71.3696 0
    endloop
  endfacet
  facet normal 0 0 -1
    outer loop
      vertex 88.4727 71.3696 0
      vertex 52.7146 71.7246 0
      vertex 70.2861 81.8696 0
    endloop
  endfacet
  facet normal 0 0 -1
    outer loop
      vertex 17.5715 -10.8551 0
      vertex 52.7146 -10.8551 0
      vertex 35.1431 -21 0
    endloop
  endfacet
  facet normal 0 0 -1
    outer loop
      vertex -0.615 20.6449 0
      vertex 52.7146 -10.8551 0
      vertex 17.5715 -10.8551 0
    endloop
  endfacet
  facet normal 0 0 -1
    outer loop
      vertex 52.7146 -10.8551 0
      vertex -0.615 40.2246 0
      vertex 52.7146 71.7246 0
    endloop
  endfacet
  facet normal 0 0 -1
    outer loop
      vertex 52.7146 71.7246 0
      vertex 17.5715 71.7246 0
      vertex 35.1431 81.8696 0
    endloop
  endfacet
  facet normal -0 0 -1
    outer loop
      vertex 52.7146 71.7246 0
      vertex -0.615 40.2246 0
      vertex 17.5715 71.7246 0
    endloop
  endfacet
  facet normal 0 0 -1
    outer loop
      vertex -0.615 20.6449 0
      vertex 17.5715 -10.8551 0
      vertex -2.52615e-07 -21 0
    endloop
  endfacet
  facet normal -0 0 -1
    outer loop
      vertex 17.5715 71.7246 0
      vertex -0.615 40.2246 0
      vertex 2.52615e-07 81.8696 0
    endloop
  endfacet
  facet normal 0 0 -1
    outer loop
      vertex -18.1865 71.3696 0
      vertex -0.615 40.2246 0
      vertex -18.1865 50.3696 0
    endloop
  endfacet
  facet normal 0 0 -1
    outer loop
      vertex -0.615 40.2246 0
      vertex -18.1865 71.3696 0
      vertex 2.52615e-07 81.8696 0
    endloop
  endfacet
  facet normal 0 0 -1
    outer loop
      vertex 88.4727 9.78986 0
      vertex 106.044 40.9348 0
      vertex 106.044 19.9348 0
    endloop
  endfacet
  facet normal -0 0 -1
    outer loop
      vertex 106.044 40.9348 0
      vertex 88.4727 9.78986 0
      vertex 88.4727 51.0797 0
    endloop
  endfacet
  facet normal 0.866032 -0.499988 0
    outer loop
      vertex -16.9565 8.55986 150
      vertex -15.8913 10.4049 1.23
      vertex -15.8913 10.4049 150
    endloop
  endfacet
  facet normal 0.866032 -0.499988 0
    outer loop
      vertex -15.8913 10.4049 1.23
      vertex -16.9565 8.55986 150
      vertex -16.9565 8.55986 1.23
    endloop
  endfacet
  facet normal 0.866032 0.499988 0
    outer loop
      vertex -15.8913 -10.4049 150
      vertex -16.9565 -8.55986 1.23
      vertex -16.9565 -8.55986 150
    endloop
  endfacet
  facet normal 0.866032 0.499988 0
    outer loop
      vertex -16.9565 -8.55986 1.23
      vertex -15.8913 -10.4049 150
      vertex -15.8913 -10.4049 1.23
    endloop
  endfacet
  facet normal 0 1 -0
    outer loop
      vertex 1.06521 -18.9647 1.23
      vertex -1.06521 -18.9647 150
      vertex 1.06521 -18.9647 150
    endloop
  endfacet
  facet normal 0 1 0
    outer loop
      vertex -1.06521 -18.9647 150
      vertex 1.06521 -18.9647 1.23
      vertex -1.06521 -18.9647 1.23
    endloop
  endfacet
  facet normal -0.866032 0.499988 0
    outer loop
      vertex 15.8913 -10.4049 1.23
      vertex 16.9565 -8.55986 150
      vertex 16.9565 -8.55986 1.23
    endloop
  endfacet
  facet normal -0.866032 0.499988 0
    outer loop
      vertex 16.9565 -8.55986 150
      vertex 15.8913 -10.4049 1.23
      vertex 15.8913 -10.4049 150
    endloop
  endfacet
  facet normal -0.866032 -0.499988 0
    outer loop
      vertex 16.9565 8.55986 1.23
      vertex 15.8913 10.4049 150
      vertex 15.8913 10.4049 1.23
    endloop
  endfacet
  facet normal -0.866032 -0.499988 0
    outer loop
      vertex 15.8913 10.4049 150
      vertex 16.9565 8.55986 1.23
      vertex 16.9565 8.55986 150
    endloop
  endfacet
  facet normal 0 -1 0
    outer loop
      vertex -1.06521 18.9647 1.23
      vertex 1.06521 18.9647 150
      vertex -1.06521 18.9647 150
    endloop
  endfacet
  facet normal 0 -1 -0
    outer loop
      vertex 1.06521 18.9647 150
      vertex -1.06521 18.9647 1.23
      vertex 1.06521 18.9647 1.23
    endloop
  endfacet
  facet normal -0.499998 -0.866027 0
    outer loop
      vertex 1.06521 18.9647 1.23
      vertex 15.8913 10.4049 150
      vertex 1.06521 18.9647 150
    endloop
  endfacet
  facet normal -0.499998 -0.866027 -0
    outer loop
      vertex 15.8913 10.4049 150
      vertex 1.06521 18.9647 1.23
      vertex 15.8913 10.4049 1.23
    endloop
  endfacet
  facet normal 1 -0 0
    outer loop
      vertex -16.9565 -8.55986 150
      vertex -16.9565 8.55986 1.23
      vertex -16.9565 8.55986 150
    endloop
  endfacet
  facet normal 1 0 0
    outer loop
      vertex -16.9565 8.55986 1.23
      vertex -16.9565 -8.55986 150
      vertex -16.9565 -8.55986 1.23
    endloop
  endfacet
  facet normal 0.499998 -0.866027 0
    outer loop
      vertex -15.8913 10.4049 1.23
      vertex -1.06521 18.9647 150
      vertex -15.8913 10.4049 150
    endloop
  endfacet
  facet normal 0.499998 -0.866027 0
    outer loop
      vertex -1.06521 18.9647 150
      vertex -15.8913 10.4049 1.23
      vertex -1.06521 18.9647 1.23
    endloop
  endfacet
  facet normal -1 0 0
    outer loop
      vertex 16.9565 -8.55986 1.23
      vertex 16.9565 8.55986 150
      vertex 16.9565 8.55986 1.23
    endloop
  endfacet
  facet normal -1 -0 0
    outer loop
      vertex 16.9565 8.55986 150
      vertex 16.9565 -8.55986 1.23
      vertex 16.9565 -8.55986 150
    endloop
  endfacet
  facet normal -0.499998 0.866027 0
    outer loop
      vertex 15.8913 -10.4049 1.23
      vertex 1.06521 -18.9647 150
      vertex 15.8913 -10.4049 150
    endloop
  endfacet
  facet normal -0.499998 0.866027 0
    outer loop
      vertex 1.06521 -18.9647 150
      vertex 15.8913 -10.4049 1.23
      vertex 1.06521 -18.9647 1.23
    endloop
  endfacet
  facet normal 0.499998 0.866027 -0
    outer loop
      vertex -1.06521 -18.9647 1.23
      vertex -15.8913 -10.4049 150
      vertex -1.06521 -18.9647 150
    endloop
  endfacet
  facet normal 0.499998 0.866027 0
    outer loop
      vertex -15.8913 -10.4049 150
      vertex -1.06521 -18.9647 1.23
      vertex -15.8913 -10.4049 1.23
    endloop
  endfacet
  facet normal -1 0 0
    outer loop
      vertex -18.1865 -10.5 0
      vertex -18.1865 10.5 150
      vertex -18.1865 10.5 0
    endloop
  endfacet
  facet normal -1 -0 0
    outer loop
      vertex -18.1865 10.5 150
      vertex -18.1865 -10.5 0
      vertex -18.1865 -10.5 150
    endloop
  endfacet
  facet normal -0.5 0.866026 0
    outer loop
      vertex -0.615 20.6449 0
      vertex -18.1865 10.5 150
      vertex -0.615 20.6449 150
    endloop
  endfacet
  facet normal -0.5 0.866026 0
    outer loop
      vertex -18.1865 10.5 150
      vertex -0.615 20.6449 0
      vertex -18.1865 10.5 0
    endloop
  endfacet
  facet normal 0 0 1
    outer loop
      vertex 17.5715 71.7246 150
      vertex 15.8913 71.2744 150
      vertex 16.9565 69.4294 150
    endloop
  endfacet
  facet normal 0 0 1
    outer loop
      vertex 17.5715 71.7246 150
      vertex 1.06521 79.8343 150
      vertex 15.8913 71.2744 150
    endloop
  endfacet
  facet normal 0 0 1
    outer loop
      vertex 2.52615e-07 81.8696 150
      vertex 1.06521 79.8343 150
      vertex 17.5715 71.7246 150
    endloop
  endfacet
  facet normal 0 0 1
    outer loop
      vertex 2.52615e-07 81.8696 150
      vertex -1.06521 79.8343 150
      vertex 1.06521 79.8343 150
    endloop
  endfacet
  facet normal 0 0 1
    outer loop
      vertex 2.52615e-07 81.8696 150
      vertex -15.8913 71.2744 150
      vertex -1.06521 79.8343 150
    endloop
  endfacet
  facet normal 0 0 1
    outer loop
      vertex -16.9565 69.4294 150
      vertex -18.1865 71.3696 150
      vertex -16.9565 52.3097 150
    endloop
  endfacet
  facet normal 0 0 1
    outer loop
      vertex -15.8913 71.2744 150
      vertex -18.1865 71.3696 150
      vertex -16.9565 69.4294 150
    endloop
  endfacet
  facet normal -0 0 1
    outer loop
      vertex -18.1865 71.3696 150
      vertex -15.8913 71.2744 150
      vertex 2.52615e-07 81.8696 150
    endloop
  endfacet
  facet normal 0 0 1
    outer loop
      vertex 18.1865 -8.55986 150
      vertex 16.9565 -8.55986 150
      vertex 17.5715 -10.8551 150
    endloop
  endfacet
  facet normal -0 0 1
    outer loop
      vertex 15.8913 -10.4049 150
      vertex 17.5715 -10.8551 150
      vertex 16.9565 -8.55986 150
    endloop
  endfacet
  facet normal 0 0 1
    outer loop
      vertex 1.06521 -18.9647 150
      vertex 17.5715 -10.8551 150
      vertex 15.8913 -10.4049 150
    endloop
  endfacet
  facet normal -0 0 1
    outer loop
      vertex 1.06521 -18.9647 150
      vertex -2.52615e-07 -21 150
      vertex 17.5715 -10.8551 150
    endloop
  endfacet
  facet normal -0 0 1
    outer loop
      vertex -1.06521 -18.9647 150
      vertex -2.52615e-07 -21 150
      vertex 1.06521 -18.9647 150
    endloop
  endfacet
  facet normal 0 0 1
    outer loop
      vertex -15.8913 -10.4049 150
      vertex -2.52615e-07 -21 150
      vertex -1.06521 -18.9647 150
    endloop
  endfacet
  facet normal 0 0 1
    outer loop
      vertex -15.8913 -10.4049 150
      vertex -18.1865 -10.5 150
      vertex -2.52615e-07 -21 150
    endloop
  endfacet
  facet normal 0 0 1
    outer loop
      vertex -16.9565 -8.55986 150
      vertex -18.1865 -10.5 150
      vertex -15.8913 -10.4049 150
    endloop
  endfacet
  facet normal 0 0 1
    outer loop
      vertex -18.1865 -10.5 150
      vertex -16.9565 -8.55986 150
      vertex -18.1865 10.5 150
    endloop
  endfacet
  facet normal 0 0 1
    outer loop
      vertex 52.7146 71.7246 150
      vertex 51.0344 71.2744 150
      vertex 52.0996 69.4294 150
    endloop
  endfacet
  facet normal 0 0 1
    outer loop
      vertex 52.7146 71.7246 150
      vertex 36.2083 79.8343 150
      vertex 51.0344 71.2744 150
    endloop
  endfacet
  facet normal 0 0 1
    outer loop
      vertex 35.1431 81.8696 150
      vertex 36.2083 79.8343 150
      vertex 52.7146 71.7246 150
    endloop
  endfacet
  facet normal 0 0 1
    outer loop
      vertex 35.1431 81.8696 150
      vertex 34.0779 79.8343 150
      vertex 36.2083 79.8343 150
    endloop
  endfacet
  facet normal 0 0 1
    outer loop
      vertex 17.5715 71.7246 150
      vertex 34.0779 79.8343 150
      vertex 35.1431 81.8696 150
    endloop
  endfacet
  facet normal 0 0 1
    outer loop
      vertex 19.2517 71.2744 150
      vertex 17.5715 71.7246 150
      vertex 18.1865 69.4294 150
    endloop
  endfacet
  facet normal 0 0 1
    outer loop
      vertex 34.0779 79.8343 150
      vertex 17.5715 71.7246 150
      vertex 19.2517 71.2744 150
    endloop
  endfacet
  facet normal 0 0 1
    outer loop
      vertex 53.3296 -8.55986 150
      vertex 52.0996 -8.55986 150
      vertex 52.7146 -10.8551 150
    endloop
  endfacet
  facet normal -0 0 1
    outer loop
      vertex 51.0344 -10.4049 150
      vertex 52.7146 -10.8551 150
      vertex 52.0996 -8.55986 150
    endloop
  endfacet
  facet normal 0 0 1
    outer loop
      vertex 36.2083 -18.9647 150
      vertex 52.7146 -10.8551 150
      vertex 51.0344 -10.4049 150
    endloop
  endfacet
  facet normal -0 0 1
    outer loop
      vertex 36.2083 -18.9647 150
      vertex 35.1431 -21 150
      vertex 52.7146 -10.8551 150
    endloop
  endfacet
  facet normal -0 0 1
    outer loop
      vertex 34.0779 -18.9647 150
      vertex 35.1431 -21 150
      vertex 36.2083 -18.9647 150
    endloop
  endfacet
  facet normal -0 0 1
    outer loop
      vertex 17.5715 -10.8551 150
      vertex 34.0779 -18.9647 150
      vertex 19.2517 -10.4049 150
    endloop
  endfacet
  facet normal 0 0 1
    outer loop
      vertex 34.0779 -18.9647 150
      vertex 17.5715 -10.8551 150
      vertex 35.1431 -21 150
    endloop
  endfacet
  facet normal 0 0 1
    outer loop
      vertex 18.1865 -8.55986 150
      vertex 17.5715 -10.8551 150
      vertex 19.2517 -10.4049 150
    endloop
  endfacet
  facet normal -0 0 1
    outer loop
      vertex 16.9565 8.55986 150
      vertex 18.1865 -8.55986 150
      vertex 18.1865 8.55986 150
    endloop
  endfacet
  facet normal 0 0 1
    outer loop
      vertex 88.4727 71.3696 150
      vertex 87.2427 69.4294 150
      vertex 88.4727 51.0797 150
    endloop
  endfacet
  facet normal 0 0 1
    outer loop
      vertex 88.4727 71.3696 150
      vertex 86.1775 71.2744 150
      vertex 87.2427 69.4294 150
    endloop
  endfacet
  facet normal 0 0 1
    outer loop
      vertex 88.4727 71.3696 150
      vertex 71.3513 79.8343 150
      vertex 86.1775 71.2744 150
    endloop
  endfacet
  facet normal 0 0 1
    outer loop
      vertex 70.2861 81.8696 150
      vertex 71.3513 79.8343 150
      vertex 88.4727 71.3696 150
    endloop
  endfacet
  facet normal 0 0 1
    outer loop
      vertex 70.2861 81.8696 150
      vertex 69.2209 79.8343 150
      vertex 71.3513 79.8343 150
    endloop
  endfacet
  facet normal 0 0 1
    outer loop
      vertex 52.7146 71.7246 150
      vertex 69.2209 79.8343 150
      vertex 70.2861 81.8696 150
    endloop
  endfacet
  facet normal 0 0 1
    outer loop
      vertex 52.0996 69.4294 150
      vertex 53.3296 69.4294 150
      vertex 52.7146 71.7246 150
    endloop
  endfacet
  facet normal 0 0 1
    outer loop
      vertex 54.3948 71.2744 150
      vertex 52.7146 71.7246 150
      vertex 53.3296 69.4294 150
    endloop
  endfacet
  facet normal 0 0 1
    outer loop
      vertex 69.2209 79.8343 150
      vertex 52.7146 71.7246 150
      vertex 54.3948 71.2744 150
    endloop
  endfacet
  facet normal 0 0 1
    outer loop
      vertex 106.044 40.9348 150
      vertex 104.814 38.9946 150
      vertex 106.044 19.9348 150
    endloop
  endfacet
  facet normal 0 0 1
    outer loop
      vertex 106.044 40.9348 150
      vertex 103.749 40.8396 150
      vertex 104.814 38.9946 150
    endloop
  endfacet
  facet normal 0 0 1
    outer loop
      vertex 88.4727 51.0797 150
      vertex 103.749 40.8396 150
      vertex 106.044 40.9348 150
    endloop
  endfacet
  facet normal 0 0 1
    outer loop
      vertex 103.749 40.8396 150
      vertex 88.4727 51.0797 150
      vertex 88.9229 49.3995 150
    endloop
  endfacet
  facet normal -0 0 1
    outer loop
      vertex 87.2427 52.3097 150
      vertex 88.4727 51.0797 150
      vertex 87.2427 69.4294 150
    endloop
  endfacet
  facet normal 0 0 1
    outer loop
      vertex 86.1775 50.4647 150
      vertex 88.4727 51.0797 150
      vertex 87.2427 52.3097 150
    endloop
  endfacet
  facet normal 0 0 1
    outer loop
      vertex 88.4727 51.0797 150
      vertex 86.7925 49.3995 150
      vertex 88.9229 49.3995 150
    endloop
  endfacet
  facet normal 0 0 1
    outer loop
      vertex 88.4727 51.0797 150
      vertex 86.1775 50.4647 150
      vertex 86.7925 49.3995 150
    endloop
  endfacet
  facet normal 0 0 1
    outer loop
      vertex 86.1775 50.4647 150
      vertex 71.9663 40.8396 150
      vertex 86.7925 49.3995 150
    endloop
  endfacet
  facet normal -0 0 1
    outer loop
      vertex 71.3513 41.9049 150
      vertex 71.9663 40.8396 150
      vertex 86.1775 50.4647 150
    endloop
  endfacet
  facet normal 0 0 1
    outer loop
      vertex 71.3513 41.9049 150
      vertex 70.9011 38.9946 150
      vertex 71.9663 40.8396 150
    endloop
  endfacet
  facet normal 0 0 1
    outer loop
      vertex 71.3513 41.9049 150
      vertex 69.6711 38.9946 150
      vertex 70.9011 38.9946 150
    endloop
  endfacet
  facet normal -0 0 1
    outer loop
      vertex 69.2209 41.9049 150
      vertex 69.6711 38.9946 150
      vertex 71.3513 41.9049 150
    endloop
  endfacet
  facet normal 0 0 1
    outer loop
      vertex 69.2209 41.9049 150
      vertex 68.6059 40.8396 150
      vertex 69.6711 38.9946 150
    endloop
  endfacet
  facet normal 0 0 1
    outer loop
      vertex 54.3948 50.4647 150
      vertex 68.6059 40.8396 150
      vertex 69.2209 41.9049 150
    endloop
  endfacet
  facet normal 0 0 1
    outer loop
      vertex 54.3948 50.4647 150
      vertex 53.7798 49.3995 150
      vertex 68.6059 40.8396 150
    endloop
  endfacet
  facet normal 0 0 1
    outer loop
      vertex 53.3296 52.3097 150
      vertex 53.7798 49.3995 150
      vertex 54.3948 50.4647 150
    endloop
  endfacet
  facet normal 0 0 1
    outer loop
      vertex 53.3296 69.4294 150
      vertex 52.0996 69.4294 150
      vertex 53.3296 52.3097 150
    endloop
  endfacet
  facet normal 0 0 1
    outer loop
      vertex 52.0996 52.3097 150
      vertex 53.3296 52.3097 150
      vertex 52.0996 69.4294 150
    endloop
  endfacet
  facet normal -0 0 1
    outer loop
      vertex 52.0996 52.3097 150
      vertex 53.7798 49.3995 150
      vertex 53.3296 52.3097 150
    endloop
  endfacet
  facet normal 0 0 1
    outer loop
      vertex 52.0996 52.3097 150
      vertex 51.6494 49.3995 150
      vertex 53.7798 49.3995 150
    endloop
  endfacet
  facet normal -0 0 1
    outer loop
      vertex 51.0344 50.4647 150
      vertex 51.6494 49.3995 150
      vertex 52.0996 52.3097 150
    endloop
  endfacet
  facet normal 0 0 1
    outer loop
      vertex 51.0344 50.4647 150
      vertex 36.8233 40.8396 150
      vertex 51.6494 49.3995 150
    endloop
  endfacet
  facet normal -0 0 1
    outer loop
      vertex 36.2083 41.9049 150
      vertex 36.8233 40.8396 150
      vertex 51.0344 50.4647 150
    endloop
  endfacet
  facet normal 0 0 1
    outer loop
      vertex 36.2083 41.9049 150
      vertex 35.7581 38.9946 150
      vertex 36.8233 40.8396 150
    endloop
  endfacet
  facet normal 0 0 1
    outer loop
      vertex 35.7581 38.9946 150
      vertex 34.5281 38.9946 150
      vertex 35.7581 21.8749 150
    endloop
  endfacet
  facet normal 0 0 1
    outer loop
      vertex 36.2083 41.9049 150
      vertex 34.5281 38.9946 150
      vertex 35.7581 38.9946 150
    endloop
  endfacet
  facet normal -0 0 1
    outer loop
      vertex 34.0779 41.9049 150
      vertex 34.5281 38.9946 150
      vertex 36.2083 41.9049 150
    endloop
  endfacet
  facet normal 0 0 1
    outer loop
      vertex 34.0779 41.9049 150
      vertex 33.4629 40.8396 150
      vertex 34.5281 38.9946 150
    endloop
  endfacet
  facet normal 0 0 1
    outer loop
      vertex 19.2517 50.4647 150
      vertex 33.4629 40.8396 150
      vertex 34.0779 41.9049 150
    endloop
  endfacet
  facet normal 0 0 1
    outer loop
      vertex 19.2517 50.4647 150
      vertex 18.6367 49.3995 150
      vertex 33.4629 40.8396 150
    endloop
  endfacet
  facet normal 0 0 1
    outer loop
      vertex 18.1865 52.3097 150
      vertex 18.6367 49.3995 150
      vertex 19.2517 50.4647 150
    endloop
  endfacet
  facet normal 0 0 1
    outer loop
      vertex 16.9565 69.4294 150
      vertex 18.1865 69.4294 150
      vertex 17.5715 71.7246 150
    endloop
  endfacet
  facet normal 0 0 1
    outer loop
      vertex 18.1865 69.4294 150
      vertex 16.9565 69.4294 150
      vertex 18.1865 52.3097 150
    endloop
  endfacet
  facet normal 0 0 1
    outer loop
      vertex 16.9565 52.3097 150
      vertex 18.1865 52.3097 150
      vertex 16.9565 69.4294 150
    endloop
  endfacet
  facet normal -0 0 1
    outer loop
      vertex 16.9565 52.3097 150
      vertex 18.6367 49.3995 150
      vertex 18.1865 52.3097 150
    endloop
  endfacet
  facet normal 0 0 1
    outer loop
      vertex 16.9565 52.3097 150
      vertex 16.5063 49.3995 150
      vertex 18.6367 49.3995 150
    endloop
  endfacet
  facet normal -0 0 1
    outer loop
      vertex 15.8913 50.4647 150
      vertex 16.5063 49.3995 150
      vertex 16.9565 52.3097 150
    endloop
  endfacet
  facet normal 0 0 1
    outer loop
      vertex 15.8913 50.4647 150
      vertex 1.68021 40.8396 150
      vertex 16.5063 49.3995 150
    endloop
  endfacet
  facet normal -0 0 1
    outer loop
      vertex 1.06521 41.9049 150
      vertex 1.68021 40.8396 150
      vertex 15.8913 50.4647 150
    endloop
  endfacet
  facet normal 0 0 1
    outer loop
      vertex -0.615 40.2246 150
      vertex 1.68021 40.8396 150
      vertex 1.06521 41.9049 150
    endloop
  endfacet
  facet normal 0 0 1
    outer loop
      vertex 1.68021 40.8396 150
      vertex -0.615 40.2246 150
      vertex 0.615 38.9946 150
    endloop
  endfacet
  facet normal -0 0 1
    outer loop
      vertex -1.06521 41.9049 150
      vertex -0.615 40.2246 150
      vertex 1.06521 41.9049 150
    endloop
  endfacet
  facet normal 0 0 1
    outer loop
      vertex -15.8913 50.4647 150
      vertex -0.615 40.2246 150
      vertex -1.06521 41.9049 150
    endloop
  endfacet
  facet normal 0 0 1
    outer loop
      vertex -15.8913 50.4647 150
      vertex -18.1865 50.3696 150
      vertex -0.615 40.2246 150
    endloop
  endfacet
  facet normal 0 0 1
    outer loop
      vertex -16.9565 52.3097 150
      vertex -18.1865 50.3696 150
      vertex -15.8913 50.4647 150
    endloop
  endfacet
  facet normal 0 0 1
    outer loop
      vertex -18.1865 50.3696 150
      vertex -16.9565 52.3097 150
      vertex -18.1865 71.3696 150
    endloop
  endfacet
  facet normal -0 0 1
    outer loop
      vertex 104.814 21.8749 150
      vertex 106.044 19.9348 150
      vertex 104.814 38.9946 150
    endloop
  endfacet
  facet normal -0 0 1
    outer loop
      vertex 103.749 20.0299 150
      vertex 106.044 19.9348 150
      vertex 104.814 21.8749 150
    endloop
  endfacet
  facet normal 0 0 1
    outer loop
      vertex 88.4727 9.78986 150
      vertex 103.749 20.0299 150
      vertex 88.9229 11.4701 150
    endloop
  endfacet
  facet normal 0 0 1
    outer loop
      vertex 103.749 20.0299 150
      vertex 88.4727 9.78986 150
      vertex 106.044 19.9348 150
    endloop
  endfacet
  facet normal 0 0 1
    outer loop
      vertex 87.2427 -8.55986 150
      vertex 88.4727 9.78986 150
      vertex 87.2427 8.55986 150
    endloop
  endfacet
  facet normal -0 0 1
    outer loop
      vertex 86.7925 11.4701 150
      vertex 88.4727 9.78986 150
      vertex 88.9229 11.4701 150
    endloop
  endfacet
  facet normal -0 0 1
    outer loop
      vertex 86.1775 10.4049 150
      vertex 88.4727 9.78986 150
      vertex 86.7925 11.4701 150
    endloop
  endfacet
  facet normal 0 0 1
    outer loop
      vertex 88.4727 9.78986 150
      vertex 86.1775 10.4049 150
      vertex 87.2427 8.55986 150
    endloop
  endfacet
  facet normal 0 0 1
    outer loop
      vertex 71.9663 20.0299 150
      vertex 86.1775 10.4049 150
      vertex 86.7925 11.4701 150
    endloop
  endfacet
  facet normal 0 0 1
    outer loop
      vertex 71.9663 20.0299 150
      vertex 71.3513 18.9647 150
      vertex 86.1775 10.4049 150
    endloop
  endfacet
  facet normal 0 0 1
    outer loop
      vertex 70.9011 21.8749 150
      vertex 71.3513 18.9647 150
      vertex 71.9663 20.0299 150
    endloop
  endfacet
  facet normal -0 0 1
    outer loop
      vertex 69.6711 38.9946 150
      vertex 70.9011 21.8749 150
      vertex 70.9011 38.9946 150
    endloop
  endfacet
  facet normal 0 0 1
    outer loop
      vertex 69.6711 21.8749 150
      vertex 70.9011 21.8749 150
      vertex 69.6711 38.9946 150
    endloop
  endfacet
  facet normal -0 0 1
    outer loop
      vertex 69.6711 21.8749 150
      vertex 71.3513 18.9647 150
      vertex 70.9011 21.8749 150
    endloop
  endfacet
  facet normal 0 0 1
    outer loop
      vertex 69.6711 21.8749 150
      vertex 69.2209 18.9647 150
      vertex 71.3513 18.9647 150
    endloop
  endfacet
  facet normal -0 0 1
    outer loop
      vertex 68.6059 20.0299 150
      vertex 69.2209 18.9647 150
      vertex 69.6711 21.8749 150
    endloop
  endfacet
  facet normal 0 0 1
    outer loop
      vertex 68.6059 20.0299 150
      vertex 54.3948 10.4049 150
      vertex 69.2209 18.9647 150
    endloop
  endfacet
  facet normal -0 0 1
    outer loop
      vertex 53.7798 11.4701 150
      vertex 54.3948 10.4049 150
      vertex 68.6059 20.0299 150
    endloop
  endfacet
  facet normal 0 0 1
    outer loop
      vertex 53.7798 11.4701 150
      vertex 53.3296 8.55986 150
      vertex 54.3948 10.4049 150
    endloop
  endfacet
  facet normal -0 0 1
    outer loop
      vertex 52.0996 8.55986 150
      vertex 53.3296 -8.55986 150
      vertex 53.3296 8.55986 150
    endloop
  endfacet
  facet normal 0 0 1
    outer loop
      vertex 52.0996 -8.55986 150
      vertex 53.3296 -8.55986 150
      vertex 52.0996 8.55986 150
    endloop
  endfacet
  facet normal 0 0 1
    outer loop
      vertex 53.7798 11.4701 150
      vertex 52.0996 8.55986 150
      vertex 53.3296 8.55986 150
    endloop
  endfacet
  facet normal -0 0 1
    outer loop
      vertex 51.6494 11.4701 150
      vertex 52.0996 8.55986 150
      vertex 53.7798 11.4701 150
    endloop
  endfacet
  facet normal 0 0 1
    outer loop
      vertex 51.6494 11.4701 150
      vertex 51.0344 10.4049 150
      vertex 52.0996 8.55986 150
    endloop
  endfacet
  facet normal 0 0 1
    outer loop
      vertex 36.8233 20.0299 150
      vertex 51.0344 10.4049 150
      vertex 51.6494 11.4701 150
    endloop
  endfacet
  facet normal 0 0 1
    outer loop
      vertex 36.8233 20.0299 150
      vertex 36.2083 18.9647 150
      vertex 51.0344 10.4049 150
    endloop
  endfacet
  facet normal 0 0 1
    outer loop
      vertex 35.7581 21.8749 150
      vertex 36.2083 18.9647 150
      vertex 36.8233 20.0299 150
    endloop
  endfacet
  facet normal 0 0 1
    outer loop
      vertex 34.5281 21.8749 150
      vertex 35.7581 21.8749 150
      vertex 34.5281 38.9946 150
    endloop
  endfacet
  facet normal -0 0 1
    outer loop
      vertex 34.5281 21.8749 150
      vertex 36.2083 18.9647 150
      vertex 35.7581 21.8749 150
    endloop
  endfacet
  facet normal 0 0 1
    outer loop
      vertex 34.5281 21.8749 150
      vertex 34.0779 18.9647 150
      vertex 36.2083 18.9647 150
    endloop
  endfacet
  facet normal -0 0 1
    outer loop
      vertex 33.4629 20.0299 150
      vertex 34.0779 18.9647 150
      vertex 34.5281 21.8749 150
    endloop
  endfacet
  facet normal 0 0 1
    outer loop
      vertex 33.4629 20.0299 150
      vertex 19.2517 10.4049 150
      vertex 34.0779 18.9647 150
    endloop
  endfacet
  facet normal -0 0 1
    outer loop
      vertex 18.6367 11.4701 150
      vertex 19.2517 10.4049 150
      vertex 33.4629 20.0299 150
    endloop
  endfacet
  facet normal 0 0 1
    outer loop
      vertex 18.6367 11.4701 150
      vertex 18.1865 8.55986 150
      vertex 19.2517 10.4049 150
    endloop
  endfacet
  facet normal 0 0 1
    outer loop
      vertex 16.9565 -8.55986 150
      vertex 18.1865 -8.55986 150
      vertex 16.9565 8.55986 150
    endloop
  endfacet
  facet normal 0 0 1
    outer loop
      vertex 18.6367 11.4701 150
      vertex 16.9565 8.55986 150
      vertex 18.1865 8.55986 150
    endloop
  endfacet
  facet normal -0 0 1
    outer loop
      vertex 16.5063 11.4701 150
      vertex 16.9565 8.55986 150
      vertex 18.6367 11.4701 150
    endloop
  endfacet
  facet normal 0 0 1
    outer loop
      vertex 16.5063 11.4701 150
      vertex 15.8913 10.4049 150
      vertex 16.9565 8.55986 150
    endloop
  endfacet
  facet normal 0 0 1
    outer loop
      vertex 1.68021 20.0299 150
      vertex 15.8913 10.4049 150
      vertex 16.5063 11.4701 150
    endloop
  endfacet
  facet normal 0 0 1
    outer loop
      vertex 1.68021 20.0299 150
      vertex 1.06521 18.9647 150
      vertex 15.8913 10.4049 150
    endloop
  endfacet
  facet normal -0 0 1
    outer loop
      vertex -0.615 20.6449 150
      vertex 1.68021 20.0299 150
      vertex 0.615001 21.8749 150
    endloop
  endfacet
  facet normal 0 0 1
    outer loop
      vertex -0.615 40.2246 150
      vertex 0.615001 21.8749 150
      vertex 0.615 38.9946 150
    endloop
  endfacet
  facet normal 0 0 1
    outer loop
      vertex -0.615 20.6449 150
      vertex 0.615001 21.8749 150
      vertex -0.615 40.2246 150
    endloop
  endfacet
  facet normal 0 0 1
    outer loop
      vertex 1.68021 20.0299 150
      vertex -0.615 20.6449 150
      vertex 1.06521 18.9647 150
    endloop
  endfacet
  facet normal 0 0 1
    outer loop
      vertex -0.615 20.6449 150
      vertex -1.06521 18.9647 150
      vertex 1.06521 18.9647 150
    endloop
  endfacet
  facet normal 0 0 1
    outer loop
      vertex -0.615 20.6449 150
      vertex -15.8913 10.4049 150
      vertex -1.06521 18.9647 150
    endloop
  endfacet
  facet normal 0 0 1
    outer loop
      vertex -16.9565 8.55986 150
      vertex -18.1865 10.5 150
      vertex -16.9565 -8.55986 150
    endloop
  endfacet
  facet normal 0 0 1
    outer loop
      vertex -15.8913 10.4049 150
      vertex -18.1865 10.5 150
      vertex -16.9565 8.55986 150
    endloop
  endfacet
  facet normal -0 0 1
    outer loop
      vertex -18.1865 10.5 150
      vertex -15.8913 10.4049 150
      vertex -0.615 20.6449 150
    endloop
  endfacet
  facet normal 0 0 1
    outer loop
      vertex 88.4727 9.78986 150
      vertex 87.2427 -8.55986 150
      vertex 88.4727 -10.5 150
    endloop
  endfacet
  facet normal -0 0 1
    outer loop
      vertex 86.1775 -10.4049 150
      vertex 88.4727 -10.5 150
      vertex 87.2427 -8.55986 150
    endloop
  endfacet
  facet normal 0 0 1
    outer loop
      vertex 71.3513 -18.9647 150
      vertex 88.4727 -10.5 150
      vertex 86.1775 -10.4049 150
    endloop
  endfacet
  facet normal -0 0 1
    outer loop
      vertex 71.3513 -18.9647 150
      vertex 70.2861 -21 150
      vertex 88.4727 -10.5 150
    endloop
  endfacet
  facet normal -0 0 1
    outer loop
      vertex 69.2209 -18.9647 150
      vertex 70.2861 -21 150
      vertex 71.3513 -18.9647 150
    endloop
  endfacet
  facet normal -0 0 1
    outer loop
      vertex 52.7146 -10.8551 150
      vertex 69.2209 -18.9647 150
      vertex 54.3948 -10.4049 150
    endloop
  endfacet
  facet normal 0 0 1
    outer loop
      vertex 69.2209 -18.9647 150
      vertex 52.7146 -10.8551 150
      vertex 70.2861 -21 150
    endloop
  endfacet
  facet normal 0 0 1
    outer loop
      vertex 52.7146 -10.8551 150
      vertex 54.3948 -10.4049 150
      vertex 53.3296 -8.55986 150
    endloop
  endfacet
  facet normal -0.500001 -0.866025 0
    outer loop
      vertex -18.1865 -10.5 0
      vertex -2.52615e-07 -21 150
      vertex -18.1865 -10.5 150
    endloop
  endfacet
  facet normal -0.500001 -0.866025 -0
    outer loop
      vertex -2.52615e-07 -21 150
      vertex -18.1865 -10.5 0
      vertex -2.52615e-07 -21 0
    endloop
  endfacet
  facet normal 0.5 -0.866026 0
    outer loop
      vertex -2.52615e-07 -21 0
      vertex 17.5715 -10.8551 150
      vertex -2.52615e-07 -21 150
    endloop
  endfacet
  facet normal 0.5 -0.866026 0
    outer loop
      vertex 17.5715 -10.8551 150
      vertex -2.52615e-07 -21 0
      vertex 17.5715 -10.8551 0
    endloop
  endfacet
  facet normal 0 0 1
    outer loop
      vertex 15.8913 10.4049 1.23
      vertex 16.9565 -8.55986 1.23
      vertex 16.9565 8.55986 1.23
    endloop
  endfacet
  facet normal 0 0 1
    outer loop
      vertex 15.8913 10.4049 1.23
      vertex 15.8913 -10.4049 1.23
      vertex 16.9565 -8.55986 1.23
    endloop
  endfacet
  facet normal 0 0 1
    outer loop
      vertex 15.8913 10.4049 1.23
      vertex 1.06521 -18.9647 1.23
      vertex 15.8913 -10.4049 1.23
    endloop
  endfacet
  facet normal 0 0 1
    outer loop
      vertex 1.06521 18.9647 1.23
      vertex 1.06521 -18.9647 1.23
      vertex 15.8913 10.4049 1.23
    endloop
  endfacet
  facet normal 0 0 1
    outer loop
      vertex 1.06521 18.9647 1.23
      vertex -1.06521 -18.9647 1.23
      vertex 1.06521 -18.9647 1.23
    endloop
  endfacet
  facet normal -0 0 1
    outer loop
      vertex -1.06521 18.9647 1.23
      vertex -1.06521 -18.9647 1.23
      vertex 1.06521 18.9647 1.23
    endloop
  endfacet
  facet normal -0 0 1
    outer loop
      vertex -15.8913 10.4049 1.23
      vertex -1.06521 -18.9647 1.23
      vertex -1.06521 18.9647 1.23
    endloop
  endfacet
  facet normal 0 0 1
    outer loop
      vertex -15.8913 10.4049 1.23
      vertex -15.8913 -10.4049 1.23
      vertex -1.06521 -18.9647 1.23
    endloop
  endfacet
  facet normal -0 0 1
    outer loop
      vertex -16.9565 8.55986 1.23
      vertex -15.8913 -10.4049 1.23
      vertex -15.8913 10.4049 1.23
    endloop
  endfacet
  facet normal 0 0 1
    outer loop
      vertex -15.8913 -10.4049 1.23
      vertex -16.9565 8.55986 1.23
      vertex -16.9565 -8.55986 1.23
    endloop
  endfacet
  facet normal 0.866026 -0.5 0
    outer loop
      vertex 0.615 38.9946 150
      vertex 1.68021 40.8396 1.23
      vertex 1.68021 40.8396 150
    endloop
  endfacet
  facet normal 0.866026 -0.5 0
    outer loop
      vertex 1.68021 40.8396 1.23
      vertex 0.615 38.9946 150
      vertex 0.615 38.9946 1.23
    endloop
  endfacet
  facet normal 0.866026 0.499999 0
    outer loop
      vertex 1.68021 20.0299 150
      vertex 0.615001 21.8749 1.23
      vertex 0.615001 21.8749 150
    endloop
  endfacet
  facet normal 0.866026 0.499999 0
    outer loop
      vertex 0.615001 21.8749 1.23
      vertex 1.68021 20.0299 150
      vertex 1.68021 20.0299 1.23
    endloop
  endfacet
  facet normal 0 1 -0
    outer loop
      vertex 18.6367 11.4701 1.23
      vertex 16.5063 11.4701 150
      vertex 18.6367 11.4701 150
    endloop
  endfacet
  facet normal 0 1 0
    outer loop
      vertex 16.5063 11.4701 150
      vertex 18.6367 11.4701 1.23
      vertex 16.5063 11.4701 1.23
    endloop
  endfacet
  facet normal -0.866028 0.499996 0
    outer loop
      vertex 33.4629 20.0299 1.23
      vertex 34.5281 21.8749 150
      vertex 34.5281 21.8749 1.23
    endloop
  endfacet
  facet normal -0.866028 0.499996 0
    outer loop
      vertex 34.5281 21.8749 150
      vertex 33.4629 20.0299 1.23
      vertex 33.4629 20.0299 150
    endloop
  endfacet
  facet normal -0.866028 -0.499996 0
    outer loop
      vertex 34.5281 38.9946 1.23
      vertex 33.4629 40.8396 150
      vertex 33.4629 40.8396 1.23
    endloop
  endfacet
  facet normal -0.866028 -0.499996 0
    outer loop
      vertex 33.4629 40.8396 150
      vertex 34.5281 38.9946 1.23
      vertex 34.5281 38.9946 150
    endloop
  endfacet
  facet normal 0 -1 0
    outer loop
      vertex 16.5063 49.3995 1.23
      vertex 18.6367 49.3995 150
      vertex 16.5063 49.3995 150
    endloop
  endfacet
  facet normal 0 -1 -0
    outer loop
      vertex 18.6367 49.3995 150
      vertex 16.5063 49.3995 1.23
      vertex 18.6367 49.3995 1.23
    endloop
  endfacet
  facet normal -0.5 -0.866026 0
    outer loop
      vertex 18.6367 49.3995 1.23
      vertex 33.4629 40.8396 150
      vertex 18.6367 49.3995 150
    endloop
  endfacet
  facet normal -0.5 -0.866026 -0
    outer loop
      vertex 33.4629 40.8396 150
      vertex 18.6367 49.3995 1.23
      vertex 33.4629 40.8396 1.23
    endloop
  endfacet
  facet normal 1 5.84122e-08 0
    outer loop
      vertex 0.615001 21.8749 150
      vertex 0.615 38.9946 1.23
      vertex 0.615 38.9946 150
    endloop
  endfacet
  facet normal 1 5.84122e-08 0
    outer loop
      vertex 0.615 38.9946 1.23
      vertex 0.615001 21.8749 150
      vertex 0.615001 21.8749 1.23
    endloop
  endfacet
  facet normal 0.500002 -0.866024 0
    outer loop
      vertex 1.68021 40.8396 1.23
      vertex 16.5063 49.3995 150
      vertex 1.68021 40.8396 150
    endloop
  endfacet
  facet normal 0.500002 -0.866024 0
    outer loop
      vertex 16.5063 49.3995 150
      vertex 1.68021 40.8396 1.23
      vertex 16.5063 49.3995 1.23
    endloop
  endfacet
  facet normal -1 0 0
    outer loop
      vertex 34.5281 21.8749 1.23
      vertex 34.5281 38.9946 150
      vertex 34.5281 38.9946 1.23
    endloop
  endfacet
  facet normal -1 -0 0
    outer loop
      vertex 34.5281 38.9946 150
      vertex 34.5281 21.8749 1.23
      vertex 34.5281 21.8749 150
    endloop
  endfacet
  facet normal -0.499995 0.866028 0
    outer loop
      vertex 33.4629 20.0299 1.23
      vertex 18.6367 11.4701 150
      vertex 33.4629 20.0299 150
    endloop
  endfacet
  facet normal -0.499995 0.866028 0
    outer loop
      vertex 18.6367 11.4701 150
      vertex 33.4629 20.0299 1.23
      vertex 18.6367 11.4701 1.23
    endloop
  endfacet
  facet normal 0.499998 0.866027 -0
    outer loop
      vertex 16.5063 11.4701 1.23
      vertex 1.68021 20.0299 150
      vertex 16.5063 11.4701 150
    endloop
  endfacet
  facet normal 0.499998 0.866027 0
    outer loop
      vertex 1.68021 20.0299 150
      vertex 16.5063 11.4701 1.23
      vertex 1.68021 20.0299 1.23
    endloop
  endfacet
  facet normal -1 0 0
    outer loop
      vertex -0.615 20.6449 0
      vertex -0.615 40.2246 150
      vertex -0.615 40.2246 0
    endloop
  endfacet
  facet normal -1 -0 0
    outer loop
      vertex -0.615 40.2246 150
      vertex -0.615 20.6449 0
      vertex -0.615 20.6449 150
    endloop
  endfacet
  facet normal 0 0 1
    outer loop
      vertex 33.4629 40.8396 1.23
      vertex 34.5281 21.8749 1.23
      vertex 34.5281 38.9946 1.23
    endloop
  endfacet
  facet normal 0 0 1
    outer loop
      vertex 33.4629 40.8396 1.23
      vertex 33.4629 20.0299 1.23
      vertex 34.5281 21.8749 1.23
    endloop
  endfacet
  facet normal 0 0 1
    outer loop
      vertex 18.6367 49.3995 1.23
      vertex 33.4629 20.0299 1.23
      vertex 33.4629 40.8396 1.23
    endloop
  endfacet
  facet normal 0 0 1
    outer loop
      vertex 18.6367 49.3995 1.23
      vertex 18.6367 11.4701 1.23
      vertex 33.4629 20.0299 1.23
    endloop
  endfacet
  facet normal -0 0 1
    outer loop
      vertex 16.5063 49.3995 1.23
      vertex 18.6367 11.4701 1.23
      vertex 18.6367 49.3995 1.23
    endloop
  endfacet
  facet normal 0 0 1
    outer loop
      vertex 16.5063 49.3995 1.23
      vertex 16.5063 11.4701 1.23
      vertex 18.6367 11.4701 1.23
    endloop
  endfacet
  facet normal -0 0 1
    outer loop
      vertex 1.68021 40.8396 1.23
      vertex 16.5063 11.4701 1.23
      vertex 16.5063 49.3995 1.23
    endloop
  endfacet
  facet normal 0 0 1
    outer loop
      vertex 1.68021 40.8396 1.23
      vertex 1.68021 20.0299 1.23
      vertex 16.5063 11.4701 1.23
    endloop
  endfacet
  facet normal 0 0 1
    outer loop
      vertex 1.68021 40.8396 1.23
      vertex 0.615001 21.8749 1.23
      vertex 1.68021 20.0299 1.23
    endloop
  endfacet
  facet normal 0 -0 1
    outer loop
      vertex 0.615001 21.8749 1.23
      vertex 1.68021 40.8396 1.23
      vertex 0.615 38.9946 1.23
    endloop
  endfacet
  facet normal 0.866028 -0.499996 0
    outer loop
      vertex -16.9565 69.4294 150
      vertex -15.8913 71.2744 1.23
      vertex -15.8913 71.2744 150
    endloop
  endfacet
  facet normal 0.866028 -0.499996 0
    outer loop
      vertex -15.8913 71.2744 1.23
      vertex -16.9565 69.4294 150
      vertex -16.9565 69.4294 1.23
    endloop
  endfacet
  facet normal 0.866028 0.499996 0
    outer loop
      vertex -15.8913 50.4647 150
      vertex -16.9565 52.3097 1.23
      vertex -16.9565 52.3097 150
    endloop
  endfacet
  facet normal 0.866028 0.499996 0
    outer loop
      vertex -16.9565 52.3097 1.23
      vertex -15.8913 50.4647 150
      vertex -15.8913 50.4647 1.23
    endloop
  endfacet
  facet normal 0 1 -0
    outer loop
      vertex 1.06521 41.9049 1.23
      vertex -1.06521 41.9049 150
      vertex 1.06521 41.9049 150
    endloop
  endfacet
  facet normal 0 1 0
    outer loop
      vertex -1.06521 41.9049 150
      vertex 1.06521 41.9049 1.23
      vertex -1.06521 41.9049 1.23
    endloop
  endfacet
  facet normal -0.866028 0.499996 0
    outer loop
      vertex 15.8913 50.4647 1.23
      vertex 16.9565 52.3097 150
      vertex 16.9565 52.3097 1.23
    endloop
  endfacet
  facet normal -0.866028 0.499996 0
    outer loop
      vertex 16.9565 52.3097 150
      vertex 15.8913 50.4647 1.23
      vertex 15.8913 50.4647 150
    endloop
  endfacet
  facet normal -0.866028 -0.499996 0
    outer loop
      vertex 16.9565 69.4294 1.23
      vertex 15.8913 71.2744 150
      vertex 15.8913 71.2744 1.23
    endloop
  endfacet
  facet normal -0.866028 -0.499996 0
    outer loop
      vertex 15.8913 71.2744 150
      vertex 16.9565 69.4294 1.23
      vertex 16.9565 69.4294 150
    endloop
  endfacet
  facet normal 0 -1 0
    outer loop
      vertex -1.06521 79.8343 1.23
      vertex 1.06521 79.8343 150
      vertex -1.06521 79.8343 150
    endloop
  endfacet
  facet normal 0 -1 -0
    outer loop
      vertex 1.06521 79.8343 150
      vertex -1.06521 79.8343 1.23
      vertex 1.06521 79.8343 1.23
    endloop
  endfacet
  facet normal -0.500002 -0.866024 0
    outer loop
      vertex 1.06521 79.8343 1.23
      vertex 15.8913 71.2744 150
      vertex 1.06521 79.8343 150
    endloop
  endfacet
  facet normal -0.500002 -0.866024 -0
    outer loop
      vertex 15.8913 71.2744 150
      vertex 1.06521 79.8343 1.23
      vertex 15.8913 71.2744 1.23
    endloop
  endfacet
  facet normal 1 -0 0
    outer loop
      vertex -16.9565 52.3097 150
      vertex -16.9565 69.4294 1.23
      vertex -16.9565 69.4294 150
    endloop
  endfacet
  facet normal 1 0 0
    outer loop
      vertex -16.9565 69.4294 1.23
      vertex -16.9565 52.3097 150
      vertex -16.9565 52.3097 1.23
    endloop
  endfacet
  facet normal 0.500002 -0.866024 0
    outer loop
      vertex -15.8913 71.2744 1.23
      vertex -1.06521 79.8343 150
      vertex -15.8913 71.2744 150
    endloop
  endfacet
  facet normal 0.500002 -0.866024 0
    outer loop
      vertex -1.06521 79.8343 150
      vertex -15.8913 71.2744 1.23
      vertex -1.06521 79.8343 1.23
    endloop
  endfacet
  facet normal -1 0 0
    outer loop
      vertex 16.9565 52.3097 1.23
      vertex 16.9565 69.4294 150
      vertex 16.9565 69.4294 1.23
    endloop
  endfacet
  facet normal -1 -0 0
    outer loop
      vertex 16.9565 69.4294 150
      vertex 16.9565 52.3097 1.23
      vertex 16.9565 52.3097 150
    endloop
  endfacet
  facet normal -0.499998 0.866027 0
    outer loop
      vertex 15.8913 50.4647 1.23
      vertex 1.06521 41.9049 150
      vertex 15.8913 50.4647 150
    endloop
  endfacet
  facet normal -0.499998 0.866027 0
    outer loop
      vertex 1.06521 41.9049 150
      vertex 15.8913 50.4647 1.23
      vertex 1.06521 41.9049 1.23
    endloop
  endfacet
  facet normal 0.499998 0.866027 -0
    outer loop
      vertex -1.06521 41.9049 1.23
      vertex -15.8913 50.4647 150
      vertex -1.06521 41.9049 150
    endloop
  endfacet
  facet normal 0.499998 0.866027 0
    outer loop
      vertex -15.8913 50.4647 150
      vertex -1.06521 41.9049 1.23
      vertex -15.8913 50.4647 1.23
    endloop
  endfacet
  facet normal 0.500003 0.866023 -0
    outer loop
      vertex 17.5715 71.7246 0
      vertex 2.52615e-07 81.8696 150
      vertex 17.5715 71.7246 150
    endloop
  endfacet
  facet normal 0.500003 0.866023 0
    outer loop
      vertex 2.52615e-07 81.8696 150
      vertex 17.5715 71.7246 0
      vertex 2.52615e-07 81.8696 0
    endloop
  endfacet
  facet normal -1 0 0
    outer loop
      vertex -18.1865 50.3696 0
      vertex -18.1865 71.3696 150
      vertex -18.1865 71.3696 0
    endloop
  endfacet
  facet normal -1 -0 0
    outer loop
      vertex -18.1865 71.3696 150
      vertex -18.1865 50.3696 0
      vertex -18.1865 50.3696 150
    endloop
  endfacet
  facet normal -0.500001 0.866025 0
    outer loop
      vertex 2.52615e-07 81.8696 0
      vertex -18.1865 71.3696 150
      vertex 2.52615e-07 81.8696 150
    endloop
  endfacet
  facet normal -0.500001 0.866025 0
    outer loop
      vertex -18.1865 71.3696 150
      vertex 2.52615e-07 81.8696 0
      vertex -18.1865 71.3696 0
    endloop
  endfacet
  facet normal -0.500003 -0.866023 0
    outer loop
      vertex -18.1865 50.3696 0
      vertex -0.615 40.2246 150
      vertex -18.1865 50.3696 150
    endloop
  endfacet
  facet normal -0.500003 -0.866023 -0
    outer loop
      vertex -0.615 40.2246 150
      vertex -18.1865 50.3696 0
      vertex -0.615 40.2246 0
    endloop
  endfacet
  facet normal 0 0 1
    outer loop
      vertex 15.8913 71.2744 1.23
      vertex 16.9565 52.3097 1.23
      vertex 16.9565 69.4294 1.23
    endloop
  endfacet
  facet normal 0 0 1
    outer loop
      vertex 15.8913 71.2744 1.23
      vertex 15.8913 50.4647 1.23
      vertex 16.9565 52.3097 1.23
    endloop
  endfacet
  facet normal 0 0 1
    outer loop
      vertex 15.8913 71.2744 1.23
      vertex 1.06521 41.9049 1.23
      vertex 15.8913 50.4647 1.23
    endloop
  endfacet
  facet normal 0 0 1
    outer loop
      vertex 1.06521 79.8343 1.23
      vertex 1.06521 41.9049 1.23
      vertex 15.8913 71.2744 1.23
    endloop
  endfacet
  facet normal 0 0 1
    outer loop
      vertex 1.06521 79.8343 1.23
      vertex -1.06521 41.9049 1.23
      vertex 1.06521 41.9049 1.23
    endloop
  endfacet
  facet normal -0 0 1
    outer loop
      vertex -1.06521 79.8343 1.23
      vertex -1.06521 41.9049 1.23
      vertex 1.06521 79.8343 1.23
    endloop
  endfacet
  facet normal -0 0 1
    outer loop
      vertex -15.8913 71.2744 1.23
      vertex -1.06521 41.9049 1.23
      vertex -1.06521 79.8343 1.23
    endloop
  endfacet
  facet normal 0 0 1
    outer loop
      vertex -15.8913 71.2744 1.23
      vertex -15.8913 50.4647 1.23
      vertex -1.06521 41.9049 1.23
    endloop
  endfacet
  facet normal -0 0 1
    outer loop
      vertex -16.9565 69.4294 1.23
      vertex -15.8913 50.4647 1.23
      vertex -15.8913 71.2744 1.23
    endloop
  endfacet
  facet normal 0 0 1
    outer loop
      vertex -15.8913 50.4647 1.23
      vertex -16.9565 69.4294 1.23
      vertex -16.9565 52.3097 1.23
    endloop
  endfacet
  facet normal 0.866032 -0.499988 0
    outer loop
      vertex 18.1865 8.55986 150
      vertex 19.2517 10.4049 1.23
      vertex 19.2517 10.4049 150
    endloop
  endfacet
  facet normal 0.866032 -0.499988 0
    outer loop
      vertex 19.2517 10.4049 1.23
      vertex 18.1865 8.55986 150
      vertex 18.1865 8.55986 1.23
    endloop
  endfacet
  facet normal 0.866032 0.499988 0
    outer loop
      vertex 19.2517 -10.4049 150
      vertex 18.1865 -8.55986 1.23
      vertex 18.1865 -8.55986 150
    endloop
  endfacet
  facet normal 0.866032 0.499988 0
    outer loop
      vertex 18.1865 -8.55986 1.23
      vertex 19.2517 -10.4049 150
      vertex 19.2517 -10.4049 1.23
    endloop
  endfacet
  facet normal 0 1 -0
    outer loop
      vertex 36.2083 -18.9647 1.23
      vertex 34.0779 -18.9647 150
      vertex 36.2083 -18.9647 150
    endloop
  endfacet
  facet normal 0 1 0
    outer loop
      vertex 34.0779 -18.9647 150
      vertex 36.2083 -18.9647 1.23
      vertex 34.0779 -18.9647 1.23
    endloop
  endfacet
  facet normal -0.866032 0.499988 0
    outer loop
      vertex 51.0344 -10.4049 1.23
      vertex 52.0996 -8.55986 150
      vertex 52.0996 -8.55986 1.23
    endloop
  endfacet
  facet normal -0.866032 0.499988 0
    outer loop
      vertex 52.0996 -8.55986 150
      vertex 51.0344 -10.4049 1.23
      vertex 51.0344 -10.4049 150
    endloop
  endfacet
  facet normal -0.866032 -0.499988 0
    outer loop
      vertex 52.0996 8.55986 1.23
      vertex 51.0344 10.4049 150
      vertex 51.0344 10.4049 1.23
    endloop
  endfacet
  facet normal -0.866032 -0.499988 0
    outer loop
      vertex 51.0344 10.4049 150
      vertex 52.0996 8.55986 1.23
      vertex 52.0996 8.55986 150
    endloop
  endfacet
  facet normal 0 -1 0
    outer loop
      vertex 34.0779 18.9647 1.23
      vertex 36.2083 18.9647 150
      vertex 34.0779 18.9647 150
    endloop
  endfacet
  facet normal 0 -1 -0
    outer loop
      vertex 36.2083 18.9647 150
      vertex 34.0779 18.9647 1.23
      vertex 36.2083 18.9647 1.23
    endloop
  endfacet
  facet normal -0.499998 -0.866027 0
    outer loop
      vertex 36.2083 18.9647 1.23
      vertex 51.0344 10.4049 150
      vertex 36.2083 18.9647 150
    endloop
  endfacet
  facet normal -0.499998 -0.866027 -0
    outer loop
      vertex 51.0344 10.4049 150
      vertex 36.2083 18.9647 1.23
      vertex 51.0344 10.4049 1.23
    endloop
  endfacet
  facet normal 1 -0 0
    outer loop
      vertex 18.1865 -8.55986 150
      vertex 18.1865 8.55986 1.23
      vertex 18.1865 8.55986 150
    endloop
  endfacet
  facet normal 1 0 0
    outer loop
      vertex 18.1865 8.55986 1.23
      vertex 18.1865 -8.55986 150
      vertex 18.1865 -8.55986 1.23
    endloop
  endfacet
  facet normal 0.499995 -0.866028 0
    outer loop
      vertex 19.2517 10.4049 1.23
      vertex 34.0779 18.9647 150
      vertex 19.2517 10.4049 150
    endloop
  endfacet
  facet normal 0.499995 -0.866028 0
    outer loop
      vertex 34.0779 18.9647 150
      vertex 19.2517 10.4049 1.23
      vertex 34.0779 18.9647 1.23
    endloop
  endfacet
  facet normal -1 0 0
    outer loop
      vertex 52.0996 -8.55986 1.23
      vertex 52.0996 8.55986 150
      vertex 52.0996 8.55986 1.23
    endloop
  endfacet
  facet normal -1 -0 0
    outer loop
      vertex 52.0996 8.55986 150
      vertex 52.0996 -8.55986 1.23
      vertex 52.0996 -8.55986 150
    endloop
  endfacet
  facet normal -0.499998 0.866027 0
    outer loop
      vertex 51.0344 -10.4049 1.23
      vertex 36.2083 -18.9647 150
      vertex 51.0344 -10.4049 150
    endloop
  endfacet
  facet normal -0.499998 0.866027 0
    outer loop
      vertex 36.2083 -18.9647 150
      vertex 51.0344 -10.4049 1.23
      vertex 36.2083 -18.9647 1.23
    endloop
  endfacet
  facet normal 0.499995 0.866028 -0
    outer loop
      vertex 34.0779 -18.9647 1.23
      vertex 19.2517 -10.4049 150
      vertex 34.0779 -18.9647 150
    endloop
  endfacet
  facet normal 0.499995 0.866028 0
    outer loop
      vertex 19.2517 -10.4049 150
      vertex 34.0779 -18.9647 1.23
      vertex 19.2517 -10.4049 1.23
    endloop
  endfacet
  facet normal -0.499997 -0.866027 0
    outer loop
      vertex 17.5715 -10.8551 0
      vertex 35.1431 -21 150
      vertex 17.5715 -10.8551 150
    endloop
  endfacet
  facet normal -0.499997 -0.866027 -0
    outer loop
      vertex 35.1431 -21 150
      vertex 17.5715 -10.8551 0
      vertex 35.1431 -21 0
    endloop
  endfacet
  facet normal 0.5 -0.866026 0
    outer loop
      vertex 35.1431 -21 0
      vertex 52.7146 -10.8551 150
      vertex 35.1431 -21 150
    endloop
  endfacet
  facet normal 0.5 -0.866026 0
    outer loop
      vertex 52.7146 -10.8551 150
      vertex 35.1431 -21 0
      vertex 52.7146 -10.8551 0
    endloop
  endfacet
  facet normal 0 0 1
    outer loop
      vertex 51.0344 10.4049 1.23
      vertex 52.0996 -8.55986 1.23
      vertex 52.0996 8.55986 1.23
    endloop
  endfacet
  facet normal 0 0 1
    outer loop
      vertex 51.0344 10.4049 1.23
      vertex 51.0344 -10.4049 1.23
      vertex 52.0996 -8.55986 1.23
    endloop
  endfacet
  facet normal 0 0 1
    outer loop
      vertex 36.2083 18.9647 1.23
      vertex 51.0344 -10.4049 1.23
      vertex 51.0344 10.4049 1.23
    endloop
  endfacet
  facet normal 0 0 1
    outer loop
      vertex 36.2083 18.9647 1.23
      vertex 36.2083 -18.9647 1.23
      vertex 51.0344 -10.4049 1.23
    endloop
  endfacet
  facet normal -0 0 1
    outer loop
      vertex 34.0779 18.9647 1.23
      vertex 36.2083 -18.9647 1.23
      vertex 36.2083 18.9647 1.23
    endloop
  endfacet
  facet normal 0 0 1
    outer loop
      vertex 34.0779 18.9647 1.23
      vertex 34.0779 -18.9647 1.23
      vertex 36.2083 -18.9647 1.23
    endloop
  endfacet
  facet normal -0 0 1
    outer loop
      vertex 19.2517 10.4049 1.23
      vertex 34.0779 -18.9647 1.23
      vertex 34.0779 18.9647 1.23
    endloop
  endfacet
  facet normal 0 0 1
    outer loop
      vertex 19.2517 10.4049 1.23
      vertex 19.2517 -10.4049 1.23
      vertex 34.0779 -18.9647 1.23
    endloop
  endfacet
  facet normal 0 0 1
    outer loop
      vertex 19.2517 10.4049 1.23
      vertex 18.1865 -8.55986 1.23
      vertex 19.2517 -10.4049 1.23
    endloop
  endfacet
  facet normal 0 0 1
    outer loop
      vertex 18.1865 -8.55986 1.23
      vertex 19.2517 10.4049 1.23
      vertex 18.1865 8.55986 1.23
    endloop
  endfacet
  facet normal 0.866028 -0.499996 0
    outer loop
      vertex 35.7581 38.9946 150
      vertex 36.8233 40.8396 1.23
      vertex 36.8233 40.8396 150
    endloop
  endfacet
  facet normal 0.866028 -0.499996 0
    outer loop
      vertex 36.8233 40.8396 1.23
      vertex 35.7581 38.9946 150
      vertex 35.7581 38.9946 1.23
    endloop
  endfacet
  facet normal 0.866028 0.499996 0
    outer loop
      vertex 36.8233 20.0299 150
      vertex 35.7581 21.8749 1.23
      vertex 35.7581 21.8749 150
    endloop
  endfacet
  facet normal 0.866028 0.499996 0
    outer loop
      vertex 35.7581 21.8749 1.23
      vertex 36.8233 20.0299 150
      vertex 36.8233 20.0299 1.23
    endloop
  endfacet
  facet normal 0 1 -0
    outer loop
      vertex 53.7798 11.4701 1.23
      vertex 51.6494 11.4701 150
      vertex 53.7798 11.4701 150
    endloop
  endfacet
  facet normal 0 1 0
    outer loop
      vertex 51.6494 11.4701 150
      vertex 53.7798 11.4701 1.23
      vertex 51.6494 11.4701 1.23
    endloop
  endfacet
  facet normal -0.866028 0.499996 0
    outer loop
      vertex 68.6059 20.0299 1.23
      vertex 69.6711 21.8749 150
      vertex 69.6711 21.8749 1.23
    endloop
  endfacet
  facet normal -0.866028 0.499996 0
    outer loop
      vertex 69.6711 21.8749 150
      vertex 68.6059 20.0299 1.23
      vertex 68.6059 20.0299 150
    endloop
  endfacet
  facet normal -0.866028 -0.499996 0
    outer loop
      vertex 69.6711 38.9946 1.23
      vertex 68.6059 40.8396 150
      vertex 68.6059 40.8396 1.23
    endloop
  endfacet
  facet normal -0.866028 -0.499996 0
    outer loop
      vertex 68.6059 40.8396 150
      vertex 69.6711 38.9946 1.23
      vertex 69.6711 38.9946 150
    endloop
  endfacet
  facet normal 0 -1 0
    outer loop
      vertex 51.6494 49.3995 1.23
      vertex 53.7798 49.3995 150
      vertex 51.6494 49.3995 150
    endloop
  endfacet
  facet normal 0 -1 -0
    outer loop
      vertex 53.7798 49.3995 150
      vertex 51.6494 49.3995 1.23
      vertex 53.7798 49.3995 1.23
    endloop
  endfacet
  facet normal -0.500002 -0.866024 0
    outer loop
      vertex 53.7798 49.3995 1.23
      vertex 68.6059 40.8396 150
      vertex 53.7798 49.3995 150
    endloop
  endfacet
  facet normal -0.500002 -0.866024 -0
    outer loop
      vertex 68.6059 40.8396 150
      vertex 53.7798 49.3995 1.23
      vertex 68.6059 40.8396 1.23
    endloop
  endfacet
  facet normal 1 -0 0
    outer loop
      vertex 35.7581 21.8749 150
      vertex 35.7581 38.9946 1.23
      vertex 35.7581 38.9946 150
    endloop
  endfacet
  facet normal 1 0 0
    outer loop
      vertex 35.7581 38.9946 1.23
      vertex 35.7581 21.8749 150
      vertex 35.7581 21.8749 1.23
    endloop
  endfacet
  facet normal 0.500002 -0.866024 0
    outer loop
      vertex 36.8233 40.8396 1.23
      vertex 51.6494 49.3995 150
      vertex 36.8233 40.8396 150
    endloop
  endfacet
  facet normal 0.500002 -0.866024 0
    outer loop
      vertex 51.6494 49.3995 150
      vertex 36.8233 40.8396 1.23
      vertex 51.6494 49.3995 1.23
    endloop
  endfacet
  facet normal -1 0 0
    outer loop
      vertex 69.6711 21.8749 1.23
      vertex 69.6711 38.9946 150
      vertex 69.6711 38.9946 1.23
    endloop
  endfacet
  facet normal -1 -0 0
    outer loop
      vertex 69.6711 38.9946 150
      vertex 69.6711 21.8749 1.23
      vertex 69.6711 21.8749 150
    endloop
  endfacet
  facet normal -0.499998 0.866027 0
    outer loop
      vertex 68.6059 20.0299 1.23
      vertex 53.7798 11.4701 150
      vertex 68.6059 20.0299 150
    endloop
  endfacet
  facet normal -0.499998 0.866027 0
    outer loop
      vertex 53.7798 11.4701 150
      vertex 68.6059 20.0299 1.23
      vertex 53.7798 11.4701 1.23
    endloop
  endfacet
  facet normal 0.499998 0.866027 -0
    outer loop
      vertex 51.6494 11.4701 1.23
      vertex 36.8233 20.0299 150
      vertex 51.6494 11.4701 150
    endloop
  endfacet
  facet normal 0.499998 0.866027 0
    outer loop
      vertex 36.8233 20.0299 150
      vertex 51.6494 11.4701 1.23
      vertex 36.8233 20.0299 1.23
    endloop
  endfacet
  facet normal 0 0 1
    outer loop
      vertex 68.6059 40.8396 1.23
      vertex 69.6711 21.8749 1.23
      vertex 69.6711 38.9946 1.23
    endloop
  endfacet
  facet normal 0 0 1
    outer loop
      vertex 68.6059 40.8396 1.23
      vertex 68.6059 20.0299 1.23
      vertex 69.6711 21.8749 1.23
    endloop
  endfacet
  facet normal 0 0 1
    outer loop
      vertex 53.7798 49.3995 1.23
      vertex 68.6059 20.0299 1.23
      vertex 68.6059 40.8396 1.23
    endloop
  endfacet
  facet normal 0 0 1
    outer loop
      vertex 53.7798 49.3995 1.23
      vertex 53.7798 11.4701 1.23
      vertex 68.6059 20.0299 1.23
    endloop
  endfacet
  facet normal -0 0 1
    outer loop
      vertex 51.6494 49.3995 1.23
      vertex 53.7798 11.4701 1.23
      vertex 53.7798 49.3995 1.23
    endloop
  endfacet
  facet normal 0 0 1
    outer loop
      vertex 51.6494 49.3995 1.23
      vertex 51.6494 11.4701 1.23
      vertex 53.7798 11.4701 1.23
    endloop
  endfacet
  facet normal -0 0 1
    outer loop
      vertex 36.8233 40.8396 1.23
      vertex 51.6494 11.4701 1.23
      vertex 51.6494 49.3995 1.23
    endloop
  endfacet
  facet normal 0 0 1
    outer loop
      vertex 36.8233 40.8396 1.23
      vertex 36.8233 20.0299 1.23
      vertex 51.6494 11.4701 1.23
    endloop
  endfacet
  facet normal -0 0 1
    outer loop
      vertex 35.7581 38.9946 1.23
      vertex 36.8233 20.0299 1.23
      vertex 36.8233 40.8396 1.23
    endloop
  endfacet
  facet normal 0 0 1
    outer loop
      vertex 36.8233 20.0299 1.23
      vertex 35.7581 38.9946 1.23
      vertex 35.7581 21.8749 1.23
    endloop
  endfacet
  facet normal 0.866028 -0.499996 0
    outer loop
      vertex 18.1865 69.4294 150
      vertex 19.2517 71.2744 1.23
      vertex 19.2517 71.2744 150
    endloop
  endfacet
  facet normal 0.866028 -0.499996 0
    outer loop
      vertex 19.2517 71.2744 1.23
      vertex 18.1865 69.4294 150
      vertex 18.1865 69.4294 1.23
    endloop
  endfacet
  facet normal 0.866028 0.499996 0
    outer loop
      vertex 19.2517 50.4647 150
      vertex 18.1865 52.3097 1.23
      vertex 18.1865 52.3097 150
    endloop
  endfacet
  facet normal 0.866028 0.499996 0
    outer loop
      vertex 18.1865 52.3097 1.23
      vertex 19.2517 50.4647 150
      vertex 19.2517 50.4647 1.23
    endloop
  endfacet
  facet normal 0 1 -0
    outer loop
      vertex 36.2083 41.9049 1.23
      vertex 34.0779 41.9049 150
      vertex 36.2083 41.9049 150
    endloop
  endfacet
  facet normal 0 1 0
    outer loop
      vertex 34.0779 41.9049 150
      vertex 36.2083 41.9049 1.23
      vertex 34.0779 41.9049 1.23
    endloop
  endfacet
  facet normal -0.866028 0.499996 0
    outer loop
      vertex 51.0344 50.4647 1.23
      vertex 52.0996 52.3097 150
      vertex 52.0996 52.3097 1.23
    endloop
  endfacet
  facet normal -0.866028 0.499996 0
    outer loop
      vertex 52.0996 52.3097 150
      vertex 51.0344 50.4647 1.23
      vertex 51.0344 50.4647 150
    endloop
  endfacet
  facet normal -0.866028 -0.499996 0
    outer loop
      vertex 52.0996 69.4294 1.23
      vertex 51.0344 71.2744 150
      vertex 51.0344 71.2744 1.23
    endloop
  endfacet
  facet normal -0.866028 -0.499996 0
    outer loop
      vertex 51.0344 71.2744 150
      vertex 52.0996 69.4294 1.23
      vertex 52.0996 69.4294 150
    endloop
  endfacet
  facet normal 0 -1 0
    outer loop
      vertex 34.0779 79.8343 1.23
      vertex 36.2083 79.8343 150
      vertex 34.0779 79.8343 150
    endloop
  endfacet
  facet normal 0 -1 -0
    outer loop
      vertex 36.2083 79.8343 150
      vertex 34.0779 79.8343 1.23
      vertex 36.2083 79.8343 1.23
    endloop
  endfacet
  facet normal -0.500002 -0.866024 0
    outer loop
      vertex 36.2083 79.8343 1.23
      vertex 51.0344 71.2744 150
      vertex 36.2083 79.8343 150
    endloop
  endfacet
  facet normal -0.500002 -0.866024 -0
    outer loop
      vertex 51.0344 71.2744 150
      vertex 36.2083 79.8343 1.23
      vertex 51.0344 71.2744 1.23
    endloop
  endfacet
  facet normal 1 -0 0
    outer loop
      vertex 18.1865 52.3097 150
      vertex 18.1865 69.4294 1.23
      vertex 18.1865 69.4294 150
    endloop
  endfacet
  facet normal 1 0 0
    outer loop
      vertex 18.1865 69.4294 1.23
      vertex 18.1865 52.3097 150
      vertex 18.1865 52.3097 1.23
    endloop
  endfacet
  facet normal 0.5 -0.866026 0
    outer loop
      vertex 19.2517 71.2744 1.23
      vertex 34.0779 79.8343 150
      vertex 19.2517 71.2744 150
    endloop
  endfacet
  facet normal 0.5 -0.866026 0
    outer loop
      vertex 34.0779 79.8343 150
      vertex 19.2517 71.2744 1.23
      vertex 34.0779 79.8343 1.23
    endloop
  endfacet
  facet normal -1 0 0
    outer loop
      vertex 52.0996 52.3097 1.23
      vertex 52.0996 69.4294 150
      vertex 52.0996 69.4294 1.23
    endloop
  endfacet
  facet normal -1 -0 0
    outer loop
      vertex 52.0996 69.4294 150
      vertex 52.0996 52.3097 1.23
      vertex 52.0996 52.3097 150
    endloop
  endfacet
  facet normal -0.499998 0.866027 0
    outer loop
      vertex 51.0344 50.4647 1.23
      vertex 36.2083 41.9049 150
      vertex 51.0344 50.4647 150
    endloop
  endfacet
  facet normal -0.499998 0.866027 0
    outer loop
      vertex 36.2083 41.9049 150
      vertex 51.0344 50.4647 1.23
      vertex 36.2083 41.9049 1.23
    endloop
  endfacet
  facet normal 0.499995 0.866028 -0
    outer loop
      vertex 34.0779 41.9049 1.23
      vertex 19.2517 50.4647 150
      vertex 34.0779 41.9049 150
    endloop
  endfacet
  facet normal 0.499995 0.866028 0
    outer loop
      vertex 19.2517 50.4647 150
      vertex 34.0779 41.9049 1.23
      vertex 19.2517 50.4647 1.23
    endloop
  endfacet
  facet normal 0.500003 0.866023 -0
    outer loop
      vertex 52.7146 71.7246 0
      vertex 35.1431 81.8696 150
      vertex 52.7146 71.7246 150
    endloop
  endfacet
  facet normal 0.500003 0.866023 0
    outer loop
      vertex 35.1431 81.8696 150
      vertex 52.7146 71.7246 0
      vertex 35.1431 81.8696 0
    endloop
  endfacet
  facet normal -0.500001 0.866025 0
    outer loop
      vertex 35.1431 81.8696 0
      vertex 17.5715 71.7246 150
      vertex 35.1431 81.8696 150
    endloop
  endfacet
  facet normal -0.500001 0.866025 0
    outer loop
      vertex 17.5715 71.7246 150
      vertex 35.1431 81.8696 0
      vertex 17.5715 71.7246 0
    endloop
  endfacet
  facet normal 0 0 1
    outer loop
      vertex 51.0344 71.2744 1.23
      vertex 52.0996 52.3097 1.23
      vertex 52.0996 69.4294 1.23
    endloop
  endfacet
  facet normal 0 0 1
    outer loop
      vertex 51.0344 71.2744 1.23
      vertex 51.0344 50.4647 1.23
      vertex 52.0996 52.3097 1.23
    endloop
  endfacet
  facet normal 0 0 1
    outer loop
      vertex 36.2083 79.8343 1.23
      vertex 51.0344 50.4647 1.23
      vertex 51.0344 71.2744 1.23
    endloop
  endfacet
  facet normal 0 0 1
    outer loop
      vertex 36.2083 79.8343 1.23
      vertex 36.2083 41.9049 1.23
      vertex 51.0344 50.4647 1.23
    endloop
  endfacet
  facet normal -0 0 1
    outer loop
      vertex 34.0779 79.8343 1.23
      vertex 36.2083 41.9049 1.23
      vertex 36.2083 79.8343 1.23
    endloop
  endfacet
  facet normal 0 0 1
    outer loop
      vertex 34.0779 79.8343 1.23
      vertex 34.0779 41.9049 1.23
      vertex 36.2083 41.9049 1.23
    endloop
  endfacet
  facet normal -0 0 1
    outer loop
      vertex 19.2517 71.2744 1.23
      vertex 34.0779 41.9049 1.23
      vertex 34.0779 79.8343 1.23
    endloop
  endfacet
  facet normal 0 0 1
    outer loop
      vertex 19.2517 71.2744 1.23
      vertex 19.2517 50.4647 1.23
      vertex 34.0779 41.9049 1.23
    endloop
  endfacet
  facet normal 0 0 1
    outer loop
      vertex 19.2517 71.2744 1.23
      vertex 18.1865 52.3097 1.23
      vertex 19.2517 50.4647 1.23
    endloop
  endfacet
  facet normal 0 0 1
    outer loop
      vertex 18.1865 52.3097 1.23
      vertex 19.2517 71.2744 1.23
      vertex 18.1865 69.4294 1.23
    endloop
  endfacet
  facet normal 0.866032 -0.499988 0
    outer loop
      vertex 53.3296 8.55986 150
      vertex 54.3948 10.4049 1.23
      vertex 54.3948 10.4049 150
    endloop
  endfacet
  facet normal 0.866032 -0.499988 0
    outer loop
      vertex 54.3948 10.4049 1.23
      vertex 53.3296 8.55986 150
      vertex 53.3296 8.55986 1.23
    endloop
  endfacet
  facet normal 0.866032 0.499988 0
    outer loop
      vertex 54.3948 -10.4049 150
      vertex 53.3296 -8.55986 1.23
      vertex 53.3296 -8.55986 150
    endloop
  endfacet
  facet normal 0.866032 0.499988 0
    outer loop
      vertex 53.3296 -8.55986 1.23
      vertex 54.3948 -10.4049 150
      vertex 54.3948 -10.4049 1.23
    endloop
  endfacet
  facet normal 0 1 -0
    outer loop
      vertex 71.3513 -18.9647 1.23
      vertex 69.2209 -18.9647 150
      vertex 71.3513 -18.9647 150
    endloop
  endfacet
  facet normal 0 1 0
    outer loop
      vertex 69.2209 -18.9647 150
      vertex 71.3513 -18.9647 1.23
      vertex 69.2209 -18.9647 1.23
    endloop
  endfacet
  facet normal -0.866032 0.499988 0
    outer loop
      vertex 86.1775 -10.4049 1.23
      vertex 87.2427 -8.55986 150
      vertex 87.2427 -8.55986 1.23
    endloop
  endfacet
  facet normal -0.866032 0.499988 0
    outer loop
      vertex 87.2427 -8.55986 150
      vertex 86.1775 -10.4049 1.23
      vertex 86.1775 -10.4049 150
    endloop
  endfacet
  facet normal -0.866032 -0.499988 0
    outer loop
      vertex 87.2427 8.55986 1.23
      vertex 86.1775 10.4049 150
      vertex 86.1775 10.4049 1.23
    endloop
  endfacet
  facet normal -0.866032 -0.499988 0
    outer loop
      vertex 86.1775 10.4049 150
      vertex 87.2427 8.55986 1.23
      vertex 87.2427 8.55986 150
    endloop
  endfacet
  facet normal 0 -1 0
    outer loop
      vertex 69.2209 18.9647 1.23
      vertex 71.3513 18.9647 150
      vertex 69.2209 18.9647 150
    endloop
  endfacet
  facet normal 0 -1 -0
    outer loop
      vertex 71.3513 18.9647 150
      vertex 69.2209 18.9647 1.23
      vertex 71.3513 18.9647 1.23
    endloop
  endfacet
  facet normal -0.499995 -0.866028 0
    outer loop
      vertex 71.3513 18.9647 1.23
      vertex 86.1775 10.4049 150
      vertex 71.3513 18.9647 150
    endloop
  endfacet
  facet normal -0.499995 -0.866028 -0
    outer loop
      vertex 86.1775 10.4049 150
      vertex 71.3513 18.9647 1.23
      vertex 86.1775 10.4049 1.23
    endloop
  endfacet
  facet normal 1 -0 0
    outer loop
      vertex 53.3296 -8.55986 150
      vertex 53.3296 8.55986 1.23
      vertex 53.3296 8.55986 150
    endloop
  endfacet
  facet normal 1 0 0
    outer loop
      vertex 53.3296 8.55986 1.23
      vertex 53.3296 -8.55986 150
      vertex 53.3296 -8.55986 1.23
    endloop
  endfacet
  facet normal 0.499998 -0.866027 0
    outer loop
      vertex 54.3948 10.4049 1.23
      vertex 69.2209 18.9647 150
      vertex 54.3948 10.4049 150
    endloop
  endfacet
  facet normal 0.499998 -0.866027 0
    outer loop
      vertex 69.2209 18.9647 150
      vertex 54.3948 10.4049 1.23
      vertex 69.2209 18.9647 1.23
    endloop
  endfacet
  facet normal -1 0 0
    outer loop
      vertex 87.2427 -8.55986 1.23
      vertex 87.2427 8.55986 150
      vertex 87.2427 8.55986 1.23
    endloop
  endfacet
  facet normal -1 -0 0
    outer loop
      vertex 87.2427 8.55986 150
      vertex 87.2427 -8.55986 1.23
      vertex 87.2427 -8.55986 150
    endloop
  endfacet
  facet normal -0.499995 0.866028 0
    outer loop
      vertex 86.1775 -10.4049 1.23
      vertex 71.3513 -18.9647 150
      vertex 86.1775 -10.4049 150
    endloop
  endfacet
  facet normal -0.499995 0.866028 0
    outer loop
      vertex 71.3513 -18.9647 150
      vertex 86.1775 -10.4049 1.23
      vertex 71.3513 -18.9647 1.23
    endloop
  endfacet
  facet normal 0.499998 0.866027 -0
    outer loop
      vertex 69.2209 -18.9647 1.23
      vertex 54.3948 -10.4049 150
      vertex 69.2209 -18.9647 150
    endloop
  endfacet
  facet normal 0.499998 0.866027 0
    outer loop
      vertex 54.3948 -10.4049 150
      vertex 69.2209 -18.9647 1.23
      vertex 54.3948 -10.4049 1.23
    endloop
  endfacet
  facet normal -0.5 -0.866026 0
    outer loop
      vertex 52.7146 -10.8551 0
      vertex 70.2861 -21 150
      vertex 52.7146 -10.8551 150
    endloop
  endfacet
  facet normal -0.5 -0.866026 -0
    outer loop
      vertex 70.2861 -21 150
      vertex 52.7146 -10.8551 0
      vertex 70.2861 -21 0
    endloop
  endfacet
  facet normal 0.499999 -0.866026 0
    outer loop
      vertex 70.2861 -21 0
      vertex 88.4727 -10.5 150
      vertex 70.2861 -21 150
    endloop
  endfacet
  facet normal 0.499999 -0.866026 0
    outer loop
      vertex 88.4727 -10.5 150
      vertex 70.2861 -21 0
      vertex 88.4727 -10.5 0
    endloop
  endfacet
  facet normal 1 -0 0
    outer loop
      vertex 88.4727 -10.5 150
      vertex 88.4727 9.78986 0
      vertex 88.4727 9.78986 150
    endloop
  endfacet
  facet normal 1 0 0
    outer loop
      vertex 88.4727 9.78986 0
      vertex 88.4727 -10.5 150
      vertex 88.4727 -10.5 0
    endloop
  endfacet
  facet normal 0 0 1
    outer loop
      vertex 86.1775 10.4049 1.23
      vertex 87.2427 -8.55986 1.23
      vertex 87.2427 8.55986 1.23
    endloop
  endfacet
  facet normal 0 0 1
    outer loop
      vertex 86.1775 10.4049 1.23
      vertex 86.1775 -10.4049 1.23
      vertex 87.2427 -8.55986 1.23
    endloop
  endfacet
  facet normal 0 0 1
    outer loop
      vertex 71.3513 18.9647 1.23
      vertex 86.1775 -10.4049 1.23
      vertex 86.1775 10.4049 1.23
    endloop
  endfacet
  facet normal 0 0 1
    outer loop
      vertex 71.3513 18.9647 1.23
      vertex 71.3513 -18.9647 1.23
      vertex 86.1775 -10.4049 1.23
    endloop
  endfacet
  facet normal -0 0 1
    outer loop
      vertex 69.2209 18.9647 1.23
      vertex 71.3513 -18.9647 1.23
      vertex 71.3513 18.9647 1.23
    endloop
  endfacet
  facet normal 0 0 1
    outer loop
      vertex 69.2209 18.9647 1.23
      vertex 69.2209 -18.9647 1.23
      vertex 71.3513 -18.9647 1.23
    endloop
  endfacet
  facet normal -0 0 1
    outer loop
      vertex 54.3948 10.4049 1.23
      vertex 69.2209 -18.9647 1.23
      vertex 69.2209 18.9647 1.23
    endloop
  endfacet
  facet normal 0 0 1
    outer loop
      vertex 54.3948 10.4049 1.23
      vertex 54.3948 -10.4049 1.23
      vertex 69.2209 -18.9647 1.23
    endloop
  endfacet
  facet normal -0 0 1
    outer loop
      vertex 53.3296 8.55986 1.23
      vertex 54.3948 -10.4049 1.23
      vertex 54.3948 10.4049 1.23
    endloop
  endfacet
  facet normal 0 0 1
    outer loop
      vertex 54.3948 -10.4049 1.23
      vertex 53.3296 8.55986 1.23
      vertex 53.3296 -8.55986 1.23
    endloop
  endfacet
  facet normal 0.866028 -0.499996 0
    outer loop
      vertex 70.9011 38.9946 150
      vertex 71.9663 40.8396 1.23
      vertex 71.9663 40.8396 150
    endloop
  endfacet
  facet normal 0.866028 -0.499996 0
    outer loop
      vertex 71.9663 40.8396 1.23
      vertex 70.9011 38.9946 150
      vertex 70.9011 38.9946 1.23
    endloop
  endfacet
  facet normal 0.866028 0.499996 0
    outer loop
      vertex 71.9663 20.0299 150
      vertex 70.9011 21.8749 1.23
      vertex 70.9011 21.8749 150
    endloop
  endfacet
  facet normal 0.866028 0.499996 0
    outer loop
      vertex 70.9011 21.8749 1.23
      vertex 71.9663 20.0299 150
      vertex 71.9663 20.0299 1.23
    endloop
  endfacet
  facet normal 0 1 -0
    outer loop
      vertex 88.9229 11.4701 1.23
      vertex 86.7925 11.4701 150
      vertex 88.9229 11.4701 150
    endloop
  endfacet
  facet normal 0 1 0
    outer loop
      vertex 86.7925 11.4701 150
      vertex 88.9229 11.4701 1.23
      vertex 86.7925 11.4701 1.23
    endloop
  endfacet
  facet normal -0.866068 0.499926 0
    outer loop
      vertex 103.749 20.0299 1.23
      vertex 104.814 21.8749 150
      vertex 104.814 21.8749 1.23
    endloop
  endfacet
  facet normal -0.866068 0.499926 0
    outer loop
      vertex 104.814 21.8749 150
      vertex 103.749 20.0299 1.23
      vertex 103.749 20.0299 150
    endloop
  endfacet
  facet normal -0.866068 -0.499926 0
    outer loop
      vertex 104.814 38.9946 1.23
      vertex 103.749 40.8396 150
      vertex 103.749 40.8396 1.23
    endloop
  endfacet
  facet normal -0.866068 -0.499926 0
    outer loop
      vertex 103.749 40.8396 150
      vertex 104.814 38.9946 1.23
      vertex 104.814 38.9946 150
    endloop
  endfacet
  facet normal 0 -1 0
    outer loop
      vertex 86.7925 49.3995 1.23
      vertex 88.9229 49.3995 150
      vertex 86.7925 49.3995 150
    endloop
  endfacet
  facet normal 0 -1 -0
    outer loop
      vertex 88.9229 49.3995 150
      vertex 86.7925 49.3995 1.23
      vertex 88.9229 49.3995 1.23
    endloop
  endfacet
  facet normal -0.500002 -0.866024 0
    outer loop
      vertex 88.9229 49.3995 1.23
      vertex 103.749 40.8396 150
      vertex 88.9229 49.3995 150
    endloop
  endfacet
  facet normal -0.500002 -0.866024 -0
    outer loop
      vertex 103.749 40.8396 150
      vertex 88.9229 49.3995 1.23
      vertex 103.749 40.8396 1.23
    endloop
  endfacet
  facet normal 1 -0 0
    outer loop
      vertex 70.9011 21.8749 150
      vertex 70.9011 38.9946 1.23
      vertex 70.9011 38.9946 150
    endloop
  endfacet
  facet normal 1 0 0
    outer loop
      vertex 70.9011 38.9946 1.23
      vertex 70.9011 21.8749 150
      vertex 70.9011 21.8749 1.23
    endloop
  endfacet
  facet normal 0.5 -0.866026 0
    outer loop
      vertex 71.9663 40.8396 1.23
      vertex 86.7925 49.3995 150
      vertex 71.9663 40.8396 150
    endloop
  endfacet
  facet normal 0.5 -0.866026 0
    outer loop
      vertex 86.7925 49.3995 150
      vertex 71.9663 40.8396 1.23
      vertex 86.7925 49.3995 1.23
    endloop
  endfacet
  facet normal -1 0 0
    outer loop
      vertex 104.814 21.8749 1.23
      vertex 104.814 38.9946 150
      vertex 104.814 38.9946 1.23
    endloop
  endfacet
  facet normal -1 -0 0
    outer loop
      vertex 104.814 38.9946 150
      vertex 104.814 21.8749 1.23
      vertex 104.814 21.8749 150
    endloop
  endfacet
  facet normal -0.499998 0.866027 0
    outer loop
      vertex 103.749 20.0299 1.23
      vertex 88.9229 11.4701 150
      vertex 103.749 20.0299 150
    endloop
  endfacet
  facet normal -0.499998 0.866027 0
    outer loop
      vertex 88.9229 11.4701 150
      vertex 103.749 20.0299 1.23
      vertex 88.9229 11.4701 1.23
    endloop
  endfacet
  facet normal 0.499995 0.866028 -0
    outer loop
      vertex 86.7925 11.4701 1.23
      vertex 71.9663 20.0299 150
      vertex 86.7925 11.4701 150
    endloop
  endfacet
  facet normal 0.499995 0.866028 0
    outer loop
      vertex 71.9663 20.0299 150
      vertex 86.7925 11.4701 1.23
      vertex 71.9663 20.0299 1.23
    endloop
  endfacet
  facet normal 0.500004 0.866023 -0
    outer loop
      vertex 106.044 40.9348 0
      vertex 88.4727 51.0797 150
      vertex 106.044 40.9348 150
    endloop
  endfacet
  facet normal 0.500004 0.866023 0
    outer loop
      vertex 88.4727 51.0797 150
      vertex 106.044 40.9348 0
      vertex 88.4727 51.0797 0
    endloop
  endfacet
  facet normal 0.500005 -0.866022 0
    outer loop
      vertex 88.4727 9.78986 0
      vertex 106.044 19.9348 150
      vertex 88.4727 9.78986 150
    endloop
  endfacet
  facet normal 0.500005 -0.866022 0
    outer loop
      vertex 106.044 19.9348 150
      vertex 88.4727 9.78986 0
      vertex 106.044 19.9348 0
    endloop
  endfacet
  facet normal 1 -0 0
    outer loop
      vertex 106.044 19.9348 150
      vertex 106.044 40.9348 0
      vertex 106.044 40.9348 150
    endloop
  endfacet
  facet normal 1 0 0
    outer loop
      vertex 106.044 40.9348 0
      vertex 106.044 19.9348 150
      vertex 106.044 19.9348 0
    endloop
  endfacet
  facet normal 0 0 1
    outer loop
      vertex 103.749 40.8396 1.23
      vertex 104.814 21.8749 1.23
      vertex 104.814 38.9946 1.23
    endloop
  endfacet
  facet normal 0 0 1
    outer loop
      vertex 103.749 40.8396 1.23
      vertex 103.749 20.0299 1.23
      vertex 104.814 21.8749 1.23
    endloop
  endfacet
  facet normal 0 0 1
    outer loop
      vertex 88.9229 49.3995 1.23
      vertex 103.749 20.0299 1.23
      vertex 103.749 40.8396 1.23
    endloop
  endfacet
  facet normal 0 0 1
    outer loop
      vertex 88.9229 49.3995 1.23
      vertex 88.9229 11.4701 1.23
      vertex 103.749 20.0299 1.23
    endloop
  endfacet
  facet normal -0 0 1
    outer loop
      vertex 86.7925 49.3995 1.23
      vertex 88.9229 11.4701 1.23
      vertex 88.9229 49.3995 1.23
    endloop
  endfacet
  facet normal 0 0 1
    outer loop
      vertex 86.7925 49.3995 1.23
      vertex 86.7925 11.4701 1.23
      vertex 88.9229 11.4701 1.23
    endloop
  endfacet
  facet normal -0 0 1
    outer loop
      vertex 71.9663 40.8396 1.23
      vertex 86.7925 11.4701 1.23
      vertex 86.7925 49.3995 1.23
    endloop
  endfacet
  facet normal 0 0 1
    outer loop
      vertex 71.9663 40.8396 1.23
      vertex 71.9663 20.0299 1.23
      vertex 86.7925 11.4701 1.23
    endloop
  endfacet
  facet normal 0 0 1
    outer loop
      vertex 71.9663 40.8396 1.23
      vertex 70.9011 21.8749 1.23
      vertex 71.9663 20.0299 1.23
    endloop
  endfacet
  facet normal 0 0 1
    outer loop
      vertex 70.9011 21.8749 1.23
      vertex 71.9663 40.8396 1.23
      vertex 70.9011 38.9946 1.23
    endloop
  endfacet
  facet normal 0.866028 -0.499996 0
    outer loop
      vertex 53.3296 69.4294 150
      vertex 54.3948 71.2744 1.23
      vertex 54.3948 71.2744 150
    endloop
  endfacet
  facet normal 0.866028 -0.499996 0
    outer loop
      vertex 54.3948 71.2744 1.23
      vertex 53.3296 69.4294 150
      vertex 53.3296 69.4294 1.23
    endloop
  endfacet
  facet normal 0.866028 0.499996 0
    outer loop
      vertex 54.3948 50.4647 150
      vertex 53.3296 52.3097 1.23
      vertex 53.3296 52.3097 150
    endloop
  endfacet
  facet normal 0.866028 0.499996 0
    outer loop
      vertex 53.3296 52.3097 1.23
      vertex 54.3948 50.4647 150
      vertex 54.3948 50.4647 1.23
    endloop
  endfacet
  facet normal 0 1 -0
    outer loop
      vertex 71.3513 41.9049 1.23
      vertex 69.2209 41.9049 150
      vertex 71.3513 41.9049 150
    endloop
  endfacet
  facet normal 0 1 0
    outer loop
      vertex 69.2209 41.9049 150
      vertex 71.3513 41.9049 1.23
      vertex 69.2209 41.9049 1.23
    endloop
  endfacet
  facet normal -0.866028 0.499996 0
    outer loop
      vertex 86.1775 50.4647 1.23
      vertex 87.2427 52.3097 150
      vertex 87.2427 52.3097 1.23
    endloop
  endfacet
  facet normal -0.866028 0.499996 0
    outer loop
      vertex 87.2427 52.3097 150
      vertex 86.1775 50.4647 1.23
      vertex 86.1775 50.4647 150
    endloop
  endfacet
  facet normal -0.866028 -0.499996 0
    outer loop
      vertex 87.2427 69.4294 1.23
      vertex 86.1775 71.2744 150
      vertex 86.1775 71.2744 1.23
    endloop
  endfacet
  facet normal -0.866028 -0.499996 0
    outer loop
      vertex 86.1775 71.2744 150
      vertex 87.2427 69.4294 1.23
      vertex 87.2427 69.4294 150
    endloop
  endfacet
  facet normal 0 -1 0
    outer loop
      vertex 69.2209 79.8343 1.23
      vertex 71.3513 79.8343 150
      vertex 69.2209 79.8343 150
    endloop
  endfacet
  facet normal 0 -1 -0
    outer loop
      vertex 71.3513 79.8343 150
      vertex 69.2209 79.8343 1.23
      vertex 71.3513 79.8343 1.23
    endloop
  endfacet
  facet normal -0.5 -0.866026 0
    outer loop
      vertex 71.3513 79.8343 1.23
      vertex 86.1775 71.2744 150
      vertex 71.3513 79.8343 150
    endloop
  endfacet
  facet normal -0.5 -0.866026 -0
    outer loop
      vertex 86.1775 71.2744 150
      vertex 71.3513 79.8343 1.23
      vertex 86.1775 71.2744 1.23
    endloop
  endfacet
  facet normal 1 -0 0
    outer loop
      vertex 53.3296 52.3097 150
      vertex 53.3296 69.4294 1.23
      vertex 53.3296 69.4294 150
    endloop
  endfacet
  facet normal 1 0 0
    outer loop
      vertex 53.3296 69.4294 1.23
      vertex 53.3296 52.3097 150
      vertex 53.3296 52.3097 1.23
    endloop
  endfacet
  facet normal 0.500002 -0.866024 0
    outer loop
      vertex 54.3948 71.2744 1.23
      vertex 69.2209 79.8343 150
      vertex 54.3948 71.2744 150
    endloop
  endfacet
  facet normal 0.500002 -0.866024 0
    outer loop
      vertex 69.2209 79.8343 150
      vertex 54.3948 71.2744 1.23
      vertex 69.2209 79.8343 1.23
    endloop
  endfacet
  facet normal -1 0 0
    outer loop
      vertex 87.2427 52.3097 1.23
      vertex 87.2427 69.4294 150
      vertex 87.2427 69.4294 1.23
    endloop
  endfacet
  facet normal -1 -0 0
    outer loop
      vertex 87.2427 69.4294 150
      vertex 87.2427 52.3097 1.23
      vertex 87.2427 52.3097 150
    endloop
  endfacet
  facet normal -0.499995 0.866028 0
    outer loop
      vertex 86.1775 50.4647 1.23
      vertex 71.3513 41.9049 150
      vertex 86.1775 50.4647 150
    endloop
  endfacet
  facet normal -0.499995 0.866028 0
    outer loop
      vertex 71.3513 41.9049 150
      vertex 86.1775 50.4647 1.23
      vertex 71.3513 41.9049 1.23
    endloop
  endfacet
  facet normal 0.499998 0.866027 -0
    outer loop
      vertex 69.2209 41.9049 1.23
      vertex 54.3948 50.4647 150
      vertex 69.2209 41.9049 150
    endloop
  endfacet
  facet normal 0.499998 0.866027 0
    outer loop
      vertex 54.3948 50.4647 150
      vertex 69.2209 41.9049 1.23
      vertex 54.3948 50.4647 1.23
    endloop
  endfacet
  facet normal 0.499999 0.866026 -0
    outer loop
      vertex 88.4727 71.3696 0
      vertex 70.2861 81.8696 150
      vertex 88.4727 71.3696 150
    endloop
  endfacet
  facet normal 0.499999 0.866026 0
    outer loop
      vertex 70.2861 81.8696 150
      vertex 88.4727 71.3696 0
      vertex 70.2861 81.8696 0
    endloop
  endfacet
  facet normal -0.500003 0.866023 0
    outer loop
      vertex 70.2861 81.8696 0
      vertex 52.7146 71.7246 150
      vertex 70.2861 81.8696 150
    endloop
  endfacet
  facet normal -0.500003 0.866023 0
    outer loop
      vertex 52.7146 71.7246 150
      vertex 70.2861 81.8696 0
      vertex 52.7146 71.7246 0
    endloop
  endfacet
  facet normal 1 -0 0
    outer loop
      vertex 88.4727 51.0797 150
      vertex 88.4727 71.3696 0
      vertex 88.4727 71.3696 150
    endloop
  endfacet
  facet normal 1 0 0
    outer loop
      vertex 88.4727 71.3696 0
      vertex 88.4727 51.0797 150
      vertex 88.4727 51.0797 0
    endloop
  endfacet
  facet normal 0 0 1
    outer loop
      vertex 86.1775 71.2744 1.23
      vertex 87.2427 52.3097 1.23
      vertex 87.2427 69.4294 1.23
    endloop
  endfacet
  facet normal 0 0 1
    outer loop
      vertex 86.1775 71.2744 1.23
      vertex 86.1775 50.4647 1.23
      vertex 87.2427 52.3097 1.23
    endloop
  endfacet
  facet normal 0 0 1
    outer loop
      vertex 71.3513 79.8343 1.23
      vertex 86.1775 50.4647 1.23
      vertex 86.1775 71.2744 1.23
    endloop
  endfacet
  facet normal 0 0 1
    outer loop
      vertex 71.3513 79.8343 1.23
      vertex 71.3513 41.9049 1.23
      vertex 86.1775 50.4647 1.23
    endloop
  endfacet
  facet normal -0 0 1
    outer loop
      vertex 69.2209 79.8343 1.23
      vertex 71.3513 41.9049 1.23
      vertex 71.3513 79.8343 1.23
    endloop
  endfacet
  facet normal 0 0 1
    outer loop
      vertex 69.2209 79.8343 1.23
      vertex 69.2209 41.9049 1.23
      vertex 71.3513 41.9049 1.23
    endloop
  endfacet
  facet normal -0 0 1
    outer loop
      vertex 54.3948 71.2744 1.23
      vertex 69.2209 41.9049 1.23
      vertex 69.2209 79.8343 1.23
    endloop
  endfacet
  facet normal 0 0 1
    outer loop
      vertex 54.3948 71.2744 1.23
      vertex 54.3948 50.4647 1.23
      vertex 69.2209 41.9049 1.23
    endloop
  endfacet
  facet normal -0 0 1
    outer loop
      vertex 53.3296 69.4294 1.23
      vertex 54.3948 50.4647 1.23
      vertex 54.3948 71.2744 1.23
    endloop
  endfacet
  facet normal 0 0 1
    outer loop
      vertex 54.3948 50.4647 1.23
      vertex 53.3296 69.4294 1.23
      vertex 53.3296 52.3097 1.23
    endloop
  endfacet
endsolid OpenSCAD_Model
