solid OpenSCAD_Model
  facet normal 0 0 -1
    outer loop
      vertex 14.1074 11.4348 28.615
      vertex 3.4641 19 28.615
      vertex 14.7224 12.5 28.615
    endloop
  endfacet
  facet normal 0 -0 -1
    outer loop
      vertex 3.4641 19 28.615
      vertex 14.1074 11.4348 28.615
      vertex 2.8491 17.9348 28.615
    endloop
  endfacet
  facet normal 0.866023 -0.500004 0
    outer loop
      vertex 2.8491 17.9348 28.615
      vertex 3.4641 19 3.23
      vertex 3.4641 19 28.615
    endloop
  endfacet
  facet normal 0.866023 -0.500004 0
    outer loop
      vertex 3.4641 19 3.23
      vertex 2.8491 17.9348 28.615
      vertex 2.8491 17.9348 3.23
    endloop
  endfacet
  facet normal 0 0 1
    outer loop
      vertex 3.4641 19 3.23
      vertex 14.1074 11.4348 3.23
      vertex 14.7224 12.5 3.23
    endloop
  endfacet
  facet normal 0 0 1
    outer loop
      vertex 14.1074 11.4348 3.23
      vertex 3.4641 19 3.23
      vertex 2.8491 17.9348 3.23
    endloop
  endfacet
  facet normal -0.866023 0.500004 0
    outer loop
      vertex 14.1074 11.4348 3.23
      vertex 14.7224 12.5 28.615
      vertex 14.7224 12.5 3.23
    endloop
  endfacet
  facet normal -0.866023 0.500004 0
    outer loop
      vertex 14.7224 12.5 28.615
      vertex 14.1074 11.4348 3.23
      vertex 14.1074 11.4348 28.615
    endloop
  endfacet
  facet normal 0 0 -1
    outer loop
      vertex -14.1074 11.4348 28.615
      vertex -3.4641 19 28.615
      vertex -2.8491 17.9348 28.615
    endloop
  endfacet
  facet normal 0 0 -1
    outer loop
      vertex -3.4641 19 28.615
      vertex -14.1074 11.4348 28.615
      vertex -14.7224 12.5 28.615
    endloop
  endfacet
  facet normal 0.866023 0.500004 0
    outer loop
      vertex -14.1074 11.4348 28.615
      vertex -14.7224 12.5 3.23
      vertex -14.7224 12.5 28.615
    endloop
  endfacet
  facet normal 0.866023 0.500004 0
    outer loop
      vertex -14.7224 12.5 3.23
      vertex -14.1074 11.4348 28.615
      vertex -14.1074 11.4348 3.23
    endloop
  endfacet
  facet normal 0 0 1
    outer loop
      vertex -3.4641 19 3.23
      vertex -14.1074 11.4348 3.23
      vertex -2.8491 17.9348 3.23
    endloop
  endfacet
  facet normal 0 -0 1
    outer loop
      vertex -14.1074 11.4348 3.23
      vertex -3.4641 19 3.23
      vertex -14.7224 12.5 3.23
    endloop
  endfacet
  facet normal -0.866023 -0.500004 0
    outer loop
      vertex -2.8491 17.9348 3.23
      vertex -3.4641 19 28.615
      vertex -3.4641 19 3.23
    endloop
  endfacet
  facet normal -0.866023 -0.500004 0
    outer loop
      vertex -3.4641 19 28.615
      vertex -2.8491 17.9348 3.23
      vertex -2.8491 17.9348 28.615
    endloop
  endfacet
  facet normal 0 0 -1
    outer loop
      vertex -18.1865 -6.5 28.615
      vertex -16.9565 6.5 28.615
      vertex -16.9565 -6.5 28.615
    endloop
  endfacet
  facet normal -0 0 -1
    outer loop
      vertex -16.9565 6.5 28.615
      vertex -18.1865 -6.5 28.615
      vertex -18.1865 6.5 28.615
    endloop
  endfacet
  facet normal 0 -1 0
    outer loop
      vertex -18.1865 6.5 3.23
      vertex -16.9565 6.5 28.615
      vertex -18.1865 6.5 28.615
    endloop
  endfacet
  facet normal 0 -1 -0
    outer loop
      vertex -16.9565 6.5 28.615
      vertex -18.1865 6.5 3.23
      vertex -16.9565 6.5 3.23
    endloop
  endfacet
  facet normal -0 0 1
    outer loop
      vertex -18.1865 6.5 3.23
      vertex -16.9565 -6.5 3.23
      vertex -16.9565 6.5 3.23
    endloop
  endfacet
  facet normal 0 0 1
    outer loop
      vertex -16.9565 -6.5 3.23
      vertex -18.1865 6.5 3.23
      vertex -18.1865 -6.5 3.23
    endloop
  endfacet
  facet normal 0 1 -0
    outer loop
      vertex -16.9565 -6.5 3.23
      vertex -18.1865 -6.5 28.615
      vertex -16.9565 -6.5 28.615
    endloop
  endfacet
  facet normal 0 1 0
    outer loop
      vertex -18.1865 -6.5 28.615
      vertex -16.9565 -6.5 3.23
      vertex -18.1865 -6.5 3.23
    endloop
  endfacet
  facet normal 0 0 -1
    outer loop
      vertex -3.4641 -19 28.615
      vertex -14.1074 -11.4348 28.615
      vertex -2.8491 -17.9348 28.615
    endloop
  endfacet
  facet normal 0 -0 -1
    outer loop
      vertex -14.1074 -11.4348 28.615
      vertex -3.4641 -19 28.615
      vertex -14.7224 -12.5 28.615
    endloop
  endfacet
  facet normal 0.866023 -0.500004 0
    outer loop
      vertex -14.7224 -12.5 28.615
      vertex -14.1074 -11.4348 3.23
      vertex -14.1074 -11.4348 28.615
    endloop
  endfacet
  facet normal 0.866023 -0.500004 0
    outer loop
      vertex -14.1074 -11.4348 3.23
      vertex -14.7224 -12.5 28.615
      vertex -14.7224 -12.5 3.23
    endloop
  endfacet
  facet normal 0 0 1
    outer loop
      vertex -14.1074 -11.4348 3.23
      vertex -3.4641 -19 3.23
      vertex -2.8491 -17.9348 3.23
    endloop
  endfacet
  facet normal 0 0 1
    outer loop
      vertex -3.4641 -19 3.23
      vertex -14.1074 -11.4348 3.23
      vertex -14.7224 -12.5 3.23
    endloop
  endfacet
  facet normal -0.866023 0.500004 0
    outer loop
      vertex -3.4641 -19 3.23
      vertex -2.8491 -17.9348 28.615
      vertex -2.8491 -17.9348 3.23
    endloop
  endfacet
  facet normal -0.866023 0.500004 0
    outer loop
      vertex -2.8491 -17.9348 28.615
      vertex -3.4641 -19 3.23
      vertex -3.4641 -19 28.615
    endloop
  endfacet
  facet normal 0 0 -1
    outer loop
      vertex 3.4641 -19 28.615
      vertex 14.1074 -11.4348 28.615
      vertex 14.7224 -12.5 28.615
    endloop
  endfacet
  facet normal 0 0 -1
    outer loop
      vertex 14.1074 -11.4348 28.615
      vertex 3.4641 -19 28.615
      vertex 2.8491 -17.9348 28.615
    endloop
  endfacet
  facet normal 0.866023 0.500004 0
    outer loop
      vertex 3.4641 -19 28.615
      vertex 2.8491 -17.9348 3.23
      vertex 2.8491 -17.9348 28.615
    endloop
  endfacet
  facet normal 0.866023 0.500004 0
    outer loop
      vertex 2.8491 -17.9348 3.23
      vertex 3.4641 -19 28.615
      vertex 3.4641 -19 3.23
    endloop
  endfacet
  facet normal 0 0 1
    outer loop
      vertex 14.1074 -11.4348 3.23
      vertex 3.4641 -19 3.23
      vertex 14.7224 -12.5 3.23
    endloop
  endfacet
  facet normal 0 -0 1
    outer loop
      vertex 3.4641 -19 3.23
      vertex 14.1074 -11.4348 3.23
      vertex 2.8491 -17.9348 3.23
    endloop
  endfacet
  facet normal -0.866023 -0.500004 0
    outer loop
      vertex 14.7224 -12.5 3.23
      vertex 14.1074 -11.4348 28.615
      vertex 14.1074 -11.4348 3.23
    endloop
  endfacet
  facet normal -0.866023 -0.500004 0
    outer loop
      vertex 14.1074 -11.4348 28.615
      vertex 14.7224 -12.5 3.23
      vertex 14.7224 -12.5 28.615
    endloop
  endfacet
  facet normal 0 0 -1
    outer loop
      vertex 16.9565 -6.5 28.615
      vertex 18.1865 6.5 28.615
      vertex 18.1865 -6.5 28.615
    endloop
  endfacet
  facet normal -0 0 -1
    outer loop
      vertex 18.1865 6.5 28.615
      vertex 16.9565 -6.5 28.615
      vertex 16.9565 6.5 28.615
    endloop
  endfacet
  facet normal -0 0 1
    outer loop
      vertex 16.9565 6.5 3.23
      vertex 18.1865 -6.5 3.23
      vertex 18.1865 6.5 3.23
    endloop
  endfacet
  facet normal 0 0 1
    outer loop
      vertex 18.1865 -6.5 3.23
      vertex 16.9565 6.5 3.23
      vertex 16.9565 -6.5 3.23
    endloop
  endfacet
  facet normal 0 1 -0
    outer loop
      vertex 18.1865 -6.5 3.23
      vertex 16.9565 -6.5 28.615
      vertex 18.1865 -6.5 28.615
    endloop
  endfacet
  facet normal 0 1 0
    outer loop
      vertex 16.9565 -6.5 28.615
      vertex 18.1865 -6.5 3.23
      vertex 16.9565 -6.5 3.23
    endloop
  endfacet
  facet normal 0 -1 0
    outer loop
      vertex 16.9565 6.5 3.23
      vertex 18.1865 6.5 28.615
      vertex 16.9565 6.5 28.615
    endloop
  endfacet
  facet normal 0 -1 -0
    outer loop
      vertex 18.1865 6.5 28.615
      vertex 16.9565 6.5 3.23
      vertex 18.1865 6.5 3.23
    endloop
  endfacet
  facet normal 0 0 -1
    outer loop
      vertex 14.1074 11.4348 58
      vertex 3.4641 19 58
      vertex 14.7224 12.5 58
    endloop
  endfacet
  facet normal 0 -0 -1
    outer loop
      vertex 3.4641 19 58
      vertex 14.1074 11.4348 58
      vertex 2.8491 17.9348 58
    endloop
  endfacet
  facet normal 0.866023 -0.500004 0
    outer loop
      vertex 2.8491 17.9348 58
      vertex 3.4641 19 32.615
      vertex 3.4641 19 58
    endloop
  endfacet
  facet normal 0.866023 -0.500004 0
    outer loop
      vertex 3.4641 19 32.615
      vertex 2.8491 17.9348 58
      vertex 2.8491 17.9348 32.615
    endloop
  endfacet
  facet normal 0 0 1
    outer loop
      vertex 3.4641 19 32.615
      vertex 14.1074 11.4348 32.615
      vertex 14.7224 12.5 32.615
    endloop
  endfacet
  facet normal 0 0 1
    outer loop
      vertex 14.1074 11.4348 32.615
      vertex 3.4641 19 32.615
      vertex 2.8491 17.9348 32.615
    endloop
  endfacet
  facet normal -0.866023 0.500004 0
    outer loop
      vertex 14.1074 11.4348 32.615
      vertex 14.7224 12.5 58
      vertex 14.7224 12.5 32.615
    endloop
  endfacet
  facet normal -0.866023 0.500004 0
    outer loop
      vertex 14.7224 12.5 58
      vertex 14.1074 11.4348 32.615
      vertex 14.1074 11.4348 58
    endloop
  endfacet
  facet normal 0 0 -1
    outer loop
      vertex -14.1074 11.4348 58
      vertex -3.4641 19 58
      vertex -2.8491 17.9348 58
    endloop
  endfacet
  facet normal 0 0 -1
    outer loop
      vertex -3.4641 19 58
      vertex -14.1074 11.4348 58
      vertex -14.7224 12.5 58
    endloop
  endfacet
  facet normal 0.866023 0.500004 0
    outer loop
      vertex -14.1074 11.4348 58
      vertex -14.7224 12.5 32.615
      vertex -14.7224 12.5 58
    endloop
  endfacet
  facet normal 0.866023 0.500004 0
    outer loop
      vertex -14.7224 12.5 32.615
      vertex -14.1074 11.4348 58
      vertex -14.1074 11.4348 32.615
    endloop
  endfacet
  facet normal 0 0 1
    outer loop
      vertex -3.4641 19 32.615
      vertex -14.1074 11.4348 32.615
      vertex -2.8491 17.9348 32.615
    endloop
  endfacet
  facet normal 0 -0 1
    outer loop
      vertex -14.1074 11.4348 32.615
      vertex -3.4641 19 32.615
      vertex -14.7224 12.5 32.615
    endloop
  endfacet
  facet normal -0.866023 -0.500004 0
    outer loop
      vertex -2.8491 17.9348 32.615
      vertex -3.4641 19 58
      vertex -3.4641 19 32.615
    endloop
  endfacet
  facet normal -0.866023 -0.500004 0
    outer loop
      vertex -3.4641 19 58
      vertex -2.8491 17.9348 32.615
      vertex -2.8491 17.9348 58
    endloop
  endfacet
  facet normal 0 0 -1
    outer loop
      vertex -18.1865 -6.5 58
      vertex -16.9565 6.5 58
      vertex -16.9565 -6.5 58
    endloop
  endfacet
  facet normal -0 0 -1
    outer loop
      vertex -16.9565 6.5 58
      vertex -18.1865 -6.5 58
      vertex -18.1865 6.5 58
    endloop
  endfacet
  facet normal 0 -1 0
    outer loop
      vertex -18.1865 6.5 32.615
      vertex -16.9565 6.5 58
      vertex -18.1865 6.5 58
    endloop
  endfacet
  facet normal 0 -1 -0
    outer loop
      vertex -16.9565 6.5 58
      vertex -18.1865 6.5 32.615
      vertex -16.9565 6.5 32.615
    endloop
  endfacet
  facet normal -0 0 1
    outer loop
      vertex -18.1865 6.5 32.615
      vertex -16.9565 -6.5 32.615
      vertex -16.9565 6.5 32.615
    endloop
  endfacet
  facet normal 0 0 1
    outer loop
      vertex -16.9565 -6.5 32.615
      vertex -18.1865 6.5 32.615
      vertex -18.1865 -6.5 32.615
    endloop
  endfacet
  facet normal 0 1 -0
    outer loop
      vertex -16.9565 -6.5 32.615
      vertex -18.1865 -6.5 58
      vertex -16.9565 -6.5 58
    endloop
  endfacet
  facet normal 0 1 0
    outer loop
      vertex -18.1865 -6.5 58
      vertex -16.9565 -6.5 32.615
      vertex -18.1865 -6.5 32.615
    endloop
  endfacet
  facet normal 0 0 -1
    outer loop
      vertex -3.4641 -19 58
      vertex -14.1074 -11.4348 58
      vertex -2.8491 -17.9348 58
    endloop
  endfacet
  facet normal 0 -0 -1
    outer loop
      vertex -14.1074 -11.4348 58
      vertex -3.4641 -19 58
      vertex -14.7224 -12.5 58
    endloop
  endfacet
  facet normal 0.866023 -0.500004 0
    outer loop
      vertex -14.7224 -12.5 58
      vertex -14.1074 -11.4348 32.615
      vertex -14.1074 -11.4348 58
    endloop
  endfacet
  facet normal 0.866023 -0.500004 0
    outer loop
      vertex -14.1074 -11.4348 32.615
      vertex -14.7224 -12.5 58
      vertex -14.7224 -12.5 32.615
    endloop
  endfacet
  facet normal 0 0 1
    outer loop
      vertex -14.1074 -11.4348 32.615
      vertex -3.4641 -19 32.615
      vertex -2.8491 -17.9348 32.615
    endloop
  endfacet
  facet normal 0 0 1
    outer loop
      vertex -3.4641 -19 32.615
      vertex -14.1074 -11.4348 32.615
      vertex -14.7224 -12.5 32.615
    endloop
  endfacet
  facet normal -0.866023 0.500004 0
    outer loop
      vertex -3.4641 -19 32.615
      vertex -2.8491 -17.9348 58
      vertex -2.8491 -17.9348 32.615
    endloop
  endfacet
  facet normal -0.866023 0.500004 0
    outer loop
      vertex -2.8491 -17.9348 58
      vertex -3.4641 -19 32.615
      vertex -3.4641 -19 58
    endloop
  endfacet
  facet normal 0 0 -1
    outer loop
      vertex 3.4641 -19 58
      vertex 14.1074 -11.4348 58
      vertex 14.7224 -12.5 58
    endloop
  endfacet
  facet normal 0 0 -1
    outer loop
      vertex 14.1074 -11.4348 58
      vertex 3.4641 -19 58
      vertex 2.8491 -17.9348 58
    endloop
  endfacet
  facet normal 0.866023 0.500004 0
    outer loop
      vertex 3.4641 -19 58
      vertex 2.8491 -17.9348 32.615
      vertex 2.8491 -17.9348 58
    endloop
  endfacet
  facet normal 0.866023 0.500004 0
    outer loop
      vertex 2.8491 -17.9348 32.615
      vertex 3.4641 -19 58
      vertex 3.4641 -19 32.615
    endloop
  endfacet
  facet normal 0 0 1
    outer loop
      vertex 14.1074 -11.4348 32.615
      vertex 3.4641 -19 32.615
      vertex 14.7224 -12.5 32.615
    endloop
  endfacet
  facet normal 0 -0 1
    outer loop
      vertex 3.4641 -19 32.615
      vertex 14.1074 -11.4348 32.615
      vertex 2.8491 -17.9348 32.615
    endloop
  endfacet
  facet normal -0.866023 -0.500004 0
    outer loop
      vertex 14.7224 -12.5 32.615
      vertex 14.1074 -11.4348 58
      vertex 14.1074 -11.4348 32.615
    endloop
  endfacet
  facet normal -0.866023 -0.500004 0
    outer loop
      vertex 14.1074 -11.4348 58
      vertex 14.7224 -12.5 32.615
      vertex 14.7224 -12.5 58
    endloop
  endfacet
  facet normal 0 0 -1
    outer loop
      vertex 16.9565 -6.5 58
      vertex 18.1865 6.5 58
      vertex 18.1865 -6.5 58
    endloop
  endfacet
  facet normal -0 0 -1
    outer loop
      vertex 18.1865 6.5 58
      vertex 16.9565 -6.5 58
      vertex 16.9565 6.5 58
    endloop
  endfacet
  facet normal -0 0 1
    outer loop
      vertex 16.9565 6.5 32.615
      vertex 18.1865 -6.5 32.615
      vertex 18.1865 6.5 32.615
    endloop
  endfacet
  facet normal 0 0 1
    outer loop
      vertex 18.1865 -6.5 32.615
      vertex 16.9565 6.5 32.615
      vertex 16.9565 -6.5 32.615
    endloop
  endfacet
  facet normal 0 1 -0
    outer loop
      vertex 18.1865 -6.5 32.615
      vertex 16.9565 -6.5 58
      vertex 18.1865 -6.5 58
    endloop
  endfacet
  facet normal 0 1 0
    outer loop
      vertex 16.9565 -6.5 58
      vertex 18.1865 -6.5 32.615
      vertex 16.9565 -6.5 32.615
    endloop
  endfacet
  facet normal 0 -1 0
    outer loop
      vertex 16.9565 6.5 32.615
      vertex 18.1865 6.5 58
      vertex 16.9565 6.5 58
    endloop
  endfacet
  facet normal 0 -1 -0
    outer loop
      vertex 18.1865 6.5 58
      vertex 16.9565 6.5 32.615
      vertex 18.1865 6.5 32.615
    endloop
  endfacet
  facet normal 0 0 -1
    outer loop
      vertex 14.1074 11.4348 87.385
      vertex 3.4641 19 87.385
      vertex 14.7224 12.5 87.385
    endloop
  endfacet
  facet normal 0 -0 -1
    outer loop
      vertex 3.4641 19 87.385
      vertex 14.1074 11.4348 87.385
      vertex 2.8491 17.9348 87.385
    endloop
  endfacet
  facet normal 0.866023 -0.500004 0
    outer loop
      vertex 2.8491 17.9348 87.385
      vertex 3.4641 19 62
      vertex 3.4641 19 87.385
    endloop
  endfacet
  facet normal 0.866023 -0.500004 0
    outer loop
      vertex 3.4641 19 62
      vertex 2.8491 17.9348 87.385
      vertex 2.8491 17.9348 62
    endloop
  endfacet
  facet normal 0 0 1
    outer loop
      vertex 3.4641 19 62
      vertex 14.1074 11.4348 62
      vertex 14.7224 12.5 62
    endloop
  endfacet
  facet normal 0 0 1
    outer loop
      vertex 14.1074 11.4348 62
      vertex 3.4641 19 62
      vertex 2.8491 17.9348 62
    endloop
  endfacet
  facet normal -0.866023 0.500004 0
    outer loop
      vertex 14.1074 11.4348 62
      vertex 14.7224 12.5 87.385
      vertex 14.7224 12.5 62
    endloop
  endfacet
  facet normal -0.866023 0.500004 0
    outer loop
      vertex 14.7224 12.5 87.385
      vertex 14.1074 11.4348 62
      vertex 14.1074 11.4348 87.385
    endloop
  endfacet
  facet normal 0 0 -1
    outer loop
      vertex -14.1074 11.4348 87.385
      vertex -3.4641 19 87.385
      vertex -2.8491 17.9348 87.385
    endloop
  endfacet
  facet normal 0 0 -1
    outer loop
      vertex -3.4641 19 87.385
      vertex -14.1074 11.4348 87.385
      vertex -14.7224 12.5 87.385
    endloop
  endfacet
  facet normal 0.866023 0.500004 0
    outer loop
      vertex -14.1074 11.4348 87.385
      vertex -14.7224 12.5 62
      vertex -14.7224 12.5 87.385
    endloop
  endfacet
  facet normal 0.866023 0.500004 0
    outer loop
      vertex -14.7224 12.5 62
      vertex -14.1074 11.4348 87.385
      vertex -14.1074 11.4348 62
    endloop
  endfacet
  facet normal 0 0 1
    outer loop
      vertex -3.4641 19 62
      vertex -14.1074 11.4348 62
      vertex -2.8491 17.9348 62
    endloop
  endfacet
  facet normal 0 -0 1
    outer loop
      vertex -14.1074 11.4348 62
      vertex -3.4641 19 62
      vertex -14.7224 12.5 62
    endloop
  endfacet
  facet normal -0.866023 -0.500004 0
    outer loop
      vertex -2.8491 17.9348 62
      vertex -3.4641 19 87.385
      vertex -3.4641 19 62
    endloop
  endfacet
  facet normal -0.866023 -0.500004 0
    outer loop
      vertex -3.4641 19 87.385
      vertex -2.8491 17.9348 62
      vertex -2.8491 17.9348 87.385
    endloop
  endfacet
  facet normal 0 0 -1
    outer loop
      vertex -18.1865 -6.5 87.385
      vertex -16.9565 6.5 87.385
      vertex -16.9565 -6.5 87.385
    endloop
  endfacet
  facet normal -0 0 -1
    outer loop
      vertex -16.9565 6.5 87.385
      vertex -18.1865 -6.5 87.385
      vertex -18.1865 6.5 87.385
    endloop
  endfacet
  facet normal 0 -1 0
    outer loop
      vertex -18.1865 6.5 62
      vertex -16.9565 6.5 87.385
      vertex -18.1865 6.5 87.385
    endloop
  endfacet
  facet normal 0 -1 -0
    outer loop
      vertex -16.9565 6.5 87.385
      vertex -18.1865 6.5 62
      vertex -16.9565 6.5 62
    endloop
  endfacet
  facet normal -0 0 1
    outer loop
      vertex -18.1865 6.5 62
      vertex -16.9565 -6.5 62
      vertex -16.9565 6.5 62
    endloop
  endfacet
  facet normal 0 0 1
    outer loop
      vertex -16.9565 -6.5 62
      vertex -18.1865 6.5 62
      vertex -18.1865 -6.5 62
    endloop
  endfacet
  facet normal 0 1 -0
    outer loop
      vertex -16.9565 -6.5 62
      vertex -18.1865 -6.5 87.385
      vertex -16.9565 -6.5 87.385
    endloop
  endfacet
  facet normal 0 1 0
    outer loop
      vertex -18.1865 -6.5 87.385
      vertex -16.9565 -6.5 62
      vertex -18.1865 -6.5 62
    endloop
  endfacet
  facet normal 0 0 -1
    outer loop
      vertex -3.4641 -19 87.385
      vertex -14.1074 -11.4348 87.385
      vertex -2.8491 -17.9348 87.385
    endloop
  endfacet
  facet normal 0 -0 -1
    outer loop
      vertex -14.1074 -11.4348 87.385
      vertex -3.4641 -19 87.385
      vertex -14.7224 -12.5 87.385
    endloop
  endfacet
  facet normal 0.866023 -0.500004 0
    outer loop
      vertex -14.7224 -12.5 87.385
      vertex -14.1074 -11.4348 62
      vertex -14.1074 -11.4348 87.385
    endloop
  endfacet
  facet normal 0.866023 -0.500004 0
    outer loop
      vertex -14.1074 -11.4348 62
      vertex -14.7224 -12.5 87.385
      vertex -14.7224 -12.5 62
    endloop
  endfacet
  facet normal 0 0 1
    outer loop
      vertex -14.1074 -11.4348 62
      vertex -3.4641 -19 62
      vertex -2.8491 -17.9348 62
    endloop
  endfacet
  facet normal 0 0 1
    outer loop
      vertex -3.4641 -19 62
      vertex -14.1074 -11.4348 62
      vertex -14.7224 -12.5 62
    endloop
  endfacet
  facet normal -0.866023 0.500004 0
    outer loop
      vertex -3.4641 -19 62
      vertex -2.8491 -17.9348 87.385
      vertex -2.8491 -17.9348 62
    endloop
  endfacet
  facet normal -0.866023 0.500004 0
    outer loop
      vertex -2.8491 -17.9348 87.385
      vertex -3.4641 -19 62
      vertex -3.4641 -19 87.385
    endloop
  endfacet
  facet normal 0 0 -1
    outer loop
      vertex 3.4641 -19 87.385
      vertex 14.1074 -11.4348 87.385
      vertex 14.7224 -12.5 87.385
    endloop
  endfacet
  facet normal 0 0 -1
    outer loop
      vertex 14.1074 -11.4348 87.385
      vertex 3.4641 -19 87.385
      vertex 2.8491 -17.9348 87.385
    endloop
  endfacet
  facet normal 0.866023 0.500004 0
    outer loop
      vertex 3.4641 -19 87.385
      vertex 2.8491 -17.9348 62
      vertex 2.8491 -17.9348 87.385
    endloop
  endfacet
  facet normal 0.866023 0.500004 0
    outer loop
      vertex 2.8491 -17.9348 62
      vertex 3.4641 -19 87.385
      vertex 3.4641 -19 62
    endloop
  endfacet
  facet normal 0 0 1
    outer loop
      vertex 14.1074 -11.4348 62
      vertex 3.4641 -19 62
      vertex 14.7224 -12.5 62
    endloop
  endfacet
  facet normal 0 -0 1
    outer loop
      vertex 3.4641 -19 62
      vertex 14.1074 -11.4348 62
      vertex 2.8491 -17.9348 62
    endloop
  endfacet
  facet normal -0.866023 -0.500004 0
    outer loop
      vertex 14.7224 -12.5 62
      vertex 14.1074 -11.4348 87.385
      vertex 14.1074 -11.4348 62
    endloop
  endfacet
  facet normal -0.866023 -0.500004 0
    outer loop
      vertex 14.1074 -11.4348 87.385
      vertex 14.7224 -12.5 62
      vertex 14.7224 -12.5 87.385
    endloop
  endfacet
  facet normal 0 0 -1
    outer loop
      vertex 16.9565 -6.5 87.385
      vertex 18.1865 6.5 87.385
      vertex 18.1865 -6.5 87.385
    endloop
  endfacet
  facet normal -0 0 -1
    outer loop
      vertex 18.1865 6.5 87.385
      vertex 16.9565 -6.5 87.385
      vertex 16.9565 6.5 87.385
    endloop
  endfacet
  facet normal -0 0 1
    outer loop
      vertex 16.9565 6.5 62
      vertex 18.1865 -6.5 62
      vertex 18.1865 6.5 62
    endloop
  endfacet
  facet normal 0 0 1
    outer loop
      vertex 18.1865 -6.5 62
      vertex 16.9565 6.5 62
      vertex 16.9565 -6.5 62
    endloop
  endfacet
  facet normal 0 1 -0
    outer loop
      vertex 18.1865 -6.5 62
      vertex 16.9565 -6.5 87.385
      vertex 18.1865 -6.5 87.385
    endloop
  endfacet
  facet normal 0 1 0
    outer loop
      vertex 16.9565 -6.5 87.385
      vertex 18.1865 -6.5 62
      vertex 16.9565 -6.5 62
    endloop
  endfacet
  facet normal 0 -1 0
    outer loop
      vertex 16.9565 6.5 62
      vertex 18.1865 6.5 87.385
      vertex 16.9565 6.5 87.385
    endloop
  endfacet
  facet normal 0 -1 -0
    outer loop
      vertex 18.1865 6.5 87.385
      vertex 16.9565 6.5 62
      vertex 18.1865 6.5 62
    endloop
  endfacet
  facet normal 0 0 -1
    outer loop
      vertex 14.1074 11.4348 116.77
      vertex 3.4641 19 116.77
      vertex 14.7224 12.5 116.77
    endloop
  endfacet
  facet normal 0 -0 -1
    outer loop
      vertex 3.4641 19 116.77
      vertex 14.1074 11.4348 116.77
      vertex 2.8491 17.9348 116.77
    endloop
  endfacet
  facet normal 0.866023 -0.500004 0
    outer loop
      vertex 2.8491 17.9348 116.77
      vertex 3.4641 19 91.385
      vertex 3.4641 19 116.77
    endloop
  endfacet
  facet normal 0.866023 -0.500004 0
    outer loop
      vertex 3.4641 19 91.385
      vertex 2.8491 17.9348 116.77
      vertex 2.8491 17.9348 91.385
    endloop
  endfacet
  facet normal 0 0 1
    outer loop
      vertex 3.4641 19 91.385
      vertex 14.1074 11.4348 91.385
      vertex 14.7224 12.5 91.385
    endloop
  endfacet
  facet normal 0 0 1
    outer loop
      vertex 14.1074 11.4348 91.385
      vertex 3.4641 19 91.385
      vertex 2.8491 17.9348 91.385
    endloop
  endfacet
  facet normal -0.866023 0.500004 0
    outer loop
      vertex 14.1074 11.4348 91.385
      vertex 14.7224 12.5 116.77
      vertex 14.7224 12.5 91.385
    endloop
  endfacet
  facet normal -0.866023 0.500004 0
    outer loop
      vertex 14.7224 12.5 116.77
      vertex 14.1074 11.4348 91.385
      vertex 14.1074 11.4348 116.77
    endloop
  endfacet
  facet normal 0 0 -1
    outer loop
      vertex -14.1074 11.4348 116.77
      vertex -3.4641 19 116.77
      vertex -2.8491 17.9348 116.77
    endloop
  endfacet
  facet normal 0 0 -1
    outer loop
      vertex -3.4641 19 116.77
      vertex -14.1074 11.4348 116.77
      vertex -14.7224 12.5 116.77
    endloop
  endfacet
  facet normal 0.866023 0.500004 0
    outer loop
      vertex -14.1074 11.4348 116.77
      vertex -14.7224 12.5 91.385
      vertex -14.7224 12.5 116.77
    endloop
  endfacet
  facet normal 0.866023 0.500004 0
    outer loop
      vertex -14.7224 12.5 91.385
      vertex -14.1074 11.4348 116.77
      vertex -14.1074 11.4348 91.385
    endloop
  endfacet
  facet normal 0 0 1
    outer loop
      vertex -3.4641 19 91.385
      vertex -14.1074 11.4348 91.385
      vertex -2.8491 17.9348 91.385
    endloop
  endfacet
  facet normal 0 -0 1
    outer loop
      vertex -14.1074 11.4348 91.385
      vertex -3.4641 19 91.385
      vertex -14.7224 12.5 91.385
    endloop
  endfacet
  facet normal -0.866023 -0.500004 0
    outer loop
      vertex -2.8491 17.9348 91.385
      vertex -3.4641 19 116.77
      vertex -3.4641 19 91.385
    endloop
  endfacet
  facet normal -0.866023 -0.500004 0
    outer loop
      vertex -3.4641 19 116.77
      vertex -2.8491 17.9348 91.385
      vertex -2.8491 17.9348 116.77
    endloop
  endfacet
  facet normal 0 0 -1
    outer loop
      vertex -18.1865 -6.5 116.77
      vertex -16.9565 6.5 116.77
      vertex -16.9565 -6.5 116.77
    endloop
  endfacet
  facet normal -0 0 -1
    outer loop
      vertex -16.9565 6.5 116.77
      vertex -18.1865 -6.5 116.77
      vertex -18.1865 6.5 116.77
    endloop
  endfacet
  facet normal 0 -1 0
    outer loop
      vertex -18.1865 6.5 91.385
      vertex -16.9565 6.5 116.77
      vertex -18.1865 6.5 116.77
    endloop
  endfacet
  facet normal 0 -1 -0
    outer loop
      vertex -16.9565 6.5 116.77
      vertex -18.1865 6.5 91.385
      vertex -16.9565 6.5 91.385
    endloop
  endfacet
  facet normal -0 0 1
    outer loop
      vertex -18.1865 6.5 91.385
      vertex -16.9565 -6.5 91.385
      vertex -16.9565 6.5 91.385
    endloop
  endfacet
  facet normal 0 0 1
    outer loop
      vertex -16.9565 -6.5 91.385
      vertex -18.1865 6.5 91.385
      vertex -18.1865 -6.5 91.385
    endloop
  endfacet
  facet normal 0 1 -0
    outer loop
      vertex -16.9565 -6.5 91.385
      vertex -18.1865 -6.5 116.77
      vertex -16.9565 -6.5 116.77
    endloop
  endfacet
  facet normal 0 1 0
    outer loop
      vertex -18.1865 -6.5 116.77
      vertex -16.9565 -6.5 91.385
      vertex -18.1865 -6.5 91.385
    endloop
  endfacet
  facet normal 0 0 -1
    outer loop
      vertex -3.4641 -19 116.77
      vertex -14.1074 -11.4348 116.77
      vertex -2.8491 -17.9348 116.77
    endloop
  endfacet
  facet normal 0 -0 -1
    outer loop
      vertex -14.1074 -11.4348 116.77
      vertex -3.4641 -19 116.77
      vertex -14.7224 -12.5 116.77
    endloop
  endfacet
  facet normal 0.866023 -0.500004 0
    outer loop
      vertex -14.7224 -12.5 116.77
      vertex -14.1074 -11.4348 91.385
      vertex -14.1074 -11.4348 116.77
    endloop
  endfacet
  facet normal 0.866023 -0.500004 0
    outer loop
      vertex -14.1074 -11.4348 91.385
      vertex -14.7224 -12.5 116.77
      vertex -14.7224 -12.5 91.385
    endloop
  endfacet
  facet normal 0 0 1
    outer loop
      vertex -14.1074 -11.4348 91.385
      vertex -3.4641 -19 91.385
      vertex -2.8491 -17.9348 91.385
    endloop
  endfacet
  facet normal 0 0 1
    outer loop
      vertex -3.4641 -19 91.385
      vertex -14.1074 -11.4348 91.385
      vertex -14.7224 -12.5 91.385
    endloop
  endfacet
  facet normal -0.866023 0.500004 0
    outer loop
      vertex -3.4641 -19 91.385
      vertex -2.8491 -17.9348 116.77
      vertex -2.8491 -17.9348 91.385
    endloop
  endfacet
  facet normal -0.866023 0.500004 0
    outer loop
      vertex -2.8491 -17.9348 116.77
      vertex -3.4641 -19 91.385
      vertex -3.4641 -19 116.77
    endloop
  endfacet
  facet normal 0 0 -1
    outer loop
      vertex 3.4641 -19 116.77
      vertex 14.1074 -11.4348 116.77
      vertex 14.7224 -12.5 116.77
    endloop
  endfacet
  facet normal 0 0 -1
    outer loop
      vertex 14.1074 -11.4348 116.77
      vertex 3.4641 -19 116.77
      vertex 2.8491 -17.9348 116.77
    endloop
  endfacet
  facet normal 0.866023 0.500004 0
    outer loop
      vertex 3.4641 -19 116.77
      vertex 2.8491 -17.9348 91.385
      vertex 2.8491 -17.9348 116.77
    endloop
  endfacet
  facet normal 0.866023 0.500004 0
    outer loop
      vertex 2.8491 -17.9348 91.385
      vertex 3.4641 -19 116.77
      vertex 3.4641 -19 91.385
    endloop
  endfacet
  facet normal 0 0 1
    outer loop
      vertex 14.1074 -11.4348 91.385
      vertex 3.4641 -19 91.385
      vertex 14.7224 -12.5 91.385
    endloop
  endfacet
  facet normal 0 -0 1
    outer loop
      vertex 3.4641 -19 91.385
      vertex 14.1074 -11.4348 91.385
      vertex 2.8491 -17.9348 91.385
    endloop
  endfacet
  facet normal -0.866023 -0.500004 0
    outer loop
      vertex 14.7224 -12.5 91.385
      vertex 14.1074 -11.4348 116.77
      vertex 14.1074 -11.4348 91.385
    endloop
  endfacet
  facet normal -0.866023 -0.500004 0
    outer loop
      vertex 14.1074 -11.4348 116.77
      vertex 14.7224 -12.5 91.385
      vertex 14.7224 -12.5 116.77
    endloop
  endfacet
  facet normal 0 0 -1
    outer loop
      vertex 16.9565 -6.5 116.77
      vertex 18.1865 6.5 116.77
      vertex 18.1865 -6.5 116.77
    endloop
  endfacet
  facet normal -0 0 -1
    outer loop
      vertex 18.1865 6.5 116.77
      vertex 16.9565 -6.5 116.77
      vertex 16.9565 6.5 116.77
    endloop
  endfacet
  facet normal -0 0 1
    outer loop
      vertex 16.9565 6.5 91.385
      vertex 18.1865 -6.5 91.385
      vertex 18.1865 6.5 91.385
    endloop
  endfacet
  facet normal 0 0 1
    outer loop
      vertex 18.1865 -6.5 91.385
      vertex 16.9565 6.5 91.385
      vertex 16.9565 -6.5 91.385
    endloop
  endfacet
  facet normal 0 1 -0
    outer loop
      vertex 18.1865 -6.5 91.385
      vertex 16.9565 -6.5 116.77
      vertex 18.1865 -6.5 116.77
    endloop
  endfacet
  facet normal 0 1 0
    outer loop
      vertex 16.9565 -6.5 116.77
      vertex 18.1865 -6.5 91.385
      vertex 16.9565 -6.5 91.385
    endloop
  endfacet
  facet normal 0 -1 0
    outer loop
      vertex 16.9565 6.5 91.385
      vertex 18.1865 6.5 116.77
      vertex 16.9565 6.5 116.77
    endloop
  endfacet
  facet normal 0 -1 -0
    outer loop
      vertex 18.1865 6.5 116.77
      vertex 16.9565 6.5 91.385
      vertex 18.1865 6.5 91.385
    endloop
  endfacet
  facet normal 0.500001 0.866025 -7.44586e-07
    outer loop
      vertex 18.1865 10.5 120
      vertex 14.7224 12.5 116.77
      vertex 2.52615e-07 21 120
    endloop
  endfacet
  facet normal 0.5 0.866025 0
    outer loop
      vertex 18.1865 10.5 120
      vertex 14.7224 12.5 91.385
      vertex 14.7224 12.5 116.77
    endloop
  endfacet
  facet normal 0.500001 0.866025 0
    outer loop
      vertex 14.7224 12.5 91.385
      vertex 14.7224 12.5 87.385
      vertex 3.4641 19 91.385
    endloop
  endfacet
  facet normal 0.5 0.866025 0
    outer loop
      vertex 18.1865 10.5 120
      vertex 14.7224 12.5 87.385
      vertex 14.7224 12.5 91.385
    endloop
  endfacet
  facet normal 0.5 0.866025 0
    outer loop
      vertex 18.1865 10.5 120
      vertex 14.7224 12.5 62
      vertex 14.7224 12.5 87.385
    endloop
  endfacet
  facet normal 0.500001 0.866025 0
    outer loop
      vertex 14.7224 12.5 62
      vertex 14.7224 12.5 58
      vertex 3.4641 19 62
    endloop
  endfacet
  facet normal 0.5 0.866025 0
    outer loop
      vertex 18.1865 10.5 120
      vertex 14.7224 12.5 58
      vertex 14.7224 12.5 62
    endloop
  endfacet
  facet normal 0.5 0.866025 -0
    outer loop
      vertex 18.1865 10.5 0
      vertex 14.7224 12.5 58
      vertex 18.1865 10.5 120
    endloop
  endfacet
  facet normal 0.500001 0.866025 0
    outer loop
      vertex 14.7224 12.5 32.615
      vertex 14.7224 12.5 28.615
      vertex 3.4641 19 32.615
    endloop
  endfacet
  facet normal 0.5 0.866025 0
    outer loop
      vertex 14.7224 12.5 58
      vertex 18.1865 10.5 0
      vertex 14.7224 12.5 32.615
    endloop
  endfacet
  facet normal 0.5 0.866025 0
    outer loop
      vertex 14.7224 12.5 32.615
      vertex 18.1865 10.5 0
      vertex 14.7224 12.5 28.615
    endloop
  endfacet
  facet normal 0.500001 0.866025 1.19076e-06
    outer loop
      vertex 14.7224 12.5 3.23
      vertex 18.1865 10.5 0
      vertex 3.4641 19 3.23
    endloop
  endfacet
  facet normal 0.5 0.866025 0
    outer loop
      vertex 14.7224 12.5 28.615
      vertex 18.1865 10.5 0
      vertex 14.7224 12.5 3.23
    endloop
  endfacet
  facet normal 0.500001 0.866025 1.15166e-06
    outer loop
      vertex 3.4641 19 116.77
      vertex 2.52615e-07 21 120
      vertex 14.7224 12.5 116.77
    endloop
  endfacet
  facet normal 0.5 0.866025 -0
    outer loop
      vertex 3.4641 19 91.385
      vertex 2.52615e-07 21 120
      vertex 3.4641 19 116.77
    endloop
  endfacet
  facet normal 0.500001 0.866025 -0
    outer loop
      vertex 3.4641 19 87.385
      vertex 3.4641 19 91.385
      vertex 14.7224 12.5 87.385
    endloop
  endfacet
  facet normal 0.5 0.866025 -0
    outer loop
      vertex 3.4641 19 87.385
      vertex 2.52615e-07 21 120
      vertex 3.4641 19 91.385
    endloop
  endfacet
  facet normal 0.5 0.866025 -0
    outer loop
      vertex 3.4641 19 62
      vertex 2.52615e-07 21 120
      vertex 3.4641 19 87.385
    endloop
  endfacet
  facet normal 0.500001 0.866025 -0
    outer loop
      vertex 3.4641 19 58
      vertex 3.4641 19 62
      vertex 14.7224 12.5 58
    endloop
  endfacet
  facet normal 0.5 0.866025 -0
    outer loop
      vertex 3.4641 19 58
      vertex 2.52615e-07 21 120
      vertex 3.4641 19 62
    endloop
  endfacet
  facet normal 0.5 0.866025 0
    outer loop
      vertex 2.52615e-07 21 0
      vertex 3.4641 19 58
      vertex 3.4641 19 32.615
    endloop
  endfacet
  facet normal 0.500001 0.866025 -0
    outer loop
      vertex 3.4641 19 28.615
      vertex 3.4641 19 32.615
      vertex 14.7224 12.5 28.615
    endloop
  endfacet
  facet normal 0.5 0.866025 0
    outer loop
      vertex 2.52615e-07 21 0
      vertex 3.4641 19 32.615
      vertex 3.4641 19 28.615
    endloop
  endfacet
  facet normal 0.5 0.866025 0
    outer loop
      vertex 2.52615e-07 21 0
      vertex 3.4641 19 28.615
      vertex 3.4641 19 3.23
    endloop
  endfacet
  facet normal 0.5 0.866025 0
    outer loop
      vertex 3.4641 19 58
      vertex 2.52615e-07 21 0
      vertex 2.52615e-07 21 120
    endloop
  endfacet
  facet normal 0.500001 0.866025 -7.05482e-07
    outer loop
      vertex 2.52615e-07 21 0
      vertex 3.4641 19 3.23
      vertex 18.1865 10.5 0
    endloop
  endfacet
  facet normal -1 0 0
    outer loop
      vertex -18.1865 -6.5 87.385
      vertex -18.1865 6.5 91.385
      vertex -18.1865 6.5 87.385
    endloop
  endfacet
  facet normal -1 -0 0
    outer loop
      vertex -18.1865 6.5 91.385
      vertex -18.1865 -6.5 87.385
      vertex -18.1865 -6.5 91.385
    endloop
  endfacet
  facet normal -1 0 0
    outer loop
      vertex -18.1865 -6.5 58
      vertex -18.1865 6.5 62
      vertex -18.1865 6.5 58
    endloop
  endfacet
  facet normal -1 -0 0
    outer loop
      vertex -18.1865 6.5 62
      vertex -18.1865 -6.5 58
      vertex -18.1865 -6.5 62
    endloop
  endfacet
  facet normal -1 0 0
    outer loop
      vertex -18.1865 -6.5 28.615
      vertex -18.1865 6.5 32.615
      vertex -18.1865 6.5 28.615
    endloop
  endfacet
  facet normal -1 -0 0
    outer loop
      vertex -18.1865 6.5 32.615
      vertex -18.1865 -6.5 28.615
      vertex -18.1865 -6.5 32.615
    endloop
  endfacet
  facet normal -1 0 0
    outer loop
      vertex -18.1865 6.5 28.615
      vertex -18.1865 10.5 0
      vertex -18.1865 6.5 3.23
    endloop
  endfacet
  facet normal -1 0 0
    outer loop
      vertex -18.1865 10.5 0
      vertex -18.1865 -6.5 3.23
      vertex -18.1865 6.5 3.23
    endloop
  endfacet
  facet normal -1 0 0
    outer loop
      vertex -18.1865 -10.5 0
      vertex -18.1865 -6.5 28.615
      vertex -18.1865 -6.5 3.23
    endloop
  endfacet
  facet normal -1 -0 0
    outer loop
      vertex -18.1865 -6.5 28.615
      vertex -18.1865 -10.5 0
      vertex -18.1865 -6.5 32.615
    endloop
  endfacet
  facet normal -1 -0 0
    outer loop
      vertex -18.1865 -6.5 32.615
      vertex -18.1865 -10.5 0
      vertex -18.1865 -6.5 58
    endloop
  endfacet
  facet normal -1 -0 0
    outer loop
      vertex -18.1865 -6.5 58
      vertex -18.1865 -10.5 0
      vertex -18.1865 -6.5 62
    endloop
  endfacet
  facet normal -1 0 0
    outer loop
      vertex -18.1865 -10.5 120
      vertex -18.1865 -6.5 62
      vertex -18.1865 -10.5 0
    endloop
  endfacet
  facet normal -1 0 0
    outer loop
      vertex -18.1865 -6.5 62
      vertex -18.1865 -10.5 120
      vertex -18.1865 -6.5 87.385
    endloop
  endfacet
  facet normal -1 0 0
    outer loop
      vertex -18.1865 -6.5 87.385
      vertex -18.1865 -10.5 120
      vertex -18.1865 -6.5 91.385
    endloop
  endfacet
  facet normal -1 0 0
    outer loop
      vertex -18.1865 -10.5 0
      vertex -18.1865 -6.5 3.23
      vertex -18.1865 10.5 0
    endloop
  endfacet
  facet normal -1 0 0
    outer loop
      vertex -18.1865 6.5 32.615
      vertex -18.1865 10.5 0
      vertex -18.1865 6.5 28.615
    endloop
  endfacet
  facet normal -1 0 0
    outer loop
      vertex -18.1865 6.5 58
      vertex -18.1865 10.5 0
      vertex -18.1865 6.5 32.615
    endloop
  endfacet
  facet normal -1 0 0
    outer loop
      vertex -18.1865 10.5 0
      vertex -18.1865 6.5 58
      vertex -18.1865 10.5 120
    endloop
  endfacet
  facet normal -1 0 0
    outer loop
      vertex -18.1865 6.5 62
      vertex -18.1865 10.5 120
      vertex -18.1865 6.5 58
    endloop
  endfacet
  facet normal -1 0 0
    outer loop
      vertex -18.1865 6.5 87.385
      vertex -18.1865 10.5 120
      vertex -18.1865 6.5 62
    endloop
  endfacet
  facet normal -1 0 0
    outer loop
      vertex -18.1865 6.5 91.385
      vertex -18.1865 10.5 120
      vertex -18.1865 6.5 87.385
    endloop
  endfacet
  facet normal -1 0 0
    outer loop
      vertex -18.1865 6.5 116.77
      vertex -18.1865 10.5 120
      vertex -18.1865 6.5 91.385
    endloop
  endfacet
  facet normal -1 0 0
    outer loop
      vertex -18.1865 -6.5 116.77
      vertex -18.1865 10.5 120
      vertex -18.1865 6.5 116.77
    endloop
  endfacet
  facet normal -1 0 0
    outer loop
      vertex -18.1865 -6.5 116.77
      vertex -18.1865 -10.5 120
      vertex -18.1865 10.5 120
    endloop
  endfacet
  facet normal -1 0 0
    outer loop
      vertex -18.1865 -6.5 91.385
      vertex -18.1865 -10.5 120
      vertex -18.1865 -6.5 116.77
    endloop
  endfacet
  facet normal -0.500001 0.866025 7.68794e-07
    outer loop
      vertex 2.52615e-07 21 120
      vertex -3.4641 19 116.77
      vertex -18.1865 10.5 120
    endloop
  endfacet
  facet normal -0.5 0.866025 0
    outer loop
      vertex 2.52615e-07 21 120
      vertex -3.4641 19 91.385
      vertex -3.4641 19 116.77
    endloop
  endfacet
  facet normal -0.500001 0.866025 0
    outer loop
      vertex -3.4641 19 91.385
      vertex -3.4641 19 87.385
      vertex -14.7224 12.5 91.385
    endloop
  endfacet
  facet normal -0.5 0.866025 0
    outer loop
      vertex 2.52615e-07 21 120
      vertex -3.4641 19 87.385
      vertex -3.4641 19 91.385
    endloop
  endfacet
  facet normal -0.5 0.866025 0
    outer loop
      vertex 2.52615e-07 21 120
      vertex -3.4641 19 62
      vertex -3.4641 19 87.385
    endloop
  endfacet
  facet normal -0.500001 0.866025 0
    outer loop
      vertex -3.4641 19 62
      vertex -3.4641 19 58
      vertex -14.7224 12.5 62
    endloop
  endfacet
  facet normal -0.5 0.866025 0
    outer loop
      vertex 2.52615e-07 21 120
      vertex -3.4641 19 58
      vertex -3.4641 19 62
    endloop
  endfacet
  facet normal -0.5 0.866025 0
    outer loop
      vertex 2.52615e-07 21 0
      vertex -3.4641 19 58
      vertex 2.52615e-07 21 120
    endloop
  endfacet
  facet normal -0.500001 0.866025 0
    outer loop
      vertex -3.4641 19 32.615
      vertex -3.4641 19 28.615
      vertex -14.7224 12.5 32.615
    endloop
  endfacet
  facet normal -0.5 0.866025 0
    outer loop
      vertex -3.4641 19 58
      vertex 2.52615e-07 21 0
      vertex -3.4641 19 32.615
    endloop
  endfacet
  facet normal -0.5 0.866025 0
    outer loop
      vertex -3.4641 19 32.615
      vertex 2.52615e-07 21 0
      vertex -3.4641 19 28.615
    endloop
  endfacet
  facet normal -0.500001 0.866025 -1.22987e-06
    outer loop
      vertex -3.4641 19 3.23
      vertex 2.52615e-07 21 0
      vertex -14.7224 12.5 3.23
    endloop
  endfacet
  facet normal -0.5 0.866025 0
    outer loop
      vertex -3.4641 19 28.615
      vertex 2.52615e-07 21 0
      vertex -3.4641 19 3.23
    endloop
  endfacet
  facet normal -0.500001 0.866025 -1.19076e-06
    outer loop
      vertex -14.7224 12.5 116.77
      vertex -18.1865 10.5 120
      vertex -3.4641 19 116.77
    endloop
  endfacet
  facet normal -0.5 0.866025 0
    outer loop
      vertex -14.7224 12.5 91.385
      vertex -18.1865 10.5 120
      vertex -14.7224 12.5 116.77
    endloop
  endfacet
  facet normal -0.500001 0.866025 0
    outer loop
      vertex -14.7224 12.5 87.385
      vertex -14.7224 12.5 91.385
      vertex -3.4641 19 87.385
    endloop
  endfacet
  facet normal -0.5 0.866025 0
    outer loop
      vertex -14.7224 12.5 87.385
      vertex -18.1865 10.5 120
      vertex -14.7224 12.5 91.385
    endloop
  endfacet
  facet normal -0.5 0.866025 0
    outer loop
      vertex -14.7224 12.5 62
      vertex -18.1865 10.5 120
      vertex -14.7224 12.5 87.385
    endloop
  endfacet
  facet normal -0.500001 0.866025 0
    outer loop
      vertex -14.7224 12.5 58
      vertex -14.7224 12.5 62
      vertex -3.4641 19 58
    endloop
  endfacet
  facet normal -0.5 0.866025 0
    outer loop
      vertex -14.7224 12.5 58
      vertex -18.1865 10.5 120
      vertex -14.7224 12.5 62
    endloop
  endfacet
  facet normal -0.5 0.866025 0
    outer loop
      vertex -18.1865 10.5 0
      vertex -14.7224 12.5 58
      vertex -14.7224 12.5 32.615
    endloop
  endfacet
  facet normal -0.500001 0.866025 0
    outer loop
      vertex -14.7224 12.5 28.615
      vertex -14.7224 12.5 32.615
      vertex -3.4641 19 28.615
    endloop
  endfacet
  facet normal -0.5 0.866025 0
    outer loop
      vertex -18.1865 10.5 0
      vertex -14.7224 12.5 32.615
      vertex -14.7224 12.5 28.615
    endloop
  endfacet
  facet normal -0.5 0.866025 0
    outer loop
      vertex -18.1865 10.5 0
      vertex -14.7224 12.5 28.615
      vertex -14.7224 12.5 3.23
    endloop
  endfacet
  facet normal -0.5 0.866025 0
    outer loop
      vertex -14.7224 12.5 58
      vertex -18.1865 10.5 0
      vertex -18.1865 10.5 120
    endloop
  endfacet
  facet normal -0.500001 0.866025 7.29689e-07
    outer loop
      vertex -18.1865 10.5 0
      vertex -14.7224 12.5 3.23
      vertex 2.52615e-07 21 0
    endloop
  endfacet
  facet normal -0.500001 -0.866025 -7.44586e-07
    outer loop
      vertex -18.1865 -10.5 120
      vertex -14.7224 -12.5 116.77
      vertex -2.52615e-07 -21 120
    endloop
  endfacet
  facet normal -0.5 -0.866025 0
    outer loop
      vertex -18.1865 -10.5 120
      vertex -14.7224 -12.5 91.385
      vertex -14.7224 -12.5 116.77
    endloop
  endfacet
  facet normal -0.500001 -0.866025 -0
    outer loop
      vertex -14.7224 -12.5 91.385
      vertex -14.7224 -12.5 87.385
      vertex -3.4641 -19 91.385
    endloop
  endfacet
  facet normal -0.5 -0.866025 0
    outer loop
      vertex -18.1865 -10.5 120
      vertex -14.7224 -12.5 87.385
      vertex -14.7224 -12.5 91.385
    endloop
  endfacet
  facet normal -0.5 -0.866025 0
    outer loop
      vertex -18.1865 -10.5 120
      vertex -14.7224 -12.5 62
      vertex -14.7224 -12.5 87.385
    endloop
  endfacet
  facet normal -0.500001 -0.866025 -0
    outer loop
      vertex -14.7224 -12.5 62
      vertex -14.7224 -12.5 58
      vertex -3.4641 -19 62
    endloop
  endfacet
  facet normal -0.5 -0.866025 0
    outer loop
      vertex -18.1865 -10.5 120
      vertex -14.7224 -12.5 58
      vertex -14.7224 -12.5 62
    endloop
  endfacet
  facet normal -0.5 -0.866025 0
    outer loop
      vertex -18.1865 -10.5 0
      vertex -14.7224 -12.5 58
      vertex -18.1865 -10.5 120
    endloop
  endfacet
  facet normal -0.500001 -0.866025 -0
    outer loop
      vertex -14.7224 -12.5 32.615
      vertex -14.7224 -12.5 28.615
      vertex -3.4641 -19 32.615
    endloop
  endfacet
  facet normal -0.5 -0.866025 -0
    outer loop
      vertex -14.7224 -12.5 58
      vertex -18.1865 -10.5 0
      vertex -14.7224 -12.5 32.615
    endloop
  endfacet
  facet normal -0.5 -0.866025 -0
    outer loop
      vertex -14.7224 -12.5 32.615
      vertex -18.1865 -10.5 0
      vertex -14.7224 -12.5 28.615
    endloop
  endfacet
  facet normal -0.500001 -0.866025 1.19076e-06
    outer loop
      vertex -14.7224 -12.5 3.23
      vertex -18.1865 -10.5 0
      vertex -3.4641 -19 3.23
    endloop
  endfacet
  facet normal -0.5 -0.866025 -0
    outer loop
      vertex -14.7224 -12.5 28.615
      vertex -18.1865 -10.5 0
      vertex -14.7224 -12.5 3.23
    endloop
  endfacet
  facet normal -0.500001 -0.866025 1.15166e-06
    outer loop
      vertex -3.4641 -19 116.77
      vertex -2.52615e-07 -21 120
      vertex -14.7224 -12.5 116.77
    endloop
  endfacet
  facet normal -0.5 -0.866025 0
    outer loop
      vertex -3.4641 -19 91.385
      vertex -2.52615e-07 -21 120
      vertex -3.4641 -19 116.77
    endloop
  endfacet
  facet normal -0.500001 -0.866025 0
    outer loop
      vertex -3.4641 -19 87.385
      vertex -3.4641 -19 91.385
      vertex -14.7224 -12.5 87.385
    endloop
  endfacet
  facet normal -0.5 -0.866025 0
    outer loop
      vertex -3.4641 -19 87.385
      vertex -2.52615e-07 -21 120
      vertex -3.4641 -19 91.385
    endloop
  endfacet
  facet normal -0.5 -0.866025 0
    outer loop
      vertex -3.4641 -19 62
      vertex -2.52615e-07 -21 120
      vertex -3.4641 -19 87.385
    endloop
  endfacet
  facet normal -0.500001 -0.866025 0
    outer loop
      vertex -3.4641 -19 58
      vertex -3.4641 -19 62
      vertex -14.7224 -12.5 58
    endloop
  endfacet
  facet normal -0.5 -0.866025 0
    outer loop
      vertex -3.4641 -19 58
      vertex -2.52615e-07 -21 120
      vertex -3.4641 -19 62
    endloop
  endfacet
  facet normal -0.5 -0.866025 0
    outer loop
      vertex -2.52615e-07 -21 0
      vertex -3.4641 -19 58
      vertex -3.4641 -19 32.615
    endloop
  endfacet
  facet normal -0.500001 -0.866025 0
    outer loop
      vertex -3.4641 -19 28.615
      vertex -3.4641 -19 32.615
      vertex -14.7224 -12.5 28.615
    endloop
  endfacet
  facet normal -0.5 -0.866025 0
    outer loop
      vertex -2.52615e-07 -21 0
      vertex -3.4641 -19 32.615
      vertex -3.4641 -19 28.615
    endloop
  endfacet
  facet normal -0.5 -0.866025 0
    outer loop
      vertex -2.52615e-07 -21 0
      vertex -3.4641 -19 28.615
      vertex -3.4641 -19 3.23
    endloop
  endfacet
  facet normal -0.5 -0.866025 0
    outer loop
      vertex -3.4641 -19 58
      vertex -2.52615e-07 -21 0
      vertex -2.52615e-07 -21 120
    endloop
  endfacet
  facet normal -0.500001 -0.866025 -7.05482e-07
    outer loop
      vertex -2.52615e-07 -21 0
      vertex -3.4641 -19 3.23
      vertex -18.1865 -10.5 0
    endloop
  endfacet
  facet normal 0 0 1
    outer loop
      vertex 18.1865 10.5 120
      vertex 16.9565 9.78986 120
      vertex 18.1865 -10.5 120
    endloop
  endfacet
  facet normal 0 0 1
    outer loop
      vertex 2.52615e-07 21 120
      vertex 16.9565 9.78986 120
      vertex 18.1865 10.5 120
    endloop
  endfacet
  facet normal 0 0 1
    outer loop
      vertex 2.52615e-07 21 120
      vertex -2.80105e-07 19.5797 120
      vertex 16.9565 9.78986 120
    endloop
  endfacet
  facet normal 0 0 1
    outer loop
      vertex 2.52615e-07 21 120
      vertex -16.9565 9.78986 120
      vertex -2.80105e-07 19.5797 120
    endloop
  endfacet
  facet normal 0 0 1
    outer loop
      vertex -16.9565 9.78986 120
      vertex -18.1865 10.5 120
      vertex -16.9565 -9.78986 120
    endloop
  endfacet
  facet normal -0 0 1
    outer loop
      vertex -18.1865 10.5 120
      vertex -16.9565 9.78986 120
      vertex 2.52615e-07 21 120
    endloop
  endfacet
  facet normal -0 0 1
    outer loop
      vertex 16.9565 -9.78986 120
      vertex 18.1865 -10.5 120
      vertex 16.9565 9.78986 120
    endloop
  endfacet
  facet normal 0 0 1
    outer loop
      vertex 2.80105e-07 -19.5797 120
      vertex 18.1865 -10.5 120
      vertex 16.9565 -9.78986 120
    endloop
  endfacet
  facet normal -0 0 1
    outer loop
      vertex 2.80105e-07 -19.5797 120
      vertex -2.52615e-07 -21 120
      vertex 18.1865 -10.5 120
    endloop
  endfacet
  facet normal 0 0 1
    outer loop
      vertex -16.9565 -9.78986 120
      vertex -2.52615e-07 -21 120
      vertex 2.80105e-07 -19.5797 120
    endloop
  endfacet
  facet normal 0 0 1
    outer loop
      vertex -16.9565 -9.78986 120
      vertex -18.1865 -10.5 120
      vertex -2.52615e-07 -21 120
    endloop
  endfacet
  facet normal 0 0 1
    outer loop
      vertex -18.1865 -10.5 120
      vertex -16.9565 -9.78986 120
      vertex -18.1865 10.5 120
    endloop
  endfacet
  facet normal 1 -0 0
    outer loop
      vertex 18.1865 -6.5 32.615
      vertex 18.1865 6.5 28.615
      vertex 18.1865 6.5 32.615
    endloop
  endfacet
  facet normal 1 0 0
    outer loop
      vertex 18.1865 6.5 28.615
      vertex 18.1865 -6.5 32.615
      vertex 18.1865 -6.5 28.615
    endloop
  endfacet
  facet normal 1 -0 0
    outer loop
      vertex 18.1865 -6.5 62
      vertex 18.1865 6.5 58
      vertex 18.1865 6.5 62
    endloop
  endfacet
  facet normal 1 0 0
    outer loop
      vertex 18.1865 6.5 58
      vertex 18.1865 -6.5 62
      vertex 18.1865 -6.5 58
    endloop
  endfacet
  facet normal 1 -0 0
    outer loop
      vertex 18.1865 -6.5 91.385
      vertex 18.1865 6.5 87.385
      vertex 18.1865 6.5 91.385
    endloop
  endfacet
  facet normal 1 0 0
    outer loop
      vertex 18.1865 6.5 87.385
      vertex 18.1865 -6.5 91.385
      vertex 18.1865 -6.5 87.385
    endloop
  endfacet
  facet normal 1 0 0
    outer loop
      vertex 18.1865 6.5 91.385
      vertex 18.1865 10.5 120
      vertex 18.1865 6.5 116.77
    endloop
  endfacet
  facet normal 1 0 0
    outer loop
      vertex 18.1865 10.5 120
      vertex 18.1865 -6.5 116.77
      vertex 18.1865 6.5 116.77
    endloop
  endfacet
  facet normal 1 0 0
    outer loop
      vertex 18.1865 -10.5 120
      vertex 18.1865 -6.5 91.385
      vertex 18.1865 -6.5 116.77
    endloop
  endfacet
  facet normal 1 0 0
    outer loop
      vertex 18.1865 -6.5 91.385
      vertex 18.1865 -10.5 120
      vertex 18.1865 -6.5 87.385
    endloop
  endfacet
  facet normal 1 0 0
    outer loop
      vertex 18.1865 -6.5 87.385
      vertex 18.1865 -10.5 120
      vertex 18.1865 -6.5 62
    endloop
  endfacet
  facet normal 1 0 0
    outer loop
      vertex 18.1865 -6.5 62
      vertex 18.1865 -10.5 120
      vertex 18.1865 -6.5 58
    endloop
  endfacet
  facet normal 1 0 0
    outer loop
      vertex 18.1865 -10.5 0
      vertex 18.1865 -6.5 58
      vertex 18.1865 -10.5 120
    endloop
  endfacet
  facet normal 1 0 0
    outer loop
      vertex 18.1865 -6.5 58
      vertex 18.1865 -10.5 0
      vertex 18.1865 -6.5 32.615
    endloop
  endfacet
  facet normal 1 0 0
    outer loop
      vertex 18.1865 -6.5 32.615
      vertex 18.1865 -10.5 0
      vertex 18.1865 -6.5 28.615
    endloop
  endfacet
  facet normal 1 -0 0
    outer loop
      vertex 18.1865 -10.5 120
      vertex 18.1865 -6.5 116.77
      vertex 18.1865 10.5 120
    endloop
  endfacet
  facet normal 1 0 0
    outer loop
      vertex 18.1865 6.5 87.385
      vertex 18.1865 10.5 120
      vertex 18.1865 6.5 91.385
    endloop
  endfacet
  facet normal 1 0 0
    outer loop
      vertex 18.1865 6.5 62
      vertex 18.1865 10.5 120
      vertex 18.1865 6.5 87.385
    endloop
  endfacet
  facet normal 1 0 0
    outer loop
      vertex 18.1865 10.5 120
      vertex 18.1865 6.5 62
      vertex 18.1865 10.5 0
    endloop
  endfacet
  facet normal 1 -0 0
    outer loop
      vertex 18.1865 6.5 58
      vertex 18.1865 10.5 0
      vertex 18.1865 6.5 62
    endloop
  endfacet
  facet normal 1 -0 0
    outer loop
      vertex 18.1865 6.5 32.615
      vertex 18.1865 10.5 0
      vertex 18.1865 6.5 58
    endloop
  endfacet
  facet normal 1 -0 0
    outer loop
      vertex 18.1865 6.5 28.615
      vertex 18.1865 10.5 0
      vertex 18.1865 6.5 32.615
    endloop
  endfacet
  facet normal 1 -0 0
    outer loop
      vertex 18.1865 6.5 3.23
      vertex 18.1865 10.5 0
      vertex 18.1865 6.5 28.615
    endloop
  endfacet
  facet normal 1 -0 0
    outer loop
      vertex 18.1865 -6.5 3.23
      vertex 18.1865 10.5 0
      vertex 18.1865 6.5 3.23
    endloop
  endfacet
  facet normal 1 0 0
    outer loop
      vertex 18.1865 -6.5 3.23
      vertex 18.1865 -10.5 0
      vertex 18.1865 10.5 0
    endloop
  endfacet
  facet normal 1 0 0
    outer loop
      vertex 18.1865 -6.5 28.615
      vertex 18.1865 -10.5 0
      vertex 18.1865 -6.5 3.23
    endloop
  endfacet
  facet normal 0 0 -1
    outer loop
      vertex 18.1865 -10.5 0
      vertex 2.52615e-07 21 0
      vertex 18.1865 10.5 0
    endloop
  endfacet
  facet normal 0 0 -1
    outer loop
      vertex -2.52615e-07 -21 0
      vertex 2.52615e-07 21 0
      vertex 18.1865 -10.5 0
    endloop
  endfacet
  facet normal 0 0 -1
    outer loop
      vertex -18.1865 -10.5 0
      vertex 2.52615e-07 21 0
      vertex -2.52615e-07 -21 0
    endloop
  endfacet
  facet normal 0 0 -1
    outer loop
      vertex 2.52615e-07 21 0
      vertex -18.1865 -10.5 0
      vertex -18.1865 10.5 0
    endloop
  endfacet
  facet normal 0.500001 -0.866025 7.68794e-07
    outer loop
      vertex -2.52615e-07 -21 120
      vertex 3.4641 -19 116.77
      vertex 18.1865 -10.5 120
    endloop
  endfacet
  facet normal 0.5 -0.866025 0
    outer loop
      vertex -2.52615e-07 -21 120
      vertex 3.4641 -19 91.385
      vertex 3.4641 -19 116.77
    endloop
  endfacet
  facet normal 0.500001 -0.866025 0
    outer loop
      vertex 3.4641 -19 91.385
      vertex 3.4641 -19 87.385
      vertex 14.7224 -12.5 91.385
    endloop
  endfacet
  facet normal 0.5 -0.866025 0
    outer loop
      vertex -2.52615e-07 -21 120
      vertex 3.4641 -19 87.385
      vertex 3.4641 -19 91.385
    endloop
  endfacet
  facet normal 0.5 -0.866025 0
    outer loop
      vertex -2.52615e-07 -21 120
      vertex 3.4641 -19 62
      vertex 3.4641 -19 87.385
    endloop
  endfacet
  facet normal 0.500001 -0.866025 0
    outer loop
      vertex 3.4641 -19 62
      vertex 3.4641 -19 58
      vertex 14.7224 -12.5 62
    endloop
  endfacet
  facet normal 0.5 -0.866025 0
    outer loop
      vertex -2.52615e-07 -21 120
      vertex 3.4641 -19 58
      vertex 3.4641 -19 62
    endloop
  endfacet
  facet normal 0.5 -0.866025 0
    outer loop
      vertex -2.52615e-07 -21 0
      vertex 3.4641 -19 58
      vertex -2.52615e-07 -21 120
    endloop
  endfacet
  facet normal 0.500001 -0.866025 0
    outer loop
      vertex 3.4641 -19 32.615
      vertex 3.4641 -19 28.615
      vertex 14.7224 -12.5 32.615
    endloop
  endfacet
  facet normal 0.5 -0.866025 0
    outer loop
      vertex 3.4641 -19 58
      vertex -2.52615e-07 -21 0
      vertex 3.4641 -19 32.615
    endloop
  endfacet
  facet normal 0.5 -0.866025 0
    outer loop
      vertex 3.4641 -19 32.615
      vertex -2.52615e-07 -21 0
      vertex 3.4641 -19 28.615
    endloop
  endfacet
  facet normal 0.500001 -0.866025 -1.22987e-06
    outer loop
      vertex 3.4641 -19 3.23
      vertex -2.52615e-07 -21 0
      vertex 14.7224 -12.5 3.23
    endloop
  endfacet
  facet normal 0.5 -0.866025 0
    outer loop
      vertex 3.4641 -19 28.615
      vertex -2.52615e-07 -21 0
      vertex 3.4641 -19 3.23
    endloop
  endfacet
  facet normal 0.500001 -0.866025 -1.19076e-06
    outer loop
      vertex 14.7224 -12.5 116.77
      vertex 18.1865 -10.5 120
      vertex 3.4641 -19 116.77
    endloop
  endfacet
  facet normal 0.5 -0.866025 0
    outer loop
      vertex 14.7224 -12.5 91.385
      vertex 18.1865 -10.5 120
      vertex 14.7224 -12.5 116.77
    endloop
  endfacet
  facet normal 0.500001 -0.866025 0
    outer loop
      vertex 14.7224 -12.5 87.385
      vertex 14.7224 -12.5 91.385
      vertex 3.4641 -19 87.385
    endloop
  endfacet
  facet normal 0.5 -0.866025 0
    outer loop
      vertex 14.7224 -12.5 87.385
      vertex 18.1865 -10.5 120
      vertex 14.7224 -12.5 91.385
    endloop
  endfacet
  facet normal 0.5 -0.866025 0
    outer loop
      vertex 14.7224 -12.5 62
      vertex 18.1865 -10.5 120
      vertex 14.7224 -12.5 87.385
    endloop
  endfacet
  facet normal 0.500001 -0.866025 0
    outer loop
      vertex 14.7224 -12.5 58
      vertex 14.7224 -12.5 62
      vertex 3.4641 -19 58
    endloop
  endfacet
  facet normal 0.5 -0.866025 0
    outer loop
      vertex 14.7224 -12.5 58
      vertex 18.1865 -10.5 120
      vertex 14.7224 -12.5 62
    endloop
  endfacet
  facet normal 0.5 -0.866025 0
    outer loop
      vertex 18.1865 -10.5 0
      vertex 14.7224 -12.5 58
      vertex 14.7224 -12.5 32.615
    endloop
  endfacet
  facet normal 0.500001 -0.866025 0
    outer loop
      vertex 14.7224 -12.5 28.615
      vertex 14.7224 -12.5 32.615
      vertex 3.4641 -19 28.615
    endloop
  endfacet
  facet normal 0.5 -0.866025 0
    outer loop
      vertex 18.1865 -10.5 0
      vertex 14.7224 -12.5 32.615
      vertex 14.7224 -12.5 28.615
    endloop
  endfacet
  facet normal 0.5 -0.866025 0
    outer loop
      vertex 18.1865 -10.5 0
      vertex 14.7224 -12.5 28.615
      vertex 14.7224 -12.5 3.23
    endloop
  endfacet
  facet normal 0.5 -0.866025 0
    outer loop
      vertex 14.7224 -12.5 58
      vertex 18.1865 -10.5 0
      vertex 18.1865 -10.5 120
    endloop
  endfacet
  facet normal 0.500001 -0.866025 7.29689e-07
    outer loop
      vertex 18.1865 -10.5 0
      vertex 14.7224 -12.5 3.23
      vertex -2.52615e-07 -21 0
    endloop
  endfacet
  facet normal -0.5 -0.866025 -7.72545e-06
    outer loop
      vertex -2.80105e-07 19.5797 120
      vertex 2.8491 17.9348 116.77
      vertex 16.9565 9.78986 120
    endloop
  endfacet
  facet normal -0.499993 -0.866029 0
    outer loop
      vertex -2.80105e-07 19.5797 120
      vertex 2.8491 17.9348 91.385
      vertex 2.8491 17.9348 116.77
    endloop
  endfacet
  facet normal -0.500001 -0.866025 -0
    outer loop
      vertex 2.8491 17.9348 91.385
      vertex 2.8491 17.9348 87.385
      vertex 14.1074 11.4348 91.385
    endloop
  endfacet
  facet normal -0.499993 -0.866029 0
    outer loop
      vertex -2.80105e-07 19.5797 120
      vertex 2.8491 17.9348 87.385
      vertex 2.8491 17.9348 91.385
    endloop
  endfacet
  facet normal -0.499993 -0.866029 0
    outer loop
      vertex -2.80105e-07 19.5797 120
      vertex 2.8491 17.9348 62
      vertex 2.8491 17.9348 87.385
    endloop
  endfacet
  facet normal -0.500001 -0.866025 -0
    outer loop
      vertex 2.8491 17.9348 62
      vertex 2.8491 17.9348 58
      vertex 14.1074 11.4348 62
    endloop
  endfacet
  facet normal -0.499993 -0.866029 0
    outer loop
      vertex -2.80105e-07 19.5797 120
      vertex 2.8491 17.9348 58
      vertex 2.8491 17.9348 62
    endloop
  endfacet
  facet normal -0.499993 -0.866029 0
    outer loop
      vertex -2.80105e-07 19.5797 1.23
      vertex 2.8491 17.9348 58
      vertex -2.80105e-07 19.5797 120
    endloop
  endfacet
  facet normal -0.500001 -0.866025 -0
    outer loop
      vertex 2.8491 17.9348 32.615
      vertex 2.8491 17.9348 28.615
      vertex 14.1074 11.4348 32.615
    endloop
  endfacet
  facet normal -0.499993 -0.866029 -0
    outer loop
      vertex 2.8491 17.9348 58
      vertex -2.80105e-07 19.5797 1.23
      vertex 2.8491 17.9348 32.615
    endloop
  endfacet
  facet normal -0.499993 -0.866029 -0
    outer loop
      vertex 2.8491 17.9348 32.615
      vertex -2.80105e-07 19.5797 1.23
      vertex 2.8491 17.9348 28.615
    endloop
  endfacet
  facet normal -0.500001 -0.866025 1.43904e-05
    outer loop
      vertex 2.8491 17.9348 3.23
      vertex -2.80105e-07 19.5797 1.23
      vertex 14.1074 11.4348 3.23
    endloop
  endfacet
  facet normal -0.499993 -0.866029 -0
    outer loop
      vertex 2.8491 17.9348 28.615
      vertex -2.80105e-07 19.5797 1.23
      vertex 2.8491 17.9348 3.23
    endloop
  endfacet
  facet normal -0.500001 -0.866025 -1.85764e-06
    outer loop
      vertex 14.1074 11.4348 116.77
      vertex 16.9565 9.78986 120
      vertex 2.8491 17.9348 116.77
    endloop
  endfacet
  facet normal -0.500003 -0.866024 0
    outer loop
      vertex 14.1074 11.4348 91.385
      vertex 16.9565 9.78986 120
      vertex 14.1074 11.4348 116.77
    endloop
  endfacet
  facet normal -0.500001 -0.866025 0
    outer loop
      vertex 14.1074 11.4348 87.385
      vertex 14.1074 11.4348 91.385
      vertex 2.8491 17.9348 87.385
    endloop
  endfacet
  facet normal -0.500003 -0.866024 0
    outer loop
      vertex 14.1074 11.4348 87.385
      vertex 16.9565 9.78986 120
      vertex 14.1074 11.4348 91.385
    endloop
  endfacet
  facet normal -0.500003 -0.866024 0
    outer loop
      vertex 14.1074 11.4348 62
      vertex 16.9565 9.78986 120
      vertex 14.1074 11.4348 87.385
    endloop
  endfacet
  facet normal -0.500001 -0.866025 0
    outer loop
      vertex 14.1074 11.4348 58
      vertex 14.1074 11.4348 62
      vertex 2.8491 17.9348 58
    endloop
  endfacet
  facet normal -0.500003 -0.866024 0
    outer loop
      vertex 14.1074 11.4348 58
      vertex 16.9565 9.78986 120
      vertex 14.1074 11.4348 62
    endloop
  endfacet
  facet normal -0.500003 -0.866024 0
    outer loop
      vertex 16.9565 9.78986 1.23
      vertex 14.1074 11.4348 58
      vertex 14.1074 11.4348 32.615
    endloop
  endfacet
  facet normal -0.500001 -0.866025 0
    outer loop
      vertex 14.1074 11.4348 28.615
      vertex 14.1074 11.4348 32.615
      vertex 2.8491 17.9348 28.615
    endloop
  endfacet
  facet normal -0.500003 -0.866024 0
    outer loop
      vertex 16.9565 9.78986 1.23
      vertex 14.1074 11.4348 32.615
      vertex 14.1074 11.4348 28.615
    endloop
  endfacet
  facet normal -0.500003 -0.866024 0
    outer loop
      vertex 16.9565 9.78986 1.23
      vertex 14.1074 11.4348 28.615
      vertex 14.1074 11.4348 3.23
    endloop
  endfacet
  facet normal -0.500003 -0.866024 0
    outer loop
      vertex 14.1074 11.4348 58
      vertex 16.9565 9.78986 1.23
      vertex 16.9565 9.78986 120
    endloop
  endfacet
  facet normal -0.5 -0.866025 4.91394e-06
    outer loop
      vertex 16.9565 9.78986 1.23
      vertex 14.1074 11.4348 3.23
      vertex -2.80105e-07 19.5797 1.23
    endloop
  endfacet
  facet normal 1 -0 0
    outer loop
      vertex -16.9565 -6.5 32.615
      vertex -16.9565 6.5 28.615
      vertex -16.9565 6.5 32.615
    endloop
  endfacet
  facet normal 1 0 0
    outer loop
      vertex -16.9565 6.5 28.615
      vertex -16.9565 -6.5 32.615
      vertex -16.9565 -6.5 28.615
    endloop
  endfacet
  facet normal 1 -0 0
    outer loop
      vertex -16.9565 -6.5 62
      vertex -16.9565 6.5 58
      vertex -16.9565 6.5 62
    endloop
  endfacet
  facet normal 1 0 0
    outer loop
      vertex -16.9565 6.5 58
      vertex -16.9565 -6.5 62
      vertex -16.9565 -6.5 58
    endloop
  endfacet
  facet normal 1 -0 0
    outer loop
      vertex -16.9565 -6.5 91.385
      vertex -16.9565 6.5 87.385
      vertex -16.9565 6.5 91.385
    endloop
  endfacet
  facet normal 1 0 0
    outer loop
      vertex -16.9565 6.5 87.385
      vertex -16.9565 -6.5 91.385
      vertex -16.9565 -6.5 87.385
    endloop
  endfacet
  facet normal 1 0 0
    outer loop
      vertex -16.9565 6.5 91.385
      vertex -16.9565 9.78986 120
      vertex -16.9565 6.5 116.77
    endloop
  endfacet
  facet normal 1 0 0
    outer loop
      vertex -16.9565 9.78986 120
      vertex -16.9565 -6.5 116.77
      vertex -16.9565 6.5 116.77
    endloop
  endfacet
  facet normal 1 0 0
    outer loop
      vertex -16.9565 -9.78986 120
      vertex -16.9565 -6.5 91.385
      vertex -16.9565 -6.5 116.77
    endloop
  endfacet
  facet normal 1 0 0
    outer loop
      vertex -16.9565 -6.5 91.385
      vertex -16.9565 -9.78986 120
      vertex -16.9565 -6.5 87.385
    endloop
  endfacet
  facet normal 1 0 0
    outer loop
      vertex -16.9565 -6.5 87.385
      vertex -16.9565 -9.78986 120
      vertex -16.9565 -6.5 62
    endloop
  endfacet
  facet normal 1 0 0
    outer loop
      vertex -16.9565 -6.5 62
      vertex -16.9565 -9.78986 120
      vertex -16.9565 -6.5 58
    endloop
  endfacet
  facet normal 1 0 0
    outer loop
      vertex -16.9565 -9.78986 1.23
      vertex -16.9565 -6.5 58
      vertex -16.9565 -9.78986 120
    endloop
  endfacet
  facet normal 1 0 0
    outer loop
      vertex -16.9565 -6.5 58
      vertex -16.9565 -9.78986 1.23
      vertex -16.9565 -6.5 32.615
    endloop
  endfacet
  facet normal 1 0 0
    outer loop
      vertex -16.9565 -6.5 32.615
      vertex -16.9565 -9.78986 1.23
      vertex -16.9565 -6.5 28.615
    endloop
  endfacet
  facet normal 1 -0 0
    outer loop
      vertex -16.9565 -9.78986 120
      vertex -16.9565 -6.5 116.77
      vertex -16.9565 9.78986 120
    endloop
  endfacet
  facet normal 1 0 0
    outer loop
      vertex -16.9565 6.5 87.385
      vertex -16.9565 9.78986 120
      vertex -16.9565 6.5 91.385
    endloop
  endfacet
  facet normal 1 0 0
    outer loop
      vertex -16.9565 6.5 62
      vertex -16.9565 9.78986 120
      vertex -16.9565 6.5 87.385
    endloop
  endfacet
  facet normal 1 0 0
    outer loop
      vertex -16.9565 9.78986 120
      vertex -16.9565 6.5 62
      vertex -16.9565 9.78986 1.23
    endloop
  endfacet
  facet normal 1 -0 0
    outer loop
      vertex -16.9565 6.5 58
      vertex -16.9565 9.78986 1.23
      vertex -16.9565 6.5 62
    endloop
  endfacet
  facet normal 1 -0 0
    outer loop
      vertex -16.9565 6.5 32.615
      vertex -16.9565 9.78986 1.23
      vertex -16.9565 6.5 58
    endloop
  endfacet
  facet normal 1 -0 0
    outer loop
      vertex -16.9565 6.5 28.615
      vertex -16.9565 9.78986 1.23
      vertex -16.9565 6.5 32.615
    endloop
  endfacet
  facet normal 1 -0 0
    outer loop
      vertex -16.9565 6.5 3.23
      vertex -16.9565 9.78986 1.23
      vertex -16.9565 6.5 28.615
    endloop
  endfacet
  facet normal 1 -0 0
    outer loop
      vertex -16.9565 -6.5 3.23
      vertex -16.9565 9.78986 1.23
      vertex -16.9565 6.5 3.23
    endloop
  endfacet
  facet normal 1 0 0
    outer loop
      vertex -16.9565 -6.5 3.23
      vertex -16.9565 -9.78986 1.23
      vertex -16.9565 9.78986 1.23
    endloop
  endfacet
  facet normal 1 0 0
    outer loop
      vertex -16.9565 -6.5 28.615
      vertex -16.9565 -9.78986 1.23
      vertex -16.9565 -6.5 3.23
    endloop
  endfacet
  facet normal 0.5 -0.866025 -3.02812e-06
    outer loop
      vertex -16.9565 9.78986 120
      vertex -14.1074 11.4348 116.77
      vertex -2.80105e-07 19.5797 120
    endloop
  endfacet
  facet normal 0.500003 -0.866024 0
    outer loop
      vertex -16.9565 9.78986 120
      vertex -14.1074 11.4348 91.385
      vertex -14.1074 11.4348 116.77
    endloop
  endfacet
  facet normal 0.500001 -0.866025 0
    outer loop
      vertex -14.1074 11.4348 91.385
      vertex -14.1074 11.4348 87.385
      vertex -2.8491 17.9348 91.385
    endloop
  endfacet
  facet normal 0.500003 -0.866024 0
    outer loop
      vertex -16.9565 9.78986 120
      vertex -14.1074 11.4348 87.385
      vertex -14.1074 11.4348 91.385
    endloop
  endfacet
  facet normal 0.500003 -0.866024 0
    outer loop
      vertex -16.9565 9.78986 120
      vertex -14.1074 11.4348 62
      vertex -14.1074 11.4348 87.385
    endloop
  endfacet
  facet normal 0.500001 -0.866025 0
    outer loop
      vertex -14.1074 11.4348 62
      vertex -14.1074 11.4348 58
      vertex -2.8491 17.9348 62
    endloop
  endfacet
  facet normal 0.500003 -0.866024 0
    outer loop
      vertex -16.9565 9.78986 120
      vertex -14.1074 11.4348 58
      vertex -14.1074 11.4348 62
    endloop
  endfacet
  facet normal 0.500003 -0.866024 0
    outer loop
      vertex -16.9565 9.78986 1.23
      vertex -14.1074 11.4348 58
      vertex -16.9565 9.78986 120
    endloop
  endfacet
  facet normal 0.500001 -0.866025 0
    outer loop
      vertex -14.1074 11.4348 32.615
      vertex -14.1074 11.4348 28.615
      vertex -2.8491 17.9348 32.615
    endloop
  endfacet
  facet normal 0.500003 -0.866024 0
    outer loop
      vertex -14.1074 11.4348 58
      vertex -16.9565 9.78986 1.23
      vertex -14.1074 11.4348 32.615
    endloop
  endfacet
  facet normal 0.500003 -0.866024 0
    outer loop
      vertex -14.1074 11.4348 32.615
      vertex -16.9565 9.78986 1.23
      vertex -14.1074 11.4348 28.615
    endloop
  endfacet
  facet normal 0.500001 -0.866025 3.00008e-06
    outer loop
      vertex -14.1074 11.4348 3.23
      vertex -16.9565 9.78986 1.23
      vertex -2.8491 17.9348 3.23
    endloop
  endfacet
  facet normal 0.500003 -0.866024 0
    outer loop
      vertex -14.1074 11.4348 28.615
      vertex -16.9565 9.78986 1.23
      vertex -14.1074 11.4348 3.23
    endloop
  endfacet
  facet normal 0.500001 -0.866025 -8.82377e-06
    outer loop
      vertex -2.8491 17.9348 116.77
      vertex -2.80105e-07 19.5797 120
      vertex -14.1074 11.4348 116.77
    endloop
  endfacet
  facet normal 0.499994 -0.866029 0
    outer loop
      vertex -2.8491 17.9348 91.385
      vertex -2.80105e-07 19.5797 120
      vertex -2.8491 17.9348 116.77
    endloop
  endfacet
  facet normal 0.500001 -0.866025 0
    outer loop
      vertex -2.8491 17.9348 87.385
      vertex -2.8491 17.9348 91.385
      vertex -14.1074 11.4348 87.385
    endloop
  endfacet
  facet normal 0.499994 -0.866029 0
    outer loop
      vertex -2.8491 17.9348 87.385
      vertex -2.80105e-07 19.5797 120
      vertex -2.8491 17.9348 91.385
    endloop
  endfacet
  facet normal 0.499994 -0.866029 0
    outer loop
      vertex -2.8491 17.9348 62
      vertex -2.80105e-07 19.5797 120
      vertex -2.8491 17.9348 87.385
    endloop
  endfacet
  facet normal 0.500001 -0.866025 0
    outer loop
      vertex -2.8491 17.9348 58
      vertex -2.8491 17.9348 62
      vertex -14.1074 11.4348 58
    endloop
  endfacet
  facet normal 0.499994 -0.866029 0
    outer loop
      vertex -2.8491 17.9348 58
      vertex -2.80105e-07 19.5797 120
      vertex -2.8491 17.9348 62
    endloop
  endfacet
  facet normal 0.499994 -0.866029 0
    outer loop
      vertex -2.80105e-07 19.5797 1.23
      vertex -2.8491 17.9348 58
      vertex -2.8491 17.9348 32.615
    endloop
  endfacet
  facet normal 0.500001 -0.866025 0
    outer loop
      vertex -2.8491 17.9348 28.615
      vertex -2.8491 17.9348 32.615
      vertex -14.1074 11.4348 28.615
    endloop
  endfacet
  facet normal 0.499994 -0.866029 0
    outer loop
      vertex -2.80105e-07 19.5797 1.23
      vertex -2.8491 17.9348 32.615
      vertex -2.8491 17.9348 28.615
    endloop
  endfacet
  facet normal 0.499994 -0.866029 0
    outer loop
      vertex -2.80105e-07 19.5797 1.23
      vertex -2.8491 17.9348 28.615
      vertex -2.8491 17.9348 3.23
    endloop
  endfacet
  facet normal 0.499994 -0.866029 0
    outer loop
      vertex -2.8491 17.9348 58
      vertex -2.80105e-07 19.5797 1.23
      vertex -2.80105e-07 19.5797 120
    endloop
  endfacet
  facet normal 0.5 -0.866025 1.23601e-05
    outer loop
      vertex -2.80105e-07 19.5797 1.23
      vertex -2.8491 17.9348 3.23
      vertex -16.9565 9.78986 1.23
    endloop
  endfacet
  facet normal -1 0 0
    outer loop
      vertex 16.9565 -6.5 87.385
      vertex 16.9565 6.5 91.385
      vertex 16.9565 6.5 87.385
    endloop
  endfacet
  facet normal -1 -0 0
    outer loop
      vertex 16.9565 6.5 91.385
      vertex 16.9565 -6.5 87.385
      vertex 16.9565 -6.5 91.385
    endloop
  endfacet
  facet normal -1 0 0
    outer loop
      vertex 16.9565 -6.5 58
      vertex 16.9565 6.5 62
      vertex 16.9565 6.5 58
    endloop
  endfacet
  facet normal -1 -0 0
    outer loop
      vertex 16.9565 6.5 62
      vertex 16.9565 -6.5 58
      vertex 16.9565 -6.5 62
    endloop
  endfacet
  facet normal -1 0 0
    outer loop
      vertex 16.9565 -6.5 28.615
      vertex 16.9565 6.5 32.615
      vertex 16.9565 6.5 28.615
    endloop
  endfacet
  facet normal -1 -0 0
    outer loop
      vertex 16.9565 6.5 32.615
      vertex 16.9565 -6.5 28.615
      vertex 16.9565 -6.5 32.615
    endloop
  endfacet
  facet normal -1 0 0
    outer loop
      vertex 16.9565 6.5 28.615
      vertex 16.9565 9.78986 1.23
      vertex 16.9565 6.5 3.23
    endloop
  endfacet
  facet normal -1 0 0
    outer loop
      vertex 16.9565 9.78986 1.23
      vertex 16.9565 -6.5 3.23
      vertex 16.9565 6.5 3.23
    endloop
  endfacet
  facet normal -1 0 0
    outer loop
      vertex 16.9565 -9.78986 1.23
      vertex 16.9565 -6.5 28.615
      vertex 16.9565 -6.5 3.23
    endloop
  endfacet
  facet normal -1 -0 0
    outer loop
      vertex 16.9565 -6.5 28.615
      vertex 16.9565 -9.78986 1.23
      vertex 16.9565 -6.5 32.615
    endloop
  endfacet
  facet normal -1 -0 0
    outer loop
      vertex 16.9565 -6.5 32.615
      vertex 16.9565 -9.78986 1.23
      vertex 16.9565 -6.5 58
    endloop
  endfacet
  facet normal -1 -0 0
    outer loop
      vertex 16.9565 -6.5 58
      vertex 16.9565 -9.78986 1.23
      vertex 16.9565 -6.5 62
    endloop
  endfacet
  facet normal -1 0 0
    outer loop
      vertex 16.9565 -9.78986 120
      vertex 16.9565 -6.5 62
      vertex 16.9565 -9.78986 1.23
    endloop
  endfacet
  facet normal -1 0 0
    outer loop
      vertex 16.9565 -6.5 62
      vertex 16.9565 -9.78986 120
      vertex 16.9565 -6.5 87.385
    endloop
  endfacet
  facet normal -1 0 0
    outer loop
      vertex 16.9565 -6.5 87.385
      vertex 16.9565 -9.78986 120
      vertex 16.9565 -6.5 91.385
    endloop
  endfacet
  facet normal -1 0 0
    outer loop
      vertex 16.9565 -9.78986 1.23
      vertex 16.9565 -6.5 3.23
      vertex 16.9565 9.78986 1.23
    endloop
  endfacet
  facet normal -1 0 0
    outer loop
      vertex 16.9565 6.5 32.615
      vertex 16.9565 9.78986 1.23
      vertex 16.9565 6.5 28.615
    endloop
  endfacet
  facet normal -1 0 0
    outer loop
      vertex 16.9565 6.5 58
      vertex 16.9565 9.78986 1.23
      vertex 16.9565 6.5 32.615
    endloop
  endfacet
  facet normal -1 0 0
    outer loop
      vertex 16.9565 9.78986 1.23
      vertex 16.9565 6.5 58
      vertex 16.9565 9.78986 120
    endloop
  endfacet
  facet normal -1 0 0
    outer loop
      vertex 16.9565 6.5 62
      vertex 16.9565 9.78986 120
      vertex 16.9565 6.5 58
    endloop
  endfacet
  facet normal -1 0 0
    outer loop
      vertex 16.9565 6.5 87.385
      vertex 16.9565 9.78986 120
      vertex 16.9565 6.5 62
    endloop
  endfacet
  facet normal -1 0 0
    outer loop
      vertex 16.9565 6.5 91.385
      vertex 16.9565 9.78986 120
      vertex 16.9565 6.5 87.385
    endloop
  endfacet
  facet normal -1 0 0
    outer loop
      vertex 16.9565 6.5 116.77
      vertex 16.9565 9.78986 120
      vertex 16.9565 6.5 91.385
    endloop
  endfacet
  facet normal -1 0 0
    outer loop
      vertex 16.9565 -6.5 116.77
      vertex 16.9565 9.78986 120
      vertex 16.9565 6.5 116.77
    endloop
  endfacet
  facet normal -1 0 0
    outer loop
      vertex 16.9565 -6.5 116.77
      vertex 16.9565 -9.78986 120
      vertex 16.9565 9.78986 120
    endloop
  endfacet
  facet normal -1 0 0
    outer loop
      vertex 16.9565 -6.5 91.385
      vertex 16.9565 -9.78986 120
      vertex 16.9565 -6.5 116.77
    endloop
  endfacet
  facet normal 0 0 1
    outer loop
      vertex 16.9565 9.78986 1.23
      vertex 2.80105e-07 -19.5797 1.23
      vertex 16.9565 -9.78986 1.23
    endloop
  endfacet
  facet normal 0 0 1
    outer loop
      vertex -2.80105e-07 19.5797 1.23
      vertex 2.80105e-07 -19.5797 1.23
      vertex 16.9565 9.78986 1.23
    endloop
  endfacet
  facet normal -0 0 1
    outer loop
      vertex -16.9565 9.78986 1.23
      vertex 2.80105e-07 -19.5797 1.23
      vertex -2.80105e-07 19.5797 1.23
    endloop
  endfacet
  facet normal 0 0 1
    outer loop
      vertex 2.80105e-07 -19.5797 1.23
      vertex -16.9565 9.78986 1.23
      vertex -16.9565 -9.78986 1.23
    endloop
  endfacet
  facet normal -0.5 0.866025 -3.02812e-06
    outer loop
      vertex 16.9565 -9.78986 120
      vertex 14.1074 -11.4348 116.77
      vertex 2.80105e-07 -19.5797 120
    endloop
  endfacet
  facet normal -0.500003 0.866024 0
    outer loop
      vertex 16.9565 -9.78986 120
      vertex 14.1074 -11.4348 91.385
      vertex 14.1074 -11.4348 116.77
    endloop
  endfacet
  facet normal -0.500001 0.866025 0
    outer loop
      vertex 14.1074 -11.4348 91.385
      vertex 14.1074 -11.4348 87.385
      vertex 2.8491 -17.9348 91.385
    endloop
  endfacet
  facet normal -0.500003 0.866024 0
    outer loop
      vertex 16.9565 -9.78986 120
      vertex 14.1074 -11.4348 87.385
      vertex 14.1074 -11.4348 91.385
    endloop
  endfacet
  facet normal -0.500003 0.866024 0
    outer loop
      vertex 16.9565 -9.78986 120
      vertex 14.1074 -11.4348 62
      vertex 14.1074 -11.4348 87.385
    endloop
  endfacet
  facet normal -0.500001 0.866025 0
    outer loop
      vertex 14.1074 -11.4348 62
      vertex 14.1074 -11.4348 58
      vertex 2.8491 -17.9348 62
    endloop
  endfacet
  facet normal -0.500003 0.866024 0
    outer loop
      vertex 16.9565 -9.78986 120
      vertex 14.1074 -11.4348 58
      vertex 14.1074 -11.4348 62
    endloop
  endfacet
  facet normal -0.500003 0.866024 0
    outer loop
      vertex 16.9565 -9.78986 1.23
      vertex 14.1074 -11.4348 58
      vertex 16.9565 -9.78986 120
    endloop
  endfacet
  facet normal -0.500001 0.866025 0
    outer loop
      vertex 14.1074 -11.4348 32.615
      vertex 14.1074 -11.4348 28.615
      vertex 2.8491 -17.9348 32.615
    endloop
  endfacet
  facet normal -0.500003 0.866024 0
    outer loop
      vertex 14.1074 -11.4348 58
      vertex 16.9565 -9.78986 1.23
      vertex 14.1074 -11.4348 32.615
    endloop
  endfacet
  facet normal -0.500003 0.866024 0
    outer loop
      vertex 14.1074 -11.4348 32.615
      vertex 16.9565 -9.78986 1.23
      vertex 14.1074 -11.4348 28.615
    endloop
  endfacet
  facet normal -0.500001 0.866025 3.00008e-06
    outer loop
      vertex 14.1074 -11.4348 3.23
      vertex 16.9565 -9.78986 1.23
      vertex 2.8491 -17.9348 3.23
    endloop
  endfacet
  facet normal -0.500003 0.866024 0
    outer loop
      vertex 14.1074 -11.4348 28.615
      vertex 16.9565 -9.78986 1.23
      vertex 14.1074 -11.4348 3.23
    endloop
  endfacet
  facet normal -0.500001 0.866025 -8.82377e-06
    outer loop
      vertex 2.8491 -17.9348 116.77
      vertex 2.80105e-07 -19.5797 120
      vertex 14.1074 -11.4348 116.77
    endloop
  endfacet
  facet normal -0.499994 0.866029 0
    outer loop
      vertex 2.8491 -17.9348 91.385
      vertex 2.80105e-07 -19.5797 120
      vertex 2.8491 -17.9348 116.77
    endloop
  endfacet
  facet normal -0.500001 0.866025 0
    outer loop
      vertex 2.8491 -17.9348 87.385
      vertex 2.8491 -17.9348 91.385
      vertex 14.1074 -11.4348 87.385
    endloop
  endfacet
  facet normal -0.499994 0.866029 0
    outer loop
      vertex 2.8491 -17.9348 87.385
      vertex 2.80105e-07 -19.5797 120
      vertex 2.8491 -17.9348 91.385
    endloop
  endfacet
  facet normal -0.499994 0.866029 0
    outer loop
      vertex 2.8491 -17.9348 62
      vertex 2.80105e-07 -19.5797 120
      vertex 2.8491 -17.9348 87.385
    endloop
  endfacet
  facet normal -0.500001 0.866025 0
    outer loop
      vertex 2.8491 -17.9348 58
      vertex 2.8491 -17.9348 62
      vertex 14.1074 -11.4348 58
    endloop
  endfacet
  facet normal -0.499994 0.866029 0
    outer loop
      vertex 2.8491 -17.9348 58
      vertex 2.80105e-07 -19.5797 120
      vertex 2.8491 -17.9348 62
    endloop
  endfacet
  facet normal -0.499994 0.866029 0
    outer loop
      vertex 2.80105e-07 -19.5797 1.23
      vertex 2.8491 -17.9348 58
      vertex 2.8491 -17.9348 32.615
    endloop
  endfacet
  facet normal -0.500001 0.866025 0
    outer loop
      vertex 2.8491 -17.9348 28.615
      vertex 2.8491 -17.9348 32.615
      vertex 14.1074 -11.4348 28.615
    endloop
  endfacet
  facet normal -0.499994 0.866029 0
    outer loop
      vertex 2.80105e-07 -19.5797 1.23
      vertex 2.8491 -17.9348 32.615
      vertex 2.8491 -17.9348 28.615
    endloop
  endfacet
  facet normal -0.499994 0.866029 0
    outer loop
      vertex 2.80105e-07 -19.5797 1.23
      vertex 2.8491 -17.9348 28.615
      vertex 2.8491 -17.9348 3.23
    endloop
  endfacet
  facet normal -0.499994 0.866029 0
    outer loop
      vertex 2.8491 -17.9348 58
      vertex 2.80105e-07 -19.5797 1.23
      vertex 2.80105e-07 -19.5797 120
    endloop
  endfacet
  facet normal -0.5 0.866025 1.23601e-05
    outer loop
      vertex 2.80105e-07 -19.5797 1.23
      vertex 2.8491 -17.9348 3.23
      vertex 16.9565 -9.78986 1.23
    endloop
  endfacet
  facet normal 0.5 0.866025 -7.72545e-06
    outer loop
      vertex 2.80105e-07 -19.5797 120
      vertex -2.8491 -17.9348 116.77
      vertex -16.9565 -9.78986 120
    endloop
  endfacet
  facet normal 0.499993 0.866029 0
    outer loop
      vertex 2.80105e-07 -19.5797 120
      vertex -2.8491 -17.9348 91.385
      vertex -2.8491 -17.9348 116.77
    endloop
  endfacet
  facet normal 0.500001 0.866025 0
    outer loop
      vertex -2.8491 -17.9348 91.385
      vertex -2.8491 -17.9348 87.385
      vertex -14.1074 -11.4348 91.385
    endloop
  endfacet
  facet normal 0.499993 0.866029 0
    outer loop
      vertex 2.80105e-07 -19.5797 120
      vertex -2.8491 -17.9348 87.385
      vertex -2.8491 -17.9348 91.385
    endloop
  endfacet
  facet normal 0.499993 0.866029 0
    outer loop
      vertex 2.80105e-07 -19.5797 120
      vertex -2.8491 -17.9348 62
      vertex -2.8491 -17.9348 87.385
    endloop
  endfacet
  facet normal 0.500001 0.866025 0
    outer loop
      vertex -2.8491 -17.9348 62
      vertex -2.8491 -17.9348 58
      vertex -14.1074 -11.4348 62
    endloop
  endfacet
  facet normal 0.499993 0.866029 0
    outer loop
      vertex 2.80105e-07 -19.5797 120
      vertex -2.8491 -17.9348 58
      vertex -2.8491 -17.9348 62
    endloop
  endfacet
  facet normal 0.499993 0.866029 -0
    outer loop
      vertex 2.80105e-07 -19.5797 1.23
      vertex -2.8491 -17.9348 58
      vertex 2.80105e-07 -19.5797 120
    endloop
  endfacet
  facet normal 0.500001 0.866025 0
    outer loop
      vertex -2.8491 -17.9348 32.615
      vertex -2.8491 -17.9348 28.615
      vertex -14.1074 -11.4348 32.615
    endloop
  endfacet
  facet normal 0.499993 0.866029 0
    outer loop
      vertex -2.8491 -17.9348 58
      vertex 2.80105e-07 -19.5797 1.23
      vertex -2.8491 -17.9348 32.615
    endloop
  endfacet
  facet normal 0.499993 0.866029 0
    outer loop
      vertex -2.8491 -17.9348 32.615
      vertex 2.80105e-07 -19.5797 1.23
      vertex -2.8491 -17.9348 28.615
    endloop
  endfacet
  facet normal 0.500001 0.866025 1.43904e-05
    outer loop
      vertex -2.8491 -17.9348 3.23
      vertex 2.80105e-07 -19.5797 1.23
      vertex -14.1074 -11.4348 3.23
    endloop
  endfacet
  facet normal 0.499993 0.866029 0
    outer loop
      vertex -2.8491 -17.9348 28.615
      vertex 2.80105e-07 -19.5797 1.23
      vertex -2.8491 -17.9348 3.23
    endloop
  endfacet
  facet normal 0.500001 0.866025 -1.85764e-06
    outer loop
      vertex -14.1074 -11.4348 116.77
      vertex -16.9565 -9.78986 120
      vertex -2.8491 -17.9348 116.77
    endloop
  endfacet
  facet normal 0.500003 0.866024 -0
    outer loop
      vertex -14.1074 -11.4348 91.385
      vertex -16.9565 -9.78986 120
      vertex -14.1074 -11.4348 116.77
    endloop
  endfacet
  facet normal 0.500001 0.866025 -0
    outer loop
      vertex -14.1074 -11.4348 87.385
      vertex -14.1074 -11.4348 91.385
      vertex -2.8491 -17.9348 87.385
    endloop
  endfacet
  facet normal 0.500003 0.866024 -0
    outer loop
      vertex -14.1074 -11.4348 87.385
      vertex -16.9565 -9.78986 120
      vertex -14.1074 -11.4348 91.385
    endloop
  endfacet
  facet normal 0.500003 0.866024 -0
    outer loop
      vertex -14.1074 -11.4348 62
      vertex -16.9565 -9.78986 120
      vertex -14.1074 -11.4348 87.385
    endloop
  endfacet
  facet normal 0.500001 0.866025 -0
    outer loop
      vertex -14.1074 -11.4348 58
      vertex -14.1074 -11.4348 62
      vertex -2.8491 -17.9348 58
    endloop
  endfacet
  facet normal 0.500003 0.866024 -0
    outer loop
      vertex -14.1074 -11.4348 58
      vertex -16.9565 -9.78986 120
      vertex -14.1074 -11.4348 62
    endloop
  endfacet
  facet normal 0.500003 0.866024 0
    outer loop
      vertex -16.9565 -9.78986 1.23
      vertex -14.1074 -11.4348 58
      vertex -14.1074 -11.4348 32.615
    endloop
  endfacet
  facet normal 0.500001 0.866025 -0
    outer loop
      vertex -14.1074 -11.4348 28.615
      vertex -14.1074 -11.4348 32.615
      vertex -2.8491 -17.9348 28.615
    endloop
  endfacet
  facet normal 0.500003 0.866024 0
    outer loop
      vertex -16.9565 -9.78986 1.23
      vertex -14.1074 -11.4348 32.615
      vertex -14.1074 -11.4348 28.615
    endloop
  endfacet
  facet normal 0.500003 0.866024 0
    outer loop
      vertex -16.9565 -9.78986 1.23
      vertex -14.1074 -11.4348 28.615
      vertex -14.1074 -11.4348 3.23
    endloop
  endfacet
  facet normal 0.500003 0.866024 0
    outer loop
      vertex -14.1074 -11.4348 58
      vertex -16.9565 -9.78986 1.23
      vertex -16.9565 -9.78986 120
    endloop
  endfacet
  facet normal 0.5 0.866025 4.91394e-06
    outer loop
      vertex -16.9565 -9.78986 1.23
      vertex -14.1074 -11.4348 3.23
      vertex 2.80105e-07 -19.5797 1.23
    endloop
  endfacet
endsolid OpenSCAD_Model
