solid OpenSCAD_Model
  facet normal 0 0 -1
    outer loop
      vertex 72.4386 -21 0
      vertex 53.4944 50.9846 0
      vertex 72.4386 50.9846 0
    endloop
  endfacet
  facet normal 0 0 -1
    outer loop
      vertex 51.9348 50.9846 0
      vertex 53.4944 50.9846 0
      vertex 72.4386 -21 0
    endloop
  endfacet
  facet normal 0 0 -1
    outer loop
      vertex 53.4944 50.9846 0
      vertex 51.9348 50.9846 0
      vertex 52.7146 51.4348 0
    endloop
  endfacet
  facet normal 0 0 -1
    outer loop
      vertex 72.4386 -21 0
      vertex 18.3513 50.9846 0
      vertex 51.9348 50.9846 0
    endloop
  endfacet
  facet normal 0 0 -1
    outer loop
      vertex -18.1865 -10.5 0
      vertex 18.3513 50.9846 0
      vertex 72.4386 -21 0
    endloop
  endfacet
  facet normal 0 0 -1
    outer loop
      vertex 18.3513 50.9846 0
      vertex 16.7917 50.9846 0
      vertex 17.5715 51.4348 0
    endloop
  endfacet
  facet normal 0 0 -1
    outer loop
      vertex -18.1865 -10.5 0
      vertex 72.4386 -21 0
      vertex -18.1865 -21 0
    endloop
  endfacet
  facet normal -0 0 -1
    outer loop
      vertex 18.3513 50.9846 0
      vertex -18.1865 -10.5 0
      vertex 16.7917 50.9846 0
    endloop
  endfacet
  facet normal -0 0 -1
    outer loop
      vertex 16.7917 50.9846 0
      vertex -18.1865 -10.5 0
      vertex -18.1865 50.9846 0
    endloop
  endfacet
  facet normal 0.866032 -0.499988 0
    outer loop
      vertex -16.9565 8.55986 150
      vertex -15.8913 10.4049 1.23
      vertex -15.8913 10.4049 150
    endloop
  endfacet
  facet normal 0.866032 -0.499988 0
    outer loop
      vertex -15.8913 10.4049 1.23
      vertex -16.9565 8.55986 150
      vertex -16.9565 8.55986 1.23
    endloop
  endfacet
  facet normal 0.866032 0.499988 0
    outer loop
      vertex -15.8913 -10.4049 150
      vertex -16.9565 -8.55986 1.23
      vertex -16.9565 -8.55986 150
    endloop
  endfacet
  facet normal 0.866032 0.499988 0
    outer loop
      vertex -16.9565 -8.55986 1.23
      vertex -15.8913 -10.4049 150
      vertex -15.8913 -10.4049 1.23
    endloop
  endfacet
  facet normal 0 1 -0
    outer loop
      vertex 1.06521 -18.9647 1.23
      vertex -1.06521 -18.9647 150
      vertex 1.06521 -18.9647 150
    endloop
  endfacet
  facet normal 0 1 0
    outer loop
      vertex -1.06521 -18.9647 150
      vertex 1.06521 -18.9647 1.23
      vertex -1.06521 -18.9647 1.23
    endloop
  endfacet
  facet normal -0.866032 0.499988 0
    outer loop
      vertex 15.8913 -10.4049 1.23
      vertex 16.9565 -8.55986 150
      vertex 16.9565 -8.55986 1.23
    endloop
  endfacet
  facet normal -0.866032 0.499988 0
    outer loop
      vertex 16.9565 -8.55986 150
      vertex 15.8913 -10.4049 1.23
      vertex 15.8913 -10.4049 150
    endloop
  endfacet
  facet normal -0.866032 -0.499988 0
    outer loop
      vertex 16.9565 8.55986 1.23
      vertex 15.8913 10.4049 150
      vertex 15.8913 10.4049 1.23
    endloop
  endfacet
  facet normal -0.866032 -0.499988 0
    outer loop
      vertex 15.8913 10.4049 150
      vertex 16.9565 8.55986 1.23
      vertex 16.9565 8.55986 150
    endloop
  endfacet
  facet normal 0 -1 0
    outer loop
      vertex -1.06521 18.9647 1.23
      vertex 1.06521 18.9647 150
      vertex -1.06521 18.9647 150
    endloop
  endfacet
  facet normal 0 -1 -0
    outer loop
      vertex 1.06521 18.9647 150
      vertex -1.06521 18.9647 1.23
      vertex 1.06521 18.9647 1.23
    endloop
  endfacet
  facet normal -0.499998 -0.866027 0
    outer loop
      vertex 1.06521 18.9647 1.23
      vertex 15.8913 10.4049 150
      vertex 1.06521 18.9647 150
    endloop
  endfacet
  facet normal -0.499998 -0.866027 -0
    outer loop
      vertex 15.8913 10.4049 150
      vertex 1.06521 18.9647 1.23
      vertex 15.8913 10.4049 1.23
    endloop
  endfacet
  facet normal 1 -0 0
    outer loop
      vertex -16.9565 -8.55986 150
      vertex -16.9565 8.55986 1.23
      vertex -16.9565 8.55986 150
    endloop
  endfacet
  facet normal 1 0 0
    outer loop
      vertex -16.9565 8.55986 1.23
      vertex -16.9565 -8.55986 150
      vertex -16.9565 -8.55986 1.23
    endloop
  endfacet
  facet normal 0.499998 -0.866027 0
    outer loop
      vertex -15.8913 10.4049 1.23
      vertex -1.06521 18.9647 150
      vertex -15.8913 10.4049 150
    endloop
  endfacet
  facet normal 0.499998 -0.866027 0
    outer loop
      vertex -1.06521 18.9647 150
      vertex -15.8913 10.4049 1.23
      vertex -1.06521 18.9647 1.23
    endloop
  endfacet
  facet normal -1 0 0
    outer loop
      vertex 16.9565 -8.55986 1.23
      vertex 16.9565 8.55986 150
      vertex 16.9565 8.55986 1.23
    endloop
  endfacet
  facet normal -1 -0 0
    outer loop
      vertex 16.9565 8.55986 150
      vertex 16.9565 -8.55986 1.23
      vertex 16.9565 -8.55986 150
    endloop
  endfacet
  facet normal -0.499998 0.866027 0
    outer loop
      vertex 15.8913 -10.4049 1.23
      vertex 1.06521 -18.9647 150
      vertex 15.8913 -10.4049 150
    endloop
  endfacet
  facet normal -0.499998 0.866027 0
    outer loop
      vertex 1.06521 -18.9647 150
      vertex 15.8913 -10.4049 1.23
      vertex 1.06521 -18.9647 1.23
    endloop
  endfacet
  facet normal 0.499998 0.866027 -0
    outer loop
      vertex -1.06521 -18.9647 1.23
      vertex -15.8913 -10.4049 150
      vertex -1.06521 -18.9647 150
    endloop
  endfacet
  facet normal 0.499998 0.866027 0
    outer loop
      vertex -15.8913 -10.4049 150
      vertex -1.06521 -18.9647 1.23
      vertex -15.8913 -10.4049 1.23
    endloop
  endfacet
  facet normal -0.500001 0.866025 0
    outer loop
      vertex -0.615 20.6449 1.23
      vertex -16.9565 11.2101 150
      vertex -0.615 20.6449 150
    endloop
  endfacet
  facet normal -0.500001 0.866025 0
    outer loop
      vertex -16.9565 11.2101 150
      vertex -0.615 20.6449 1.23
      vertex -16.9565 11.2101 1.23
    endloop
  endfacet
  facet normal 0 0 1
    outer loop
      vertex -15.8913 -10.4049 150
      vertex -2.13042 -19.77 150
      vertex -1.06521 -18.9647 150
    endloop
  endfacet
  facet normal 0 0 1
    outer loop
      vertex -15.8913 -10.4049 150
      vertex -16.9565 -11.2101 150
      vertex -2.13042 -19.77 150
    endloop
  endfacet
  facet normal 0 0 1
    outer loop
      vertex -18.1865 -10.5 150
      vertex -15.8913 -10.4049 150
      vertex -16.9565 -8.55986 150
    endloop
  endfacet
  facet normal 0 0 1
    outer loop
      vertex 19.2517 -10.4049 150
      vertex 33.0126 -19.77 150
      vertex 34.0779 -18.9647 150
    endloop
  endfacet
  facet normal 0 0 1
    outer loop
      vertex 19.2517 -10.4049 150
      vertex 17.5715 -10.8551 150
      vertex 33.0126 -19.77 150
    endloop
  endfacet
  facet normal 0 0 1
    outer loop
      vertex 18.1865 -8.55986 150
      vertex 17.5715 -10.8551 150
      vertex 19.2517 -10.4049 150
    endloop
  endfacet
  facet normal 0 0 1
    outer loop
      vertex 16.9565 -8.55986 150
      vertex 18.1865 -8.55986 150
      vertex 18.1865 8.55986 150
    endloop
  endfacet
  facet normal 0 0 1
    outer loop
      vertex 35.1431 41.2899 150
      vertex 33.4629 40.8396 150
      vertex 34.5281 38.9946 150
    endloop
  endfacet
  facet normal 0 0 1
    outer loop
      vertex 20.4817 49.7546 150
      vertex 33.4629 40.8396 150
      vertex 35.1431 41.2899 150
    endloop
  endfacet
  facet normal 0 0 1
    outer loop
      vertex 33.4629 40.8396 150
      vertex 20.4817 49.7546 150
      vertex 18.6367 49.3995 150
    endloop
  endfacet
  facet normal 0 0 1
    outer loop
      vertex 18.1865 -8.55986 150
      vertex 16.9565 -8.55986 150
      vertex 17.5715 -10.8551 150
    endloop
  endfacet
  facet normal -0 0 1
    outer loop
      vertex 15.8913 -10.4049 150
      vertex 17.5715 -10.8551 150
      vertex 16.9565 -8.55986 150
    endloop
  endfacet
  facet normal 0 0 1
    outer loop
      vertex 15.8913 -10.4049 150
      vertex 2.13042 -19.77 150
      vertex 17.5715 -10.8551 150
    endloop
  endfacet
  facet normal 0 -0 1
    outer loop
      vertex 2.13042 -19.77 150
      vertex 15.8913 -10.4049 150
      vertex 1.06521 -18.9647 150
    endloop
  endfacet
  facet normal 0 0 1
    outer loop
      vertex 14.6613 49.7546 150
      vertex 1.68021 40.8396 150
      vertex 16.5063 49.3995 150
    endloop
  endfacet
  facet normal 0 0 1
    outer loop
      vertex 1.68021 40.8396 150
      vertex -0.615 40.9348 150
      vertex 0.615 38.9946 150
    endloop
  endfacet
  facet normal -0 0 1
    outer loop
      vertex -0.615 40.9348 150
      vertex 1.68021 40.8396 150
      vertex 14.6613 49.7546 150
    endloop
  endfacet
  facet normal 0 0 1
    outer loop
      vertex 72.4386 50.9846 150
      vertex 71.2086 49.7546 150
      vertex 72.4386 -21 150
    endloop
  endfacet
  facet normal 0 0 1
    outer loop
      vertex 72.4386 50.9846 150
      vertex 55.6248 49.7546 150
      vertex 71.2086 49.7546 150
    endloop
  endfacet
  facet normal -0 0 1
    outer loop
      vertex 53.4944 50.9846 150
      vertex 55.6248 49.7546 150
      vertex 72.4386 50.9846 150
    endloop
  endfacet
  facet normal 0 0 1
    outer loop
      vertex 53.4944 50.9846 150
      vertex 53.7798 49.3995 150
      vertex 55.6248 49.7546 150
    endloop
  endfacet
  facet normal 0 0 1
    outer loop
      vertex 51.9348 50.9846 150
      vertex 53.4944 50.9846 150
      vertex 52.7146 51.4348 150
    endloop
  endfacet
  facet normal 0 0 1
    outer loop
      vertex 53.4944 50.9846 150
      vertex 51.9348 50.9846 150
      vertex 53.7798 49.3995 150
    endloop
  endfacet
  facet normal 0 0 1
    outer loop
      vertex 51.9348 50.9846 150
      vertex 51.6494 49.3995 150
      vertex 53.7798 49.3995 150
    endloop
  endfacet
  facet normal 0 0 1
    outer loop
      vertex 51.9348 50.9846 150
      vertex 49.8044 49.7546 150
      vertex 51.6494 49.3995 150
    endloop
  endfacet
  facet normal 0 0 1
    outer loop
      vertex 51.9348 50.9846 150
      vertex 20.4817 49.7546 150
      vertex 49.8044 49.7546 150
    endloop
  endfacet
  facet normal -0 0 1
    outer loop
      vertex 18.3513 50.9846 150
      vertex 20.4817 49.7546 150
      vertex 51.9348 50.9846 150
    endloop
  endfacet
  facet normal 0 0 1
    outer loop
      vertex 18.3513 50.9846 150
      vertex 18.6367 49.3995 150
      vertex 20.4817 49.7546 150
    endloop
  endfacet
  facet normal 0 0 1
    outer loop
      vertex 16.7917 50.9846 150
      vertex 18.3513 50.9846 150
      vertex 17.5715 51.4348 150
    endloop
  endfacet
  facet normal 0 0 1
    outer loop
      vertex 18.3513 50.9846 150
      vertex 16.7917 50.9846 150
      vertex 18.6367 49.3995 150
    endloop
  endfacet
  facet normal 0 0 1
    outer loop
      vertex 16.7917 50.9846 150
      vertex 16.5063 49.3995 150
      vertex 18.6367 49.3995 150
    endloop
  endfacet
  facet normal 0 0 1
    outer loop
      vertex 16.7917 50.9846 150
      vertex 14.6613 49.7546 150
      vertex 16.5063 49.3995 150
    endloop
  endfacet
  facet normal -0 0 1
    outer loop
      vertex -18.1865 50.9846 150
      vertex 14.6613 49.7546 150
      vertex 16.7917 50.9846 150
    endloop
  endfacet
  facet normal 0 0 1
    outer loop
      vertex -18.1865 50.9846 150
      vertex -16.9565 11.2101 150
      vertex -16.9565 49.7546 150
    endloop
  endfacet
  facet normal 0 0 1
    outer loop
      vertex -18.1865 -10.5 150
      vertex -16.9565 11.2101 150
      vertex -18.1865 50.9846 150
    endloop
  endfacet
  facet normal 0 0 1
    outer loop
      vertex -16.9565 11.2101 150
      vertex -18.1865 -10.5 150
      vertex -16.9565 8.55986 150
    endloop
  endfacet
  facet normal 0 0 1
    outer loop
      vertex -15.8913 -10.4049 150
      vertex -18.1865 -10.5 150
      vertex -16.9565 -11.2101 150
    endloop
  endfacet
  facet normal 0 0 1
    outer loop
      vertex -16.9565 8.55986 150
      vertex -18.1865 -10.5 150
      vertex -16.9565 -8.55986 150
    endloop
  endfacet
  facet normal 0 0 1
    outer loop
      vertex 14.6613 49.7546 150
      vertex -18.1865 50.9846 150
      vertex -16.9565 49.7546 150
    endloop
  endfacet
  facet normal -0 0 1
    outer loop
      vertex 71.2086 -19.77 150
      vertex 72.4386 -21 150
      vertex 71.2086 49.7546 150
    endloop
  endfacet
  facet normal -0 0 1
    outer loop
      vertex 37.2735 -19.77 150
      vertex 72.4386 -21 150
      vertex 71.2086 -19.77 150
    endloop
  endfacet
  facet normal -0 0 1
    outer loop
      vertex 34.0779 -18.9647 150
      vertex 37.2735 -19.77 150
      vertex 36.2083 -18.9647 150
    endloop
  endfacet
  facet normal 0 0 1
    outer loop
      vertex 33.0126 -19.77 150
      vertex 37.2735 -19.77 150
      vertex 34.0779 -18.9647 150
    endloop
  endfacet
  facet normal -0 0 1
    outer loop
      vertex 33.0126 -19.77 150
      vertex 72.4386 -21 150
      vertex 37.2735 -19.77 150
    endloop
  endfacet
  facet normal 0 0 1
    outer loop
      vertex -18.1865 -21 150
      vertex 33.0126 -19.77 150
      vertex 2.13042 -19.77 150
    endloop
  endfacet
  facet normal -0 0 1
    outer loop
      vertex -1.06521 -18.9647 150
      vertex 2.13042 -19.77 150
      vertex 1.06521 -18.9647 150
    endloop
  endfacet
  facet normal 0 0 1
    outer loop
      vertex -2.13042 -19.77 150
      vertex 2.13042 -19.77 150
      vertex -1.06521 -18.9647 150
    endloop
  endfacet
  facet normal 0 0 1
    outer loop
      vertex -18.1865 -21 150
      vertex 2.13042 -19.77 150
      vertex -2.13042 -19.77 150
    endloop
  endfacet
  facet normal 0 0 1
    outer loop
      vertex -18.1865 -21 150
      vertex -2.13042 -19.77 150
      vertex -16.9565 -19.77 150
    endloop
  endfacet
  facet normal 0 0 1
    outer loop
      vertex -16.9565 -11.2101 150
      vertex -18.1865 -10.5 150
      vertex -16.9565 -19.77 150
    endloop
  endfacet
  facet normal 0 0 1
    outer loop
      vertex 33.0126 -19.77 150
      vertex -18.1865 -21 150
      vertex 72.4386 -21 150
    endloop
  endfacet
  facet normal 0 0 1
    outer loop
      vertex -18.1865 -21 150
      vertex -16.9565 -19.77 150
      vertex -18.1865 -10.5 150
    endloop
  endfacet
  facet normal 0 0 1
    outer loop
      vertex 70.9011 40.9348 150
      vertex 69.6711 38.9946 150
      vertex 70.9011 19.9348 150
    endloop
  endfacet
  facet normal 0 0 1
    outer loop
      vertex 70.9011 40.9348 150
      vertex 68.6059 40.8396 150
      vertex 69.6711 38.9946 150
    endloop
  endfacet
  facet normal 0 0 1
    outer loop
      vertex 55.6248 49.7546 150
      vertex 68.6059 40.8396 150
      vertex 70.9011 40.9348 150
    endloop
  endfacet
  facet normal 0 0 1
    outer loop
      vertex 68.6059 40.8396 150
      vertex 55.6248 49.7546 150
      vertex 53.7798 49.3995 150
    endloop
  endfacet
  facet normal -0 0 1
    outer loop
      vertex 69.6711 21.8749 150
      vertex 70.9011 19.9348 150
      vertex 69.6711 38.9946 150
    endloop
  endfacet
  facet normal -0 0 1
    outer loop
      vertex 68.6059 20.0299 150
      vertex 70.9011 19.9348 150
      vertex 69.6711 21.8749 150
    endloop
  endfacet
  facet normal 0 0 1
    outer loop
      vertex 53.3296 9.78986 150
      vertex 68.6059 20.0299 150
      vertex 53.7798 11.4701 150
    endloop
  endfacet
  facet normal 0 0 1
    outer loop
      vertex 68.6059 20.0299 150
      vertex 53.3296 9.78986 150
      vertex 70.9011 19.9348 150
    endloop
  endfacet
  facet normal 0 0 1
    outer loop
      vertex 52.0996 -8.55986 150
      vertex 53.3296 9.78986 150
      vertex 52.0996 8.55986 150
    endloop
  endfacet
  facet normal -0 0 1
    outer loop
      vertex 51.6494 11.4701 150
      vertex 53.3296 9.78986 150
      vertex 53.7798 11.4701 150
    endloop
  endfacet
  facet normal -0 0 1
    outer loop
      vertex 51.0344 10.4049 150
      vertex 53.3296 9.78986 150
      vertex 51.6494 11.4701 150
    endloop
  endfacet
  facet normal 0 0 1
    outer loop
      vertex 53.3296 9.78986 150
      vertex 51.0344 10.4049 150
      vertex 52.0996 8.55986 150
    endloop
  endfacet
  facet normal 0 0 1
    outer loop
      vertex 36.8233 20.0299 150
      vertex 51.0344 10.4049 150
      vertex 51.6494 11.4701 150
    endloop
  endfacet
  facet normal 0 0 1
    outer loop
      vertex 36.8233 20.0299 150
      vertex 36.2083 18.9647 150
      vertex 51.0344 10.4049 150
    endloop
  endfacet
  facet normal 0 0 1
    outer loop
      vertex 35.7581 21.8749 150
      vertex 36.2083 18.9647 150
      vertex 36.8233 20.0299 150
    endloop
  endfacet
  facet normal 0 0 1
    outer loop
      vertex 35.7581 38.9946 150
      vertex 34.5281 38.9946 150
      vertex 35.7581 21.8749 150
    endloop
  endfacet
  facet normal 0 0 1
    outer loop
      vertex 34.5281 21.8749 150
      vertex 35.7581 21.8749 150
      vertex 34.5281 38.9946 150
    endloop
  endfacet
  facet normal -0 0 1
    outer loop
      vertex 34.5281 21.8749 150
      vertex 36.2083 18.9647 150
      vertex 35.7581 21.8749 150
    endloop
  endfacet
  facet normal 0 0 1
    outer loop
      vertex 34.5281 21.8749 150
      vertex 34.0779 18.9647 150
      vertex 36.2083 18.9647 150
    endloop
  endfacet
  facet normal -0 0 1
    outer loop
      vertex 33.4629 20.0299 150
      vertex 34.0779 18.9647 150
      vertex 34.5281 21.8749 150
    endloop
  endfacet
  facet normal 0 0 1
    outer loop
      vertex 33.4629 20.0299 150
      vertex 19.2517 10.4049 150
      vertex 34.0779 18.9647 150
    endloop
  endfacet
  facet normal -0 0 1
    outer loop
      vertex 18.6367 11.4701 150
      vertex 19.2517 10.4049 150
      vertex 33.4629 20.0299 150
    endloop
  endfacet
  facet normal 0 0 1
    outer loop
      vertex 18.6367 11.4701 150
      vertex 18.1865 8.55986 150
      vertex 19.2517 10.4049 150
    endloop
  endfacet
  facet normal 0 0 1
    outer loop
      vertex 16.9565 -8.55986 150
      vertex 18.1865 8.55986 150
      vertex 16.9565 8.55986 150
    endloop
  endfacet
  facet normal 0 0 1
    outer loop
      vertex 18.6367 11.4701 150
      vertex 16.9565 8.55986 150
      vertex 18.1865 8.55986 150
    endloop
  endfacet
  facet normal -0 0 1
    outer loop
      vertex 16.5063 11.4701 150
      vertex 16.9565 8.55986 150
      vertex 18.6367 11.4701 150
    endloop
  endfacet
  facet normal 0 0 1
    outer loop
      vertex 16.5063 11.4701 150
      vertex 15.8913 10.4049 150
      vertex 16.9565 8.55986 150
    endloop
  endfacet
  facet normal 0 0 1
    outer loop
      vertex 1.68021 20.0299 150
      vertex 15.8913 10.4049 150
      vertex 16.5063 11.4701 150
    endloop
  endfacet
  facet normal 0 0 1
    outer loop
      vertex 1.68021 20.0299 150
      vertex 1.06521 18.9647 150
      vertex 15.8913 10.4049 150
    endloop
  endfacet
  facet normal -0 0 1
    outer loop
      vertex -0.615 20.6449 150
      vertex 1.68021 20.0299 150
      vertex 0.615001 21.8749 150
    endloop
  endfacet
  facet normal 0 0 1
    outer loop
      vertex -0.615 20.6449 150
      vertex 0.615 38.9946 150
      vertex -0.615 40.9348 150
    endloop
  endfacet
  facet normal 0 0 1
    outer loop
      vertex 0.615 38.9946 150
      vertex -0.615 20.6449 150
      vertex 0.615001 21.8749 150
    endloop
  endfacet
  facet normal 0 0 1
    outer loop
      vertex 1.68021 20.0299 150
      vertex -0.615 20.6449 150
      vertex 1.06521 18.9647 150
    endloop
  endfacet
  facet normal 0 0 1
    outer loop
      vertex -0.615 20.6449 150
      vertex -1.06521 18.9647 150
      vertex 1.06521 18.9647 150
    endloop
  endfacet
  facet normal 0 0 1
    outer loop
      vertex -16.9565 11.2101 150
      vertex -1.06521 18.9647 150
      vertex -0.615 20.6449 150
    endloop
  endfacet
  facet normal 0 0 1
    outer loop
      vertex -1.06521 18.9647 150
      vertex -16.9565 11.2101 150
      vertex -15.8913 10.4049 150
    endloop
  endfacet
  facet normal 0 0 1
    outer loop
      vertex -15.8913 10.4049 150
      vertex -16.9565 11.2101 150
      vertex -16.9565 8.55986 150
    endloop
  endfacet
  facet normal 0 0 1
    outer loop
      vertex 53.3296 9.78986 150
      vertex 52.0996 -8.55986 150
      vertex 53.3296 -10.5 150
    endloop
  endfacet
  facet normal -0 0 1
    outer loop
      vertex 51.0344 -10.4049 150
      vertex 53.3296 -10.5 150
      vertex 52.0996 -8.55986 150
    endloop
  endfacet
  facet normal 0 0 1
    outer loop
      vertex 51.0344 -10.4049 150
      vertex 37.2735 -19.77 150
      vertex 53.3296 -10.5 150
    endloop
  endfacet
  facet normal 0 -0 1
    outer loop
      vertex 37.2735 -19.77 150
      vertex 51.0344 -10.4049 150
      vertex 36.2083 -18.9647 150
    endloop
  endfacet
  facet normal 0 0 1
    outer loop
      vertex 49.8044 49.7546 150
      vertex 36.8233 40.8396 150
      vertex 51.6494 49.3995 150
    endloop
  endfacet
  facet normal 0 0 1
    outer loop
      vertex 34.5281 38.9946 150
      vertex 35.7581 38.9946 150
      vertex 35.1431 41.2899 150
    endloop
  endfacet
  facet normal 0 0 1
    outer loop
      vertex 36.8233 40.8396 150
      vertex 35.1431 41.2899 150
      vertex 35.7581 38.9946 150
    endloop
  endfacet
  facet normal -0 0 1
    outer loop
      vertex 35.1431 41.2899 150
      vertex 36.8233 40.8396 150
      vertex 49.8044 49.7546 150
    endloop
  endfacet
  facet normal 0.5 -0.866026 0
    outer loop
      vertex 2.13042 -19.77 1.23
      vertex 17.5715 -10.8551 150
      vertex 2.13042 -19.77 150
    endloop
  endfacet
  facet normal 0.5 -0.866026 0
    outer loop
      vertex 17.5715 -10.8551 150
      vertex 2.13042 -19.77 1.23
      vertex 17.5715 -10.8551 1.23
    endloop
  endfacet
  facet normal -0.500003 -0.866024 0
    outer loop
      vertex -16.9565 -11.2101 1.23
      vertex -2.13042 -19.77 150
      vertex -16.9565 -11.2101 150
    endloop
  endfacet
  facet normal -0.500003 -0.866024 -0
    outer loop
      vertex -2.13042 -19.77 150
      vertex -16.9565 -11.2101 1.23
      vertex -2.13042 -19.77 1.23
    endloop
  endfacet
  facet normal 0 0 1
    outer loop
      vertex -16.9565 -11.2101 1.23
      vertex -16.9565 -19.77 1.23
      vertex -2.13042 -19.77 1.23
    endloop
  endfacet
  facet normal 0 0 1
    outer loop
      vertex 70.9011 19.9348 1.23
      vertex 71.2086 49.7546 1.23
      vertex 70.9011 40.9348 1.23
    endloop
  endfacet
  facet normal 0 -0 1
    outer loop
      vertex 70.9011 40.9348 1.23
      vertex 71.2086 49.7546 1.23
      vertex 55.6248 49.7546 1.23
    endloop
  endfacet
  facet normal 0 0 1
    outer loop
      vertex 71.2086 49.7546 1.23
      vertex 70.9011 19.9348 1.23
      vertex 71.2086 -19.77 1.23
    endloop
  endfacet
  facet normal -0 0 1
    outer loop
      vertex 53.3296 9.78986 1.23
      vertex 71.2086 -19.77 1.23
      vertex 70.9011 19.9348 1.23
    endloop
  endfacet
  facet normal -0 0 1
    outer loop
      vertex 53.3296 -10.5 1.23
      vertex 71.2086 -19.77 1.23
      vertex 53.3296 9.78986 1.23
    endloop
  endfacet
  facet normal 0 0 1
    outer loop
      vertex 71.2086 -19.77 1.23
      vertex 53.3296 -10.5 1.23
      vertex 37.2735 -19.77 1.23
    endloop
  endfacet
  facet normal -0 0 1
    outer loop
      vertex -16.9565 49.7546 1.23
      vertex -0.615 40.9348 1.23
      vertex 14.6613 49.7546 1.23
    endloop
  endfacet
  facet normal 0 0 1
    outer loop
      vertex -16.9565 49.7546 1.23
      vertex -0.615 20.6449 1.23
      vertex -0.615 40.9348 1.23
    endloop
  endfacet
  facet normal 0 0 1
    outer loop
      vertex -0.615 20.6449 1.23
      vertex -16.9565 49.7546 1.23
      vertex -16.9565 11.2101 1.23
    endloop
  endfacet
  facet normal 0 0 1
    outer loop
      vertex 15.8913 10.4049 1.23
      vertex 16.9565 -8.55986 1.23
      vertex 16.9565 8.55986 1.23
    endloop
  endfacet
  facet normal 0 0 1
    outer loop
      vertex 15.8913 10.4049 1.23
      vertex 15.8913 -10.4049 1.23
      vertex 16.9565 -8.55986 1.23
    endloop
  endfacet
  facet normal 0 0 1
    outer loop
      vertex 15.8913 10.4049 1.23
      vertex 1.06521 -18.9647 1.23
      vertex 15.8913 -10.4049 1.23
    endloop
  endfacet
  facet normal 0 0 1
    outer loop
      vertex 1.06521 18.9647 1.23
      vertex 1.06521 -18.9647 1.23
      vertex 15.8913 10.4049 1.23
    endloop
  endfacet
  facet normal 0 0 1
    outer loop
      vertex 1.06521 18.9647 1.23
      vertex -1.06521 -18.9647 1.23
      vertex 1.06521 -18.9647 1.23
    endloop
  endfacet
  facet normal -0 0 1
    outer loop
      vertex -1.06521 18.9647 1.23
      vertex -1.06521 -18.9647 1.23
      vertex 1.06521 18.9647 1.23
    endloop
  endfacet
  facet normal -0 0 1
    outer loop
      vertex -15.8913 10.4049 1.23
      vertex -1.06521 -18.9647 1.23
      vertex -1.06521 18.9647 1.23
    endloop
  endfacet
  facet normal 0 0 1
    outer loop
      vertex -15.8913 10.4049 1.23
      vertex -15.8913 -10.4049 1.23
      vertex -1.06521 -18.9647 1.23
    endloop
  endfacet
  facet normal -0 0 1
    outer loop
      vertex -16.9565 8.55986 1.23
      vertex -15.8913 -10.4049 1.23
      vertex -15.8913 10.4049 1.23
    endloop
  endfacet
  facet normal 0 0 1
    outer loop
      vertex -15.8913 -10.4049 1.23
      vertex -16.9565 8.55986 1.23
      vertex -16.9565 -8.55986 1.23
    endloop
  endfacet
  facet normal 0 0 1
    outer loop
      vertex 33.4629 40.8396 1.23
      vertex 34.5281 21.8749 1.23
      vertex 34.5281 38.9946 1.23
    endloop
  endfacet
  facet normal 0 0 1
    outer loop
      vertex 33.4629 40.8396 1.23
      vertex 33.4629 20.0299 1.23
      vertex 34.5281 21.8749 1.23
    endloop
  endfacet
  facet normal 0 0 1
    outer loop
      vertex 18.6367 49.3995 1.23
      vertex 33.4629 20.0299 1.23
      vertex 33.4629 40.8396 1.23
    endloop
  endfacet
  facet normal 0 0 1
    outer loop
      vertex 18.6367 49.3995 1.23
      vertex 18.6367 11.4701 1.23
      vertex 33.4629 20.0299 1.23
    endloop
  endfacet
  facet normal -0 0 1
    outer loop
      vertex 16.5063 49.3995 1.23
      vertex 18.6367 11.4701 1.23
      vertex 18.6367 49.3995 1.23
    endloop
  endfacet
  facet normal 0 0 1
    outer loop
      vertex 16.5063 49.3995 1.23
      vertex 16.5063 11.4701 1.23
      vertex 18.6367 11.4701 1.23
    endloop
  endfacet
  facet normal -0 0 1
    outer loop
      vertex 1.68021 40.8396 1.23
      vertex 16.5063 11.4701 1.23
      vertex 16.5063 49.3995 1.23
    endloop
  endfacet
  facet normal 0 0 1
    outer loop
      vertex 1.68021 40.8396 1.23
      vertex 1.68021 20.0299 1.23
      vertex 16.5063 11.4701 1.23
    endloop
  endfacet
  facet normal 0 0 1
    outer loop
      vertex 1.68021 40.8396 1.23
      vertex 0.615001 21.8749 1.23
      vertex 1.68021 20.0299 1.23
    endloop
  endfacet
  facet normal 0 -0 1
    outer loop
      vertex 0.615001 21.8749 1.23
      vertex 1.68021 40.8396 1.23
      vertex 0.615 38.9946 1.23
    endloop
  endfacet
  facet normal 0 0 1
    outer loop
      vertex 51.0344 10.4049 1.23
      vertex 52.0996 -8.55986 1.23
      vertex 52.0996 8.55986 1.23
    endloop
  endfacet
  facet normal 0 0 1
    outer loop
      vertex 51.0344 10.4049 1.23
      vertex 51.0344 -10.4049 1.23
      vertex 52.0996 -8.55986 1.23
    endloop
  endfacet
  facet normal 0 0 1
    outer loop
      vertex 36.2083 18.9647 1.23
      vertex 51.0344 -10.4049 1.23
      vertex 51.0344 10.4049 1.23
    endloop
  endfacet
  facet normal 0 0 1
    outer loop
      vertex 36.2083 18.9647 1.23
      vertex 36.2083 -18.9647 1.23
      vertex 51.0344 -10.4049 1.23
    endloop
  endfacet
  facet normal -0 0 1
    outer loop
      vertex 34.0779 18.9647 1.23
      vertex 36.2083 -18.9647 1.23
      vertex 36.2083 18.9647 1.23
    endloop
  endfacet
  facet normal 0 0 1
    outer loop
      vertex 34.0779 18.9647 1.23
      vertex 34.0779 -18.9647 1.23
      vertex 36.2083 -18.9647 1.23
    endloop
  endfacet
  facet normal -0 0 1
    outer loop
      vertex 19.2517 10.4049 1.23
      vertex 34.0779 -18.9647 1.23
      vertex 34.0779 18.9647 1.23
    endloop
  endfacet
  facet normal 0 0 1
    outer loop
      vertex 19.2517 10.4049 1.23
      vertex 19.2517 -10.4049 1.23
      vertex 34.0779 -18.9647 1.23
    endloop
  endfacet
  facet normal 0 0 1
    outer loop
      vertex 19.2517 10.4049 1.23
      vertex 18.1865 -8.55986 1.23
      vertex 19.2517 -10.4049 1.23
    endloop
  endfacet
  facet normal 0 0 1
    outer loop
      vertex 18.1865 -8.55986 1.23
      vertex 19.2517 10.4049 1.23
      vertex 18.1865 8.55986 1.23
    endloop
  endfacet
  facet normal 0 0 1
    outer loop
      vertex 68.6059 40.8396 1.23
      vertex 69.6711 21.8749 1.23
      vertex 69.6711 38.9946 1.23
    endloop
  endfacet
  facet normal 0 0 1
    outer loop
      vertex 68.6059 40.8396 1.23
      vertex 68.6059 20.0299 1.23
      vertex 69.6711 21.8749 1.23
    endloop
  endfacet
  facet normal 0 0 1
    outer loop
      vertex 53.7798 49.3995 1.23
      vertex 68.6059 20.0299 1.23
      vertex 68.6059 40.8396 1.23
    endloop
  endfacet
  facet normal 0 0 1
    outer loop
      vertex 53.7798 49.3995 1.23
      vertex 53.7798 11.4701 1.23
      vertex 68.6059 20.0299 1.23
    endloop
  endfacet
  facet normal -0 0 1
    outer loop
      vertex 51.6494 49.3995 1.23
      vertex 53.7798 11.4701 1.23
      vertex 53.7798 49.3995 1.23
    endloop
  endfacet
  facet normal 0 0 1
    outer loop
      vertex 51.6494 49.3995 1.23
      vertex 51.6494 11.4701 1.23
      vertex 53.7798 11.4701 1.23
    endloop
  endfacet
  facet normal -0 0 1
    outer loop
      vertex 36.8233 40.8396 1.23
      vertex 51.6494 11.4701 1.23
      vertex 51.6494 49.3995 1.23
    endloop
  endfacet
  facet normal 0 0 1
    outer loop
      vertex 36.8233 40.8396 1.23
      vertex 36.8233 20.0299 1.23
      vertex 51.6494 11.4701 1.23
    endloop
  endfacet
  facet normal -0 0 1
    outer loop
      vertex 35.7581 38.9946 1.23
      vertex 36.8233 20.0299 1.23
      vertex 36.8233 40.8396 1.23
    endloop
  endfacet
  facet normal 0 0 1
    outer loop
      vertex 36.8233 20.0299 1.23
      vertex 35.7581 38.9946 1.23
      vertex 35.7581 21.8749 1.23
    endloop
  endfacet
  facet normal 0 0 1
    outer loop
      vertex 17.5715 -10.8551 1.23
      vertex 2.13042 -19.77 1.23
      vertex 33.0126 -19.77 1.23
    endloop
  endfacet
  facet normal 0 0 1
    outer loop
      vertex 49.8044 49.7546 1.23
      vertex 20.4817 49.7546 1.23
      vertex 35.1431 41.2899 1.23
    endloop
  endfacet
  facet normal 0.866026 -0.5 0
    outer loop
      vertex 0.615 38.9946 150
      vertex 1.68021 40.8396 1.23
      vertex 1.68021 40.8396 150
    endloop
  endfacet
  facet normal 0.866026 -0.5 0
    outer loop
      vertex 1.68021 40.8396 1.23
      vertex 0.615 38.9946 150
      vertex 0.615 38.9946 1.23
    endloop
  endfacet
  facet normal 0.866026 0.499999 0
    outer loop
      vertex 1.68021 20.0299 150
      vertex 0.615001 21.8749 1.23
      vertex 0.615001 21.8749 150
    endloop
  endfacet
  facet normal 0.866026 0.499999 0
    outer loop
      vertex 0.615001 21.8749 1.23
      vertex 1.68021 20.0299 150
      vertex 1.68021 20.0299 1.23
    endloop
  endfacet
  facet normal 0 1 -0
    outer loop
      vertex 18.6367 11.4701 1.23
      vertex 16.5063 11.4701 150
      vertex 18.6367 11.4701 150
    endloop
  endfacet
  facet normal 0 1 0
    outer loop
      vertex 16.5063 11.4701 150
      vertex 18.6367 11.4701 1.23
      vertex 16.5063 11.4701 1.23
    endloop
  endfacet
  facet normal -0.866028 0.499996 0
    outer loop
      vertex 33.4629 20.0299 1.23
      vertex 34.5281 21.8749 150
      vertex 34.5281 21.8749 1.23
    endloop
  endfacet
  facet normal -0.866028 0.499996 0
    outer loop
      vertex 34.5281 21.8749 150
      vertex 33.4629 20.0299 1.23
      vertex 33.4629 20.0299 150
    endloop
  endfacet
  facet normal -0.866028 -0.499996 0
    outer loop
      vertex 34.5281 38.9946 1.23
      vertex 33.4629 40.8396 150
      vertex 33.4629 40.8396 1.23
    endloop
  endfacet
  facet normal -0.866028 -0.499996 0
    outer loop
      vertex 33.4629 40.8396 150
      vertex 34.5281 38.9946 1.23
      vertex 34.5281 38.9946 150
    endloop
  endfacet
  facet normal 0 -1 0
    outer loop
      vertex 16.5063 49.3995 1.23
      vertex 18.6367 49.3995 150
      vertex 16.5063 49.3995 150
    endloop
  endfacet
  facet normal 0 -1 -0
    outer loop
      vertex 18.6367 49.3995 150
      vertex 16.5063 49.3995 1.23
      vertex 18.6367 49.3995 1.23
    endloop
  endfacet
  facet normal -0.5 -0.866026 0
    outer loop
      vertex 18.6367 49.3995 1.23
      vertex 33.4629 40.8396 150
      vertex 18.6367 49.3995 150
    endloop
  endfacet
  facet normal -0.5 -0.866026 -0
    outer loop
      vertex 33.4629 40.8396 150
      vertex 18.6367 49.3995 1.23
      vertex 33.4629 40.8396 1.23
    endloop
  endfacet
  facet normal 1 5.84122e-08 0
    outer loop
      vertex 0.615001 21.8749 150
      vertex 0.615 38.9946 1.23
      vertex 0.615 38.9946 150
    endloop
  endfacet
  facet normal 1 5.84122e-08 0
    outer loop
      vertex 0.615 38.9946 1.23
      vertex 0.615001 21.8749 150
      vertex 0.615001 21.8749 1.23
    endloop
  endfacet
  facet normal 0.500002 -0.866024 0
    outer loop
      vertex 1.68021 40.8396 1.23
      vertex 16.5063 49.3995 150
      vertex 1.68021 40.8396 150
    endloop
  endfacet
  facet normal 0.500002 -0.866024 0
    outer loop
      vertex 16.5063 49.3995 150
      vertex 1.68021 40.8396 1.23
      vertex 16.5063 49.3995 1.23
    endloop
  endfacet
  facet normal -1 0 0
    outer loop
      vertex 34.5281 21.8749 1.23
      vertex 34.5281 38.9946 150
      vertex 34.5281 38.9946 1.23
    endloop
  endfacet
  facet normal -1 -0 0
    outer loop
      vertex 34.5281 38.9946 150
      vertex 34.5281 21.8749 1.23
      vertex 34.5281 21.8749 150
    endloop
  endfacet
  facet normal -0.499995 0.866028 0
    outer loop
      vertex 33.4629 20.0299 1.23
      vertex 18.6367 11.4701 150
      vertex 33.4629 20.0299 150
    endloop
  endfacet
  facet normal -0.499995 0.866028 0
    outer loop
      vertex 18.6367 11.4701 150
      vertex 33.4629 20.0299 1.23
      vertex 18.6367 11.4701 1.23
    endloop
  endfacet
  facet normal 0.499998 0.866027 -0
    outer loop
      vertex 16.5063 11.4701 1.23
      vertex 1.68021 20.0299 150
      vertex 16.5063 11.4701 150
    endloop
  endfacet
  facet normal 0.499998 0.866027 0
    outer loop
      vertex 1.68021 20.0299 150
      vertex 16.5063 11.4701 1.23
      vertex 1.68021 20.0299 1.23
    endloop
  endfacet
  facet normal 0.499985 0.866034 -0
    outer loop
      vertex 18.3513 50.9846 0
      vertex 17.5715 51.4348 150
      vertex 18.3513 50.9846 150
    endloop
  endfacet
  facet normal 0.499985 0.866034 0
    outer loop
      vertex 17.5715 51.4348 150
      vertex 18.3513 50.9846 0
      vertex 17.5715 51.4348 0
    endloop
  endfacet
  facet normal 0.499997 0.866027 -0
    outer loop
      vertex 35.1431 41.2899 1.23
      vertex 20.4817 49.7546 150
      vertex 35.1431 41.2899 150
    endloop
  endfacet
  facet normal 0.499997 0.866027 0
    outer loop
      vertex 20.4817 49.7546 150
      vertex 35.1431 41.2899 1.23
      vertex 20.4817 49.7546 1.23
    endloop
  endfacet
  facet normal -1 0 0
    outer loop
      vertex -0.615 20.6449 1.23
      vertex -0.615 40.9348 150
      vertex -0.615 40.9348 1.23
    endloop
  endfacet
  facet normal -1 -0 0
    outer loop
      vertex -0.615 40.9348 150
      vertex -0.615 20.6449 1.23
      vertex -0.615 20.6449 150
    endloop
  endfacet
  facet normal -0.499985 0.866034 0
    outer loop
      vertex 17.5715 51.4348 0
      vertex 16.7917 50.9846 150
      vertex 17.5715 51.4348 150
    endloop
  endfacet
  facet normal -0.499985 0.866034 0
    outer loop
      vertex 16.7917 50.9846 150
      vertex 17.5715 51.4348 0
      vertex 16.7917 50.9846 0
    endloop
  endfacet
  facet normal -0.500001 0.866025 0
    outer loop
      vertex 14.6613 49.7546 1.23
      vertex -0.615 40.9348 150
      vertex 14.6613 49.7546 150
    endloop
  endfacet
  facet normal -0.500001 0.866025 0
    outer loop
      vertex -0.615 40.9348 150
      vertex 14.6613 49.7546 1.23
      vertex -0.615 40.9348 1.23
    endloop
  endfacet
  facet normal 0.866032 -0.499988 0
    outer loop
      vertex 18.1865 8.55986 150
      vertex 19.2517 10.4049 1.23
      vertex 19.2517 10.4049 150
    endloop
  endfacet
  facet normal 0.866032 -0.499988 0
    outer loop
      vertex 19.2517 10.4049 1.23
      vertex 18.1865 8.55986 150
      vertex 18.1865 8.55986 1.23
    endloop
  endfacet
  facet normal 0.866032 0.499988 0
    outer loop
      vertex 19.2517 -10.4049 150
      vertex 18.1865 -8.55986 1.23
      vertex 18.1865 -8.55986 150
    endloop
  endfacet
  facet normal 0.866032 0.499988 0
    outer loop
      vertex 18.1865 -8.55986 1.23
      vertex 19.2517 -10.4049 150
      vertex 19.2517 -10.4049 1.23
    endloop
  endfacet
  facet normal 0 1 -0
    outer loop
      vertex 36.2083 -18.9647 1.23
      vertex 34.0779 -18.9647 150
      vertex 36.2083 -18.9647 150
    endloop
  endfacet
  facet normal 0 1 0
    outer loop
      vertex 34.0779 -18.9647 150
      vertex 36.2083 -18.9647 1.23
      vertex 34.0779 -18.9647 1.23
    endloop
  endfacet
  facet normal -0.866032 0.499988 0
    outer loop
      vertex 51.0344 -10.4049 1.23
      vertex 52.0996 -8.55986 150
      vertex 52.0996 -8.55986 1.23
    endloop
  endfacet
  facet normal -0.866032 0.499988 0
    outer loop
      vertex 52.0996 -8.55986 150
      vertex 51.0344 -10.4049 1.23
      vertex 51.0344 -10.4049 150
    endloop
  endfacet
  facet normal -0.866032 -0.499988 0
    outer loop
      vertex 52.0996 8.55986 1.23
      vertex 51.0344 10.4049 150
      vertex 51.0344 10.4049 1.23
    endloop
  endfacet
  facet normal -0.866032 -0.499988 0
    outer loop
      vertex 51.0344 10.4049 150
      vertex 52.0996 8.55986 1.23
      vertex 52.0996 8.55986 150
    endloop
  endfacet
  facet normal 0 -1 0
    outer loop
      vertex 34.0779 18.9647 1.23
      vertex 36.2083 18.9647 150
      vertex 34.0779 18.9647 150
    endloop
  endfacet
  facet normal 0 -1 -0
    outer loop
      vertex 36.2083 18.9647 150
      vertex 34.0779 18.9647 1.23
      vertex 36.2083 18.9647 1.23
    endloop
  endfacet
  facet normal -0.499998 -0.866027 0
    outer loop
      vertex 36.2083 18.9647 1.23
      vertex 51.0344 10.4049 150
      vertex 36.2083 18.9647 150
    endloop
  endfacet
  facet normal -0.499998 -0.866027 -0
    outer loop
      vertex 51.0344 10.4049 150
      vertex 36.2083 18.9647 1.23
      vertex 51.0344 10.4049 1.23
    endloop
  endfacet
  facet normal 1 -0 0
    outer loop
      vertex 18.1865 -8.55986 150
      vertex 18.1865 8.55986 1.23
      vertex 18.1865 8.55986 150
    endloop
  endfacet
  facet normal 1 0 0
    outer loop
      vertex 18.1865 8.55986 1.23
      vertex 18.1865 -8.55986 150
      vertex 18.1865 -8.55986 1.23
    endloop
  endfacet
  facet normal 0.499995 -0.866028 0
    outer loop
      vertex 19.2517 10.4049 1.23
      vertex 34.0779 18.9647 150
      vertex 19.2517 10.4049 150
    endloop
  endfacet
  facet normal 0.499995 -0.866028 0
    outer loop
      vertex 34.0779 18.9647 150
      vertex 19.2517 10.4049 1.23
      vertex 34.0779 18.9647 1.23
    endloop
  endfacet
  facet normal -1 0 0
    outer loop
      vertex 52.0996 -8.55986 1.23
      vertex 52.0996 8.55986 150
      vertex 52.0996 8.55986 1.23
    endloop
  endfacet
  facet normal -1 -0 0
    outer loop
      vertex 52.0996 8.55986 150
      vertex 52.0996 -8.55986 1.23
      vertex 52.0996 -8.55986 150
    endloop
  endfacet
  facet normal -0.499998 0.866027 0
    outer loop
      vertex 51.0344 -10.4049 1.23
      vertex 36.2083 -18.9647 150
      vertex 51.0344 -10.4049 150
    endloop
  endfacet
  facet normal -0.499998 0.866027 0
    outer loop
      vertex 36.2083 -18.9647 150
      vertex 51.0344 -10.4049 1.23
      vertex 36.2083 -18.9647 1.23
    endloop
  endfacet
  facet normal 0.499995 0.866028 -0
    outer loop
      vertex 34.0779 -18.9647 1.23
      vertex 19.2517 -10.4049 150
      vertex 34.0779 -18.9647 150
    endloop
  endfacet
  facet normal 0.499995 0.866028 0
    outer loop
      vertex 19.2517 -10.4049 150
      vertex 34.0779 -18.9647 1.23
      vertex 19.2517 -10.4049 1.23
    endloop
  endfacet
  facet normal 0.5 -0.866025 0
    outer loop
      vertex 37.2735 -19.77 1.23
      vertex 53.3296 -10.5 150
      vertex 37.2735 -19.77 150
    endloop
  endfacet
  facet normal 0.5 -0.866025 0
    outer loop
      vertex 53.3296 -10.5 150
      vertex 37.2735 -19.77 1.23
      vertex 53.3296 -10.5 1.23
    endloop
  endfacet
  facet normal -0.499999 -0.866026 0
    outer loop
      vertex 17.5715 -10.8551 1.23
      vertex 33.0126 -19.77 150
      vertex 17.5715 -10.8551 150
    endloop
  endfacet
  facet normal -0.499999 -0.866026 -0
    outer loop
      vertex 33.0126 -19.77 150
      vertex 17.5715 -10.8551 1.23
      vertex 33.0126 -19.77 1.23
    endloop
  endfacet
  facet normal 1 -0 0
    outer loop
      vertex 53.3296 -10.5 150
      vertex 53.3296 9.78986 1.23
      vertex 53.3296 9.78986 150
    endloop
  endfacet
  facet normal 1 0 0
    outer loop
      vertex 53.3296 9.78986 1.23
      vertex 53.3296 -10.5 150
      vertex 53.3296 -10.5 1.23
    endloop
  endfacet
  facet normal 0.866028 -0.499996 0
    outer loop
      vertex 35.7581 38.9946 150
      vertex 36.8233 40.8396 1.23
      vertex 36.8233 40.8396 150
    endloop
  endfacet
  facet normal 0.866028 -0.499996 0
    outer loop
      vertex 36.8233 40.8396 1.23
      vertex 35.7581 38.9946 150
      vertex 35.7581 38.9946 1.23
    endloop
  endfacet
  facet normal 0.866028 0.499996 0
    outer loop
      vertex 36.8233 20.0299 150
      vertex 35.7581 21.8749 1.23
      vertex 35.7581 21.8749 150
    endloop
  endfacet
  facet normal 0.866028 0.499996 0
    outer loop
      vertex 35.7581 21.8749 1.23
      vertex 36.8233 20.0299 150
      vertex 36.8233 20.0299 1.23
    endloop
  endfacet
  facet normal 0 1 -0
    outer loop
      vertex 53.7798 11.4701 1.23
      vertex 51.6494 11.4701 150
      vertex 53.7798 11.4701 150
    endloop
  endfacet
  facet normal 0 1 0
    outer loop
      vertex 51.6494 11.4701 150
      vertex 53.7798 11.4701 1.23
      vertex 51.6494 11.4701 1.23
    endloop
  endfacet
  facet normal -0.866028 0.499996 0
    outer loop
      vertex 68.6059 20.0299 1.23
      vertex 69.6711 21.8749 150
      vertex 69.6711 21.8749 1.23
    endloop
  endfacet
  facet normal -0.866028 0.499996 0
    outer loop
      vertex 69.6711 21.8749 150
      vertex 68.6059 20.0299 1.23
      vertex 68.6059 20.0299 150
    endloop
  endfacet
  facet normal -0.866028 -0.499996 0
    outer loop
      vertex 69.6711 38.9946 1.23
      vertex 68.6059 40.8396 150
      vertex 68.6059 40.8396 1.23
    endloop
  endfacet
  facet normal -0.866028 -0.499996 0
    outer loop
      vertex 68.6059 40.8396 150
      vertex 69.6711 38.9946 1.23
      vertex 69.6711 38.9946 150
    endloop
  endfacet
  facet normal 0 -1 0
    outer loop
      vertex 51.6494 49.3995 1.23
      vertex 53.7798 49.3995 150
      vertex 51.6494 49.3995 150
    endloop
  endfacet
  facet normal 0 -1 -0
    outer loop
      vertex 53.7798 49.3995 150
      vertex 51.6494 49.3995 1.23
      vertex 53.7798 49.3995 1.23
    endloop
  endfacet
  facet normal -0.500002 -0.866024 0
    outer loop
      vertex 53.7798 49.3995 1.23
      vertex 68.6059 40.8396 150
      vertex 53.7798 49.3995 150
    endloop
  endfacet
  facet normal -0.500002 -0.866024 -0
    outer loop
      vertex 68.6059 40.8396 150
      vertex 53.7798 49.3995 1.23
      vertex 68.6059 40.8396 1.23
    endloop
  endfacet
  facet normal 1 -0 0
    outer loop
      vertex 35.7581 21.8749 150
      vertex 35.7581 38.9946 1.23
      vertex 35.7581 38.9946 150
    endloop
  endfacet
  facet normal 1 0 0
    outer loop
      vertex 35.7581 38.9946 1.23
      vertex 35.7581 21.8749 150
      vertex 35.7581 21.8749 1.23
    endloop
  endfacet
  facet normal 0.500002 -0.866024 0
    outer loop
      vertex 36.8233 40.8396 1.23
      vertex 51.6494 49.3995 150
      vertex 36.8233 40.8396 150
    endloop
  endfacet
  facet normal 0.500002 -0.866024 0
    outer loop
      vertex 51.6494 49.3995 150
      vertex 36.8233 40.8396 1.23
      vertex 51.6494 49.3995 1.23
    endloop
  endfacet
  facet normal -1 0 0
    outer loop
      vertex 69.6711 21.8749 1.23
      vertex 69.6711 38.9946 150
      vertex 69.6711 38.9946 1.23
    endloop
  endfacet
  facet normal -1 -0 0
    outer loop
      vertex 69.6711 38.9946 150
      vertex 69.6711 21.8749 1.23
      vertex 69.6711 21.8749 150
    endloop
  endfacet
  facet normal -0.499998 0.866027 0
    outer loop
      vertex 68.6059 20.0299 1.23
      vertex 53.7798 11.4701 150
      vertex 68.6059 20.0299 150
    endloop
  endfacet
  facet normal -0.499998 0.866027 0
    outer loop
      vertex 53.7798 11.4701 150
      vertex 68.6059 20.0299 1.23
      vertex 53.7798 11.4701 1.23
    endloop
  endfacet
  facet normal 0.499998 0.866027 -0
    outer loop
      vertex 51.6494 11.4701 1.23
      vertex 36.8233 20.0299 150
      vertex 51.6494 11.4701 150
    endloop
  endfacet
  facet normal 0.499998 0.866027 0
    outer loop
      vertex 36.8233 20.0299 150
      vertex 51.6494 11.4701 1.23
      vertex 36.8233 20.0299 1.23
    endloop
  endfacet
  facet normal 0.499985 0.866034 -0
    outer loop
      vertex 53.4944 50.9846 0
      vertex 52.7146 51.4348 150
      vertex 53.4944 50.9846 150
    endloop
  endfacet
  facet normal 0.499985 0.866034 0
    outer loop
      vertex 52.7146 51.4348 150
      vertex 53.4944 50.9846 0
      vertex 52.7146 51.4348 0
    endloop
  endfacet
  facet normal 0.500001 0.866025 -0
    outer loop
      vertex 70.9011 40.9348 1.23
      vertex 55.6248 49.7546 150
      vertex 70.9011 40.9348 150
    endloop
  endfacet
  facet normal 0.500001 0.866025 0
    outer loop
      vertex 55.6248 49.7546 150
      vertex 70.9011 40.9348 1.23
      vertex 55.6248 49.7546 1.23
    endloop
  endfacet
  facet normal -0.499985 0.866034 0
    outer loop
      vertex 52.7146 51.4348 0
      vertex 51.9348 50.9846 150
      vertex 52.7146 51.4348 150
    endloop
  endfacet
  facet normal -0.499985 0.866034 0
    outer loop
      vertex 51.9348 50.9846 150
      vertex 52.7146 51.4348 0
      vertex 51.9348 50.9846 0
    endloop
  endfacet
  facet normal -0.5 0.866026 0
    outer loop
      vertex 49.8044 49.7546 1.23
      vertex 35.1431 41.2899 150
      vertex 49.8044 49.7546 150
    endloop
  endfacet
  facet normal -0.5 0.866026 0
    outer loop
      vertex 35.1431 41.2899 150
      vertex 49.8044 49.7546 1.23
      vertex 35.1431 41.2899 1.23
    endloop
  endfacet
  facet normal 0.500001 -0.866025 0
    outer loop
      vertex 53.3296 9.78986 1.23
      vertex 70.9011 19.9348 150
      vertex 53.3296 9.78986 150
    endloop
  endfacet
  facet normal 0.500001 -0.866025 0
    outer loop
      vertex 70.9011 19.9348 150
      vertex 53.3296 9.78986 1.23
      vertex 70.9011 19.9348 1.23
    endloop
  endfacet
  facet normal 1 -0 0
    outer loop
      vertex 70.9011 19.9348 150
      vertex 70.9011 40.9348 1.23
      vertex 70.9011 40.9348 150
    endloop
  endfacet
  facet normal 1 0 0
    outer loop
      vertex 70.9011 40.9348 1.23
      vertex 70.9011 19.9348 150
      vertex 70.9011 19.9348 1.23
    endloop
  endfacet
  facet normal -1 0 0
    outer loop
      vertex -18.1865 -21 0
      vertex -18.1865 -10.5 150
      vertex -18.1865 -10.5 0
    endloop
  endfacet
  facet normal -1 -0 0
    outer loop
      vertex -18.1865 -10.5 150
      vertex -18.1865 -21 0
      vertex -18.1865 -21 150
    endloop
  endfacet
  facet normal -1 0 0
    outer loop
      vertex -18.1865 -10.5 0
      vertex -18.1865 50.9846 150
      vertex -18.1865 50.9846 0
    endloop
  endfacet
  facet normal -1 -0 0
    outer loop
      vertex -18.1865 50.9846 150
      vertex -18.1865 -10.5 0
      vertex -18.1865 -10.5 150
    endloop
  endfacet
  facet normal 1 -0 0
    outer loop
      vertex 72.4386 -21 150
      vertex 72.4386 50.9846 0
      vertex 72.4386 50.9846 150
    endloop
  endfacet
  facet normal 1 0 0
    outer loop
      vertex 72.4386 50.9846 0
      vertex 72.4386 -21 150
      vertex 72.4386 -21 0
    endloop
  endfacet
  facet normal 0 1 -0
    outer loop
      vertex 72.4386 50.9846 0
      vertex 53.4944 50.9846 150
      vertex 72.4386 50.9846 150
    endloop
  endfacet
  facet normal 0 1 0
    outer loop
      vertex 53.4944 50.9846 150
      vertex 72.4386 50.9846 0
      vertex 53.4944 50.9846 0
    endloop
  endfacet
  facet normal 0 1 -0
    outer loop
      vertex 16.7917 50.9846 0
      vertex -18.1865 50.9846 150
      vertex 16.7917 50.9846 150
    endloop
  endfacet
  facet normal 0 1 0
    outer loop
      vertex -18.1865 50.9846 150
      vertex 16.7917 50.9846 0
      vertex -18.1865 50.9846 0
    endloop
  endfacet
  facet normal 0 1 -0
    outer loop
      vertex 51.9348 50.9846 0
      vertex 18.3513 50.9846 150
      vertex 51.9348 50.9846 150
    endloop
  endfacet
  facet normal 0 1 0
    outer loop
      vertex 18.3513 50.9846 150
      vertex 51.9348 50.9846 0
      vertex 18.3513 50.9846 0
    endloop
  endfacet
  facet normal 0 -1 0
    outer loop
      vertex -18.1865 -21 0
      vertex 72.4386 -21 150
      vertex -18.1865 -21 150
    endloop
  endfacet
  facet normal 0 -1 -0
    outer loop
      vertex 72.4386 -21 150
      vertex -18.1865 -21 0
      vertex 72.4386 -21 0
    endloop
  endfacet
  facet normal 1 -0 0
    outer loop
      vertex -16.9565 -19.77 150
      vertex -16.9565 -11.2101 1.23
      vertex -16.9565 -11.2101 150
    endloop
  endfacet
  facet normal 1 0 0
    outer loop
      vertex -16.9565 -11.2101 1.23
      vertex -16.9565 -19.77 150
      vertex -16.9565 -19.77 1.23
    endloop
  endfacet
  facet normal 1 -0 0
    outer loop
      vertex -16.9565 11.2101 150
      vertex -16.9565 49.7546 1.23
      vertex -16.9565 49.7546 150
    endloop
  endfacet
  facet normal 1 0 0
    outer loop
      vertex -16.9565 49.7546 1.23
      vertex -16.9565 11.2101 150
      vertex -16.9565 11.2101 1.23
    endloop
  endfacet
  facet normal -1 0 0
    outer loop
      vertex 71.2086 -19.77 1.23
      vertex 71.2086 49.7546 150
      vertex 71.2086 49.7546 1.23
    endloop
  endfacet
  facet normal -1 -0 0
    outer loop
      vertex 71.2086 49.7546 150
      vertex 71.2086 -19.77 1.23
      vertex 71.2086 -19.77 150
    endloop
  endfacet
  facet normal 0 -1 0
    outer loop
      vertex 55.6248 49.7546 1.23
      vertex 71.2086 49.7546 150
      vertex 55.6248 49.7546 150
    endloop
  endfacet
  facet normal 0 -1 -0
    outer loop
      vertex 71.2086 49.7546 150
      vertex 55.6248 49.7546 1.23
      vertex 71.2086 49.7546 1.23
    endloop
  endfacet
  facet normal 0 -1 0
    outer loop
      vertex -16.9565 49.7546 1.23
      vertex 14.6613 49.7546 150
      vertex -16.9565 49.7546 150
    endloop
  endfacet
  facet normal 0 -1 -0
    outer loop
      vertex 14.6613 49.7546 150
      vertex -16.9565 49.7546 1.23
      vertex 14.6613 49.7546 1.23
    endloop
  endfacet
  facet normal 0 -1 0
    outer loop
      vertex 20.4817 49.7546 1.23
      vertex 49.8044 49.7546 150
      vertex 20.4817 49.7546 150
    endloop
  endfacet
  facet normal 0 -1 -0
    outer loop
      vertex 49.8044 49.7546 150
      vertex 20.4817 49.7546 1.23
      vertex 49.8044 49.7546 1.23
    endloop
  endfacet
  facet normal 0 1 -0
    outer loop
      vertex -2.13042 -19.77 1.23
      vertex -16.9565 -19.77 150
      vertex -2.13042 -19.77 150
    endloop
  endfacet
  facet normal 0 1 0
    outer loop
      vertex -16.9565 -19.77 150
      vertex -2.13042 -19.77 1.23
      vertex -16.9565 -19.77 1.23
    endloop
  endfacet
  facet normal 0 1 -0
    outer loop
      vertex 71.2086 -19.77 1.23
      vertex 37.2735 -19.77 150
      vertex 71.2086 -19.77 150
    endloop
  endfacet
  facet normal 0 1 0
    outer loop
      vertex 37.2735 -19.77 150
      vertex 71.2086 -19.77 1.23
      vertex 37.2735 -19.77 1.23
    endloop
  endfacet
  facet normal 0 1 -0
    outer loop
      vertex 33.0126 -19.77 1.23
      vertex 2.13042 -19.77 150
      vertex 33.0126 -19.77 150
    endloop
  endfacet
  facet normal 0 1 0
    outer loop
      vertex 2.13042 -19.77 150
      vertex 33.0126 -19.77 1.23
      vertex 2.13042 -19.77 1.23
    endloop
  endfacet
endsolid OpenSCAD_Model
